<?xml version="1.0" encoding="UTF-8" standalone="no"?>
<!DOCTYPE svg PUBLIC "-//W3C//DTD SVG 1.1//EN"
 "http://www.w3.org/Graphics/SVG/1.1/DTD/svg11.dtd">
<!-- Generated by graphviz version 8.1.0 (20230707.0739)
 -->
<!-- Pages: 1 -->
<svg width="2450pt" height="991pt"
 viewBox="0.00 0.00 2450.00 990.70" xmlns="http://www.w3.org/2000/svg" xmlns:xlink="http://www.w3.org/1999/xlink">
<g id="graph0" class="graph" transform="scale(1 1) rotate(0) translate(144 846.7)">
<polygon fill="white" stroke="none" points="-144,144 -144,-846.7 2306,-846.7 2306,144 -144,144"/>
<g id="clust1" class="cluster">
<title>cluster_Namespace: default</title>
<g id="a_clust1"><a xlink:title="Namespace: default">
<path fill="white" stroke="black" stroke-dasharray="5,2" d="M20,-8C20,-8 2142,-8 2142,-8 2148,-8 2154,-14 2154,-20 2154,-20 2154,-682.7 2154,-682.7 2154,-688.7 2148,-694.7 2142,-694.7 2142,-694.7 20,-694.7 20,-694.7 14,-694.7 8,-688.7 8,-682.7 8,-682.7 8,-20 8,-20 8,-14 14,-8 20,-8"/>
<image xlink:href="https://raw.githubusercontent.com/mingrammer/diagrams/refs/heads/master/resources/k8s/group/ns.png" width="60px" height="60px" preserveAspectRatio="xMinYMin meet" x="20" y="-686.7"/>
<text text-anchor="start" x="32" y="-609.3" font-family="Sans-Serif" font-size="12.00" fill="#2d3436">default</text>
</a>
</g>
</g>
<g id="clust2" class="cluster">
<title>cluster_Application: emailservice</title>
<g id="a_clust2"><a xlink:title="Application: emailservice">
<path fill="#ece8f6" stroke="#aeb6be" d="M2009,-198.8C2009,-198.8 2134,-198.8 2134,-198.8 2140,-198.8 2146,-204.8 2146,-210.8 2146,-210.8 2146,-565.55 2146,-565.55 2146,-571.55 2140,-577.55 2134,-577.55 2134,-577.55 2009,-577.55 2009,-577.55 2003,-577.55 1997,-571.55 1997,-565.55 1997,-565.55 1997,-210.8 1997,-210.8 1997,-204.8 2003,-198.8 2009,-198.8"/>
<text text-anchor="middle" x="2071.75" y="-562.15" font-family="Sans-Serif" font-size="12.00" fill="#2d3436">Application: emailservice</text>
</a>
</g>
</g>
<g id="clust3" class="cluster">
<title>cluster_Application: checkoutservice</title>
<g id="a_clust3"><a xlink:title="Application: checkoutservice">
<path fill="#ece8f6" stroke="#aeb6be" d="M1833,-198.8C1833,-198.8 1977,-198.8 1977,-198.8 1983,-198.8 1989,-204.8 1989,-210.8 1989,-210.8 1989,-565.55 1989,-565.55 1989,-571.55 1983,-577.55 1977,-577.55 1977,-577.55 1833,-577.55 1833,-577.55 1827,-577.55 1821,-571.55 1821,-565.55 1821,-565.55 1821,-210.8 1821,-210.8 1821,-204.8 1827,-198.8 1833,-198.8"/>
<text text-anchor="middle" x="1905.12" y="-562.15" font-family="Sans-Serif" font-size="12.00" fill="#2d3436">Application: checkoutservice</text>
</a>
</g>
</g>
<g id="clust4" class="cluster">
<title>cluster_Application: recommendationservice</title>
<g id="a_clust4"><a xlink:title="Application: recommendationservice">
<path fill="#ece8f6" stroke="#aeb6be" d="M1616,-198.8C1616,-198.8 1801,-198.8 1801,-198.8 1807,-198.8 1813,-204.8 1813,-210.8 1813,-210.8 1813,-565.55 1813,-565.55 1813,-571.55 1807,-577.55 1801,-577.55 1801,-577.55 1616,-577.55 1616,-577.55 1610,-577.55 1604,-571.55 1604,-565.55 1604,-565.55 1604,-210.8 1604,-210.8 1604,-204.8 1610,-198.8 1616,-198.8"/>
<text text-anchor="middle" x="1708.75" y="-562.15" font-family="Sans-Serif" font-size="12.00" fill="#2d3436">Application: recommendationservice</text>
</a>
</g>
</g>
<g id="clust5" class="cluster">
<title>cluster_Application: frontend</title>
<g id="a_clust5"><a xlink:title="Application: frontend">
<path fill="#ece8f6" stroke="#aeb6be" d="M1348,-198.8C1348,-198.8 1584,-198.8 1584,-198.8 1590,-198.8 1596,-204.8 1596,-210.8 1596,-210.8 1596,-579.95 1596,-579.95 1596,-585.95 1590,-591.95 1584,-591.95 1584,-591.95 1348,-591.95 1348,-591.95 1342,-591.95 1336,-585.95 1336,-579.95 1336,-579.95 1336,-210.8 1336,-210.8 1336,-204.8 1342,-198.8 1348,-198.8"/>
<text text-anchor="middle" x="1398.75" y="-576.55" font-family="Sans-Serif" font-size="12.00" fill="#2d3436">Application: frontend</text>
</a>
</g>
</g>
<g id="clust6" class="cluster">
<title>cluster_Application: paymentservice</title>
<g id="a_clust6"><a xlink:title="Application: paymentservice">
<path fill="#ece8f6" stroke="#aeb6be" d="M1174,-198.8C1174,-198.8 1316,-198.8 1316,-198.8 1322,-198.8 1328,-204.8 1328,-210.8 1328,-210.8 1328,-565.55 1328,-565.55 1328,-571.55 1322,-577.55 1316,-577.55 1316,-577.55 1174,-577.55 1174,-577.55 1168,-577.55 1162,-571.55 1162,-565.55 1162,-565.55 1162,-210.8 1162,-210.8 1162,-204.8 1168,-198.8 1174,-198.8"/>
<text text-anchor="middle" x="1245" y="-562.15" font-family="Sans-Serif" font-size="12.00" fill="#2d3436">Application: paymentservice</text>
</a>
</g>
</g>
<g id="clust7" class="cluster">
<title>cluster_Application: productcatalogservice</title>
<g id="a_clust7"><a xlink:title="Application: productcatalogservice">
<path fill="#ece8f6" stroke="#aeb6be" d="M967,-198.8C967,-198.8 1142,-198.8 1142,-198.8 1148,-198.8 1154,-204.8 1154,-210.8 1154,-210.8 1154,-565.55 1154,-565.55 1154,-571.55 1148,-577.55 1142,-577.55 1142,-577.55 967,-577.55 967,-577.55 961,-577.55 955,-571.55 955,-565.55 955,-565.55 955,-210.8 955,-210.8 955,-204.8 961,-198.8 967,-198.8"/>
<text text-anchor="middle" x="1054.5" y="-562.15" font-family="Sans-Serif" font-size="12.00" fill="#2d3436">Application: productcatalogservice</text>
</a>
</g>
</g>
<g id="clust8" class="cluster">
<title>cluster_Application: cartservice</title>
<g id="a_clust8"><a xlink:title="Application: cartservice">
<path fill="#ece8f6" stroke="#aeb6be" d="M820,-198.8C820,-198.8 935,-198.8 935,-198.8 941,-198.8 947,-204.8 947,-210.8 947,-210.8 947,-565.55 947,-565.55 947,-571.55 941,-577.55 935,-577.55 935,-577.55 820,-577.55 820,-577.55 814,-577.55 808,-571.55 808,-565.55 808,-565.55 808,-210.8 808,-210.8 808,-204.8 814,-198.8 820,-198.8"/>
<text text-anchor="middle" x="877.88" y="-562.15" font-family="Sans-Serif" font-size="12.00" fill="#2d3436">Application: cartservice</text>
</a>
</g>
</g>
<g id="clust9" class="cluster">
<title>cluster_Application: redis&#45;cart</title>
<g id="a_clust9"><a xlink:title="Application: redis&#45;cart">
<path fill="#ece8f6" stroke="#aeb6be" d="M681,-198.8C681,-198.8 788,-198.8 788,-198.8 794,-198.8 800,-204.8 800,-210.8 800,-210.8 800,-565.55 800,-565.55 800,-571.55 794,-577.55 788,-577.55 788,-577.55 681,-577.55 681,-577.55 675,-577.55 669,-571.55 669,-565.55 669,-565.55 669,-210.8 669,-210.8 669,-204.8 675,-198.8 681,-198.8"/>
<text text-anchor="middle" x="734.75" y="-562.15" font-family="Sans-Serif" font-size="12.00" fill="#2d3436">Application: redis&#45;cart</text>
</a>
</g>
</g>
<g id="clust10" class="cluster">
<title>cluster_Application: loadgenerator</title>
<g id="a_clust10"><a xlink:title="Application: loadgenerator">
<path fill="#ece8f6" stroke="#aeb6be" d="M517,-404C517,-404 649,-404 649,-404 655,-404 661,-410 661,-416 661,-416 661,-565.55 661,-565.55 661,-571.55 655,-577.55 649,-577.55 649,-577.55 517,-577.55 517,-577.55 511,-577.55 505,-571.55 505,-565.55 505,-565.55 505,-416 505,-416 505,-410 511,-404 517,-404"/>
<text text-anchor="middle" x="583.12" y="-562.15" font-family="Sans-Serif" font-size="12.00" fill="#2d3436">Application: loadgenerator</text>
</a>
</g>
</g>
<g id="clust11" class="cluster">
<title>cluster_Application: currencyservice</title>
<g id="a_clust11"><a xlink:title="Application: currencyservice">
<path fill="#ece8f6" stroke="#aeb6be" d="M343,-198.8C343,-198.8 485,-198.8 485,-198.8 491,-198.8 497,-204.8 497,-210.8 497,-210.8 497,-565.55 497,-565.55 497,-571.55 491,-577.55 485,-577.55 485,-577.55 343,-577.55 343,-577.55 337,-577.55 331,-571.55 331,-565.55 331,-565.55 331,-210.8 331,-210.8 331,-204.8 337,-198.8 343,-198.8"/>
<text text-anchor="middle" x="414" y="-562.15" font-family="Sans-Serif" font-size="12.00" fill="#2d3436">Application: currencyservice</text>
</a>
</g>
</g>
<g id="clust12" class="cluster">
<title>cluster_Application: shippingservice</title>
<g id="a_clust12"><a xlink:title="Application: shippingservice">
<path fill="#ece8f6" stroke="#aeb6be" d="M169,-198.8C169,-198.8 311,-198.8 311,-198.8 317,-198.8 323,-204.8 323,-210.8 323,-210.8 323,-565.55 323,-565.55 323,-571.55 317,-577.55 311,-577.55 311,-577.55 169,-577.55 169,-577.55 163,-577.55 157,-571.55 157,-565.55 157,-565.55 157,-210.8 157,-210.8 157,-204.8 163,-198.8 169,-198.8"/>
<text text-anchor="middle" x="240" y="-562.15" font-family="Sans-Serif" font-size="12.00" fill="#2d3436">Application: shippingservice</text>
</a>
</g>
</g>
<g id="clust13" class="cluster">
<title>cluster_Application: adservice</title>
<g id="a_clust13"><a xlink:title="Application: adservice">
<path fill="#ece8f6" stroke="#aeb6be" d="M28,-198.8C28,-198.8 137,-198.8 137,-198.8 143,-198.8 149,-204.8 149,-210.8 149,-210.8 149,-565.55 149,-565.55 149,-571.55 143,-577.55 137,-577.55 137,-577.55 28,-577.55 28,-577.55 22,-577.55 16,-571.55 16,-565.55 16,-565.55 16,-210.8 16,-210.8 16,-204.8 22,-198.8 28,-198.8"/>
<text text-anchor="middle" x="82.88" y="-562.15" font-family="Sans-Serif" font-size="12.00" fill="#2d3436">Application: adservice</text>
</a>
</g>
</g>
<!-- 1475c7e7ccf64ea1895683874df35d55 -->
<g id="node1" class="node">
<title>1475c7e7ccf64ea1895683874df35d55</title>
<g id="a_node1"><a xlink:title="kind: ServiceAccount&#10;apiVersion: v1&#10;metadata:&#10; &#160;name: emailservice&#10;...">
<image xlink:href="https://raw.githubusercontent.com/mingrammer/diagrams/refs/heads/master/resources/k8s/rbac/sa.png" width="100.8px" height="100.8px" preserveAspectRatio="xMinYMin meet" x="2020.6" y="-134.8"/>
<text text-anchor="middle" x="2071" y="-17.15" font-family="Sans-Serif" font-size="13.00" fill="#2d3436">emailservice</text>
</a>
</g>
</g>
<!-- 047d6d1d58fc4ac0b9b6507e332dafe9 -->
<g id="node2" class="node">
<title>047d6d1d58fc4ac0b9b6507e332dafe9</title>
<g id="a_node2"><a xlink:title="kind: ServiceAccount&#10;apiVersion: v1&#10;metadata:&#10; &#160;name: checkoutservice&#10;...">
<image xlink:href="https://raw.githubusercontent.com/mingrammer/diagrams/refs/heads/master/resources/k8s/rbac/sa.png" width="100.8px" height="100.8px" preserveAspectRatio="xMinYMin meet" x="1844.6" y="-134.8"/>
<text text-anchor="middle" x="1895" y="-17.15" font-family="Sans-Serif" font-size="13.00" fill="#2d3436">checkoutservice</text>
</a>
</g>
</g>
<!-- 68697faf3a9d46aab1c618a4712c18f1 -->
<g id="node3" class="node">
<title>68697faf3a9d46aab1c618a4712c18f1</title>
<g id="a_node3"><a xlink:title="kind: ServiceAccount&#10;apiVersion: v1&#10;metadata:&#10; &#160;name: recommendationservice&#10;...">
<image xlink:href="https://raw.githubusercontent.com/mingrammer/diagrams/refs/heads/master/resources/k8s/rbac/sa.png" width="100.8px" height="100.8px" preserveAspectRatio="xMinYMin meet" x="1657.6" y="-134.8"/>
<text text-anchor="middle" x="1708" y="-17.15" font-family="Sans-Serif" font-size="13.00" fill="#2d3436">recommendationservice</text>
</a>
</g>
</g>
<!-- 2af970801b7340c091aa8ac120037f3e -->
<g id="node4" class="node">
<title>2af970801b7340c091aa8ac120037f3e</title>
<g id="a_node4"><a xlink:title="kind: ServiceAccount&#10;apiVersion: v1&#10;metadata:&#10; &#160;name: frontend&#10;...">
<image xlink:href="https://raw.githubusercontent.com/mingrammer/diagrams/refs/heads/master/resources/k8s/rbac/sa.png" width="100.8px" height="100.8px" preserveAspectRatio="xMinYMin meet" x="1415.6" y="-134.8"/>
<text text-anchor="middle" x="1466" y="-17.15" font-family="Sans-Serif" font-size="13.00" fill="#2d3436">frontend</text>
</a>
</g>
</g>
<!-- 162ec169fd514f31b5ca4bfa3911394f -->
<g id="node5" class="node">
<title>162ec169fd514f31b5ca4bfa3911394f</title>
<g id="a_node5"><a xlink:title="kind: ServiceAccount&#10;apiVersion: v1&#10;metadata:&#10; &#160;name: paymentservice&#10;...">
<image xlink:href="https://raw.githubusercontent.com/mingrammer/diagrams/refs/heads/master/resources/k8s/rbac/sa.png" width="100.8px" height="100.8px" preserveAspectRatio="xMinYMin meet" x="1184.6" y="-134.8"/>
<text text-anchor="middle" x="1235" y="-17.15" font-family="Sans-Serif" font-size="13.00" fill="#2d3436">paymentservice</text>
</a>
</g>
</g>
<!-- b6bb75ea3bac4fe7be20a73066d28ce7 -->
<g id="node6" class="node">
<title>b6bb75ea3bac4fe7be20a73066d28ce7</title>
<g id="a_node6"><a xlink:title="kind: ServiceAccount&#10;apiVersion: v1&#10;metadata:&#10; &#160;name: productcatalogservice&#10;...">
<image xlink:href="https://raw.githubusercontent.com/mingrammer/diagrams/refs/heads/master/resources/k8s/rbac/sa.png" width="100.8px" height="100.8px" preserveAspectRatio="xMinYMin meet" x="1006.6" y="-134.8"/>
<text text-anchor="middle" x="1057" y="-17.15" font-family="Sans-Serif" font-size="13.00" fill="#2d3436">productcatalogservice</text>
</a>
</g>
</g>
<!-- f06072384087400282b5c67e95ecbf0a -->
<g id="node7" class="node">
<title>f06072384087400282b5c67e95ecbf0a</title>
<g id="a_node7"><a xlink:title="kind: ServiceAccount&#10;apiVersion: v1&#10;metadata:&#10; &#160;name: cartservice&#10;...">
<image xlink:href="https://raw.githubusercontent.com/mingrammer/diagrams/refs/heads/master/resources/k8s/rbac/sa.png" width="100.8px" height="100.8px" preserveAspectRatio="xMinYMin meet" x="832.6" y="-134.8"/>
<text text-anchor="middle" x="883" y="-17.15" font-family="Sans-Serif" font-size="13.00" fill="#2d3436">cartservice</text>
</a>
</g>
</g>
<!-- cca6341033f240fea78a38a7d0097ac3 -->
<g id="node8" class="node">
<title>cca6341033f240fea78a38a7d0097ac3</title>
<g id="a_node8"><a xlink:title="kind: ServiceAccount&#10;apiVersion: v1&#10;metadata:&#10; &#160;name: loadgenerator&#10;...">
<image xlink:href="https://raw.githubusercontent.com/mingrammer/diagrams/refs/heads/master/resources/k8s/rbac/sa.png" width="100.8px" height="100.8px" preserveAspectRatio="xMinYMin meet" x="522.6" y="-325.6"/>
<text text-anchor="middle" x="573" y="-207.95" font-family="Sans-Serif" font-size="13.00" fill="#2d3436">loadgenerator</text>
</a>
</g>
</g>
<!-- ca9a5866fae34b3ab91df23abd2e9a02 -->
<g id="node9" class="node">
<title>ca9a5866fae34b3ab91df23abd2e9a02</title>
<g id="a_node9"><a xlink:title="kind: ServiceAccount&#10;apiVersion: v1&#10;metadata:&#10; &#160;name: currencyservice&#10;...">
<image xlink:href="https://raw.githubusercontent.com/mingrammer/diagrams/refs/heads/master/resources/k8s/rbac/sa.png" width="100.8px" height="100.8px" preserveAspectRatio="xMinYMin meet" x="353.6" y="-134.8"/>
<text text-anchor="middle" x="404" y="-17.15" font-family="Sans-Serif" font-size="13.00" fill="#2d3436">currencyservice</text>
</a>
</g>
</g>
<!-- 5187a10b49ce414997636070ce354c32 -->
<g id="node10" class="node">
<title>5187a10b49ce414997636070ce354c32</title>
<g id="a_node10"><a xlink:title="kind: ServiceAccount&#10;apiVersion: v1&#10;metadata:&#10; &#160;name: shippingservice&#10;...">
<image xlink:href="https://raw.githubusercontent.com/mingrammer/diagrams/refs/heads/master/resources/k8s/rbac/sa.png" width="100.8px" height="100.8px" preserveAspectRatio="xMinYMin meet" x="187.6" y="-134.8"/>
<text text-anchor="middle" x="238" y="-17.15" font-family="Sans-Serif" font-size="13.00" fill="#2d3436">shippingservice</text>
</a>
</g>
</g>
<!-- de26a3a5f3fe4d7a826c93715e6836cf -->
<g id="node11" class="node">
<title>de26a3a5f3fe4d7a826c93715e6836cf</title>
<g id="a_node11"><a xlink:title="kind: ServiceAccount&#10;apiVersion: v1&#10;metadata:&#10; &#160;name: adservice&#10;...">
<image xlink:href="https://raw.githubusercontent.com/mingrammer/diagrams/refs/heads/master/resources/k8s/rbac/sa.png" width="100.8px" height="100.8px" preserveAspectRatio="xMinYMin meet" x="30.6" y="-134.8"/>
<text text-anchor="middle" x="81" y="-17.15" font-family="Sans-Serif" font-size="13.00" fill="#2d3436">adservice</text>
</a>
</g>
</g>
<!-- 2a68f7d92a914a4e8f98e6e77e8138a6 -->
<g id="node12" class="node">
<title>2a68f7d92a914a4e8f98e6e77e8138a6</title>
<g id="a_node12"><a xlink:title="kind: Deployment&#10;apiVersion: apps/v1&#10;metadata:&#10; &#160;name: emailservice&#10;...">
<image xlink:href="https://raw.githubusercontent.com/mingrammer/diagrams/refs/heads/master/resources/k8s/compute/deploy.png" width="100.8px" height="100.8px" preserveAspectRatio="xMinYMin meet" x="2020.6" y="-325.6"/>
<text text-anchor="middle" x="2071" y="-207.95" font-family="Sans-Serif" font-size="13.00" fill="#2d3436">emailservice</text>
</a>
</g>
</g>
<!-- 2a68f7d92a914a4e8f98e6e77e8138a6&#45;&gt;1475c7e7ccf64ea1895683874df35d55 -->
<g id="edge1" class="edge">
<title>2a68f7d92a914a4e8f98e6e77e8138a6&#45;&gt;1475c7e7ccf64ea1895683874df35d55</title>
<g id="a_edge1"><a xlink:title="spec.template.spec.serviceAccountName: emailservice">
<path fill="none" stroke="black" d="M2071,-206.86C2071,-206.86 2071,-163.59 2071,-163.59"/>
<polygon fill="black" stroke="black" points="2074.5,-163.59 2071,-153.59 2067.5,-163.59 2074.5,-163.59"/>
</a>
</g>
</g>
<!-- b28f2277115848a5a4cf5051df742c4b -->
<g id="node13" class="node">
<title>b28f2277115848a5a4cf5051df742c4b</title>
<g id="a_node13"><a xlink:title="kind: Service&#10;apiVersion: v1&#10;metadata:&#10; &#160;name: emailservice&#10;...">
<image xlink:href="https://raw.githubusercontent.com/mingrammer/diagrams/refs/heads/master/resources/k8s/network/svc.png" width="100.8px" height="100.8px" preserveAspectRatio="xMinYMin meet" x="2020.6" y="-530.8"/>
<text text-anchor="middle" x="2071" y="-413.15" font-family="Sans-Serif" font-size="13.00" fill="#2d3436">emailservice</text>
</a>
</g>
</g>
<!-- b28f2277115848a5a4cf5051df742c4b&#45;&gt;2a68f7d92a914a4e8f98e6e77e8138a6 -->
<g id="edge2" class="edge">
<title>b28f2277115848a5a4cf5051df742c4b&#45;&gt;2a68f7d92a914a4e8f98e6e77e8138a6</title>
<g id="a_edge2"><a xlink:title="spec.selector:&#10; &#160;app: emailservice">
<path fill="none" stroke="black" stroke-dasharray="5,2" d="M2071,-412.07C2071,-412.07 2071,-354.58 2071,-354.58"/>
<polygon fill="black" stroke="black" points="2074.5,-354.58 2071,-344.58 2067.5,-354.58 2074.5,-354.58"/>
</a>
</g>
<text text-anchor="middle" x="2033.88" y="-385.08" font-family="Sans-Serif" font-size="10.00" fill="#2d3436">5000&#45;&gt;8080/TCP</text>
</g>
<!-- b299afb45d394d8a82987bb2b2d167ec -->
<g id="node14" class="node">
<title>b299afb45d394d8a82987bb2b2d167ec</title>
<g id="a_node14"><a xlink:title="kind: Deployment&#10;apiVersion: apps/v1&#10;metadata:&#10; &#160;name: checkoutservice&#10;...">
<image xlink:href="https://raw.githubusercontent.com/mingrammer/diagrams/refs/heads/master/resources/k8s/compute/deploy.png" width="100.8px" height="100.8px" preserveAspectRatio="xMinYMin meet" x="1844.6" y="-325.6"/>
<text text-anchor="middle" x="1895" y="-207.95" font-family="Sans-Serif" font-size="13.00" fill="#2d3436">checkoutservice</text>
</a>
</g>
</g>
<!-- b299afb45d394d8a82987bb2b2d167ec&#45;&gt;047d6d1d58fc4ac0b9b6507e332dafe9 -->
<g id="edge3" class="edge">
<title>b299afb45d394d8a82987bb2b2d167ec&#45;&gt;047d6d1d58fc4ac0b9b6507e332dafe9</title>
<g id="a_edge3"><a xlink:title="spec.template.spec.serviceAccountName: checkoutservice">
<path fill="none" stroke="black" d="M1895,-206.86C1895,-206.86 1895,-163.59 1895,-163.59"/>
<polygon fill="black" stroke="black" points="1898.5,-163.59 1895,-153.59 1891.5,-163.59 1898.5,-163.59"/>
</a>
</g>
</g>
<!-- e7531395e1a44b6face60f91a1710675 -->
<g id="node15" class="node">
<title>e7531395e1a44b6face60f91a1710675</title>
<g id="a_node15"><a xlink:title="kind: Service&#10;apiVersion: v1&#10;metadata:&#10; &#160;name: checkoutservice&#10;...">
<image xlink:href="https://raw.githubusercontent.com/mingrammer/diagrams/refs/heads/master/resources/k8s/network/svc.png" width="100.8px" height="100.8px" preserveAspectRatio="xMinYMin meet" x="1844.6" y="-530.8"/>
<text text-anchor="middle" x="1895" y="-413.15" font-family="Sans-Serif" font-size="13.00" fill="#2d3436">checkoutservice</text>
</a>
</g>
</g>
<!-- e7531395e1a44b6face60f91a1710675&#45;&gt;b299afb45d394d8a82987bb2b2d167ec -->
<g id="edge4" class="edge">
<title>e7531395e1a44b6face60f91a1710675&#45;&gt;b299afb45d394d8a82987bb2b2d167ec</title>
<g id="a_edge4"><a xlink:title="spec.selector:&#10; &#160;app: checkoutservice">
<path fill="none" stroke="black" stroke-dasharray="5,2" d="M1895,-412.07C1895,-412.07 1895,-354.58 1895,-354.58"/>
<polygon fill="black" stroke="black" points="1898.5,-354.58 1895,-344.58 1891.5,-354.58 1898.5,-354.58"/>
</a>
</g>
<text text-anchor="middle" x="1872.88" y="-385.08" font-family="Sans-Serif" font-size="10.00" fill="#2d3436">5050/TCP</text>
</g>
<!-- 16a9e799e97742e6992a5a5010ec275e -->
<g id="node16" class="node">
<title>16a9e799e97742e6992a5a5010ec275e</title>
<g id="a_node16"><a xlink:title="kind: Deployment&#10;apiVersion: apps/v1&#10;metadata:&#10; &#160;name: recommendationservice&#10;...">
<image xlink:href="https://raw.githubusercontent.com/mingrammer/diagrams/refs/heads/master/resources/k8s/compute/deploy.png" width="100.8px" height="100.8px" preserveAspectRatio="xMinYMin meet" x="1657.6" y="-325.6"/>
<text text-anchor="middle" x="1708" y="-207.95" font-family="Sans-Serif" font-size="13.00" fill="#2d3436">recommendationservice</text>
</a>
</g>
</g>
<!-- 16a9e799e97742e6992a5a5010ec275e&#45;&gt;68697faf3a9d46aab1c618a4712c18f1 -->
<g id="edge5" class="edge">
<title>16a9e799e97742e6992a5a5010ec275e&#45;&gt;68697faf3a9d46aab1c618a4712c18f1</title>
<g id="a_edge5"><a xlink:title="spec.template.spec.serviceAccountName: recommendationservice">
<path fill="none" stroke="black" d="M1708,-206.86C1708,-206.86 1708,-163.59 1708,-163.59"/>
<polygon fill="black" stroke="black" points="1711.5,-163.59 1708,-153.59 1704.5,-163.59 1711.5,-163.59"/>
</a>
</g>
</g>
<!-- f20efd08d2f3414eb389049b271c4e05 -->
<g id="node17" class="node">
<title>f20efd08d2f3414eb389049b271c4e05</title>
<g id="a_node17"><a xlink:title="kind: Service&#10;apiVersion: v1&#10;metadata:&#10; &#160;name: recommendationservice&#10;...">
<image xlink:href="https://raw.githubusercontent.com/mingrammer/diagrams/refs/heads/master/resources/k8s/network/svc.png" width="100.8px" height="100.8px" preserveAspectRatio="xMinYMin meet" x="1657.6" y="-530.8"/>
<text text-anchor="middle" x="1708" y="-413.15" font-family="Sans-Serif" font-size="13.00" fill="#2d3436">recommendationservice</text>
</a>
</g>
</g>
<!-- f20efd08d2f3414eb389049b271c4e05&#45;&gt;16a9e799e97742e6992a5a5010ec275e -->
<g id="edge6" class="edge">
<title>f20efd08d2f3414eb389049b271c4e05&#45;&gt;16a9e799e97742e6992a5a5010ec275e</title>
<g id="a_edge6"><a xlink:title="spec.selector:&#10; &#160;app: recommendationservice">
<path fill="none" stroke="black" stroke-dasharray="5,2" d="M1708,-412.07C1708,-412.07 1708,-354.58 1708,-354.58"/>
<polygon fill="black" stroke="black" points="1711.5,-354.58 1708,-344.58 1704.5,-354.58 1711.5,-354.58"/>
</a>
</g>
<text text-anchor="middle" x="1685.88" y="-385.08" font-family="Sans-Serif" font-size="10.00" fill="#2d3436">8080/TCP</text>
</g>
<!-- ef6aae7714804bbda55422a780c9f6d1 -->
<g id="node18" class="node">
<title>ef6aae7714804bbda55422a780c9f6d1</title>
<g id="a_node18"><a xlink:title="kind: Deployment&#10;apiVersion: apps/v1&#10;metadata:&#10; &#160;name: frontend&#10;...">
<image xlink:href="https://raw.githubusercontent.com/mingrammer/diagrams/refs/heads/master/resources/k8s/compute/deploy.png" width="100.8px" height="100.8px" preserveAspectRatio="xMinYMin meet" x="1415.6" y="-325.6"/>
<text text-anchor="middle" x="1466" y="-207.95" font-family="Sans-Serif" font-size="13.00" fill="#2d3436">frontend</text>
</a>
</g>
</g>
<!-- ef6aae7714804bbda55422a780c9f6d1&#45;&gt;2af970801b7340c091aa8ac120037f3e -->
<g id="edge7" class="edge">
<title>ef6aae7714804bbda55422a780c9f6d1&#45;&gt;2af970801b7340c091aa8ac120037f3e</title>
<g id="a_edge7"><a xlink:title="spec.template.spec.serviceAccountName: frontend">
<path fill="none" stroke="black" d="M1466,-206.86C1466,-206.86 1466,-163.59 1466,-163.59"/>
<polygon fill="black" stroke="black" points="1469.5,-163.59 1466,-153.59 1462.5,-163.59 1469.5,-163.59"/>
</a>
</g>
</g>
<!-- a9abbc615d3a4a3b8cde007259814ce7 -->
<g id="node19" class="node">
<title>a9abbc615d3a4a3b8cde007259814ce7</title>
<g id="a_node19"><a xlink:title="kind: Service&#10;apiVersion: v1&#10;metadata:&#10; &#160;name: frontend&#10;...">
<image xlink:href="https://raw.githubusercontent.com/mingrammer/diagrams/refs/heads/master/resources/k8s/network/svc.png" width="100.8px" height="100.8px" preserveAspectRatio="xMinYMin meet" x="1487.6" y="-530.8"/>
<text text-anchor="middle" x="1538" y="-413.15" font-family="Sans-Serif" font-size="13.00" fill="#2d3436">frontend</text>
</a>
</g>
</g>
<!-- a9abbc615d3a4a3b8cde007259814ce7&#45;&gt;ef6aae7714804bbda55422a780c9f6d1 -->
<g id="edge8" class="edge">
<title>a9abbc615d3a4a3b8cde007259814ce7&#45;&gt;ef6aae7714804bbda55422a780c9f6d1</title>
<g id="a_edge8"><a xlink:title="spec.selector:&#10; &#160;app: frontend">
<path fill="none" stroke="black" stroke-dasharray="5,2" d="M1502,-412.07C1502,-412.07 1502,-354.58 1502,-354.58"/>
<polygon fill="black" stroke="black" points="1505.5,-354.58 1502,-344.58 1498.5,-354.58 1505.5,-354.58"/>
</a>
</g>
<text text-anchor="middle" x="1470.12" y="-385.08" font-family="Sans-Serif" font-size="10.00" fill="#2d3436">80&#45;&gt;8080/TCP</text>
</g>
<!-- 9f9ff81a00d646fda4c5bdc506869002 -->
<g id="node20" class="node">
<title>9f9ff81a00d646fda4c5bdc506869002</title>
<g id="a_node20"><a xlink:title="kind: Service&#10;apiVersion: v1&#10;metadata:&#10; &#160;name: frontend&#45;external&#10;...">
<image xlink:href="https://raw.githubusercontent.com/mingrammer/diagrams/refs/heads/master/resources/k8s/network/svc.png" width="100.8px" height="100.8px" preserveAspectRatio="xMinYMin meet" x="1343.6" y="-530.8"/>
<text text-anchor="middle" x="1394" y="-412.25" font-family="Sans-Serif" font-size="13.00" fill="#2d3436">frontend</text>
<text text-anchor="middle" x="1394" y="-398.75" font-family="Sans-Serif" font-size="13.00" fill="#2d3436">&#45;external</text>
</a>
</g>
</g>
<!-- 9f9ff81a00d646fda4c5bdc506869002&#45;&gt;ef6aae7714804bbda55422a780c9f6d1 -->
<g id="edge9" class="edge">
<title>9f9ff81a00d646fda4c5bdc506869002&#45;&gt;ef6aae7714804bbda55422a780c9f6d1</title>
<g id="a_edge9"><a xlink:title="spec.selector:&#10; &#160;app: frontend">
<path fill="none" stroke="black" stroke-dasharray="5,2" d="M1430,-397.82C1430,-397.82 1430,-354.47 1430,-354.47"/>
<polygon fill="black" stroke="black" points="1433.5,-354.47 1430,-344.47 1426.5,-354.47 1433.5,-354.47"/>
</a>
</g>
<text text-anchor="middle" x="1398.12" y="-377.9" font-family="Sans-Serif" font-size="10.00" fill="#2d3436">80&#45;&gt;8080/TCP</text>
</g>
<!-- 93e33dcbf6ce48b5b95d5dccc005b8aa -->
<g id="node21" class="node">
<title>93e33dcbf6ce48b5b95d5dccc005b8aa</title>
<g id="a_node21"><a xlink:title="kind: Deployment&#10;apiVersion: apps/v1&#10;metadata:&#10; &#160;name: paymentservice&#10;...">
<image xlink:href="https://raw.githubusercontent.com/mingrammer/diagrams/refs/heads/master/resources/k8s/compute/deploy.png" width="100.8px" height="100.8px" preserveAspectRatio="xMinYMin meet" x="1184.6" y="-325.6"/>
<text text-anchor="middle" x="1235" y="-207.95" font-family="Sans-Serif" font-size="13.00" fill="#2d3436">paymentservice</text>
</a>
</g>
</g>
<!-- 93e33dcbf6ce48b5b95d5dccc005b8aa&#45;&gt;162ec169fd514f31b5ca4bfa3911394f -->
<g id="edge10" class="edge">
<title>93e33dcbf6ce48b5b95d5dccc005b8aa&#45;&gt;162ec169fd514f31b5ca4bfa3911394f</title>
<g id="a_edge10"><a xlink:title="spec.template.spec.serviceAccountName: paymentservice">
<path fill="none" stroke="black" d="M1235,-206.86C1235,-206.86 1235,-163.59 1235,-163.59"/>
<polygon fill="black" stroke="black" points="1238.5,-163.59 1235,-153.59 1231.5,-163.59 1238.5,-163.59"/>
</a>
</g>
</g>
<!-- d51bd1928d634848a68708bb483e4201 -->
<g id="node22" class="node">
<title>d51bd1928d634848a68708bb483e4201</title>
<g id="a_node22"><a xlink:title="kind: Service&#10;apiVersion: v1&#10;metadata:&#10; &#160;name: paymentservice&#10;...">
<image xlink:href="https://raw.githubusercontent.com/mingrammer/diagrams/refs/heads/master/resources/k8s/network/svc.png" width="100.8px" height="100.8px" preserveAspectRatio="xMinYMin meet" x="1184.6" y="-530.8"/>
<text text-anchor="middle" x="1235" y="-413.15" font-family="Sans-Serif" font-size="13.00" fill="#2d3436">paymentservice</text>
</a>
</g>
</g>
<!-- d51bd1928d634848a68708bb483e4201&#45;&gt;93e33dcbf6ce48b5b95d5dccc005b8aa -->
<g id="edge11" class="edge">
<title>d51bd1928d634848a68708bb483e4201&#45;&gt;93e33dcbf6ce48b5b95d5dccc005b8aa</title>
<g id="a_edge11"><a xlink:title="spec.selector:&#10; &#160;app: paymentservice">
<path fill="none" stroke="black" stroke-dasharray="5,2" d="M1235,-412.07C1235,-412.07 1235,-354.58 1235,-354.58"/>
<polygon fill="black" stroke="black" points="1238.5,-354.58 1235,-344.58 1231.5,-354.58 1238.5,-354.58"/>
</a>
</g>
<text text-anchor="middle" x="1210.25" y="-385.08" font-family="Sans-Serif" font-size="10.00" fill="#2d3436">50051/TCP</text>
</g>
<!-- 1d62127cb3e049b69e096eebae00c27a -->
<g id="node23" class="node">
<title>1d62127cb3e049b69e096eebae00c27a</title>
<g id="a_node23"><a xlink:title="kind: Deployment&#10;apiVersion: apps/v1&#10;metadata:&#10; &#160;name: productcatalogservice&#10;...">
<image xlink:href="https://raw.githubusercontent.com/mingrammer/diagrams/refs/heads/master/resources/k8s/compute/deploy.png" width="100.8px" height="100.8px" preserveAspectRatio="xMinYMin meet" x="1006.6" y="-325.6"/>
<text text-anchor="middle" x="1057" y="-207.95" font-family="Sans-Serif" font-size="13.00" fill="#2d3436">productcatalogservice</text>
</a>
</g>
</g>
<!-- 1d62127cb3e049b69e096eebae00c27a&#45;&gt;b6bb75ea3bac4fe7be20a73066d28ce7 -->
<g id="edge12" class="edge">
<title>1d62127cb3e049b69e096eebae00c27a&#45;&gt;b6bb75ea3bac4fe7be20a73066d28ce7</title>
<g id="a_edge12"><a xlink:title="spec.template.spec.serviceAccountName: productcatalogservice">
<path fill="none" stroke="black" d="M1057,-206.86C1057,-206.86 1057,-163.59 1057,-163.59"/>
<polygon fill="black" stroke="black" points="1060.5,-163.59 1057,-153.59 1053.5,-163.59 1060.5,-163.59"/>
</a>
</g>
</g>
<!-- b89c087f66034a9a9fbd11f2a6316604 -->
<g id="node24" class="node">
<title>b89c087f66034a9a9fbd11f2a6316604</title>
<g id="a_node24"><a xlink:title="kind: Service&#10;apiVersion: v1&#10;metadata:&#10; &#160;name: productcatalogservice&#10;...">
<image xlink:href="https://raw.githubusercontent.com/mingrammer/diagrams/refs/heads/master/resources/k8s/network/svc.png" width="100.8px" height="100.8px" preserveAspectRatio="xMinYMin meet" x="1006.6" y="-530.8"/>
<text text-anchor="middle" x="1057" y="-413.15" font-family="Sans-Serif" font-size="13.00" fill="#2d3436">productcatalogservice</text>
</a>
</g>
</g>
<!-- b89c087f66034a9a9fbd11f2a6316604&#45;&gt;1d62127cb3e049b69e096eebae00c27a -->
<g id="edge13" class="edge">
<title>b89c087f66034a9a9fbd11f2a6316604&#45;&gt;1d62127cb3e049b69e096eebae00c27a</title>
<g id="a_edge13"><a xlink:title="spec.selector:&#10; &#160;app: productcatalogservice">
<path fill="none" stroke="black" stroke-dasharray="5,2" d="M1057,-412.07C1057,-412.07 1057,-354.58 1057,-354.58"/>
<polygon fill="black" stroke="black" points="1060.5,-354.58 1057,-344.58 1053.5,-354.58 1060.5,-354.58"/>
</a>
</g>
<text text-anchor="middle" x="1034.88" y="-385.08" font-family="Sans-Serif" font-size="10.00" fill="#2d3436">3550/TCP</text>
</g>
<!-- 18b747fc21c841e09c98cd46bf0bbaba -->
<g id="node25" class="node">
<title>18b747fc21c841e09c98cd46bf0bbaba</title>
<g id="a_node25"><a xlink:title="kind: Deployment&#10;apiVersion: apps/v1&#10;metadata:&#10; &#160;name: cartservice&#10;...">
<image xlink:href="https://raw.githubusercontent.com/mingrammer/diagrams/refs/heads/master/resources/k8s/compute/deploy.png" width="100.8px" height="100.8px" preserveAspectRatio="xMinYMin meet" x="832.6" y="-325.6"/>
<text text-anchor="middle" x="883" y="-207.95" font-family="Sans-Serif" font-size="13.00" fill="#2d3436">cartservice</text>
</a>
</g>
</g>
<!-- 18b747fc21c841e09c98cd46bf0bbaba&#45;&gt;f06072384087400282b5c67e95ecbf0a -->
<g id="edge14" class="edge">
<title>18b747fc21c841e09c98cd46bf0bbaba&#45;&gt;f06072384087400282b5c67e95ecbf0a</title>
<g id="a_edge14"><a xlink:title="spec.template.spec.serviceAccountName: cartservice">
<path fill="none" stroke="black" d="M883,-206.86C883,-206.86 883,-163.59 883,-163.59"/>
<polygon fill="black" stroke="black" points="886.5,-163.59 883,-153.59 879.5,-163.59 886.5,-163.59"/>
</a>
</g>
</g>
<!-- 05556a9fe43942528ada3dc983e94a3a -->
<g id="node26" class="node">
<title>05556a9fe43942528ada3dc983e94a3a</title>
<g id="a_node26"><a xlink:title="kind: Service&#10;apiVersion: v1&#10;metadata:&#10; &#160;name: cartservice&#10;...">
<image xlink:href="https://raw.githubusercontent.com/mingrammer/diagrams/refs/heads/master/resources/k8s/network/svc.png" width="100.8px" height="100.8px" preserveAspectRatio="xMinYMin meet" x="832.6" y="-530.8"/>
<text text-anchor="middle" x="883" y="-413.15" font-family="Sans-Serif" font-size="13.00" fill="#2d3436">cartservice</text>
</a>
</g>
</g>
<!-- 05556a9fe43942528ada3dc983e94a3a&#45;&gt;18b747fc21c841e09c98cd46bf0bbaba -->
<g id="edge15" class="edge">
<title>05556a9fe43942528ada3dc983e94a3a&#45;&gt;18b747fc21c841e09c98cd46bf0bbaba</title>
<g id="a_edge15"><a xlink:title="spec.selector:&#10; &#160;app: cartservice">
<path fill="none" stroke="black" stroke-dasharray="5,2" d="M883,-412.07C883,-412.07 883,-354.58 883,-354.58"/>
<polygon fill="black" stroke="black" points="886.5,-354.58 883,-344.58 879.5,-354.58 886.5,-354.58"/>
</a>
</g>
<text text-anchor="middle" x="860.88" y="-385.08" font-family="Sans-Serif" font-size="10.00" fill="#2d3436">7070/TCP</text>
</g>
<!-- 491bd93a4b7741188435809ebe7896d2 -->
<g id="node27" class="node">
<title>491bd93a4b7741188435809ebe7896d2</title>
<g id="a_node27"><a xlink:title="kind: Deployment&#10;apiVersion: apps/v1&#10;metadata:&#10; &#160;name: redis&#45;cart&#10;...">
<image xlink:href="https://raw.githubusercontent.com/mingrammer/diagrams/refs/heads/master/resources/k8s/compute/deploy.png" width="100.8px" height="100.8px" preserveAspectRatio="xMinYMin meet" x="683.6" y="-325.6"/>
<text text-anchor="middle" x="734" y="-207.95" font-family="Sans-Serif" font-size="13.00" fill="#2d3436">redis&#45;cart</text>
</a>
</g>
</g>
<!-- 4b4066c272084aefa4249d7867a2177d -->
<g id="node28" class="node">
<title>4b4066c272084aefa4249d7867a2177d</title>
<g id="a_node28"><a xlink:title="kind: Service&#10;apiVersion: v1&#10;metadata:&#10; &#160;name: redis&#45;cart&#10;...">
<image xlink:href="https://raw.githubusercontent.com/mingrammer/diagrams/refs/heads/master/resources/k8s/network/svc.png" width="100.8px" height="100.8px" preserveAspectRatio="xMinYMin meet" x="683.6" y="-530.8"/>
<text text-anchor="middle" x="734" y="-413.15" font-family="Sans-Serif" font-size="13.00" fill="#2d3436">redis&#45;cart</text>
</a>
</g>
</g>
<!-- 4b4066c272084aefa4249d7867a2177d&#45;&gt;491bd93a4b7741188435809ebe7896d2 -->
<g id="edge16" class="edge">
<title>4b4066c272084aefa4249d7867a2177d&#45;&gt;491bd93a4b7741188435809ebe7896d2</title>
<g id="a_edge16"><a xlink:title="spec.selector:&#10; &#160;app: redis&#45;cart">
<path fill="none" stroke="black" stroke-dasharray="5,2" d="M734,-412.07C734,-412.07 734,-354.58 734,-354.58"/>
<polygon fill="black" stroke="black" points="737.5,-354.58 734,-344.58 730.5,-354.58 737.5,-354.58"/>
</a>
</g>
<text text-anchor="middle" x="711.88" y="-385.08" font-family="Sans-Serif" font-size="10.00" fill="#2d3436">6379/TCP</text>
</g>
<!-- 59ce154ca1a04afb8bcad4a65edec156 -->
<g id="node29" class="node">
<title>59ce154ca1a04afb8bcad4a65edec156</title>
<g id="a_node29"><a xlink:title="kind: Deployment&#10;apiVersion: apps/v1&#10;metadata:&#10; &#160;name: loadgenerator&#10;...">
<image xlink:href="https://raw.githubusercontent.com/mingrammer/diagrams/refs/heads/master/resources/k8s/compute/deploy.png" width="100.8px" height="100.8px" preserveAspectRatio="xMinYMin meet" x="522.6" y="-530.8"/>
<text text-anchor="middle" x="573" y="-413.15" font-family="Sans-Serif" font-size="13.00" fill="#2d3436">loadgenerator</text>
</a>
</g>
</g>
<!-- 59ce154ca1a04afb8bcad4a65edec156&#45;&gt;cca6341033f240fea78a38a7d0097ac3 -->
<g id="edge17" class="edge">
<title>59ce154ca1a04afb8bcad4a65edec156&#45;&gt;cca6341033f240fea78a38a7d0097ac3</title>
<g id="a_edge17"><a xlink:title="spec.template.spec.serviceAccountName: loadgenerator">
<path fill="none" stroke="black" d="M573,-412.07C573,-412.07 573,-354.58 573,-354.58"/>
<polygon fill="black" stroke="black" points="576.5,-354.58 573,-344.58 569.5,-354.58 576.5,-354.58"/>
</a>
</g>
</g>
<!-- bc9837dfa37b42e5ba8b5ec9c56b304e -->
<g id="node30" class="node">
<title>bc9837dfa37b42e5ba8b5ec9c56b304e</title>
<g id="a_node30"><a xlink:title="kind: Deployment&#10;apiVersion: apps/v1&#10;metadata:&#10; &#160;name: currencyservice&#10;...">
<image xlink:href="https://raw.githubusercontent.com/mingrammer/diagrams/refs/heads/master/resources/k8s/compute/deploy.png" width="100.8px" height="100.8px" preserveAspectRatio="xMinYMin meet" x="353.6" y="-325.6"/>
<text text-anchor="middle" x="404" y="-207.95" font-family="Sans-Serif" font-size="13.00" fill="#2d3436">currencyservice</text>
</a>
</g>
</g>
<!-- bc9837dfa37b42e5ba8b5ec9c56b304e&#45;&gt;ca9a5866fae34b3ab91df23abd2e9a02 -->
<g id="edge18" class="edge">
<title>bc9837dfa37b42e5ba8b5ec9c56b304e&#45;&gt;ca9a5866fae34b3ab91df23abd2e9a02</title>
<g id="a_edge18"><a xlink:title="spec.template.spec.serviceAccountName: currencyservice">
<path fill="none" stroke="black" d="M404,-206.86C404,-206.86 404,-163.59 404,-163.59"/>
<polygon fill="black" stroke="black" points="407.5,-163.59 404,-153.59 400.5,-163.59 407.5,-163.59"/>
</a>
</g>
</g>
<!-- 0a8a24b57fdb42a292ad3ae182f14c7a -->
<g id="node31" class="node">
<title>0a8a24b57fdb42a292ad3ae182f14c7a</title>
<g id="a_node31"><a xlink:title="kind: Service&#10;apiVersion: v1&#10;metadata:&#10; &#160;name: currencyservice&#10;...">
<image xlink:href="https://raw.githubusercontent.com/mingrammer/diagrams/refs/heads/master/resources/k8s/network/svc.png" width="100.8px" height="100.8px" preserveAspectRatio="xMinYMin meet" x="353.6" y="-530.8"/>
<text text-anchor="middle" x="404" y="-413.15" font-family="Sans-Serif" font-size="13.00" fill="#2d3436">currencyservice</text>
</a>
</g>
</g>
<!-- 0a8a24b57fdb42a292ad3ae182f14c7a&#45;&gt;bc9837dfa37b42e5ba8b5ec9c56b304e -->
<g id="edge19" class="edge">
<title>0a8a24b57fdb42a292ad3ae182f14c7a&#45;&gt;bc9837dfa37b42e5ba8b5ec9c56b304e</title>
<g id="a_edge19"><a xlink:title="spec.selector:&#10; &#160;app: currencyservice">
<path fill="none" stroke="black" stroke-dasharray="5,2" d="M404,-412.07C404,-412.07 404,-354.58 404,-354.58"/>
<polygon fill="black" stroke="black" points="407.5,-354.58 404,-344.58 400.5,-354.58 407.5,-354.58"/>
</a>
</g>
<text text-anchor="middle" x="381.88" y="-385.08" font-family="Sans-Serif" font-size="10.00" fill="#2d3436">7000/TCP</text>
</g>
<!-- a51f21318598498cb38f9816f1ec0cfe -->
<g id="node32" class="node">
<title>a51f21318598498cb38f9816f1ec0cfe</title>
<g id="a_node32"><a xlink:title="kind: Deployment&#10;apiVersion: apps/v1&#10;metadata:&#10; &#160;name: shippingservice&#10;...">
<image xlink:href="https://raw.githubusercontent.com/mingrammer/diagrams/refs/heads/master/resources/k8s/compute/deploy.png" width="100.8px" height="100.8px" preserveAspectRatio="xMinYMin meet" x="187.6" y="-325.6"/>
<text text-anchor="middle" x="238" y="-207.95" font-family="Sans-Serif" font-size="13.00" fill="#2d3436">shippingservice</text>
</a>
</g>
</g>
<!-- a51f21318598498cb38f9816f1ec0cfe&#45;&gt;5187a10b49ce414997636070ce354c32 -->
<g id="edge20" class="edge">
<title>a51f21318598498cb38f9816f1ec0cfe&#45;&gt;5187a10b49ce414997636070ce354c32</title>
<g id="a_edge20"><a xlink:title="spec.template.spec.serviceAccountName: shippingservice">
<path fill="none" stroke="black" d="M238,-206.86C238,-206.86 238,-163.59 238,-163.59"/>
<polygon fill="black" stroke="black" points="241.5,-163.59 238,-153.59 234.5,-163.59 241.5,-163.59"/>
</a>
</g>
</g>
<!-- 6d259b9840254f66aa913fd25a5d7fd7 -->
<g id="node33" class="node">
<title>6d259b9840254f66aa913fd25a5d7fd7</title>
<g id="a_node33"><a xlink:title="kind: Service&#10;apiVersion: v1&#10;metadata:&#10; &#160;name: shippingservice&#10;...">
<image xlink:href="https://raw.githubusercontent.com/mingrammer/diagrams/refs/heads/master/resources/k8s/network/svc.png" width="100.8px" height="100.8px" preserveAspectRatio="xMinYMin meet" x="187.6" y="-530.8"/>
<text text-anchor="middle" x="238" y="-413.15" font-family="Sans-Serif" font-size="13.00" fill="#2d3436">shippingservice</text>
</a>
</g>
</g>
<!-- 6d259b9840254f66aa913fd25a5d7fd7&#45;&gt;a51f21318598498cb38f9816f1ec0cfe -->
<g id="edge21" class="edge">
<title>6d259b9840254f66aa913fd25a5d7fd7&#45;&gt;a51f21318598498cb38f9816f1ec0cfe</title>
<g id="a_edge21"><a xlink:title="spec.selector:&#10; &#160;app: shippingservice">
<path fill="none" stroke="black" stroke-dasharray="5,2" d="M238,-412.07C238,-412.07 238,-354.58 238,-354.58"/>
<polygon fill="black" stroke="black" points="241.5,-354.58 238,-344.58 234.5,-354.58 241.5,-354.58"/>
</a>
</g>
<text text-anchor="middle" x="213.25" y="-385.08" font-family="Sans-Serif" font-size="10.00" fill="#2d3436">50051/TCP</text>
</g>
<!-- ce3d42be64b64fd7b9e8934b2d382c98 -->
<g id="node34" class="node">
<title>ce3d42be64b64fd7b9e8934b2d382c98</title>
<g id="a_node34"><a xlink:title="kind: Deployment&#10;apiVersion: apps/v1&#10;metadata:&#10; &#160;name: adservice&#10;...">
<image xlink:href="https://raw.githubusercontent.com/mingrammer/diagrams/refs/heads/master/resources/k8s/compute/deploy.png" width="100.8px" height="100.8px" preserveAspectRatio="xMinYMin meet" x="30.6" y="-325.6"/>
<text text-anchor="middle" x="81" y="-207.95" font-family="Sans-Serif" font-size="13.00" fill="#2d3436">adservice</text>
</a>
</g>
</g>
<!-- ce3d42be64b64fd7b9e8934b2d382c98&#45;&gt;de26a3a5f3fe4d7a826c93715e6836cf -->
<g id="edge22" class="edge">
<title>ce3d42be64b64fd7b9e8934b2d382c98&#45;&gt;de26a3a5f3fe4d7a826c93715e6836cf</title>
<g id="a_edge22"><a xlink:title="spec.template.spec.serviceAccountName: adservice">
<path fill="none" stroke="black" d="M81,-206.86C81,-206.86 81,-163.59 81,-163.59"/>
<polygon fill="black" stroke="black" points="84.5,-163.59 81,-153.59 77.5,-163.59 84.5,-163.59"/>
</a>
</g>
</g>
<!-- e89b9b1832b34a25a6eb84b6e9b8232d -->
<g id="node35" class="node">
<title>e89b9b1832b34a25a6eb84b6e9b8232d</title>
<g id="a_node35"><a xlink:title="kind: Service&#10;apiVersion: v1&#10;metadata:&#10; &#160;name: adservice&#10;...">
<image xlink:href="https://raw.githubusercontent.com/mingrammer/diagrams/refs/heads/master/resources/k8s/network/svc.png" width="100.8px" height="100.8px" preserveAspectRatio="xMinYMin meet" x="30.6" y="-530.8"/>
<text text-anchor="middle" x="81" y="-413.15" font-family="Sans-Serif" font-size="13.00" fill="#2d3436">adservice</text>
</a>
</g>
</g>
<!-- e89b9b1832b34a25a6eb84b6e9b8232d&#45;&gt;ce3d42be64b64fd7b9e8934b2d382c98 -->
<g id="edge23" class="edge">
<title>e89b9b1832b34a25a6eb84b6e9b8232d&#45;&gt;ce3d42be64b64fd7b9e8934b2d382c98</title>
<g id="a_edge23"><a xlink:title="spec.selector:&#10; &#160;app: adservice">
<path fill="none" stroke="black" stroke-dasharray="5,2" d="M81,-412.07C81,-412.07 81,-354.58 81,-354.58"/>
<polygon fill="black" stroke="black" points="84.5,-354.58 81,-344.58 77.5,-354.58 84.5,-354.58"/>
</a>
</g>
<text text-anchor="middle" x="58.88" y="-385.08" font-family="Sans-Serif" font-size="10.00" fill="#2d3436">9555/TCP</text>
</g>
</g>
</svg>
