<?xml version="1.0" encoding="UTF-8" standalone="no"?>
<!DOCTYPE svg PUBLIC "-//W3C//DTD SVG 1.1//EN"
 "http://www.w3.org/Graphics/SVG/1.1/DTD/svg11.dtd">
<!-- Generated by graphviz version 8.1.0 (20230707.0739)
 -->
<!-- Pages: 1 -->
<svg width="2459pt" height="858pt"
 viewBox="0.00 0.00 2459.00 857.55" xmlns="http://www.w3.org/2000/svg" xmlns:xlink="http://www.w3.org/1999/xlink">
<g id="graph0" class="graph" transform="scale(1 1) rotate(0) translate(144 713.55)">
<polygon fill="white" stroke="none" points="-144,144 -144,-713.55 2315,-713.55 2315,144 -144,144"/>
<g id="clust1" class="cluster">
<title>cluster_Application: adservice</title>
<g id="a_clust1"><a xlink:title="Application: adservice">
<path fill="#ece8f6" stroke="#aeb6be" d="M20,-182.8C20,-182.8 129,-182.8 129,-182.8 135,-182.8 141,-188.8 141,-194.8 141,-194.8 141,-549.55 141,-549.55 141,-555.55 135,-561.55 129,-561.55 129,-561.55 20,-561.55 20,-561.55 14,-561.55 8,-555.55 8,-549.55 8,-549.55 8,-194.8 8,-194.8 8,-188.8 14,-182.8 20,-182.8"/>
<text text-anchor="middle" x="74.88" y="-546.15" font-family="Sans-Serif" font-size="12.00" fill="#2d3436">Application: adservice</text>
</a>
</g>
</g>
<g id="clust2" class="cluster">
<title>cluster_Application: cartservice</title>
<g id="a_clust2"><a xlink:title="Application: cartservice">
<path fill="#ece8f6" stroke="#aeb6be" d="M162,-182.8C162,-182.8 277,-182.8 277,-182.8 283,-182.8 289,-188.8 289,-194.8 289,-194.8 289,-549.55 289,-549.55 289,-555.55 283,-561.55 277,-561.55 277,-561.55 162,-561.55 162,-561.55 156,-561.55 150,-555.55 150,-549.55 150,-549.55 150,-194.8 150,-194.8 150,-188.8 156,-182.8 162,-182.8"/>
<text text-anchor="middle" x="219.88" y="-546.15" font-family="Sans-Serif" font-size="12.00" fill="#2d3436">Application: cartservice</text>
</a>
</g>
</g>
<g id="clust3" class="cluster">
<title>cluster_Application: checkoutservice</title>
<g id="a_clust3"><a xlink:title="Application: checkoutservice">
<path fill="#ece8f6" stroke="#aeb6be" d="M452,-182.8C452,-182.8 596,-182.8 596,-182.8 602,-182.8 608,-188.8 608,-194.8 608,-194.8 608,-549.55 608,-549.55 608,-555.55 602,-561.55 596,-561.55 596,-561.55 452,-561.55 452,-561.55 446,-561.55 440,-555.55 440,-549.55 440,-549.55 440,-194.8 440,-194.8 440,-188.8 446,-182.8 452,-182.8"/>
<text text-anchor="middle" x="524.12" y="-546.15" font-family="Sans-Serif" font-size="12.00" fill="#2d3436">Application: checkoutservice</text>
</a>
</g>
</g>
<g id="clust4" class="cluster">
<title>cluster_Application: currencyservice</title>
<g id="a_clust4"><a xlink:title="Application: currencyservice">
<path fill="#ece8f6" stroke="#aeb6be" d="M628,-182.8C628,-182.8 770,-182.8 770,-182.8 776,-182.8 782,-188.8 782,-194.8 782,-194.8 782,-549.55 782,-549.55 782,-555.55 776,-561.55 770,-561.55 770,-561.55 628,-561.55 628,-561.55 622,-561.55 616,-555.55 616,-549.55 616,-549.55 616,-194.8 616,-194.8 616,-188.8 622,-182.8 628,-182.8"/>
<text text-anchor="middle" x="699" y="-546.15" font-family="Sans-Serif" font-size="12.00" fill="#2d3436">Application: currencyservice</text>
</a>
</g>
</g>
<g id="clust5" class="cluster">
<title>cluster_Application: emailservice</title>
<g id="a_clust5"><a xlink:title="Application: emailservice">
<path fill="#ece8f6" stroke="#aeb6be" d="M802,-182.8C802,-182.8 927,-182.8 927,-182.8 933,-182.8 939,-188.8 939,-194.8 939,-194.8 939,-549.55 939,-549.55 939,-555.55 933,-561.55 927,-561.55 927,-561.55 802,-561.55 802,-561.55 796,-561.55 790,-555.55 790,-549.55 790,-549.55 790,-194.8 790,-194.8 790,-188.8 796,-182.8 802,-182.8"/>
<text text-anchor="middle" x="864.75" y="-546.15" font-family="Sans-Serif" font-size="12.00" fill="#2d3436">Application: emailservice</text>
</a>
</g>
</g>
<g id="clust6" class="cluster">
<title>cluster_Application: frontend</title>
<g id="a_clust6"><a xlink:title="Application: frontend">
<path fill="#ece8f6" stroke="#aeb6be" d="M959,-182.8C959,-182.8 1060,-182.8 1060,-182.8 1066,-182.8 1072,-188.8 1072,-194.8 1072,-194.8 1072,-549.55 1072,-549.55 1072,-555.55 1066,-561.55 1060,-561.55 1060,-561.55 959,-561.55 959,-561.55 953,-561.55 947,-555.55 947,-549.55 947,-549.55 947,-194.8 947,-194.8 947,-188.8 953,-182.8 959,-182.8"/>
<text text-anchor="middle" x="1009.75" y="-546.15" font-family="Sans-Serif" font-size="12.00" fill="#2d3436">Application: frontend</text>
</a>
</g>
</g>
<g id="clust7" class="cluster">
<title>cluster_Application: paymentservice</title>
<g id="a_clust7"><a xlink:title="Application: paymentservice">
<path fill="#ece8f6" stroke="#aeb6be" d="M1401,-182.8C1401,-182.8 1543,-182.8 1543,-182.8 1549,-182.8 1555,-188.8 1555,-194.8 1555,-194.8 1555,-549.55 1555,-549.55 1555,-555.55 1549,-561.55 1543,-561.55 1543,-561.55 1401,-561.55 1401,-561.55 1395,-561.55 1389,-555.55 1389,-549.55 1389,-549.55 1389,-194.8 1389,-194.8 1389,-188.8 1395,-182.8 1401,-182.8"/>
<text text-anchor="middle" x="1472" y="-546.15" font-family="Sans-Serif" font-size="12.00" fill="#2d3436">Application: paymentservice</text>
</a>
</g>
</g>
<g id="clust8" class="cluster">
<title>cluster_Application: productcatalogservice</title>
<g id="a_clust8"><a xlink:title="Application: productcatalogservice">
<path fill="#ece8f6" stroke="#aeb6be" d="M1575,-182.8C1575,-182.8 1750,-182.8 1750,-182.8 1756,-182.8 1762,-188.8 1762,-194.8 1762,-194.8 1762,-549.55 1762,-549.55 1762,-555.55 1756,-561.55 1750,-561.55 1750,-561.55 1575,-561.55 1575,-561.55 1569,-561.55 1563,-555.55 1563,-549.55 1563,-549.55 1563,-194.8 1563,-194.8 1563,-188.8 1569,-182.8 1575,-182.8"/>
<text text-anchor="middle" x="1662.5" y="-546.15" font-family="Sans-Serif" font-size="12.00" fill="#2d3436">Application: productcatalogservice</text>
</a>
</g>
</g>
<g id="clust9" class="cluster">
<title>cluster_Application: recommendationservice</title>
<g id="a_clust9"><a xlink:title="Application: recommendationservice">
<path fill="#ece8f6" stroke="#aeb6be" d="M1782,-182.8C1782,-182.8 1967,-182.8 1967,-182.8 1973,-182.8 1979,-188.8 1979,-194.8 1979,-194.8 1979,-549.55 1979,-549.55 1979,-555.55 1973,-561.55 1967,-561.55 1967,-561.55 1782,-561.55 1782,-561.55 1776,-561.55 1770,-555.55 1770,-549.55 1770,-549.55 1770,-194.8 1770,-194.8 1770,-188.8 1776,-182.8 1782,-182.8"/>
<text text-anchor="middle" x="1874.75" y="-546.15" font-family="Sans-Serif" font-size="12.00" fill="#2d3436">Application: recommendationservice</text>
</a>
</g>
</g>
<g id="clust10" class="cluster">
<title>cluster_Application: shippingservice</title>
<g id="a_clust10"><a xlink:title="Application: shippingservice">
<path fill="#ece8f6" stroke="#aeb6be" d="M2009,-182.8C2009,-182.8 2151,-182.8 2151,-182.8 2157,-182.8 2163,-188.8 2163,-194.8 2163,-194.8 2163,-549.55 2163,-549.55 2163,-555.55 2157,-561.55 2151,-561.55 2151,-561.55 2009,-561.55 2009,-561.55 2003,-561.55 1997,-555.55 1997,-549.55 1997,-549.55 1997,-194.8 1997,-194.8 1997,-188.8 2003,-182.8 2009,-182.8"/>
<text text-anchor="middle" x="2080" y="-546.15" font-family="Sans-Serif" font-size="12.00" fill="#2d3436">Application: shippingservice</text>
</a>
</g>
</g>
<g id="clust11" class="cluster">
<title>cluster_Application: loadgenerator</title>
<g id="a_clust11"><a xlink:title="Application: loadgenerator">
<path fill="#ece8f6" stroke="#aeb6be" d="M1237,-388C1237,-388 1369,-388 1369,-388 1375,-388 1381,-394 1381,-400 1381,-400 1381,-549.55 1381,-549.55 1381,-555.55 1375,-561.55 1369,-561.55 1369,-561.55 1237,-561.55 1237,-561.55 1231,-561.55 1225,-555.55 1225,-549.55 1225,-549.55 1225,-400 1225,-400 1225,-394 1231,-388 1237,-388"/>
<text text-anchor="middle" x="1303.12" y="-546.15" font-family="Sans-Serif" font-size="12.00" fill="#2d3436">Application: loadgenerator</text>
</a>
</g>
</g>
<!-- 00566e6b3d484572b3d9069b631d263f -->
<g id="node1" class="node">
<title>00566e6b3d484572b3d9069b631d263f</title>
<g id="a_node1"><a xlink:title="kind: ServiceAccount&#10;apiVersion: v1&#10;metadata:&#10; &#160;name: adservice&#10;...">
<image xlink:href="https://raw.githubusercontent.com/mingrammer/diagrams/refs/heads/master/resources/k8s/rbac/sa.png" width="100.8px" height="100.8px" preserveAspectRatio="xMinYMin meet" x="23.6" y="-118.8"/>
<text text-anchor="middle" x="74" y="-1.15" font-family="Sans-Serif" font-size="13.00" fill="#2d3436">adservice</text>
</a>
</g>
</g>
<!-- 65cd0380f2644fddbd16300ca2aa7fab -->
<g id="node2" class="node">
<title>65cd0380f2644fddbd16300ca2aa7fab</title>
<g id="a_node2"><a xlink:title="kind: ServiceAccount&#10;apiVersion: v1&#10;metadata:&#10; &#160;name: cartservice&#10;...">
<image xlink:href="https://raw.githubusercontent.com/mingrammer/diagrams/refs/heads/master/resources/k8s/rbac/sa.png" width="100.8px" height="100.8px" preserveAspectRatio="xMinYMin meet" x="173.6" y="-118.8"/>
<text text-anchor="middle" x="224" y="-1.15" font-family="Sans-Serif" font-size="13.00" fill="#2d3436">cartservice</text>
</a>
</g>
</g>
<!-- 14536fd6faae4bc689fcc4242ebb1204 -->
<g id="node3" class="node">
<title>14536fd6faae4bc689fcc4242ebb1204</title>
<g id="a_node3"><a xlink:title="kind: ServiceAccount&#10;apiVersion: v1&#10;metadata:&#10; &#160;name: redis&#45;cart&#10;...">
<image xlink:href="https://raw.githubusercontent.com/mingrammer/diagrams/refs/heads/master/resources/k8s/rbac/sa.png" width="100.8px" height="100.8px" preserveAspectRatio="xMinYMin meet" x="317.6" y="-118.8"/>
<text text-anchor="middle" x="368" y="-1.15" font-family="Sans-Serif" font-size="13.00" fill="#2d3436">redis&#45;cart</text>
</a>
</g>
</g>
<!-- 6c4ddab51c2d496d862aea5a8773d817 -->
<g id="node4" class="node">
<title>6c4ddab51c2d496d862aea5a8773d817</title>
<g id="a_node4"><a xlink:title="kind: ServiceAccount&#10;apiVersion: v1&#10;metadata:&#10; &#160;name: checkoutservice&#10;...">
<image xlink:href="https://raw.githubusercontent.com/mingrammer/diagrams/refs/heads/master/resources/k8s/rbac/sa.png" width="100.8px" height="100.8px" preserveAspectRatio="xMinYMin meet" x="477.6" y="-118.8"/>
<text text-anchor="middle" x="528" y="-1.15" font-family="Sans-Serif" font-size="13.00" fill="#2d3436">checkoutservice</text>
</a>
</g>
</g>
<!-- 1dc40505b7464292838131f055cd6ebb -->
<g id="node5" class="node">
<title>1dc40505b7464292838131f055cd6ebb</title>
<g id="a_node5"><a xlink:title="kind: ServiceAccount&#10;apiVersion: v1&#10;metadata:&#10; &#160;name: currencyservice&#10;...">
<image xlink:href="https://raw.githubusercontent.com/mingrammer/diagrams/refs/heads/master/resources/k8s/rbac/sa.png" width="100.8px" height="100.8px" preserveAspectRatio="xMinYMin meet" x="638.6" y="-118.8"/>
<text text-anchor="middle" x="689" y="-1.15" font-family="Sans-Serif" font-size="13.00" fill="#2d3436">currencyservice</text>
</a>
</g>
</g>
<!-- af302c1609ee4ce783b1aa4db31c338f -->
<g id="node6" class="node">
<title>af302c1609ee4ce783b1aa4db31c338f</title>
<g id="a_node6"><a xlink:title="kind: ServiceAccount&#10;apiVersion: v1&#10;metadata:&#10; &#160;name: emailservice&#10;...">
<image xlink:href="https://raw.githubusercontent.com/mingrammer/diagrams/refs/heads/master/resources/k8s/rbac/sa.png" width="100.8px" height="100.8px" preserveAspectRatio="xMinYMin meet" x="805.6" y="-118.8"/>
<text text-anchor="middle" x="856" y="-1.15" font-family="Sans-Serif" font-size="13.00" fill="#2d3436">emailservice</text>
</a>
</g>
</g>
<!-- 341ca6b39286416491e9a5eb53c933be -->
<g id="node7" class="node">
<title>341ca6b39286416491e9a5eb53c933be</title>
<g id="a_node7"><a xlink:title="kind: ServiceAccount&#10;apiVersion: v1&#10;metadata:&#10; &#160;name: frontend&#10;...">
<image xlink:href="https://raw.githubusercontent.com/mingrammer/diagrams/refs/heads/master/resources/k8s/rbac/sa.png" width="100.8px" height="100.8px" preserveAspectRatio="xMinYMin meet" x="961.6" y="-118.8"/>
<text text-anchor="middle" x="1012" y="-1.15" font-family="Sans-Serif" font-size="13.00" fill="#2d3436">frontend</text>
</a>
</g>
</g>
<!-- 342fda3ec0084003a60fc70e91c63d67 -->
<g id="node8" class="node">
<title>342fda3ec0084003a60fc70e91c63d67</title>
<g id="a_node8"><a xlink:title="kind: ServiceAccount&#10;apiVersion: v1&#10;metadata:&#10; &#160;name: loadgenerator&#10;...">
<image xlink:href="https://raw.githubusercontent.com/mingrammer/diagrams/refs/heads/master/resources/k8s/rbac/sa.png" width="100.8px" height="100.8px" preserveAspectRatio="xMinYMin meet" x="1259.6" y="-309.6"/>
<text text-anchor="middle" x="1310" y="-191.95" font-family="Sans-Serif" font-size="13.00" fill="#2d3436">loadgenerator</text>
</a>
</g>
</g>
<!-- 6c079669d72e438aa3636fd667925699 -->
<g id="node9" class="node">
<title>6c079669d72e438aa3636fd667925699</title>
<g id="a_node9"><a xlink:title="kind: ServiceAccount&#10;apiVersion: v1&#10;metadata:&#10; &#160;name: paymentservice&#10;...">
<image xlink:href="https://raw.githubusercontent.com/mingrammer/diagrams/refs/heads/master/resources/k8s/rbac/sa.png" width="100.8px" height="100.8px" preserveAspectRatio="xMinYMin meet" x="1425.6" y="-118.8"/>
<text text-anchor="middle" x="1476" y="-1.15" font-family="Sans-Serif" font-size="13.00" fill="#2d3436">paymentservice</text>
</a>
</g>
</g>
<!-- db0e8ad29dce419bbdd41fa20b070ec5 -->
<g id="node10" class="node">
<title>db0e8ad29dce419bbdd41fa20b070ec5</title>
<g id="a_node10"><a xlink:title="kind: ServiceAccount&#10;apiVersion: v1&#10;metadata:&#10; &#160;name: productcatalogservice&#10;...">
<image xlink:href="https://raw.githubusercontent.com/mingrammer/diagrams/refs/heads/master/resources/k8s/rbac/sa.png" width="100.8px" height="100.8px" preserveAspectRatio="xMinYMin meet" x="1612.6" y="-118.8"/>
<text text-anchor="middle" x="1663" y="-1.15" font-family="Sans-Serif" font-size="13.00" fill="#2d3436">productcatalogservice</text>
</a>
</g>
</g>
<!-- 4061d7e15f5645a3beb10eea2edbdef1 -->
<g id="node11" class="node">
<title>4061d7e15f5645a3beb10eea2edbdef1</title>
<g id="a_node11"><a xlink:title="kind: ServiceAccount&#10;apiVersion: v1&#10;metadata:&#10; &#160;name: recommendationservice&#10;...">
<image xlink:href="https://raw.githubusercontent.com/mingrammer/diagrams/refs/heads/master/resources/k8s/rbac/sa.png" width="100.8px" height="100.8px" preserveAspectRatio="xMinYMin meet" x="1849.6" y="-118.8"/>
<text text-anchor="middle" x="1900" y="-1.15" font-family="Sans-Serif" font-size="13.00" fill="#2d3436">recommendationservice</text>
</a>
</g>
</g>
<!-- b995e9e030974699a8c2462e204fddc7 -->
<g id="node12" class="node">
<title>b995e9e030974699a8c2462e204fddc7</title>
<g id="a_node12"><a xlink:title="kind: ServiceAccount&#10;apiVersion: v1&#10;metadata:&#10; &#160;name: shippingservice&#10;...">
<image xlink:href="https://raw.githubusercontent.com/mingrammer/diagrams/refs/heads/master/resources/k8s/rbac/sa.png" width="100.8px" height="100.8px" preserveAspectRatio="xMinYMin meet" x="2024.6" y="-118.8"/>
<text text-anchor="middle" x="2075" y="-1.15" font-family="Sans-Serif" font-size="13.00" fill="#2d3436">shippingservice</text>
</a>
</g>
</g>
<!-- 67047e248ee64c1e919f1f7a3139838a -->
<g id="node13" class="node">
<title>67047e248ee64c1e919f1f7a3139838a</title>
<g id="a_node13"><a xlink:title="kind: Service&#10;apiVersion: v1&#10;metadata:&#10; &#160;name: redis&#45;cart&#10;...">
<image xlink:href="https://raw.githubusercontent.com/mingrammer/diagrams/refs/heads/master/resources/k8s/network/svc.png" width="100.8px" height="100.8px" preserveAspectRatio="xMinYMin meet" x="317.6" y="-514.8"/>
<text text-anchor="middle" x="368" y="-397.15" font-family="Sans-Serif" font-size="13.00" fill="#2d3436">redis&#45;cart</text>
</a>
</g>
</g>
<!-- 19058050b8014c409a87897b9d7f50b2 -->
<g id="node15" class="node">
<title>19058050b8014c409a87897b9d7f50b2</title>
<g id="a_node15"><a xlink:title="kind: Deployment&#10;apiVersion: apps/v1&#10;metadata:&#10; &#160;name: redis&#45;cart&#10;...">
<image xlink:href="https://raw.githubusercontent.com/mingrammer/diagrams/refs/heads/master/resources/k8s/compute/deploy.png" width="100.8px" height="100.8px" preserveAspectRatio="xMinYMin meet" x="317.6" y="-309.6"/>
<text text-anchor="middle" x="368" y="-191.95" font-family="Sans-Serif" font-size="13.00" fill="#2d3436">redis&#45;cart</text>
</a>
</g>
</g>
<!-- 67047e248ee64c1e919f1f7a3139838a&#45;&gt;19058050b8014c409a87897b9d7f50b2 -->
<g id="edge3" class="edge">
<title>67047e248ee64c1e919f1f7a3139838a&#45;&gt;19058050b8014c409a87897b9d7f50b2</title>
<g id="a_edge3"><a xlink:title="spec.selector:&#10; &#160;app: redis&#45;cart">
<path fill="none" stroke="black" stroke-dasharray="5,2" d="M368,-396.07C368,-396.07 368,-338.58 368,-338.58"/>
<polygon fill="black" stroke="black" points="371.5,-338.58 368,-328.58 364.5,-338.58 371.5,-338.58"/>
</a>
</g>
<text text-anchor="middle" x="345.88" y="-369.08" font-family="Sans-Serif" font-size="10.00" fill="#2d3436">6379/TCP</text>
</g>
<!-- a92675da3d8343b2bc33b814d620c887 -->
<g id="node14" class="node">
<title>a92675da3d8343b2bc33b814d620c887</title>
<g id="a_node14"><a xlink:title="kind: Service&#10;apiVersion: v1&#10;metadata:&#10; &#160;name: frontend&#45;external&#10;...">
<image xlink:href="https://raw.githubusercontent.com/mingrammer/diagrams/refs/heads/master/resources/k8s/network/svc.png" width="100.8px" height="100.8px" preserveAspectRatio="xMinYMin meet" x="1102.6" y="-514.8"/>
<text text-anchor="middle" x="1153" y="-396.25" font-family="Sans-Serif" font-size="13.00" fill="#2d3436">frontend</text>
<text text-anchor="middle" x="1153" y="-382.75" font-family="Sans-Serif" font-size="13.00" fill="#2d3436">&#45;external</text>
</a>
</g>
</g>
<!-- 539824f403064a38a1c3d4dd54230cca -->
<g id="node27" class="node">
<title>539824f403064a38a1c3d4dd54230cca</title>
<g id="a_node27"><a xlink:title="kind: Deployment&#10;apiVersion: apps/v1&#10;metadata:&#10; &#160;name: frontend&#10;...">
<image xlink:href="https://raw.githubusercontent.com/mingrammer/diagrams/refs/heads/master/resources/k8s/compute/deploy.png" width="100.8px" height="100.8px" preserveAspectRatio="xMinYMin meet" x="961.6" y="-309.6"/>
<text text-anchor="middle" x="1012" y="-191.95" font-family="Sans-Serif" font-size="13.00" fill="#2d3436">frontend</text>
</a>
</g>
</g>
<!-- a92675da3d8343b2bc33b814d620c887&#45;&gt;539824f403064a38a1c3d4dd54230cca -->
<g id="edge8" class="edge">
<title>a92675da3d8343b2bc33b814d620c887&#45;&gt;539824f403064a38a1c3d4dd54230cca</title>
<g id="a_edge8"><a xlink:title="spec.selector:&#10; &#160;app: frontend">
<path fill="none" stroke="black" stroke-dasharray="5,2" d="M1102.76,-388C1067.57,-388 1026.8,-388 1026.8,-388 1026.8,-388 1026.8,-338.37 1026.8,-338.37"/>
<polygon fill="black" stroke="black" points="1030.3,-338.37 1026.8,-328.37 1023.3,-338.37 1030.3,-338.37"/>
</a>
</g>
<text text-anchor="middle" x="1008.09" y="-378.5" font-family="Sans-Serif" font-size="10.00" fill="#2d3436">80&#45;&gt;8080/TCP</text>
</g>
<!-- 19058050b8014c409a87897b9d7f50b2&#45;&gt;14536fd6faae4bc689fcc4242ebb1204 -->
<g id="edge15" class="edge">
<title>19058050b8014c409a87897b9d7f50b2&#45;&gt;14536fd6faae4bc689fcc4242ebb1204</title>
<g id="a_edge15"><a xlink:title="spec.template.spec.serviceAccountName: redis&#45;cart">
<path fill="none" stroke="black" d="M368,-190.86C368,-190.86 368,-147.59 368,-147.59"/>
<polygon fill="black" stroke="black" points="371.5,-147.59 368,-137.59 364.5,-147.59 371.5,-147.59"/>
</a>
</g>
</g>
<!-- cd4cbc46fcf04baabdc1ed991fb0e459 -->
<g id="node16" class="node">
<title>cd4cbc46fcf04baabdc1ed991fb0e459</title>
<g id="a_node16"><a xlink:title="kind: Service&#10;apiVersion: v1&#10;metadata:&#10; &#160;name: adservice&#10;...">
<image xlink:href="https://raw.githubusercontent.com/mingrammer/diagrams/refs/heads/master/resources/k8s/network/svc.png" width="100.8px" height="100.8px" preserveAspectRatio="xMinYMin meet" x="23.6" y="-514.8"/>
<text text-anchor="middle" x="74" y="-397.15" font-family="Sans-Serif" font-size="13.00" fill="#2d3436">adservice</text>
</a>
</g>
</g>
<!-- 0354328190c64f8bbc09ebe2e600d48a -->
<g id="node17" class="node">
<title>0354328190c64f8bbc09ebe2e600d48a</title>
<g id="a_node17"><a xlink:title="kind: Deployment&#10;apiVersion: apps/v1&#10;metadata:&#10; &#160;name: adservice&#10;...">
<image xlink:href="https://raw.githubusercontent.com/mingrammer/diagrams/refs/heads/master/resources/k8s/compute/deploy.png" width="100.8px" height="100.8px" preserveAspectRatio="xMinYMin meet" x="23.6" y="-309.6"/>
<text text-anchor="middle" x="74" y="-191.95" font-family="Sans-Serif" font-size="13.00" fill="#2d3436">adservice</text>
</a>
</g>
</g>
<!-- cd4cbc46fcf04baabdc1ed991fb0e459&#45;&gt;0354328190c64f8bbc09ebe2e600d48a -->
<g id="edge1" class="edge">
<title>cd4cbc46fcf04baabdc1ed991fb0e459&#45;&gt;0354328190c64f8bbc09ebe2e600d48a</title>
<g id="a_edge1"><a xlink:title="spec.selector:&#10; &#160;app: adservice">
<path fill="none" stroke="black" stroke-dasharray="5,2" d="M74,-396.07C74,-396.07 74,-338.58 74,-338.58"/>
<polygon fill="black" stroke="black" points="77.5,-338.58 74,-328.58 70.5,-338.58 77.5,-338.58"/>
</a>
</g>
<text text-anchor="middle" x="51.88" y="-369.08" font-family="Sans-Serif" font-size="10.00" fill="#2d3436">9555/TCP</text>
</g>
<!-- 0354328190c64f8bbc09ebe2e600d48a&#45;&gt;00566e6b3d484572b3d9069b631d263f -->
<g id="edge13" class="edge">
<title>0354328190c64f8bbc09ebe2e600d48a&#45;&gt;00566e6b3d484572b3d9069b631d263f</title>
<g id="a_edge13"><a xlink:title="spec.template.spec.serviceAccountName: adservice">
<path fill="none" stroke="black" d="M74,-190.86C74,-190.86 74,-147.59 74,-147.59"/>
<polygon fill="black" stroke="black" points="77.5,-147.59 74,-137.59 70.5,-147.59 77.5,-147.59"/>
</a>
</g>
</g>
<!-- 99f4053bee404e1586ed37676db1c5fb -->
<g id="node18" class="node">
<title>99f4053bee404e1586ed37676db1c5fb</title>
<g id="a_node18"><a xlink:title="kind: Service&#10;apiVersion: v1&#10;metadata:&#10; &#160;name: cartservice&#10;...">
<image xlink:href="https://raw.githubusercontent.com/mingrammer/diagrams/refs/heads/master/resources/k8s/network/svc.png" width="100.8px" height="100.8px" preserveAspectRatio="xMinYMin meet" x="173.6" y="-514.8"/>
<text text-anchor="middle" x="224" y="-397.15" font-family="Sans-Serif" font-size="13.00" fill="#2d3436">cartservice</text>
</a>
</g>
</g>
<!-- 37ead79fbf7c408686746bfb4a9f02bc -->
<g id="node19" class="node">
<title>37ead79fbf7c408686746bfb4a9f02bc</title>
<g id="a_node19"><a xlink:title="kind: Deployment&#10;apiVersion: apps/v1&#10;metadata:&#10; &#160;name: cartservice&#10;...">
<image xlink:href="https://raw.githubusercontent.com/mingrammer/diagrams/refs/heads/master/resources/k8s/compute/deploy.png" width="100.8px" height="100.8px" preserveAspectRatio="xMinYMin meet" x="173.6" y="-309.6"/>
<text text-anchor="middle" x="224" y="-191.95" font-family="Sans-Serif" font-size="13.00" fill="#2d3436">cartservice</text>
</a>
</g>
</g>
<!-- 99f4053bee404e1586ed37676db1c5fb&#45;&gt;37ead79fbf7c408686746bfb4a9f02bc -->
<g id="edge2" class="edge">
<title>99f4053bee404e1586ed37676db1c5fb&#45;&gt;37ead79fbf7c408686746bfb4a9f02bc</title>
<g id="a_edge2"><a xlink:title="spec.selector:&#10; &#160;app: cartservice">
<path fill="none" stroke="black" stroke-dasharray="5,2" d="M224,-396.07C224,-396.07 224,-338.58 224,-338.58"/>
<polygon fill="black" stroke="black" points="227.5,-338.58 224,-328.58 220.5,-338.58 227.5,-338.58"/>
</a>
</g>
<text text-anchor="middle" x="201.88" y="-369.08" font-family="Sans-Serif" font-size="10.00" fill="#2d3436">7070/TCP</text>
</g>
<!-- 37ead79fbf7c408686746bfb4a9f02bc&#45;&gt;65cd0380f2644fddbd16300ca2aa7fab -->
<g id="edge14" class="edge">
<title>37ead79fbf7c408686746bfb4a9f02bc&#45;&gt;65cd0380f2644fddbd16300ca2aa7fab</title>
<g id="a_edge14"><a xlink:title="spec.template.spec.serviceAccountName: cartservice">
<path fill="none" stroke="black" d="M224,-190.86C224,-190.86 224,-147.59 224,-147.59"/>
<polygon fill="black" stroke="black" points="227.5,-147.59 224,-137.59 220.5,-147.59 227.5,-147.59"/>
</a>
</g>
</g>
<!-- fa289b16d1ff4c40abbf0c4070eb5289 -->
<g id="node20" class="node">
<title>fa289b16d1ff4c40abbf0c4070eb5289</title>
<g id="a_node20"><a xlink:title="kind: Service&#10;apiVersion: v1&#10;metadata:&#10; &#160;name: checkoutservice&#10;...">
<image xlink:href="https://raw.githubusercontent.com/mingrammer/diagrams/refs/heads/master/resources/k8s/network/svc.png" width="100.8px" height="100.8px" preserveAspectRatio="xMinYMin meet" x="477.6" y="-514.8"/>
<text text-anchor="middle" x="528" y="-397.15" font-family="Sans-Serif" font-size="13.00" fill="#2d3436">checkoutservice</text>
</a>
</g>
</g>
<!-- 153ea9a2f347481a85f8edfb6169523a -->
<g id="node21" class="node">
<title>153ea9a2f347481a85f8edfb6169523a</title>
<g id="a_node21"><a xlink:title="kind: Deployment&#10;apiVersion: apps/v1&#10;metadata:&#10; &#160;name: checkoutservice&#10;...">
<image xlink:href="https://raw.githubusercontent.com/mingrammer/diagrams/refs/heads/master/resources/k8s/compute/deploy.png" width="100.8px" height="100.8px" preserveAspectRatio="xMinYMin meet" x="477.6" y="-309.6"/>
<text text-anchor="middle" x="528" y="-191.95" font-family="Sans-Serif" font-size="13.00" fill="#2d3436">checkoutservice</text>
</a>
</g>
</g>
<!-- fa289b16d1ff4c40abbf0c4070eb5289&#45;&gt;153ea9a2f347481a85f8edfb6169523a -->
<g id="edge4" class="edge">
<title>fa289b16d1ff4c40abbf0c4070eb5289&#45;&gt;153ea9a2f347481a85f8edfb6169523a</title>
<g id="a_edge4"><a xlink:title="spec.selector:&#10; &#160;app: checkoutservice">
<path fill="none" stroke="black" stroke-dasharray="5,2" d="M528,-396.07C528,-396.07 528,-338.58 528,-338.58"/>
<polygon fill="black" stroke="black" points="531.5,-338.58 528,-328.58 524.5,-338.58 531.5,-338.58"/>
</a>
</g>
<text text-anchor="middle" x="505.88" y="-369.08" font-family="Sans-Serif" font-size="10.00" fill="#2d3436">5050/TCP</text>
</g>
<!-- 153ea9a2f347481a85f8edfb6169523a&#45;&gt;6c4ddab51c2d496d862aea5a8773d817 -->
<g id="edge16" class="edge">
<title>153ea9a2f347481a85f8edfb6169523a&#45;&gt;6c4ddab51c2d496d862aea5a8773d817</title>
<g id="a_edge16"><a xlink:title="spec.template.spec.serviceAccountName: checkoutservice">
<path fill="none" stroke="black" d="M528,-190.86C528,-190.86 528,-147.59 528,-147.59"/>
<polygon fill="black" stroke="black" points="531.5,-147.59 528,-137.59 524.5,-147.59 531.5,-147.59"/>
</a>
</g>
</g>
<!-- 9f09eb509fed400cbfc0f174c8d46cdb -->
<g id="node22" class="node">
<title>9f09eb509fed400cbfc0f174c8d46cdb</title>
<g id="a_node22"><a xlink:title="kind: Service&#10;apiVersion: v1&#10;metadata:&#10; &#160;name: currencyservice&#10;...">
<image xlink:href="https://raw.githubusercontent.com/mingrammer/diagrams/refs/heads/master/resources/k8s/network/svc.png" width="100.8px" height="100.8px" preserveAspectRatio="xMinYMin meet" x="638.6" y="-514.8"/>
<text text-anchor="middle" x="689" y="-397.15" font-family="Sans-Serif" font-size="13.00" fill="#2d3436">currencyservice</text>
</a>
</g>
</g>
<!-- cbd724fc76cb4ffbae79751cc7a3031e -->
<g id="node23" class="node">
<title>cbd724fc76cb4ffbae79751cc7a3031e</title>
<g id="a_node23"><a xlink:title="kind: Deployment&#10;apiVersion: apps/v1&#10;metadata:&#10; &#160;name: currencyservice&#10;...">
<image xlink:href="https://raw.githubusercontent.com/mingrammer/diagrams/refs/heads/master/resources/k8s/compute/deploy.png" width="100.8px" height="100.8px" preserveAspectRatio="xMinYMin meet" x="638.6" y="-309.6"/>
<text text-anchor="middle" x="689" y="-191.95" font-family="Sans-Serif" font-size="13.00" fill="#2d3436">currencyservice</text>
</a>
</g>
</g>
<!-- 9f09eb509fed400cbfc0f174c8d46cdb&#45;&gt;cbd724fc76cb4ffbae79751cc7a3031e -->
<g id="edge5" class="edge">
<title>9f09eb509fed400cbfc0f174c8d46cdb&#45;&gt;cbd724fc76cb4ffbae79751cc7a3031e</title>
<g id="a_edge5"><a xlink:title="spec.selector:&#10; &#160;app: currencyservice">
<path fill="none" stroke="black" stroke-dasharray="5,2" d="M689,-396.07C689,-396.07 689,-338.58 689,-338.58"/>
<polygon fill="black" stroke="black" points="692.5,-338.58 689,-328.58 685.5,-338.58 692.5,-338.58"/>
</a>
</g>
<text text-anchor="middle" x="666.88" y="-369.08" font-family="Sans-Serif" font-size="10.00" fill="#2d3436">7000/TCP</text>
</g>
<!-- cbd724fc76cb4ffbae79751cc7a3031e&#45;&gt;1dc40505b7464292838131f055cd6ebb -->
<g id="edge17" class="edge">
<title>cbd724fc76cb4ffbae79751cc7a3031e&#45;&gt;1dc40505b7464292838131f055cd6ebb</title>
<g id="a_edge17"><a xlink:title="spec.template.spec.serviceAccountName: currencyservice">
<path fill="none" stroke="black" d="M689,-190.86C689,-190.86 689,-147.59 689,-147.59"/>
<polygon fill="black" stroke="black" points="692.5,-147.59 689,-137.59 685.5,-147.59 692.5,-147.59"/>
</a>
</g>
</g>
<!-- bf862d75e4e4453caaea84bfce7bb224 -->
<g id="node24" class="node">
<title>bf862d75e4e4453caaea84bfce7bb224</title>
<g id="a_node24"><a xlink:title="kind: Service&#10;apiVersion: v1&#10;metadata:&#10; &#160;name: emailservice&#10;...">
<image xlink:href="https://raw.githubusercontent.com/mingrammer/diagrams/refs/heads/master/resources/k8s/network/svc.png" width="100.8px" height="100.8px" preserveAspectRatio="xMinYMin meet" x="805.6" y="-514.8"/>
<text text-anchor="middle" x="856" y="-397.15" font-family="Sans-Serif" font-size="13.00" fill="#2d3436">emailservice</text>
</a>
</g>
</g>
<!-- 96d7dc5dc31a4f76a42b97855f146b8b -->
<g id="node25" class="node">
<title>96d7dc5dc31a4f76a42b97855f146b8b</title>
<g id="a_node25"><a xlink:title="kind: Deployment&#10;apiVersion: apps/v1&#10;metadata:&#10; &#160;name: emailservice&#10;...">
<image xlink:href="https://raw.githubusercontent.com/mingrammer/diagrams/refs/heads/master/resources/k8s/compute/deploy.png" width="100.8px" height="100.8px" preserveAspectRatio="xMinYMin meet" x="805.6" y="-309.6"/>
<text text-anchor="middle" x="856" y="-191.95" font-family="Sans-Serif" font-size="13.00" fill="#2d3436">emailservice</text>
</a>
</g>
</g>
<!-- bf862d75e4e4453caaea84bfce7bb224&#45;&gt;96d7dc5dc31a4f76a42b97855f146b8b -->
<g id="edge6" class="edge">
<title>bf862d75e4e4453caaea84bfce7bb224&#45;&gt;96d7dc5dc31a4f76a42b97855f146b8b</title>
<g id="a_edge6"><a xlink:title="spec.selector:&#10; &#160;app: emailservice">
<path fill="none" stroke="black" stroke-dasharray="5,2" d="M856,-396.07C856,-396.07 856,-338.58 856,-338.58"/>
<polygon fill="black" stroke="black" points="859.5,-338.58 856,-328.58 852.5,-338.58 859.5,-338.58"/>
</a>
</g>
<text text-anchor="middle" x="818.88" y="-369.08" font-family="Sans-Serif" font-size="10.00" fill="#2d3436">5000&#45;&gt;8080/TCP</text>
</g>
<!-- 96d7dc5dc31a4f76a42b97855f146b8b&#45;&gt;af302c1609ee4ce783b1aa4db31c338f -->
<g id="edge18" class="edge">
<title>96d7dc5dc31a4f76a42b97855f146b8b&#45;&gt;af302c1609ee4ce783b1aa4db31c338f</title>
<g id="a_edge18"><a xlink:title="spec.template.spec.serviceAccountName: emailservice">
<path fill="none" stroke="black" d="M856,-190.86C856,-190.86 856,-147.59 856,-147.59"/>
<polygon fill="black" stroke="black" points="859.5,-147.59 856,-137.59 852.5,-147.59 859.5,-147.59"/>
</a>
</g>
</g>
<!-- fa0ee051bc2d4166ac90ef2ce78f2ca6 -->
<g id="node26" class="node">
<title>fa0ee051bc2d4166ac90ef2ce78f2ca6</title>
<g id="a_node26"><a xlink:title="kind: Service&#10;apiVersion: v1&#10;metadata:&#10; &#160;name: frontend&#10;...">
<image xlink:href="https://raw.githubusercontent.com/mingrammer/diagrams/refs/heads/master/resources/k8s/network/svc.png" width="100.8px" height="100.8px" preserveAspectRatio="xMinYMin meet" x="958.6" y="-514.8"/>
<text text-anchor="middle" x="1009" y="-397.15" font-family="Sans-Serif" font-size="13.00" fill="#2d3436">frontend</text>
</a>
</g>
</g>
<!-- fa0ee051bc2d4166ac90ef2ce78f2ca6&#45;&gt;539824f403064a38a1c3d4dd54230cca -->
<g id="edge7" class="edge">
<title>fa0ee051bc2d4166ac90ef2ce78f2ca6&#45;&gt;539824f403064a38a1c3d4dd54230cca</title>
<g id="a_edge7"><a xlink:title="spec.selector:&#10; &#160;app: frontend">
<path fill="none" stroke="black" stroke-dasharray="5,2" d="M994.2,-396.07C994.2,-396.07 994.2,-338.58 994.2,-338.58"/>
<polygon fill="black" stroke="black" points="997.7,-338.58 994.2,-328.58 990.7,-338.58 997.7,-338.58"/>
</a>
</g>
<text text-anchor="middle" x="962.33" y="-357.83" font-family="Sans-Serif" font-size="10.00" fill="#2d3436">80&#45;&gt;8080/TCP</text>
</g>
<!-- 539824f403064a38a1c3d4dd54230cca&#45;&gt;341ca6b39286416491e9a5eb53c933be -->
<g id="edge19" class="edge">
<title>539824f403064a38a1c3d4dd54230cca&#45;&gt;341ca6b39286416491e9a5eb53c933be</title>
<g id="a_edge19"><a xlink:title="spec.template.spec.serviceAccountName: frontend">
<path fill="none" stroke="black" d="M1012,-190.86C1012,-190.86 1012,-147.59 1012,-147.59"/>
<polygon fill="black" stroke="black" points="1015.5,-147.59 1012,-137.59 1008.5,-147.59 1015.5,-147.59"/>
</a>
</g>
</g>
<!-- 04e81e51f0b748f8b89565404ab4500a -->
<g id="node28" class="node">
<title>04e81e51f0b748f8b89565404ab4500a</title>
<g id="a_node28"><a xlink:title="kind: Service&#10;apiVersion: v1&#10;metadata:&#10; &#160;name: paymentservice&#10;...">
<image xlink:href="https://raw.githubusercontent.com/mingrammer/diagrams/refs/heads/master/resources/k8s/network/svc.png" width="100.8px" height="100.8px" preserveAspectRatio="xMinYMin meet" x="1425.6" y="-514.8"/>
<text text-anchor="middle" x="1476" y="-397.15" font-family="Sans-Serif" font-size="13.00" fill="#2d3436">paymentservice</text>
</a>
</g>
</g>
<!-- dee3678345c645c4b4f43420716b2cfa -->
<g id="node29" class="node">
<title>dee3678345c645c4b4f43420716b2cfa</title>
<g id="a_node29"><a xlink:title="kind: Deployment&#10;apiVersion: apps/v1&#10;metadata:&#10; &#160;name: paymentservice&#10;...">
<image xlink:href="https://raw.githubusercontent.com/mingrammer/diagrams/refs/heads/master/resources/k8s/compute/deploy.png" width="100.8px" height="100.8px" preserveAspectRatio="xMinYMin meet" x="1425.6" y="-309.6"/>
<text text-anchor="middle" x="1476" y="-191.95" font-family="Sans-Serif" font-size="13.00" fill="#2d3436">paymentservice</text>
</a>
</g>
</g>
<!-- 04e81e51f0b748f8b89565404ab4500a&#45;&gt;dee3678345c645c4b4f43420716b2cfa -->
<g id="edge9" class="edge">
<title>04e81e51f0b748f8b89565404ab4500a&#45;&gt;dee3678345c645c4b4f43420716b2cfa</title>
<g id="a_edge9"><a xlink:title="spec.selector:&#10; &#160;app: paymentservice">
<path fill="none" stroke="black" stroke-dasharray="5,2" d="M1476,-396.07C1476,-396.07 1476,-338.58 1476,-338.58"/>
<polygon fill="black" stroke="black" points="1479.5,-338.58 1476,-328.58 1472.5,-338.58 1479.5,-338.58"/>
</a>
</g>
<text text-anchor="middle" x="1451.25" y="-369.08" font-family="Sans-Serif" font-size="10.00" fill="#2d3436">50051/TCP</text>
</g>
<!-- dee3678345c645c4b4f43420716b2cfa&#45;&gt;6c079669d72e438aa3636fd667925699 -->
<g id="edge21" class="edge">
<title>dee3678345c645c4b4f43420716b2cfa&#45;&gt;6c079669d72e438aa3636fd667925699</title>
<g id="a_edge21"><a xlink:title="spec.template.spec.serviceAccountName: paymentservice">
<path fill="none" stroke="black" d="M1476,-190.86C1476,-190.86 1476,-147.59 1476,-147.59"/>
<polygon fill="black" stroke="black" points="1479.5,-147.59 1476,-137.59 1472.5,-147.59 1479.5,-147.59"/>
</a>
</g>
</g>
<!-- a798677950944c28adbc9788476d4bd5 -->
<g id="node30" class="node">
<title>a798677950944c28adbc9788476d4bd5</title>
<g id="a_node30"><a xlink:title="kind: Service&#10;apiVersion: v1&#10;metadata:&#10; &#160;name: productcatalogservice&#10;...">
<image xlink:href="https://raw.githubusercontent.com/mingrammer/diagrams/refs/heads/master/resources/k8s/network/svc.png" width="100.8px" height="100.8px" preserveAspectRatio="xMinYMin meet" x="1612.6" y="-514.8"/>
<text text-anchor="middle" x="1663" y="-397.15" font-family="Sans-Serif" font-size="13.00" fill="#2d3436">productcatalogservice</text>
</a>
</g>
</g>
<!-- 53b09712a3864b00a7f899d4485a63e7 -->
<g id="node31" class="node">
<title>53b09712a3864b00a7f899d4485a63e7</title>
<g id="a_node31"><a xlink:title="kind: Deployment&#10;apiVersion: apps/v1&#10;metadata:&#10; &#160;name: productcatalogservice&#10;...">
<image xlink:href="https://raw.githubusercontent.com/mingrammer/diagrams/refs/heads/master/resources/k8s/compute/deploy.png" width="100.8px" height="100.8px" preserveAspectRatio="xMinYMin meet" x="1612.6" y="-309.6"/>
<text text-anchor="middle" x="1663" y="-191.95" font-family="Sans-Serif" font-size="13.00" fill="#2d3436">productcatalogservice</text>
</a>
</g>
</g>
<!-- a798677950944c28adbc9788476d4bd5&#45;&gt;53b09712a3864b00a7f899d4485a63e7 -->
<g id="edge10" class="edge">
<title>a798677950944c28adbc9788476d4bd5&#45;&gt;53b09712a3864b00a7f899d4485a63e7</title>
<g id="a_edge10"><a xlink:title="spec.selector:&#10; &#160;app: productcatalogservice">
<path fill="none" stroke="black" stroke-dasharray="5,2" d="M1663,-396.07C1663,-396.07 1663,-338.58 1663,-338.58"/>
<polygon fill="black" stroke="black" points="1666.5,-338.58 1663,-328.58 1659.5,-338.58 1666.5,-338.58"/>
</a>
</g>
<text text-anchor="middle" x="1640.88" y="-369.08" font-family="Sans-Serif" font-size="10.00" fill="#2d3436">3550/TCP</text>
</g>
<!-- 53b09712a3864b00a7f899d4485a63e7&#45;&gt;db0e8ad29dce419bbdd41fa20b070ec5 -->
<g id="edge22" class="edge">
<title>53b09712a3864b00a7f899d4485a63e7&#45;&gt;db0e8ad29dce419bbdd41fa20b070ec5</title>
<g id="a_edge22"><a xlink:title="spec.template.spec.serviceAccountName: productcatalogservice">
<path fill="none" stroke="black" d="M1663,-190.86C1663,-190.86 1663,-147.59 1663,-147.59"/>
<polygon fill="black" stroke="black" points="1666.5,-147.59 1663,-137.59 1659.5,-147.59 1666.5,-147.59"/>
</a>
</g>
</g>
<!-- 74a4fccc00a04b0dbe3e06a59692edc0 -->
<g id="node32" class="node">
<title>74a4fccc00a04b0dbe3e06a59692edc0</title>
<g id="a_node32"><a xlink:title="kind: Service&#10;apiVersion: v1&#10;metadata:&#10; &#160;name: recommendationservice&#10;...">
<image xlink:href="https://raw.githubusercontent.com/mingrammer/diagrams/refs/heads/master/resources/k8s/network/svc.png" width="100.8px" height="100.8px" preserveAspectRatio="xMinYMin meet" x="1849.6" y="-514.8"/>
<text text-anchor="middle" x="1900" y="-397.15" font-family="Sans-Serif" font-size="13.00" fill="#2d3436">recommendationservice</text>
</a>
</g>
</g>
<!-- a032287e9e984e55a471b0317dd6a355 -->
<g id="node33" class="node">
<title>a032287e9e984e55a471b0317dd6a355</title>
<g id="a_node33"><a xlink:title="kind: Deployment&#10;apiVersion: apps/v1&#10;metadata:&#10; &#160;name: recommendationservice&#10;...">
<image xlink:href="https://raw.githubusercontent.com/mingrammer/diagrams/refs/heads/master/resources/k8s/compute/deploy.png" width="100.8px" height="100.8px" preserveAspectRatio="xMinYMin meet" x="1849.6" y="-309.6"/>
<text text-anchor="middle" x="1900" y="-191.95" font-family="Sans-Serif" font-size="13.00" fill="#2d3436">recommendationservice</text>
</a>
</g>
</g>
<!-- 74a4fccc00a04b0dbe3e06a59692edc0&#45;&gt;a032287e9e984e55a471b0317dd6a355 -->
<g id="edge11" class="edge">
<title>74a4fccc00a04b0dbe3e06a59692edc0&#45;&gt;a032287e9e984e55a471b0317dd6a355</title>
<g id="a_edge11"><a xlink:title="spec.selector:&#10; &#160;app: recommendationservice">
<path fill="none" stroke="black" stroke-dasharray="5,2" d="M1900,-396.07C1900,-396.07 1900,-338.58 1900,-338.58"/>
<polygon fill="black" stroke="black" points="1903.5,-338.58 1900,-328.58 1896.5,-338.58 1903.5,-338.58"/>
</a>
</g>
<text text-anchor="middle" x="1877.88" y="-369.08" font-family="Sans-Serif" font-size="10.00" fill="#2d3436">8080/TCP</text>
</g>
<!-- a032287e9e984e55a471b0317dd6a355&#45;&gt;4061d7e15f5645a3beb10eea2edbdef1 -->
<g id="edge23" class="edge">
<title>a032287e9e984e55a471b0317dd6a355&#45;&gt;4061d7e15f5645a3beb10eea2edbdef1</title>
<g id="a_edge23"><a xlink:title="spec.template.spec.serviceAccountName: recommendationservice">
<path fill="none" stroke="black" d="M1900,-190.86C1900,-190.86 1900,-147.59 1900,-147.59"/>
<polygon fill="black" stroke="black" points="1903.5,-147.59 1900,-137.59 1896.5,-147.59 1903.5,-147.59"/>
</a>
</g>
</g>
<!-- aca25d23b1be4ab98bd3c4dfd0836b20 -->
<g id="node34" class="node">
<title>aca25d23b1be4ab98bd3c4dfd0836b20</title>
<g id="a_node34"><a xlink:title="kind: Service&#10;apiVersion: v1&#10;metadata:&#10; &#160;name: shippingservice&#10;...">
<image xlink:href="https://raw.githubusercontent.com/mingrammer/diagrams/refs/heads/master/resources/k8s/network/svc.png" width="100.8px" height="100.8px" preserveAspectRatio="xMinYMin meet" x="2024.6" y="-514.8"/>
<text text-anchor="middle" x="2075" y="-397.15" font-family="Sans-Serif" font-size="13.00" fill="#2d3436">shippingservice</text>
</a>
</g>
</g>
<!-- d76d82e65ac441168eda4c8425d1b790 -->
<g id="node35" class="node">
<title>d76d82e65ac441168eda4c8425d1b790</title>
<g id="a_node35"><a xlink:title="kind: Deployment&#10;apiVersion: apps/v1&#10;metadata:&#10; &#160;name: shippingservice&#10;...">
<image xlink:href="https://raw.githubusercontent.com/mingrammer/diagrams/refs/heads/master/resources/k8s/compute/deploy.png" width="100.8px" height="100.8px" preserveAspectRatio="xMinYMin meet" x="2024.6" y="-309.6"/>
<text text-anchor="middle" x="2075" y="-191.95" font-family="Sans-Serif" font-size="13.00" fill="#2d3436">shippingservice</text>
</a>
</g>
</g>
<!-- aca25d23b1be4ab98bd3c4dfd0836b20&#45;&gt;d76d82e65ac441168eda4c8425d1b790 -->
<g id="edge12" class="edge">
<title>aca25d23b1be4ab98bd3c4dfd0836b20&#45;&gt;d76d82e65ac441168eda4c8425d1b790</title>
<g id="a_edge12"><a xlink:title="spec.selector:&#10; &#160;app: shippingservice">
<path fill="none" stroke="black" stroke-dasharray="5,2" d="M2075,-396.07C2075,-396.07 2075,-338.58 2075,-338.58"/>
<polygon fill="black" stroke="black" points="2078.5,-338.58 2075,-328.58 2071.5,-338.58 2078.5,-338.58"/>
</a>
</g>
<text text-anchor="middle" x="2050.25" y="-369.08" font-family="Sans-Serif" font-size="10.00" fill="#2d3436">50051/TCP</text>
</g>
<!-- d76d82e65ac441168eda4c8425d1b790&#45;&gt;b995e9e030974699a8c2462e204fddc7 -->
<g id="edge24" class="edge">
<title>d76d82e65ac441168eda4c8425d1b790&#45;&gt;b995e9e030974699a8c2462e204fddc7</title>
<g id="a_edge24"><a xlink:title="spec.template.spec.serviceAccountName: shippingservice">
<path fill="none" stroke="black" d="M2075,-190.86C2075,-190.86 2075,-147.59 2075,-147.59"/>
<polygon fill="black" stroke="black" points="2078.5,-147.59 2075,-137.59 2071.5,-147.59 2078.5,-147.59"/>
</a>
</g>
</g>
<!-- b741f50e5f5d4fce82c2af6a1a2a444e -->
<g id="node36" class="node">
<title>b741f50e5f5d4fce82c2af6a1a2a444e</title>
<g id="a_node36"><a xlink:title="kind: Deployment&#10;apiVersion: apps/v1&#10;metadata:&#10; &#160;name: loadgenerator&#10;...">
<image xlink:href="https://raw.githubusercontent.com/mingrammer/diagrams/refs/heads/master/resources/k8s/compute/deploy.png" width="100.8px" height="100.8px" preserveAspectRatio="xMinYMin meet" x="1259.6" y="-514.8"/>
<text text-anchor="middle" x="1310" y="-397.15" font-family="Sans-Serif" font-size="13.00" fill="#2d3436">loadgenerator</text>
</a>
</g>
</g>
<!-- b741f50e5f5d4fce82c2af6a1a2a444e&#45;&gt;342fda3ec0084003a60fc70e91c63d67 -->
<g id="edge20" class="edge">
<title>b741f50e5f5d4fce82c2af6a1a2a444e&#45;&gt;342fda3ec0084003a60fc70e91c63d67</title>
<g id="a_edge20"><a xlink:title="spec.template.spec.serviceAccountName: loadgenerator">
<path fill="none" stroke="black" d="M1310,-396.07C1310,-396.07 1310,-338.58 1310,-338.58"/>
<polygon fill="black" stroke="black" points="1313.5,-338.58 1310,-328.58 1306.5,-338.58 1313.5,-338.58"/>
</a>
</g>
</g>
</g>
</svg>
