<?xml version="1.0" encoding="UTF-8" standalone="no"?>
<!DOCTYPE svg PUBLIC "-//W3C//DTD SVG 1.1//EN"
 "http://www.w3.org/Graphics/SVG/1.1/DTD/svg11.dtd">
<!-- Generated by graphviz version 8.1.0 (20230707.0739)
 -->
<!-- Pages: 1 -->
<svg width="2450pt" height="1048pt"
 viewBox="0.00 0.00 2450.00 1048.30" xmlns="http://www.w3.org/2000/svg" xmlns:xlink="http://www.w3.org/1999/xlink">
<g id="graph0" class="graph" transform="scale(1 1) rotate(0) translate(144 904.3)">
<polygon fill="white" stroke="none" points="-144,144 -144,-904.3 2306,-904.3 2306,144 -144,144"/>
<g id="clust1" class="cluster">
<title>cluster_Namespace: default</title>
<g id="a_clust1"><a xlink:title="Namespace: default">
<path fill="white" stroke="black" stroke-dasharray="5,2" d="M20,-8C20,-8 2142,-8 2142,-8 2148,-8 2154,-14 2154,-20 2154,-20 2154,-740.3 2154,-740.3 2154,-746.3 2148,-752.3 2142,-752.3 2142,-752.3 20,-752.3 20,-752.3 14,-752.3 8,-746.3 8,-740.3 8,-740.3 8,-20 8,-20 8,-14 14,-8 20,-8"/>
<image xlink:href="https://raw.githubusercontent.com/mingrammer/diagrams/refs/heads/master/resources/k8s/group/ns.png" width="60px" height="60px" preserveAspectRatio="xMinYMin meet" x="20" y="-744.3"/>
<text text-anchor="start" x="32" y="-666.9" font-family="Sans-Serif" font-size="12.00" fill="#2d3436">default</text>
</a>
</g>
</g>
<g id="clust2" class="cluster">
<title>cluster_Application: emailservice</title>
<g id="a_clust2"><a xlink:title="Application: emailservice">
<path fill="#ece8f6" stroke="#aeb6be" d="M2009,-242C2009,-242 2134,-242 2134,-242 2140,-242 2146,-248 2146,-254 2146,-254 2146,-623.15 2146,-623.15 2146,-629.15 2140,-635.15 2134,-635.15 2134,-635.15 2009,-635.15 2009,-635.15 2003,-635.15 1997,-629.15 1997,-623.15 1997,-623.15 1997,-254 1997,-254 1997,-248 2003,-242 2009,-242"/>
<text text-anchor="middle" x="2071.75" y="-619.75" font-family="Sans-Serif" font-size="12.00" fill="#2d3436">Application: emailservice</text>
</a>
</g>
</g>
<g id="clust3" class="cluster">
<title>cluster_Application: checkoutservice</title>
<g id="a_clust3"><a xlink:title="Application: checkoutservice">
<path fill="#ece8f6" stroke="#aeb6be" d="M1833,-242C1833,-242 1977,-242 1977,-242 1983,-242 1989,-248 1989,-254 1989,-254 1989,-623.15 1989,-623.15 1989,-629.15 1983,-635.15 1977,-635.15 1977,-635.15 1833,-635.15 1833,-635.15 1827,-635.15 1821,-629.15 1821,-623.15 1821,-623.15 1821,-254 1821,-254 1821,-248 1827,-242 1833,-242"/>
<text text-anchor="middle" x="1905.12" y="-619.75" font-family="Sans-Serif" font-size="12.00" fill="#2d3436">Application: checkoutservice</text>
</a>
</g>
</g>
<g id="clust4" class="cluster">
<title>cluster_Application: recommendationservice</title>
<g id="a_clust4"><a xlink:title="Application: recommendationservice">
<path fill="#ece8f6" stroke="#aeb6be" d="M1616,-227.6C1616,-227.6 1801,-227.6 1801,-227.6 1807,-227.6 1813,-233.6 1813,-239.6 1813,-239.6 1813,-637.55 1813,-637.55 1813,-643.55 1807,-649.55 1801,-649.55 1801,-649.55 1616,-649.55 1616,-649.55 1610,-649.55 1604,-643.55 1604,-637.55 1604,-637.55 1604,-239.6 1604,-239.6 1604,-233.6 1610,-227.6 1616,-227.6"/>
<text text-anchor="middle" x="1708.75" y="-634.15" font-family="Sans-Serif" font-size="12.00" fill="#2d3436">Application: recommendationservice</text>
</a>
</g>
</g>
<g id="clust5" class="cluster">
<title>cluster_Application: frontend</title>
<g id="a_clust5"><a xlink:title="Application: frontend">
<path fill="#ece8f6" stroke="#aeb6be" d="M1348,-242C1348,-242 1584,-242 1584,-242 1590,-242 1596,-248 1596,-254 1596,-254 1596,-637.55 1596,-637.55 1596,-643.55 1590,-649.55 1584,-649.55 1584,-649.55 1348,-649.55 1348,-649.55 1342,-649.55 1336,-643.55 1336,-637.55 1336,-637.55 1336,-254 1336,-254 1336,-248 1342,-242 1348,-242"/>
<text text-anchor="middle" x="1398.75" y="-634.15" font-family="Sans-Serif" font-size="12.00" fill="#2d3436">Application: frontend</text>
</a>
</g>
</g>
<g id="clust6" class="cluster">
<title>cluster_Application: paymentservice</title>
<g id="a_clust6"><a xlink:title="Application: paymentservice">
<path fill="#ece8f6" stroke="#aeb6be" d="M1174,-242C1174,-242 1316,-242 1316,-242 1322,-242 1328,-248 1328,-254 1328,-254 1328,-623.15 1328,-623.15 1328,-629.15 1322,-635.15 1316,-635.15 1316,-635.15 1174,-635.15 1174,-635.15 1168,-635.15 1162,-629.15 1162,-623.15 1162,-623.15 1162,-254 1162,-254 1162,-248 1168,-242 1174,-242"/>
<text text-anchor="middle" x="1245" y="-619.75" font-family="Sans-Serif" font-size="12.00" fill="#2d3436">Application: paymentservice</text>
</a>
</g>
</g>
<g id="clust7" class="cluster">
<title>cluster_Application: productcatalogservice</title>
<g id="a_clust7"><a xlink:title="Application: productcatalogservice">
<path fill="#ece8f6" stroke="#aeb6be" d="M967,-227.6C967,-227.6 1142,-227.6 1142,-227.6 1148,-227.6 1154,-233.6 1154,-239.6 1154,-239.6 1154,-637.55 1154,-637.55 1154,-643.55 1148,-649.55 1142,-649.55 1142,-649.55 967,-649.55 967,-649.55 961,-649.55 955,-643.55 955,-637.55 955,-637.55 955,-239.6 955,-239.6 955,-233.6 961,-227.6 967,-227.6"/>
<text text-anchor="middle" x="1054.5" y="-634.15" font-family="Sans-Serif" font-size="12.00" fill="#2d3436">Application: productcatalogservice</text>
</a>
</g>
</g>
<g id="clust8" class="cluster">
<title>cluster_Application: cartservice</title>
<g id="a_clust8"><a xlink:title="Application: cartservice">
<path fill="#ece8f6" stroke="#aeb6be" d="M820,-242C820,-242 935,-242 935,-242 941,-242 947,-248 947,-254 947,-254 947,-623.15 947,-623.15 947,-629.15 941,-635.15 935,-635.15 935,-635.15 820,-635.15 820,-635.15 814,-635.15 808,-629.15 808,-623.15 808,-623.15 808,-254 808,-254 808,-248 814,-242 820,-242"/>
<text text-anchor="middle" x="877.88" y="-619.75" font-family="Sans-Serif" font-size="12.00" fill="#2d3436">Application: cartservice</text>
</a>
</g>
</g>
<g id="clust9" class="cluster">
<title>cluster_Application: redis&#45;cart</title>
<g id="a_clust9"><a xlink:title="Application: redis&#45;cart">
<path fill="#ece8f6" stroke="#aeb6be" d="M681,-242C681,-242 788,-242 788,-242 794,-242 800,-248 800,-254 800,-254 800,-623.15 800,-623.15 800,-629.15 794,-635.15 788,-635.15 788,-635.15 681,-635.15 681,-635.15 675,-635.15 669,-629.15 669,-623.15 669,-623.15 669,-254 669,-254 669,-248 675,-242 681,-242"/>
<text text-anchor="middle" x="734.75" y="-619.75" font-family="Sans-Serif" font-size="12.00" fill="#2d3436">Application: redis&#45;cart</text>
</a>
</g>
</g>
<g id="clust10" class="cluster">
<title>cluster_Application: loadgenerator</title>
<g id="a_clust10"><a xlink:title="Application: loadgenerator">
<path fill="#ece8f6" stroke="#aeb6be" d="M517,-461.6C517,-461.6 649,-461.6 649,-461.6 655,-461.6 661,-467.6 661,-473.6 661,-473.6 661,-623.15 661,-623.15 661,-629.15 655,-635.15 649,-635.15 649,-635.15 517,-635.15 517,-635.15 511,-635.15 505,-629.15 505,-623.15 505,-623.15 505,-473.6 505,-473.6 505,-467.6 511,-461.6 517,-461.6"/>
<text text-anchor="middle" x="583.12" y="-619.75" font-family="Sans-Serif" font-size="12.00" fill="#2d3436">Application: loadgenerator</text>
</a>
</g>
</g>
<g id="clust11" class="cluster">
<title>cluster_Application: currencyservice</title>
<g id="a_clust11"><a xlink:title="Application: currencyservice">
<path fill="#ece8f6" stroke="#aeb6be" d="M343,-242C343,-242 485,-242 485,-242 491,-242 497,-248 497,-254 497,-254 497,-623.15 497,-623.15 497,-629.15 491,-635.15 485,-635.15 485,-635.15 343,-635.15 343,-635.15 337,-635.15 331,-629.15 331,-623.15 331,-623.15 331,-254 331,-254 331,-248 337,-242 343,-242"/>
<text text-anchor="middle" x="414" y="-619.75" font-family="Sans-Serif" font-size="12.00" fill="#2d3436">Application: currencyservice</text>
</a>
</g>
</g>
<g id="clust12" class="cluster">
<title>cluster_Application: shippingservice</title>
<g id="a_clust12"><a xlink:title="Application: shippingservice">
<path fill="#ece8f6" stroke="#aeb6be" d="M169,-242C169,-242 311,-242 311,-242 317,-242 323,-248 323,-254 323,-254 323,-623.15 323,-623.15 323,-629.15 317,-635.15 311,-635.15 311,-635.15 169,-635.15 169,-635.15 163,-635.15 157,-629.15 157,-623.15 157,-623.15 157,-254 157,-254 157,-248 163,-242 169,-242"/>
<text text-anchor="middle" x="240" y="-619.75" font-family="Sans-Serif" font-size="12.00" fill="#2d3436">Application: shippingservice</text>
</a>
</g>
</g>
<g id="clust13" class="cluster">
<title>cluster_Application: adservice</title>
<g id="a_clust13"><a xlink:title="Application: adservice">
<path fill="#ece8f6" stroke="#aeb6be" d="M28,-242C28,-242 137,-242 137,-242 143,-242 149,-248 149,-254 149,-254 149,-623.15 149,-623.15 149,-629.15 143,-635.15 137,-635.15 137,-635.15 28,-635.15 28,-635.15 22,-635.15 16,-629.15 16,-623.15 16,-623.15 16,-254 16,-254 16,-248 22,-242 28,-242"/>
<text text-anchor="middle" x="82.88" y="-619.75" font-family="Sans-Serif" font-size="12.00" fill="#2d3436">Application: adservice</text>
</a>
</g>
</g>
<!-- 0bdfd0b633b943b1b1ffb7f38a2dbb6c -->
<g id="node1" class="node">
<title>0bdfd0b633b943b1b1ffb7f38a2dbb6c</title>
<g id="a_node1"><a xlink:title="kind: ServiceAccount&#10;apiVersion: v1&#10;metadata:&#10; &#160;name: emailservice&#10;...">
<image xlink:href="https://raw.githubusercontent.com/mingrammer/diagrams/refs/heads/master/resources/k8s/rbac/sa.png" width="100.8px" height="100.8px" preserveAspectRatio="xMinYMin meet" x="2020.6" y="-149.2"/>
<text text-anchor="middle" x="2071" y="-31.55" font-family="Sans-Serif" font-size="13.00" fill="#2d3436">emailservice</text>
</a>
</g>
</g>
<!-- 094b9fb2fd2a405eb0ad4fefef7ef05a -->
<g id="node2" class="node">
<title>094b9fb2fd2a405eb0ad4fefef7ef05a</title>
<g id="a_node2"><a xlink:title="kind: ServiceAccount&#10;apiVersion: v1&#10;metadata:&#10; &#160;name: checkoutservice&#10;...">
<image xlink:href="https://raw.githubusercontent.com/mingrammer/diagrams/refs/heads/master/resources/k8s/rbac/sa.png" width="100.8px" height="100.8px" preserveAspectRatio="xMinYMin meet" x="1844.6" y="-149.2"/>
<text text-anchor="middle" x="1895" y="-31.55" font-family="Sans-Serif" font-size="13.00" fill="#2d3436">checkoutservice</text>
</a>
</g>
</g>
<!-- 33add546790e498dbd217c00a161217a -->
<g id="node3" class="node">
<title>33add546790e498dbd217c00a161217a</title>
<g id="a_node3"><a xlink:title="kind: ServiceAccount&#10;apiVersion: v1&#10;metadata:&#10; &#160;name: recommendationservice&#10;...">
<image xlink:href="https://raw.githubusercontent.com/mingrammer/diagrams/refs/heads/master/resources/k8s/rbac/sa.png" width="100.8px" height="100.8px" preserveAspectRatio="xMinYMin meet" x="1657.6" y="-149.2"/>
<text text-anchor="middle" x="1708" y="-30.65" font-family="Sans-Serif" font-size="13.00" fill="#2d3436">recommendationse</text>
<text text-anchor="middle" x="1708" y="-17.15" font-family="Sans-Serif" font-size="13.00" fill="#2d3436">rvice</text>
</a>
</g>
</g>
<!-- 1d7d837c50644122a3348f8068a1d3a6 -->
<g id="node4" class="node">
<title>1d7d837c50644122a3348f8068a1d3a6</title>
<g id="a_node4"><a xlink:title="kind: ServiceAccount&#10;apiVersion: v1&#10;metadata:&#10; &#160;name: frontend&#10;...">
<image xlink:href="https://raw.githubusercontent.com/mingrammer/diagrams/refs/heads/master/resources/k8s/rbac/sa.png" width="100.8px" height="100.8px" preserveAspectRatio="xMinYMin meet" x="1415.6" y="-149.2"/>
<text text-anchor="middle" x="1466" y="-31.55" font-family="Sans-Serif" font-size="13.00" fill="#2d3436">frontend</text>
</a>
</g>
</g>
<!-- cecc83c5024147869652692e71bb3bb4 -->
<g id="node5" class="node">
<title>cecc83c5024147869652692e71bb3bb4</title>
<g id="a_node5"><a xlink:title="kind: ServiceAccount&#10;apiVersion: v1&#10;metadata:&#10; &#160;name: paymentservice&#10;...">
<image xlink:href="https://raw.githubusercontent.com/mingrammer/diagrams/refs/heads/master/resources/k8s/rbac/sa.png" width="100.8px" height="100.8px" preserveAspectRatio="xMinYMin meet" x="1184.6" y="-149.2"/>
<text text-anchor="middle" x="1235" y="-31.55" font-family="Sans-Serif" font-size="13.00" fill="#2d3436">paymentservice</text>
</a>
</g>
</g>
<!-- ceea9925d96f4baea5c6680b8551c0b0 -->
<g id="node6" class="node">
<title>ceea9925d96f4baea5c6680b8551c0b0</title>
<g id="a_node6"><a xlink:title="kind: ServiceAccount&#10;apiVersion: v1&#10;metadata:&#10; &#160;name: productcatalogservice&#10;...">
<image xlink:href="https://raw.githubusercontent.com/mingrammer/diagrams/refs/heads/master/resources/k8s/rbac/sa.png" width="100.8px" height="100.8px" preserveAspectRatio="xMinYMin meet" x="1006.6" y="-149.2"/>
<text text-anchor="middle" x="1057" y="-30.65" font-family="Sans-Serif" font-size="13.00" fill="#2d3436">productcatalogse</text>
<text text-anchor="middle" x="1057" y="-17.15" font-family="Sans-Serif" font-size="13.00" fill="#2d3436">rvice</text>
</a>
</g>
</g>
<!-- 0bb5084252be4a8a8f79628e06af5d70 -->
<g id="node7" class="node">
<title>0bb5084252be4a8a8f79628e06af5d70</title>
<g id="a_node7"><a xlink:title="kind: ServiceAccount&#10;apiVersion: v1&#10;metadata:&#10; &#160;name: cartservice&#10;...">
<image xlink:href="https://raw.githubusercontent.com/mingrammer/diagrams/refs/heads/master/resources/k8s/rbac/sa.png" width="100.8px" height="100.8px" preserveAspectRatio="xMinYMin meet" x="832.6" y="-149.2"/>
<text text-anchor="middle" x="883" y="-31.55" font-family="Sans-Serif" font-size="13.00" fill="#2d3436">cartservice</text>
</a>
</g>
</g>
<!-- e8f6e16787af4a21b6194df3641defbd -->
<g id="node8" class="node">
<title>e8f6e16787af4a21b6194df3641defbd</title>
<g id="a_node8"><a xlink:title="kind: ServiceAccount&#10;apiVersion: v1&#10;metadata:&#10; &#160;name: loadgenerator&#10;...">
<image xlink:href="https://raw.githubusercontent.com/mingrammer/diagrams/refs/heads/master/resources/k8s/rbac/sa.png" width="100.8px" height="100.8px" preserveAspectRatio="xMinYMin meet" x="522.6" y="-368.8"/>
<text text-anchor="middle" x="573" y="-251.15" font-family="Sans-Serif" font-size="13.00" fill="#2d3436">loadgenerator</text>
</a>
</g>
</g>
<!-- 5540a52a6c9543e7afd21aef93a26c37 -->
<g id="node9" class="node">
<title>5540a52a6c9543e7afd21aef93a26c37</title>
<g id="a_node9"><a xlink:title="kind: ServiceAccount&#10;apiVersion: v1&#10;metadata:&#10; &#160;name: currencyservice&#10;...">
<image xlink:href="https://raw.githubusercontent.com/mingrammer/diagrams/refs/heads/master/resources/k8s/rbac/sa.png" width="100.8px" height="100.8px" preserveAspectRatio="xMinYMin meet" x="353.6" y="-149.2"/>
<text text-anchor="middle" x="404" y="-31.55" font-family="Sans-Serif" font-size="13.00" fill="#2d3436">currencyservice</text>
</a>
</g>
</g>
<!-- b156118f662c4b0faf2c82640c0c269f -->
<g id="node10" class="node">
<title>b156118f662c4b0faf2c82640c0c269f</title>
<g id="a_node10"><a xlink:title="kind: ServiceAccount&#10;apiVersion: v1&#10;metadata:&#10; &#160;name: shippingservice&#10;...">
<image xlink:href="https://raw.githubusercontent.com/mingrammer/diagrams/refs/heads/master/resources/k8s/rbac/sa.png" width="100.8px" height="100.8px" preserveAspectRatio="xMinYMin meet" x="187.6" y="-149.2"/>
<text text-anchor="middle" x="238" y="-31.55" font-family="Sans-Serif" font-size="13.00" fill="#2d3436">shippingservice</text>
</a>
</g>
</g>
<!-- 52017fded3e64b65adfbcc335c5d9912 -->
<g id="node11" class="node">
<title>52017fded3e64b65adfbcc335c5d9912</title>
<g id="a_node11"><a xlink:title="kind: ServiceAccount&#10;apiVersion: v1&#10;metadata:&#10; &#160;name: adservice&#10;...">
<image xlink:href="https://raw.githubusercontent.com/mingrammer/diagrams/refs/heads/master/resources/k8s/rbac/sa.png" width="100.8px" height="100.8px" preserveAspectRatio="xMinYMin meet" x="30.6" y="-149.2"/>
<text text-anchor="middle" x="81" y="-31.55" font-family="Sans-Serif" font-size="13.00" fill="#2d3436">adservice</text>
</a>
</g>
</g>
<!-- 5c26222601074edb8f5a2f75e2a63b70 -->
<g id="node12" class="node">
<title>5c26222601074edb8f5a2f75e2a63b70</title>
<g id="a_node12"><a xlink:title="kind: Deployment&#10;apiVersion: apps/v1&#10;metadata:&#10; &#160;name: emailservice&#10;...">
<image xlink:href="https://raw.githubusercontent.com/mingrammer/diagrams/refs/heads/master/resources/k8s/compute/deploy.png" width="100.8px" height="100.8px" preserveAspectRatio="xMinYMin meet" x="2020.6" y="-368.8"/>
<text text-anchor="middle" x="2071" y="-251.15" font-family="Sans-Serif" font-size="13.00" fill="#2d3436">emailservice</text>
</a>
</g>
</g>
<!-- 5c26222601074edb8f5a2f75e2a63b70&#45;&gt;0bdfd0b633b943b1b1ffb7f38a2dbb6c -->
<g id="edge1" class="edge">
<title>5c26222601074edb8f5a2f75e2a63b70&#45;&gt;0bdfd0b633b943b1b1ffb7f38a2dbb6c</title>
<g id="a_edge1"><a xlink:title="spec.template.spec.serviceAccountName: emailservice">
<path fill="none" stroke="black" d="M2071,-250.12C2071,-250.12 2071,-178.04 2071,-178.04"/>
<polygon fill="black" stroke="black" points="2074.5,-178.04 2071,-168.04 2067.5,-178.04 2074.5,-178.04"/>
</a>
</g>
</g>
<!-- ea9180f7d3b045a192ca00b10ab82354 -->
<g id="node13" class="node">
<title>ea9180f7d3b045a192ca00b10ab82354</title>
<g id="a_node13"><a xlink:title="kind: Service&#10;apiVersion: v1&#10;metadata:&#10; &#160;name: emailservice&#10;...">
<image xlink:href="https://raw.githubusercontent.com/mingrammer/diagrams/refs/heads/master/resources/k8s/network/svc.png" width="100.8px" height="100.8px" preserveAspectRatio="xMinYMin meet" x="2020.6" y="-588.4"/>
<text text-anchor="middle" x="2071" y="-470.75" font-family="Sans-Serif" font-size="13.00" fill="#2d3436">emailservice</text>
</a>
</g>
</g>
<!-- ea9180f7d3b045a192ca00b10ab82354&#45;&gt;5c26222601074edb8f5a2f75e2a63b70 -->
<g id="edge2" class="edge">
<title>ea9180f7d3b045a192ca00b10ab82354&#45;&gt;5c26222601074edb8f5a2f75e2a63b70</title>
<g id="a_edge2"><a xlink:title="spec.selector:&#10; &#160;app: emailservice">
<path fill="none" stroke="black" stroke-dasharray="5,2" d="M2071,-469.72C2071,-469.72 2071,-397.64 2071,-397.64"/>
<polygon fill="black" stroke="black" points="2074.5,-397.64 2071,-387.64 2067.5,-397.64 2074.5,-397.64"/>
</a>
</g>
<text text-anchor="middle" x="2033.88" y="-435.43" font-family="Sans-Serif" font-size="10.00" fill="#2d3436">5000&#45;&gt;8080/TCP</text>
</g>
<!-- 32eaee4ded474956adb30d9a9e709e2a -->
<g id="node14" class="node">
<title>32eaee4ded474956adb30d9a9e709e2a</title>
<g id="a_node14"><a xlink:title="kind: Deployment&#10;apiVersion: apps/v1&#10;metadata:&#10; &#160;name: checkoutservice&#10;...">
<image xlink:href="https://raw.githubusercontent.com/mingrammer/diagrams/refs/heads/master/resources/k8s/compute/deploy.png" width="100.8px" height="100.8px" preserveAspectRatio="xMinYMin meet" x="1844.6" y="-368.8"/>
<text text-anchor="middle" x="1895" y="-251.15" font-family="Sans-Serif" font-size="13.00" fill="#2d3436">checkoutservice</text>
</a>
</g>
</g>
<!-- 32eaee4ded474956adb30d9a9e709e2a&#45;&gt;094b9fb2fd2a405eb0ad4fefef7ef05a -->
<g id="edge3" class="edge">
<title>32eaee4ded474956adb30d9a9e709e2a&#45;&gt;094b9fb2fd2a405eb0ad4fefef7ef05a</title>
<g id="a_edge3"><a xlink:title="spec.template.spec.serviceAccountName: checkoutservice">
<path fill="none" stroke="black" d="M1895,-250.12C1895,-250.12 1895,-178.04 1895,-178.04"/>
<polygon fill="black" stroke="black" points="1898.5,-178.04 1895,-168.04 1891.5,-178.04 1898.5,-178.04"/>
</a>
</g>
</g>
<!-- 26b3d30396d34bdda075138bace256bf -->
<g id="node15" class="node">
<title>26b3d30396d34bdda075138bace256bf</title>
<g id="a_node15"><a xlink:title="kind: Service&#10;apiVersion: v1&#10;metadata:&#10; &#160;name: checkoutservice&#10;...">
<image xlink:href="https://raw.githubusercontent.com/mingrammer/diagrams/refs/heads/master/resources/k8s/network/svc.png" width="100.8px" height="100.8px" preserveAspectRatio="xMinYMin meet" x="1844.6" y="-588.4"/>
<text text-anchor="middle" x="1895" y="-470.75" font-family="Sans-Serif" font-size="13.00" fill="#2d3436">checkoutservice</text>
</a>
</g>
</g>
<!-- 26b3d30396d34bdda075138bace256bf&#45;&gt;32eaee4ded474956adb30d9a9e709e2a -->
<g id="edge4" class="edge">
<title>26b3d30396d34bdda075138bace256bf&#45;&gt;32eaee4ded474956adb30d9a9e709e2a</title>
<g id="a_edge4"><a xlink:title="spec.selector:&#10; &#160;app: checkoutservice">
<path fill="none" stroke="black" stroke-dasharray="5,2" d="M1895,-469.72C1895,-469.72 1895,-397.64 1895,-397.64"/>
<polygon fill="black" stroke="black" points="1898.5,-397.64 1895,-387.64 1891.5,-397.64 1898.5,-397.64"/>
</a>
</g>
<text text-anchor="middle" x="1872.88" y="-435.43" font-family="Sans-Serif" font-size="10.00" fill="#2d3436">5050/TCP</text>
</g>
<!-- 39db14dd04af4d4ebf022d126a14b328 -->
<g id="node16" class="node">
<title>39db14dd04af4d4ebf022d126a14b328</title>
<g id="a_node16"><a xlink:title="kind: Deployment&#10;apiVersion: apps/v1&#10;metadata:&#10; &#160;name: recommendationservice&#10;...">
<image xlink:href="https://raw.githubusercontent.com/mingrammer/diagrams/refs/heads/master/resources/k8s/compute/deploy.png" width="100.8px" height="100.8px" preserveAspectRatio="xMinYMin meet" x="1657.6" y="-368.8"/>
<text text-anchor="middle" x="1708" y="-250.25" font-family="Sans-Serif" font-size="13.00" fill="#2d3436">recommendationse</text>
<text text-anchor="middle" x="1708" y="-236.75" font-family="Sans-Serif" font-size="13.00" fill="#2d3436">rvice</text>
</a>
</g>
</g>
<!-- 39db14dd04af4d4ebf022d126a14b328&#45;&gt;33add546790e498dbd217c00a161217a -->
<g id="edge5" class="edge">
<title>39db14dd04af4d4ebf022d126a14b328&#45;&gt;33add546790e498dbd217c00a161217a</title>
<g id="a_edge5"><a xlink:title="spec.template.spec.serviceAccountName: recommendationservice">
<path fill="none" stroke="black" d="M1708,-235.69C1708,-235.69 1708,-192.43 1708,-192.43"/>
<polygon fill="black" stroke="black" points="1711.5,-192.43 1708,-182.43 1704.5,-192.43 1711.5,-192.43"/>
</a>
</g>
</g>
<!-- f1f063a6c328438192a4b04e40507231 -->
<g id="node17" class="node">
<title>f1f063a6c328438192a4b04e40507231</title>
<g id="a_node17"><a xlink:title="kind: Service&#10;apiVersion: v1&#10;metadata:&#10; &#160;name: recommendationservice&#10;...">
<image xlink:href="https://raw.githubusercontent.com/mingrammer/diagrams/refs/heads/master/resources/k8s/network/svc.png" width="100.8px" height="100.8px" preserveAspectRatio="xMinYMin meet" x="1657.6" y="-588.4"/>
<text text-anchor="middle" x="1708" y="-469.85" font-family="Sans-Serif" font-size="13.00" fill="#2d3436">recommendationse</text>
<text text-anchor="middle" x="1708" y="-456.35" font-family="Sans-Serif" font-size="13.00" fill="#2d3436">rvice</text>
</a>
</g>
</g>
<!-- f1f063a6c328438192a4b04e40507231&#45;&gt;39db14dd04af4d4ebf022d126a14b328 -->
<g id="edge6" class="edge">
<title>f1f063a6c328438192a4b04e40507231&#45;&gt;39db14dd04af4d4ebf022d126a14b328</title>
<g id="a_edge6"><a xlink:title="spec.selector:&#10; &#160;app: recommendationservice">
<path fill="none" stroke="black" stroke-dasharray="5,2" d="M1708,-455.29C1708,-455.29 1708,-412.03 1708,-412.03"/>
<polygon fill="black" stroke="black" points="1711.5,-412.03 1708,-402.03 1704.5,-412.03 1711.5,-412.03"/>
</a>
</g>
<text text-anchor="middle" x="1685.88" y="-435.41" font-family="Sans-Serif" font-size="10.00" fill="#2d3436">8080/TCP</text>
</g>
<!-- 1f67d79f22f843f893eef142df0a4129 -->
<g id="node18" class="node">
<title>1f67d79f22f843f893eef142df0a4129</title>
<g id="a_node18"><a xlink:title="kind: Deployment&#10;apiVersion: apps/v1&#10;metadata:&#10; &#160;name: frontend&#10;...">
<image xlink:href="https://raw.githubusercontent.com/mingrammer/diagrams/refs/heads/master/resources/k8s/compute/deploy.png" width="100.8px" height="100.8px" preserveAspectRatio="xMinYMin meet" x="1415.6" y="-368.8"/>
<text text-anchor="middle" x="1466" y="-251.15" font-family="Sans-Serif" font-size="13.00" fill="#2d3436">frontend</text>
</a>
</g>
</g>
<!-- 1f67d79f22f843f893eef142df0a4129&#45;&gt;1d7d837c50644122a3348f8068a1d3a6 -->
<g id="edge7" class="edge">
<title>1f67d79f22f843f893eef142df0a4129&#45;&gt;1d7d837c50644122a3348f8068a1d3a6</title>
<g id="a_edge7"><a xlink:title="spec.template.spec.serviceAccountName: frontend">
<path fill="none" stroke="black" d="M1466,-250.12C1466,-250.12 1466,-178.04 1466,-178.04"/>
<polygon fill="black" stroke="black" points="1469.5,-178.04 1466,-168.04 1462.5,-178.04 1469.5,-178.04"/>
</a>
</g>
</g>
<!-- 5c050be6a8794f43bfb9156a3ccdd2b8 -->
<g id="node19" class="node">
<title>5c050be6a8794f43bfb9156a3ccdd2b8</title>
<g id="a_node19"><a xlink:title="kind: Service&#10;apiVersion: v1&#10;metadata:&#10; &#160;name: frontend&#10;...">
<image xlink:href="https://raw.githubusercontent.com/mingrammer/diagrams/refs/heads/master/resources/k8s/network/svc.png" width="100.8px" height="100.8px" preserveAspectRatio="xMinYMin meet" x="1487.6" y="-588.4"/>
<text text-anchor="middle" x="1538" y="-470.75" font-family="Sans-Serif" font-size="13.00" fill="#2d3436">frontend</text>
</a>
</g>
</g>
<!-- 5c050be6a8794f43bfb9156a3ccdd2b8&#45;&gt;1f67d79f22f843f893eef142df0a4129 -->
<g id="edge8" class="edge">
<title>5c050be6a8794f43bfb9156a3ccdd2b8&#45;&gt;1f67d79f22f843f893eef142df0a4129</title>
<g id="a_edge8"><a xlink:title="spec.selector:&#10; &#160;app: frontend">
<path fill="none" stroke="black" stroke-dasharray="5,2" d="M1502,-469.72C1502,-469.72 1502,-397.64 1502,-397.64"/>
<polygon fill="black" stroke="black" points="1505.5,-397.64 1502,-387.64 1498.5,-397.64 1505.5,-397.64"/>
</a>
</g>
<text text-anchor="middle" x="1470.12" y="-435.43" font-family="Sans-Serif" font-size="10.00" fill="#2d3436">80&#45;&gt;8080/TCP</text>
</g>
<!-- 0238dab202324a3f856320d205094cbd -->
<g id="node20" class="node">
<title>0238dab202324a3f856320d205094cbd</title>
<g id="a_node20"><a xlink:title="kind: Service&#10;apiVersion: v1&#10;metadata:&#10; &#160;name: frontend&#45;external&#10;...">
<image xlink:href="https://raw.githubusercontent.com/mingrammer/diagrams/refs/heads/master/resources/k8s/network/svc.png" width="100.8px" height="100.8px" preserveAspectRatio="xMinYMin meet" x="1343.6" y="-588.4"/>
<text text-anchor="middle" x="1394" y="-469.85" font-family="Sans-Serif" font-size="13.00" fill="#2d3436">frontend</text>
<text text-anchor="middle" x="1394" y="-456.35" font-family="Sans-Serif" font-size="13.00" fill="#2d3436">&#45;external</text>
</a>
</g>
</g>
<!-- 0238dab202324a3f856320d205094cbd&#45;&gt;1f67d79f22f843f893eef142df0a4129 -->
<g id="edge9" class="edge">
<title>0238dab202324a3f856320d205094cbd&#45;&gt;1f67d79f22f843f893eef142df0a4129</title>
<g id="a_edge9"><a xlink:title="spec.selector:&#10; &#160;app: frontend">
<path fill="none" stroke="black" stroke-dasharray="5,2" d="M1430,-455.29C1430,-455.29 1430,-397.72 1430,-397.72"/>
<polygon fill="black" stroke="black" points="1433.5,-397.72 1430,-387.72 1426.5,-397.72 1433.5,-397.72"/>
</a>
</g>
<text text-anchor="middle" x="1398.12" y="-428.25" font-family="Sans-Serif" font-size="10.00" fill="#2d3436">80&#45;&gt;8080/TCP</text>
</g>
<!-- 20150e4efbc74434890ba96767a3dcf9 -->
<g id="node21" class="node">
<title>20150e4efbc74434890ba96767a3dcf9</title>
<g id="a_node21"><a xlink:title="kind: Deployment&#10;apiVersion: apps/v1&#10;metadata:&#10; &#160;name: paymentservice&#10;...">
<image xlink:href="https://raw.githubusercontent.com/mingrammer/diagrams/refs/heads/master/resources/k8s/compute/deploy.png" width="100.8px" height="100.8px" preserveAspectRatio="xMinYMin meet" x="1184.6" y="-368.8"/>
<text text-anchor="middle" x="1235" y="-251.15" font-family="Sans-Serif" font-size="13.00" fill="#2d3436">paymentservice</text>
</a>
</g>
</g>
<!-- 20150e4efbc74434890ba96767a3dcf9&#45;&gt;cecc83c5024147869652692e71bb3bb4 -->
<g id="edge10" class="edge">
<title>20150e4efbc74434890ba96767a3dcf9&#45;&gt;cecc83c5024147869652692e71bb3bb4</title>
<g id="a_edge10"><a xlink:title="spec.template.spec.serviceAccountName: paymentservice">
<path fill="none" stroke="black" d="M1235,-250.12C1235,-250.12 1235,-178.04 1235,-178.04"/>
<polygon fill="black" stroke="black" points="1238.5,-178.04 1235,-168.04 1231.5,-178.04 1238.5,-178.04"/>
</a>
</g>
</g>
<!-- 02acd6197f704bbcbee19e72dd73c417 -->
<g id="node22" class="node">
<title>02acd6197f704bbcbee19e72dd73c417</title>
<g id="a_node22"><a xlink:title="kind: Service&#10;apiVersion: v1&#10;metadata:&#10; &#160;name: paymentservice&#10;...">
<image xlink:href="https://raw.githubusercontent.com/mingrammer/diagrams/refs/heads/master/resources/k8s/network/svc.png" width="100.8px" height="100.8px" preserveAspectRatio="xMinYMin meet" x="1184.6" y="-588.4"/>
<text text-anchor="middle" x="1235" y="-470.75" font-family="Sans-Serif" font-size="13.00" fill="#2d3436">paymentservice</text>
</a>
</g>
</g>
<!-- 02acd6197f704bbcbee19e72dd73c417&#45;&gt;20150e4efbc74434890ba96767a3dcf9 -->
<g id="edge11" class="edge">
<title>02acd6197f704bbcbee19e72dd73c417&#45;&gt;20150e4efbc74434890ba96767a3dcf9</title>
<g id="a_edge11"><a xlink:title="spec.selector:&#10; &#160;app: paymentservice">
<path fill="none" stroke="black" stroke-dasharray="5,2" d="M1235,-469.72C1235,-469.72 1235,-397.64 1235,-397.64"/>
<polygon fill="black" stroke="black" points="1238.5,-397.64 1235,-387.64 1231.5,-397.64 1238.5,-397.64"/>
</a>
</g>
<text text-anchor="middle" x="1210.25" y="-435.43" font-family="Sans-Serif" font-size="10.00" fill="#2d3436">50051/TCP</text>
</g>
<!-- f2870e5973d74269a1d5bce9cfdb8b10 -->
<g id="node23" class="node">
<title>f2870e5973d74269a1d5bce9cfdb8b10</title>
<g id="a_node23"><a xlink:title="kind: Deployment&#10;apiVersion: apps/v1&#10;metadata:&#10; &#160;name: productcatalogservice&#10;...">
<image xlink:href="https://raw.githubusercontent.com/mingrammer/diagrams/refs/heads/master/resources/k8s/compute/deploy.png" width="100.8px" height="100.8px" preserveAspectRatio="xMinYMin meet" x="1006.6" y="-368.8"/>
<text text-anchor="middle" x="1057" y="-250.25" font-family="Sans-Serif" font-size="13.00" fill="#2d3436">productcatalogse</text>
<text text-anchor="middle" x="1057" y="-236.75" font-family="Sans-Serif" font-size="13.00" fill="#2d3436">rvice</text>
</a>
</g>
</g>
<!-- f2870e5973d74269a1d5bce9cfdb8b10&#45;&gt;ceea9925d96f4baea5c6680b8551c0b0 -->
<g id="edge12" class="edge">
<title>f2870e5973d74269a1d5bce9cfdb8b10&#45;&gt;ceea9925d96f4baea5c6680b8551c0b0</title>
<g id="a_edge12"><a xlink:title="spec.template.spec.serviceAccountName: productcatalogservice">
<path fill="none" stroke="black" d="M1057,-235.69C1057,-235.69 1057,-192.43 1057,-192.43"/>
<polygon fill="black" stroke="black" points="1060.5,-192.43 1057,-182.43 1053.5,-192.43 1060.5,-192.43"/>
</a>
</g>
</g>
<!-- 2af5d193c91f4a68a4c64175f588a328 -->
<g id="node24" class="node">
<title>2af5d193c91f4a68a4c64175f588a328</title>
<g id="a_node24"><a xlink:title="kind: Service&#10;apiVersion: v1&#10;metadata:&#10; &#160;name: productcatalogservice&#10;...">
<image xlink:href="https://raw.githubusercontent.com/mingrammer/diagrams/refs/heads/master/resources/k8s/network/svc.png" width="100.8px" height="100.8px" preserveAspectRatio="xMinYMin meet" x="1006.6" y="-588.4"/>
<text text-anchor="middle" x="1057" y="-469.85" font-family="Sans-Serif" font-size="13.00" fill="#2d3436">productcatalogse</text>
<text text-anchor="middle" x="1057" y="-456.35" font-family="Sans-Serif" font-size="13.00" fill="#2d3436">rvice</text>
</a>
</g>
</g>
<!-- 2af5d193c91f4a68a4c64175f588a328&#45;&gt;f2870e5973d74269a1d5bce9cfdb8b10 -->
<g id="edge13" class="edge">
<title>2af5d193c91f4a68a4c64175f588a328&#45;&gt;f2870e5973d74269a1d5bce9cfdb8b10</title>
<g id="a_edge13"><a xlink:title="spec.selector:&#10; &#160;app: productcatalogservice">
<path fill="none" stroke="black" stroke-dasharray="5,2" d="M1057,-455.29C1057,-455.29 1057,-412.03 1057,-412.03"/>
<polygon fill="black" stroke="black" points="1060.5,-412.03 1057,-402.03 1053.5,-412.03 1060.5,-412.03"/>
</a>
</g>
<text text-anchor="middle" x="1034.88" y="-435.41" font-family="Sans-Serif" font-size="10.00" fill="#2d3436">3550/TCP</text>
</g>
<!-- c9a99cc9ddaf42f6bffa6ca630fd4792 -->
<g id="node25" class="node">
<title>c9a99cc9ddaf42f6bffa6ca630fd4792</title>
<g id="a_node25"><a xlink:title="kind: Deployment&#10;apiVersion: apps/v1&#10;metadata:&#10; &#160;name: cartservice&#10;...">
<image xlink:href="https://raw.githubusercontent.com/mingrammer/diagrams/refs/heads/master/resources/k8s/compute/deploy.png" width="100.8px" height="100.8px" preserveAspectRatio="xMinYMin meet" x="832.6" y="-368.8"/>
<text text-anchor="middle" x="883" y="-251.15" font-family="Sans-Serif" font-size="13.00" fill="#2d3436">cartservice</text>
</a>
</g>
</g>
<!-- c9a99cc9ddaf42f6bffa6ca630fd4792&#45;&gt;0bb5084252be4a8a8f79628e06af5d70 -->
<g id="edge14" class="edge">
<title>c9a99cc9ddaf42f6bffa6ca630fd4792&#45;&gt;0bb5084252be4a8a8f79628e06af5d70</title>
<g id="a_edge14"><a xlink:title="spec.template.spec.serviceAccountName: cartservice">
<path fill="none" stroke="black" d="M883,-250.12C883,-250.12 883,-178.04 883,-178.04"/>
<polygon fill="black" stroke="black" points="886.5,-178.04 883,-168.04 879.5,-178.04 886.5,-178.04"/>
</a>
</g>
</g>
<!-- 571ae5c051ce4f7898c3d5a1bd3ba2a6 -->
<g id="node26" class="node">
<title>571ae5c051ce4f7898c3d5a1bd3ba2a6</title>
<g id="a_node26"><a xlink:title="kind: Service&#10;apiVersion: v1&#10;metadata:&#10; &#160;name: cartservice&#10;...">
<image xlink:href="https://raw.githubusercontent.com/mingrammer/diagrams/refs/heads/master/resources/k8s/network/svc.png" width="100.8px" height="100.8px" preserveAspectRatio="xMinYMin meet" x="832.6" y="-588.4"/>
<text text-anchor="middle" x="883" y="-470.75" font-family="Sans-Serif" font-size="13.00" fill="#2d3436">cartservice</text>
</a>
</g>
</g>
<!-- 571ae5c051ce4f7898c3d5a1bd3ba2a6&#45;&gt;c9a99cc9ddaf42f6bffa6ca630fd4792 -->
<g id="edge15" class="edge">
<title>571ae5c051ce4f7898c3d5a1bd3ba2a6&#45;&gt;c9a99cc9ddaf42f6bffa6ca630fd4792</title>
<g id="a_edge15"><a xlink:title="spec.selector:&#10; &#160;app: cartservice">
<path fill="none" stroke="black" stroke-dasharray="5,2" d="M883,-469.72C883,-469.72 883,-397.64 883,-397.64"/>
<polygon fill="black" stroke="black" points="886.5,-397.64 883,-387.64 879.5,-397.64 886.5,-397.64"/>
</a>
</g>
<text text-anchor="middle" x="860.88" y="-435.43" font-family="Sans-Serif" font-size="10.00" fill="#2d3436">7070/TCP</text>
</g>
<!-- f52c29db8e1940d8b3771a680ad377cd -->
<g id="node27" class="node">
<title>f52c29db8e1940d8b3771a680ad377cd</title>
<g id="a_node27"><a xlink:title="kind: Deployment&#10;apiVersion: apps/v1&#10;metadata:&#10; &#160;name: redis&#45;cart&#10;...">
<image xlink:href="https://raw.githubusercontent.com/mingrammer/diagrams/refs/heads/master/resources/k8s/compute/deploy.png" width="100.8px" height="100.8px" preserveAspectRatio="xMinYMin meet" x="683.6" y="-368.8"/>
<text text-anchor="middle" x="734" y="-251.15" font-family="Sans-Serif" font-size="13.00" fill="#2d3436">redis&#45;cart</text>
</a>
</g>
</g>
<!-- 081100e42f0c47eda58bf896f9b30355 -->
<g id="node28" class="node">
<title>081100e42f0c47eda58bf896f9b30355</title>
<g id="a_node28"><a xlink:title="kind: Service&#10;apiVersion: v1&#10;metadata:&#10; &#160;name: redis&#45;cart&#10;...">
<image xlink:href="https://raw.githubusercontent.com/mingrammer/diagrams/refs/heads/master/resources/k8s/network/svc.png" width="100.8px" height="100.8px" preserveAspectRatio="xMinYMin meet" x="683.6" y="-588.4"/>
<text text-anchor="middle" x="734" y="-470.75" font-family="Sans-Serif" font-size="13.00" fill="#2d3436">redis&#45;cart</text>
</a>
</g>
</g>
<!-- 081100e42f0c47eda58bf896f9b30355&#45;&gt;f52c29db8e1940d8b3771a680ad377cd -->
<g id="edge16" class="edge">
<title>081100e42f0c47eda58bf896f9b30355&#45;&gt;f52c29db8e1940d8b3771a680ad377cd</title>
<g id="a_edge16"><a xlink:title="spec.selector:&#10; &#160;app: redis&#45;cart">
<path fill="none" stroke="black" stroke-dasharray="5,2" d="M734,-469.72C734,-469.72 734,-397.64 734,-397.64"/>
<polygon fill="black" stroke="black" points="737.5,-397.64 734,-387.64 730.5,-397.64 737.5,-397.64"/>
</a>
</g>
<text text-anchor="middle" x="711.88" y="-435.43" font-family="Sans-Serif" font-size="10.00" fill="#2d3436">6379/TCP</text>
</g>
<!-- a9e181a3d4944397b4cd29d03bf3cb04 -->
<g id="node29" class="node">
<title>a9e181a3d4944397b4cd29d03bf3cb04</title>
<g id="a_node29"><a xlink:title="kind: Deployment&#10;apiVersion: apps/v1&#10;metadata:&#10; &#160;name: loadgenerator&#10;...">
<image xlink:href="https://raw.githubusercontent.com/mingrammer/diagrams/refs/heads/master/resources/k8s/compute/deploy.png" width="100.8px" height="100.8px" preserveAspectRatio="xMinYMin meet" x="522.6" y="-588.4"/>
<text text-anchor="middle" x="573" y="-470.75" font-family="Sans-Serif" font-size="13.00" fill="#2d3436">loadgenerator</text>
</a>
</g>
</g>
<!-- a9e181a3d4944397b4cd29d03bf3cb04&#45;&gt;e8f6e16787af4a21b6194df3641defbd -->
<g id="edge17" class="edge">
<title>a9e181a3d4944397b4cd29d03bf3cb04&#45;&gt;e8f6e16787af4a21b6194df3641defbd</title>
<g id="a_edge17"><a xlink:title="spec.template.spec.serviceAccountName: loadgenerator">
<path fill="none" stroke="black" d="M573,-469.72C573,-469.72 573,-397.64 573,-397.64"/>
<polygon fill="black" stroke="black" points="576.5,-397.64 573,-387.64 569.5,-397.64 576.5,-397.64"/>
</a>
</g>
</g>
<!-- f867ffdbc381400f8a64373a695674cd -->
<g id="node30" class="node">
<title>f867ffdbc381400f8a64373a695674cd</title>
<g id="a_node30"><a xlink:title="kind: Deployment&#10;apiVersion: apps/v1&#10;metadata:&#10; &#160;name: currencyservice&#10;...">
<image xlink:href="https://raw.githubusercontent.com/mingrammer/diagrams/refs/heads/master/resources/k8s/compute/deploy.png" width="100.8px" height="100.8px" preserveAspectRatio="xMinYMin meet" x="353.6" y="-368.8"/>
<text text-anchor="middle" x="404" y="-251.15" font-family="Sans-Serif" font-size="13.00" fill="#2d3436">currencyservice</text>
</a>
</g>
</g>
<!-- f867ffdbc381400f8a64373a695674cd&#45;&gt;5540a52a6c9543e7afd21aef93a26c37 -->
<g id="edge18" class="edge">
<title>f867ffdbc381400f8a64373a695674cd&#45;&gt;5540a52a6c9543e7afd21aef93a26c37</title>
<g id="a_edge18"><a xlink:title="spec.template.spec.serviceAccountName: currencyservice">
<path fill="none" stroke="black" d="M404,-250.12C404,-250.12 404,-178.04 404,-178.04"/>
<polygon fill="black" stroke="black" points="407.5,-178.04 404,-168.04 400.5,-178.04 407.5,-178.04"/>
</a>
</g>
</g>
<!-- 69cc5e846eef49188ee8ec92aca1f649 -->
<g id="node31" class="node">
<title>69cc5e846eef49188ee8ec92aca1f649</title>
<g id="a_node31"><a xlink:title="kind: Service&#10;apiVersion: v1&#10;metadata:&#10; &#160;name: currencyservice&#10;...">
<image xlink:href="https://raw.githubusercontent.com/mingrammer/diagrams/refs/heads/master/resources/k8s/network/svc.png" width="100.8px" height="100.8px" preserveAspectRatio="xMinYMin meet" x="353.6" y="-588.4"/>
<text text-anchor="middle" x="404" y="-470.75" font-family="Sans-Serif" font-size="13.00" fill="#2d3436">currencyservice</text>
</a>
</g>
</g>
<!-- 69cc5e846eef49188ee8ec92aca1f649&#45;&gt;f867ffdbc381400f8a64373a695674cd -->
<g id="edge19" class="edge">
<title>69cc5e846eef49188ee8ec92aca1f649&#45;&gt;f867ffdbc381400f8a64373a695674cd</title>
<g id="a_edge19"><a xlink:title="spec.selector:&#10; &#160;app: currencyservice">
<path fill="none" stroke="black" stroke-dasharray="5,2" d="M404,-469.72C404,-469.72 404,-397.64 404,-397.64"/>
<polygon fill="black" stroke="black" points="407.5,-397.64 404,-387.64 400.5,-397.64 407.5,-397.64"/>
</a>
</g>
<text text-anchor="middle" x="381.88" y="-435.43" font-family="Sans-Serif" font-size="10.00" fill="#2d3436">7000/TCP</text>
</g>
<!-- 3fe698996a0f42ba8ed8a4a40889f44e -->
<g id="node32" class="node">
<title>3fe698996a0f42ba8ed8a4a40889f44e</title>
<g id="a_node32"><a xlink:title="kind: Deployment&#10;apiVersion: apps/v1&#10;metadata:&#10; &#160;name: shippingservice&#10;...">
<image xlink:href="https://raw.githubusercontent.com/mingrammer/diagrams/refs/heads/master/resources/k8s/compute/deploy.png" width="100.8px" height="100.8px" preserveAspectRatio="xMinYMin meet" x="187.6" y="-368.8"/>
<text text-anchor="middle" x="238" y="-251.15" font-family="Sans-Serif" font-size="13.00" fill="#2d3436">shippingservice</text>
</a>
</g>
</g>
<!-- 3fe698996a0f42ba8ed8a4a40889f44e&#45;&gt;b156118f662c4b0faf2c82640c0c269f -->
<g id="edge20" class="edge">
<title>3fe698996a0f42ba8ed8a4a40889f44e&#45;&gt;b156118f662c4b0faf2c82640c0c269f</title>
<g id="a_edge20"><a xlink:title="spec.template.spec.serviceAccountName: shippingservice">
<path fill="none" stroke="black" d="M238,-250.12C238,-250.12 238,-178.04 238,-178.04"/>
<polygon fill="black" stroke="black" points="241.5,-178.04 238,-168.04 234.5,-178.04 241.5,-178.04"/>
</a>
</g>
</g>
<!-- 31aaa01daaed4939a189ae399c53cff1 -->
<g id="node33" class="node">
<title>31aaa01daaed4939a189ae399c53cff1</title>
<g id="a_node33"><a xlink:title="kind: Service&#10;apiVersion: v1&#10;metadata:&#10; &#160;name: shippingservice&#10;...">
<image xlink:href="https://raw.githubusercontent.com/mingrammer/diagrams/refs/heads/master/resources/k8s/network/svc.png" width="100.8px" height="100.8px" preserveAspectRatio="xMinYMin meet" x="187.6" y="-588.4"/>
<text text-anchor="middle" x="238" y="-470.75" font-family="Sans-Serif" font-size="13.00" fill="#2d3436">shippingservice</text>
</a>
</g>
</g>
<!-- 31aaa01daaed4939a189ae399c53cff1&#45;&gt;3fe698996a0f42ba8ed8a4a40889f44e -->
<g id="edge21" class="edge">
<title>31aaa01daaed4939a189ae399c53cff1&#45;&gt;3fe698996a0f42ba8ed8a4a40889f44e</title>
<g id="a_edge21"><a xlink:title="spec.selector:&#10; &#160;app: shippingservice">
<path fill="none" stroke="black" stroke-dasharray="5,2" d="M238,-469.72C238,-469.72 238,-397.64 238,-397.64"/>
<polygon fill="black" stroke="black" points="241.5,-397.64 238,-387.64 234.5,-397.64 241.5,-397.64"/>
</a>
</g>
<text text-anchor="middle" x="213.25" y="-435.43" font-family="Sans-Serif" font-size="10.00" fill="#2d3436">50051/TCP</text>
</g>
<!-- 5bf765c11ef442fc9be0b8b2040f8a14 -->
<g id="node34" class="node">
<title>5bf765c11ef442fc9be0b8b2040f8a14</title>
<g id="a_node34"><a xlink:title="kind: Deployment&#10;apiVersion: apps/v1&#10;metadata:&#10; &#160;name: adservice&#10;...">
<image xlink:href="https://raw.githubusercontent.com/mingrammer/diagrams/refs/heads/master/resources/k8s/compute/deploy.png" width="100.8px" height="100.8px" preserveAspectRatio="xMinYMin meet" x="30.6" y="-368.8"/>
<text text-anchor="middle" x="81" y="-251.15" font-family="Sans-Serif" font-size="13.00" fill="#2d3436">adservice</text>
</a>
</g>
</g>
<!-- 5bf765c11ef442fc9be0b8b2040f8a14&#45;&gt;52017fded3e64b65adfbcc335c5d9912 -->
<g id="edge22" class="edge">
<title>5bf765c11ef442fc9be0b8b2040f8a14&#45;&gt;52017fded3e64b65adfbcc335c5d9912</title>
<g id="a_edge22"><a xlink:title="spec.template.spec.serviceAccountName: adservice">
<path fill="none" stroke="black" d="M81,-250.12C81,-250.12 81,-178.04 81,-178.04"/>
<polygon fill="black" stroke="black" points="84.5,-178.04 81,-168.04 77.5,-178.04 84.5,-178.04"/>
</a>
</g>
</g>
<!-- b10a14e7d8ba4933b1ec318de9223558 -->
<g id="node35" class="node">
<title>b10a14e7d8ba4933b1ec318de9223558</title>
<g id="a_node35"><a xlink:title="kind: Service&#10;apiVersion: v1&#10;metadata:&#10; &#160;name: adservice&#10;...">
<image xlink:href="https://raw.githubusercontent.com/mingrammer/diagrams/refs/heads/master/resources/k8s/network/svc.png" width="100.8px" height="100.8px" preserveAspectRatio="xMinYMin meet" x="30.6" y="-588.4"/>
<text text-anchor="middle" x="81" y="-470.75" font-family="Sans-Serif" font-size="13.00" fill="#2d3436">adservice</text>
</a>
</g>
</g>
<!-- b10a14e7d8ba4933b1ec318de9223558&#45;&gt;5bf765c11ef442fc9be0b8b2040f8a14 -->
<g id="edge23" class="edge">
<title>b10a14e7d8ba4933b1ec318de9223558&#45;&gt;5bf765c11ef442fc9be0b8b2040f8a14</title>
<g id="a_edge23"><a xlink:title="spec.selector:&#10; &#160;app: adservice">
<path fill="none" stroke="black" stroke-dasharray="5,2" d="M81,-469.72C81,-469.72 81,-397.64 81,-397.64"/>
<polygon fill="black" stroke="black" points="84.5,-397.64 81,-387.64 77.5,-397.64 84.5,-397.64"/>
</a>
</g>
<text text-anchor="middle" x="58.88" y="-435.43" font-family="Sans-Serif" font-size="10.00" fill="#2d3436">9555/TCP</text>
</g>
</g>
</svg>
