<?xml version="1.0" encoding="UTF-8" standalone="no"?>
<!DOCTYPE svg PUBLIC "-//W3C//DTD SVG 1.1//EN"
 "http://www.w3.org/Graphics/SVG/1.1/DTD/svg11.dtd">
<!-- Generated by graphviz version 8.1.0 (20230707.0739)
 -->
<!-- Pages: 1 -->
<svg width="2459pt" height="858pt"
 viewBox="0.00 0.00 2459.00 857.55" xmlns="http://www.w3.org/2000/svg" xmlns:xlink="http://www.w3.org/1999/xlink">
<g id="graph0" class="graph" transform="scale(1 1) rotate(0) translate(144 713.55)">
<polygon fill="white" stroke="none" points="-144,144 -144,-713.55 2315,-713.55 2315,144 -144,144"/>
<g id="clust1" class="cluster">
<title>cluster_Application: adservice</title>
<g id="a_clust1"><a xlink:title="Application: adservice">
<path fill="#ece8f6" stroke="#aeb6be" d="M20,-182.8C20,-182.8 129,-182.8 129,-182.8 135,-182.8 141,-188.8 141,-194.8 141,-194.8 141,-549.55 141,-549.55 141,-555.55 135,-561.55 129,-561.55 129,-561.55 20,-561.55 20,-561.55 14,-561.55 8,-555.55 8,-549.55 8,-549.55 8,-194.8 8,-194.8 8,-188.8 14,-182.8 20,-182.8"/>
<text text-anchor="middle" x="74.88" y="-546.15" font-family="Sans-Serif" font-size="12.00" fill="#2d3436">Application: adservice</text>
</a>
</g>
</g>
<g id="clust2" class="cluster">
<title>cluster_Application: cartservice</title>
<g id="a_clust2"><a xlink:title="Application: cartservice">
<path fill="#ece8f6" stroke="#aeb6be" d="M162,-182.8C162,-182.8 277,-182.8 277,-182.8 283,-182.8 289,-188.8 289,-194.8 289,-194.8 289,-549.55 289,-549.55 289,-555.55 283,-561.55 277,-561.55 277,-561.55 162,-561.55 162,-561.55 156,-561.55 150,-555.55 150,-549.55 150,-549.55 150,-194.8 150,-194.8 150,-188.8 156,-182.8 162,-182.8"/>
<text text-anchor="middle" x="219.88" y="-546.15" font-family="Sans-Serif" font-size="12.00" fill="#2d3436">Application: cartservice</text>
</a>
</g>
</g>
<g id="clust3" class="cluster">
<title>cluster_Application: checkoutservice</title>
<g id="a_clust3"><a xlink:title="Application: checkoutservice">
<path fill="#ece8f6" stroke="#aeb6be" d="M452,-182.8C452,-182.8 596,-182.8 596,-182.8 602,-182.8 608,-188.8 608,-194.8 608,-194.8 608,-549.55 608,-549.55 608,-555.55 602,-561.55 596,-561.55 596,-561.55 452,-561.55 452,-561.55 446,-561.55 440,-555.55 440,-549.55 440,-549.55 440,-194.8 440,-194.8 440,-188.8 446,-182.8 452,-182.8"/>
<text text-anchor="middle" x="524.12" y="-546.15" font-family="Sans-Serif" font-size="12.00" fill="#2d3436">Application: checkoutservice</text>
</a>
</g>
</g>
<g id="clust4" class="cluster">
<title>cluster_Application: currencyservice</title>
<g id="a_clust4"><a xlink:title="Application: currencyservice">
<path fill="#ece8f6" stroke="#aeb6be" d="M628,-182.8C628,-182.8 770,-182.8 770,-182.8 776,-182.8 782,-188.8 782,-194.8 782,-194.8 782,-549.55 782,-549.55 782,-555.55 776,-561.55 770,-561.55 770,-561.55 628,-561.55 628,-561.55 622,-561.55 616,-555.55 616,-549.55 616,-549.55 616,-194.8 616,-194.8 616,-188.8 622,-182.8 628,-182.8"/>
<text text-anchor="middle" x="699" y="-546.15" font-family="Sans-Serif" font-size="12.00" fill="#2d3436">Application: currencyservice</text>
</a>
</g>
</g>
<g id="clust5" class="cluster">
<title>cluster_Application: emailservice</title>
<g id="a_clust5"><a xlink:title="Application: emailservice">
<path fill="#ece8f6" stroke="#aeb6be" d="M802,-182.8C802,-182.8 927,-182.8 927,-182.8 933,-182.8 939,-188.8 939,-194.8 939,-194.8 939,-549.55 939,-549.55 939,-555.55 933,-561.55 927,-561.55 927,-561.55 802,-561.55 802,-561.55 796,-561.55 790,-555.55 790,-549.55 790,-549.55 790,-194.8 790,-194.8 790,-188.8 796,-182.8 802,-182.8"/>
<text text-anchor="middle" x="864.75" y="-546.15" font-family="Sans-Serif" font-size="12.00" fill="#2d3436">Application: emailservice</text>
</a>
</g>
</g>
<g id="clust6" class="cluster">
<title>cluster_Application: frontend</title>
<g id="a_clust6"><a xlink:title="Application: frontend">
<path fill="#ece8f6" stroke="#aeb6be" d="M959,-182.8C959,-182.8 1060,-182.8 1060,-182.8 1066,-182.8 1072,-188.8 1072,-194.8 1072,-194.8 1072,-549.55 1072,-549.55 1072,-555.55 1066,-561.55 1060,-561.55 1060,-561.55 959,-561.55 959,-561.55 953,-561.55 947,-555.55 947,-549.55 947,-549.55 947,-194.8 947,-194.8 947,-188.8 953,-182.8 959,-182.8"/>
<text text-anchor="middle" x="1009.75" y="-546.15" font-family="Sans-Serif" font-size="12.00" fill="#2d3436">Application: frontend</text>
</a>
</g>
</g>
<g id="clust7" class="cluster">
<title>cluster_Application: paymentservice</title>
<g id="a_clust7"><a xlink:title="Application: paymentservice">
<path fill="#ece8f6" stroke="#aeb6be" d="M1401,-182.8C1401,-182.8 1543,-182.8 1543,-182.8 1549,-182.8 1555,-188.8 1555,-194.8 1555,-194.8 1555,-549.55 1555,-549.55 1555,-555.55 1549,-561.55 1543,-561.55 1543,-561.55 1401,-561.55 1401,-561.55 1395,-561.55 1389,-555.55 1389,-549.55 1389,-549.55 1389,-194.8 1389,-194.8 1389,-188.8 1395,-182.8 1401,-182.8"/>
<text text-anchor="middle" x="1472" y="-546.15" font-family="Sans-Serif" font-size="12.00" fill="#2d3436">Application: paymentservice</text>
</a>
</g>
</g>
<g id="clust8" class="cluster">
<title>cluster_Application: productcatalogservice</title>
<g id="a_clust8"><a xlink:title="Application: productcatalogservice">
<path fill="#ece8f6" stroke="#aeb6be" d="M1575,-182.8C1575,-182.8 1750,-182.8 1750,-182.8 1756,-182.8 1762,-188.8 1762,-194.8 1762,-194.8 1762,-549.55 1762,-549.55 1762,-555.55 1756,-561.55 1750,-561.55 1750,-561.55 1575,-561.55 1575,-561.55 1569,-561.55 1563,-555.55 1563,-549.55 1563,-549.55 1563,-194.8 1563,-194.8 1563,-188.8 1569,-182.8 1575,-182.8"/>
<text text-anchor="middle" x="1662.5" y="-546.15" font-family="Sans-Serif" font-size="12.00" fill="#2d3436">Application: productcatalogservice</text>
</a>
</g>
</g>
<g id="clust9" class="cluster">
<title>cluster_Application: recommendationservice</title>
<g id="a_clust9"><a xlink:title="Application: recommendationservice">
<path fill="#ece8f6" stroke="#aeb6be" d="M1782,-182.8C1782,-182.8 1967,-182.8 1967,-182.8 1973,-182.8 1979,-188.8 1979,-194.8 1979,-194.8 1979,-549.55 1979,-549.55 1979,-555.55 1973,-561.55 1967,-561.55 1967,-561.55 1782,-561.55 1782,-561.55 1776,-561.55 1770,-555.55 1770,-549.55 1770,-549.55 1770,-194.8 1770,-194.8 1770,-188.8 1776,-182.8 1782,-182.8"/>
<text text-anchor="middle" x="1874.75" y="-546.15" font-family="Sans-Serif" font-size="12.00" fill="#2d3436">Application: recommendationservice</text>
</a>
</g>
</g>
<g id="clust10" class="cluster">
<title>cluster_Application: shippingservice</title>
<g id="a_clust10"><a xlink:title="Application: shippingservice">
<path fill="#ece8f6" stroke="#aeb6be" d="M2009,-182.8C2009,-182.8 2151,-182.8 2151,-182.8 2157,-182.8 2163,-188.8 2163,-194.8 2163,-194.8 2163,-549.55 2163,-549.55 2163,-555.55 2157,-561.55 2151,-561.55 2151,-561.55 2009,-561.55 2009,-561.55 2003,-561.55 1997,-555.55 1997,-549.55 1997,-549.55 1997,-194.8 1997,-194.8 1997,-188.8 2003,-182.8 2009,-182.8"/>
<text text-anchor="middle" x="2080" y="-546.15" font-family="Sans-Serif" font-size="12.00" fill="#2d3436">Application: shippingservice</text>
</a>
</g>
</g>
<g id="clust11" class="cluster">
<title>cluster_Application: loadgenerator</title>
<g id="a_clust11"><a xlink:title="Application: loadgenerator">
<path fill="#ece8f6" stroke="#aeb6be" d="M1237,-388C1237,-388 1369,-388 1369,-388 1375,-388 1381,-394 1381,-400 1381,-400 1381,-549.55 1381,-549.55 1381,-555.55 1375,-561.55 1369,-561.55 1369,-561.55 1237,-561.55 1237,-561.55 1231,-561.55 1225,-555.55 1225,-549.55 1225,-549.55 1225,-400 1225,-400 1225,-394 1231,-388 1237,-388"/>
<text text-anchor="middle" x="1303.12" y="-546.15" font-family="Sans-Serif" font-size="12.00" fill="#2d3436">Application: loadgenerator</text>
</a>
</g>
</g>
<!-- aef9e1c9d9d34fc2adcbcb79eeb6ef0a -->
<g id="node1" class="node">
<title>aef9e1c9d9d34fc2adcbcb79eeb6ef0a</title>
<g id="a_node1"><a xlink:title="kind: ServiceAccount&#10;apiVersion: v1&#10;metadata:&#10; &#160;name: adservice&#10;...">
<image xlink:href="https://raw.githubusercontent.com/mingrammer/diagrams/refs/heads/master/resources/k8s/rbac/sa.png" width="100.8px" height="100.8px" preserveAspectRatio="xMinYMin meet" x="23.6" y="-118.8"/>
<text text-anchor="middle" x="74" y="-1.15" font-family="Sans-Serif" font-size="13.00" fill="#2d3436">adservice</text>
</a>
</g>
</g>
<!-- a5d4cd4d308743a49c333ecb8af489b8 -->
<g id="node2" class="node">
<title>a5d4cd4d308743a49c333ecb8af489b8</title>
<g id="a_node2"><a xlink:title="kind: ServiceAccount&#10;apiVersion: v1&#10;metadata:&#10; &#160;name: cartservice&#10;...">
<image xlink:href="https://raw.githubusercontent.com/mingrammer/diagrams/refs/heads/master/resources/k8s/rbac/sa.png" width="100.8px" height="100.8px" preserveAspectRatio="xMinYMin meet" x="173.6" y="-118.8"/>
<text text-anchor="middle" x="224" y="-1.15" font-family="Sans-Serif" font-size="13.00" fill="#2d3436">cartservice</text>
</a>
</g>
</g>
<!-- 620e5058bf1c4ad7bca650c736df3885 -->
<g id="node3" class="node">
<title>620e5058bf1c4ad7bca650c736df3885</title>
<g id="a_node3"><a xlink:title="kind: ServiceAccount&#10;apiVersion: v1&#10;metadata:&#10; &#160;name: redis&#45;cart&#10;...">
<image xlink:href="https://raw.githubusercontent.com/mingrammer/diagrams/refs/heads/master/resources/k8s/rbac/sa.png" width="100.8px" height="100.8px" preserveAspectRatio="xMinYMin meet" x="317.6" y="-118.8"/>
<text text-anchor="middle" x="368" y="-1.15" font-family="Sans-Serif" font-size="13.00" fill="#2d3436">redis&#45;cart</text>
</a>
</g>
</g>
<!-- 80634b0b7f2949fb8abacd5c728c3759 -->
<g id="node4" class="node">
<title>80634b0b7f2949fb8abacd5c728c3759</title>
<g id="a_node4"><a xlink:title="kind: ServiceAccount&#10;apiVersion: v1&#10;metadata:&#10; &#160;name: checkoutservice&#10;...">
<image xlink:href="https://raw.githubusercontent.com/mingrammer/diagrams/refs/heads/master/resources/k8s/rbac/sa.png" width="100.8px" height="100.8px" preserveAspectRatio="xMinYMin meet" x="477.6" y="-118.8"/>
<text text-anchor="middle" x="528" y="-1.15" font-family="Sans-Serif" font-size="13.00" fill="#2d3436">checkoutservice</text>
</a>
</g>
</g>
<!-- 333beeeb22bd47d0824a41beaeddf665 -->
<g id="node5" class="node">
<title>333beeeb22bd47d0824a41beaeddf665</title>
<g id="a_node5"><a xlink:title="kind: ServiceAccount&#10;apiVersion: v1&#10;metadata:&#10; &#160;name: currencyservice&#10;...">
<image xlink:href="https://raw.githubusercontent.com/mingrammer/diagrams/refs/heads/master/resources/k8s/rbac/sa.png" width="100.8px" height="100.8px" preserveAspectRatio="xMinYMin meet" x="638.6" y="-118.8"/>
<text text-anchor="middle" x="689" y="-1.15" font-family="Sans-Serif" font-size="13.00" fill="#2d3436">currencyservice</text>
</a>
</g>
</g>
<!-- f369cfea73aa41639060f5605187b926 -->
<g id="node6" class="node">
<title>f369cfea73aa41639060f5605187b926</title>
<g id="a_node6"><a xlink:title="kind: ServiceAccount&#10;apiVersion: v1&#10;metadata:&#10; &#160;name: emailservice&#10;...">
<image xlink:href="https://raw.githubusercontent.com/mingrammer/diagrams/refs/heads/master/resources/k8s/rbac/sa.png" width="100.8px" height="100.8px" preserveAspectRatio="xMinYMin meet" x="805.6" y="-118.8"/>
<text text-anchor="middle" x="856" y="-1.15" font-family="Sans-Serif" font-size="13.00" fill="#2d3436">emailservice</text>
</a>
</g>
</g>
<!-- 81fab11040f043b39e25be4f09f3bb38 -->
<g id="node7" class="node">
<title>81fab11040f043b39e25be4f09f3bb38</title>
<g id="a_node7"><a xlink:title="kind: ServiceAccount&#10;apiVersion: v1&#10;metadata:&#10; &#160;name: frontend&#10;...">
<image xlink:href="https://raw.githubusercontent.com/mingrammer/diagrams/refs/heads/master/resources/k8s/rbac/sa.png" width="100.8px" height="100.8px" preserveAspectRatio="xMinYMin meet" x="961.6" y="-118.8"/>
<text text-anchor="middle" x="1012" y="-1.15" font-family="Sans-Serif" font-size="13.00" fill="#2d3436">frontend</text>
</a>
</g>
</g>
<!-- c9aefad646ee4bfa898c1b6d571bd012 -->
<g id="node8" class="node">
<title>c9aefad646ee4bfa898c1b6d571bd012</title>
<g id="a_node8"><a xlink:title="kind: ServiceAccount&#10;apiVersion: v1&#10;metadata:&#10; &#160;name: loadgenerator&#10;...">
<image xlink:href="https://raw.githubusercontent.com/mingrammer/diagrams/refs/heads/master/resources/k8s/rbac/sa.png" width="100.8px" height="100.8px" preserveAspectRatio="xMinYMin meet" x="1259.6" y="-309.6"/>
<text text-anchor="middle" x="1310" y="-191.95" font-family="Sans-Serif" font-size="13.00" fill="#2d3436">loadgenerator</text>
</a>
</g>
</g>
<!-- c7edb342e09e467ab159f953a39d8144 -->
<g id="node9" class="node">
<title>c7edb342e09e467ab159f953a39d8144</title>
<g id="a_node9"><a xlink:title="kind: ServiceAccount&#10;apiVersion: v1&#10;metadata:&#10; &#160;name: paymentservice&#10;...">
<image xlink:href="https://raw.githubusercontent.com/mingrammer/diagrams/refs/heads/master/resources/k8s/rbac/sa.png" width="100.8px" height="100.8px" preserveAspectRatio="xMinYMin meet" x="1425.6" y="-118.8"/>
<text text-anchor="middle" x="1476" y="-1.15" font-family="Sans-Serif" font-size="13.00" fill="#2d3436">paymentservice</text>
</a>
</g>
</g>
<!-- 8d4319086ece49299edb6cd10f80061e -->
<g id="node10" class="node">
<title>8d4319086ece49299edb6cd10f80061e</title>
<g id="a_node10"><a xlink:title="kind: ServiceAccount&#10;apiVersion: v1&#10;metadata:&#10; &#160;name: productcatalogservice&#10;...">
<image xlink:href="https://raw.githubusercontent.com/mingrammer/diagrams/refs/heads/master/resources/k8s/rbac/sa.png" width="100.8px" height="100.8px" preserveAspectRatio="xMinYMin meet" x="1612.6" y="-118.8"/>
<text text-anchor="middle" x="1663" y="-1.15" font-family="Sans-Serif" font-size="13.00" fill="#2d3436">productcatalogservice</text>
</a>
</g>
</g>
<!-- a12058996a064370abd3e94b9eaedb38 -->
<g id="node11" class="node">
<title>a12058996a064370abd3e94b9eaedb38</title>
<g id="a_node11"><a xlink:title="kind: ServiceAccount&#10;apiVersion: v1&#10;metadata:&#10; &#160;name: recommendationservice&#10;...">
<image xlink:href="https://raw.githubusercontent.com/mingrammer/diagrams/refs/heads/master/resources/k8s/rbac/sa.png" width="100.8px" height="100.8px" preserveAspectRatio="xMinYMin meet" x="1849.6" y="-118.8"/>
<text text-anchor="middle" x="1900" y="-1.15" font-family="Sans-Serif" font-size="13.00" fill="#2d3436">recommendationservice</text>
</a>
</g>
</g>
<!-- 574db36bd9904cf989e6e7476974f172 -->
<g id="node12" class="node">
<title>574db36bd9904cf989e6e7476974f172</title>
<g id="a_node12"><a xlink:title="kind: ServiceAccount&#10;apiVersion: v1&#10;metadata:&#10; &#160;name: shippingservice&#10;...">
<image xlink:href="https://raw.githubusercontent.com/mingrammer/diagrams/refs/heads/master/resources/k8s/rbac/sa.png" width="100.8px" height="100.8px" preserveAspectRatio="xMinYMin meet" x="2024.6" y="-118.8"/>
<text text-anchor="middle" x="2075" y="-1.15" font-family="Sans-Serif" font-size="13.00" fill="#2d3436">shippingservice</text>
</a>
</g>
</g>
<!-- 471d2df4cb0c4daf9a69daee2f3448f0 -->
<g id="node13" class="node">
<title>471d2df4cb0c4daf9a69daee2f3448f0</title>
<g id="a_node13"><a xlink:title="kind: Service&#10;apiVersion: v1&#10;metadata:&#10; &#160;name: redis&#45;cart&#10;...">
<image xlink:href="https://raw.githubusercontent.com/mingrammer/diagrams/refs/heads/master/resources/k8s/network/svc.png" width="100.8px" height="100.8px" preserveAspectRatio="xMinYMin meet" x="317.6" y="-514.8"/>
<text text-anchor="middle" x="368" y="-397.15" font-family="Sans-Serif" font-size="13.00" fill="#2d3436">redis&#45;cart</text>
</a>
</g>
</g>
<!-- c5d3d8da91824c758f00216277e9a497 -->
<g id="node15" class="node">
<title>c5d3d8da91824c758f00216277e9a497</title>
<g id="a_node15"><a xlink:title="kind: Deployment&#10;apiVersion: apps/v1&#10;metadata:&#10; &#160;name: redis&#45;cart&#10;...">
<image xlink:href="https://raw.githubusercontent.com/mingrammer/diagrams/refs/heads/master/resources/k8s/compute/deploy.png" width="100.8px" height="100.8px" preserveAspectRatio="xMinYMin meet" x="317.6" y="-309.6"/>
<text text-anchor="middle" x="368" y="-191.95" font-family="Sans-Serif" font-size="13.00" fill="#2d3436">redis&#45;cart</text>
</a>
</g>
</g>
<!-- 471d2df4cb0c4daf9a69daee2f3448f0&#45;&gt;c5d3d8da91824c758f00216277e9a497 -->
<g id="edge3" class="edge">
<title>471d2df4cb0c4daf9a69daee2f3448f0&#45;&gt;c5d3d8da91824c758f00216277e9a497</title>
<g id="a_edge3"><a xlink:title="spec.selector:&#10; &#160;app: redis&#45;cart">
<path fill="none" stroke="black" stroke-dasharray="5,2" d="M368,-396.07C368,-396.07 368,-338.58 368,-338.58"/>
<polygon fill="black" stroke="black" points="371.5,-338.58 368,-328.58 364.5,-338.58 371.5,-338.58"/>
</a>
</g>
<text text-anchor="middle" x="345.88" y="-369.08" font-family="Sans-Serif" font-size="10.00" fill="#2d3436">6379/TCP</text>
</g>
<!-- 1590caad8533402c9d4b661bf1602b67 -->
<g id="node14" class="node">
<title>1590caad8533402c9d4b661bf1602b67</title>
<g id="a_node14"><a xlink:title="kind: Service&#10;apiVersion: v1&#10;metadata:&#10; &#160;name: frontend&#45;external&#10;...">
<image xlink:href="https://raw.githubusercontent.com/mingrammer/diagrams/refs/heads/master/resources/k8s/network/svc.png" width="100.8px" height="100.8px" preserveAspectRatio="xMinYMin meet" x="1102.6" y="-514.8"/>
<text text-anchor="middle" x="1153" y="-396.25" font-family="Sans-Serif" font-size="13.00" fill="#2d3436">frontend</text>
<text text-anchor="middle" x="1153" y="-382.75" font-family="Sans-Serif" font-size="13.00" fill="#2d3436">&#45;external</text>
</a>
</g>
</g>
<!-- 0b89e813c9644c268e6b4011fcfb7327 -->
<g id="node27" class="node">
<title>0b89e813c9644c268e6b4011fcfb7327</title>
<g id="a_node27"><a xlink:title="kind: Deployment&#10;apiVersion: apps/v1&#10;metadata:&#10; &#160;name: frontend&#10;...">
<image xlink:href="https://raw.githubusercontent.com/mingrammer/diagrams/refs/heads/master/resources/k8s/compute/deploy.png" width="100.8px" height="100.8px" preserveAspectRatio="xMinYMin meet" x="961.6" y="-309.6"/>
<text text-anchor="middle" x="1012" y="-191.95" font-family="Sans-Serif" font-size="13.00" fill="#2d3436">frontend</text>
</a>
</g>
</g>
<!-- 1590caad8533402c9d4b661bf1602b67&#45;&gt;0b89e813c9644c268e6b4011fcfb7327 -->
<g id="edge8" class="edge">
<title>1590caad8533402c9d4b661bf1602b67&#45;&gt;0b89e813c9644c268e6b4011fcfb7327</title>
<g id="a_edge8"><a xlink:title="spec.selector:&#10; &#160;app: frontend">
<path fill="none" stroke="black" stroke-dasharray="5,2" d="M1102.76,-388C1067.57,-388 1026.8,-388 1026.8,-388 1026.8,-388 1026.8,-338.37 1026.8,-338.37"/>
<polygon fill="black" stroke="black" points="1030.3,-338.37 1026.8,-328.37 1023.3,-338.37 1030.3,-338.37"/>
</a>
</g>
<text text-anchor="middle" x="1008.09" y="-378.5" font-family="Sans-Serif" font-size="10.00" fill="#2d3436">80&#45;&gt;8080/TCP</text>
</g>
<!-- c5d3d8da91824c758f00216277e9a497&#45;&gt;620e5058bf1c4ad7bca650c736df3885 -->
<g id="edge15" class="edge">
<title>c5d3d8da91824c758f00216277e9a497&#45;&gt;620e5058bf1c4ad7bca650c736df3885</title>
<g id="a_edge15"><a xlink:title="spec.template.spec.serviceAccountName: redis&#45;cart">
<path fill="none" stroke="black" d="M368,-190.86C368,-190.86 368,-147.59 368,-147.59"/>
<polygon fill="black" stroke="black" points="371.5,-147.59 368,-137.59 364.5,-147.59 371.5,-147.59"/>
</a>
</g>
</g>
<!-- cef103cfba4d411a90fcb1e4082bb1f3 -->
<g id="node16" class="node">
<title>cef103cfba4d411a90fcb1e4082bb1f3</title>
<g id="a_node16"><a xlink:title="kind: Service&#10;apiVersion: v1&#10;metadata:&#10; &#160;name: adservice&#10;...">
<image xlink:href="https://raw.githubusercontent.com/mingrammer/diagrams/refs/heads/master/resources/k8s/network/svc.png" width="100.8px" height="100.8px" preserveAspectRatio="xMinYMin meet" x="23.6" y="-514.8"/>
<text text-anchor="middle" x="74" y="-397.15" font-family="Sans-Serif" font-size="13.00" fill="#2d3436">adservice</text>
</a>
</g>
</g>
<!-- fa98b646b66e46bd960ba6110d8712b6 -->
<g id="node17" class="node">
<title>fa98b646b66e46bd960ba6110d8712b6</title>
<g id="a_node17"><a xlink:title="kind: Deployment&#10;apiVersion: apps/v1&#10;metadata:&#10; &#160;name: adservice&#10;...">
<image xlink:href="https://raw.githubusercontent.com/mingrammer/diagrams/refs/heads/master/resources/k8s/compute/deploy.png" width="100.8px" height="100.8px" preserveAspectRatio="xMinYMin meet" x="23.6" y="-309.6"/>
<text text-anchor="middle" x="74" y="-191.95" font-family="Sans-Serif" font-size="13.00" fill="#2d3436">adservice</text>
</a>
</g>
</g>
<!-- cef103cfba4d411a90fcb1e4082bb1f3&#45;&gt;fa98b646b66e46bd960ba6110d8712b6 -->
<g id="edge1" class="edge">
<title>cef103cfba4d411a90fcb1e4082bb1f3&#45;&gt;fa98b646b66e46bd960ba6110d8712b6</title>
<g id="a_edge1"><a xlink:title="spec.selector:&#10; &#160;app: adservice">
<path fill="none" stroke="black" stroke-dasharray="5,2" d="M74,-396.07C74,-396.07 74,-338.58 74,-338.58"/>
<polygon fill="black" stroke="black" points="77.5,-338.58 74,-328.58 70.5,-338.58 77.5,-338.58"/>
</a>
</g>
<text text-anchor="middle" x="51.88" y="-369.08" font-family="Sans-Serif" font-size="10.00" fill="#2d3436">9555/TCP</text>
</g>
<!-- fa98b646b66e46bd960ba6110d8712b6&#45;&gt;aef9e1c9d9d34fc2adcbcb79eeb6ef0a -->
<g id="edge13" class="edge">
<title>fa98b646b66e46bd960ba6110d8712b6&#45;&gt;aef9e1c9d9d34fc2adcbcb79eeb6ef0a</title>
<g id="a_edge13"><a xlink:title="spec.template.spec.serviceAccountName: adservice">
<path fill="none" stroke="black" d="M74,-190.86C74,-190.86 74,-147.59 74,-147.59"/>
<polygon fill="black" stroke="black" points="77.5,-147.59 74,-137.59 70.5,-147.59 77.5,-147.59"/>
</a>
</g>
</g>
<!-- 1eea607993ff4a23bcc2d6f8f79d72d8 -->
<g id="node18" class="node">
<title>1eea607993ff4a23bcc2d6f8f79d72d8</title>
<g id="a_node18"><a xlink:title="kind: Service&#10;apiVersion: v1&#10;metadata:&#10; &#160;name: cartservice&#10;...">
<image xlink:href="https://raw.githubusercontent.com/mingrammer/diagrams/refs/heads/master/resources/k8s/network/svc.png" width="100.8px" height="100.8px" preserveAspectRatio="xMinYMin meet" x="173.6" y="-514.8"/>
<text text-anchor="middle" x="224" y="-397.15" font-family="Sans-Serif" font-size="13.00" fill="#2d3436">cartservice</text>
</a>
</g>
</g>
<!-- 2512d8fb9e5c4e6c812e8264ce5700a8 -->
<g id="node19" class="node">
<title>2512d8fb9e5c4e6c812e8264ce5700a8</title>
<g id="a_node19"><a xlink:title="kind: Deployment&#10;apiVersion: apps/v1&#10;metadata:&#10; &#160;name: cartservice&#10;...">
<image xlink:href="https://raw.githubusercontent.com/mingrammer/diagrams/refs/heads/master/resources/k8s/compute/deploy.png" width="100.8px" height="100.8px" preserveAspectRatio="xMinYMin meet" x="173.6" y="-309.6"/>
<text text-anchor="middle" x="224" y="-191.95" font-family="Sans-Serif" font-size="13.00" fill="#2d3436">cartservice</text>
</a>
</g>
</g>
<!-- 1eea607993ff4a23bcc2d6f8f79d72d8&#45;&gt;2512d8fb9e5c4e6c812e8264ce5700a8 -->
<g id="edge2" class="edge">
<title>1eea607993ff4a23bcc2d6f8f79d72d8&#45;&gt;2512d8fb9e5c4e6c812e8264ce5700a8</title>
<g id="a_edge2"><a xlink:title="spec.selector:&#10; &#160;app: cartservice">
<path fill="none" stroke="black" stroke-dasharray="5,2" d="M224,-396.07C224,-396.07 224,-338.58 224,-338.58"/>
<polygon fill="black" stroke="black" points="227.5,-338.58 224,-328.58 220.5,-338.58 227.5,-338.58"/>
</a>
</g>
<text text-anchor="middle" x="201.88" y="-369.08" font-family="Sans-Serif" font-size="10.00" fill="#2d3436">7070/TCP</text>
</g>
<!-- 2512d8fb9e5c4e6c812e8264ce5700a8&#45;&gt;a5d4cd4d308743a49c333ecb8af489b8 -->
<g id="edge14" class="edge">
<title>2512d8fb9e5c4e6c812e8264ce5700a8&#45;&gt;a5d4cd4d308743a49c333ecb8af489b8</title>
<g id="a_edge14"><a xlink:title="spec.template.spec.serviceAccountName: cartservice">
<path fill="none" stroke="black" d="M224,-190.86C224,-190.86 224,-147.59 224,-147.59"/>
<polygon fill="black" stroke="black" points="227.5,-147.59 224,-137.59 220.5,-147.59 227.5,-147.59"/>
</a>
</g>
</g>
<!-- fe5634e1facb4caea1d229dc4006bc1d -->
<g id="node20" class="node">
<title>fe5634e1facb4caea1d229dc4006bc1d</title>
<g id="a_node20"><a xlink:title="kind: Service&#10;apiVersion: v1&#10;metadata:&#10; &#160;name: checkoutservice&#10;...">
<image xlink:href="https://raw.githubusercontent.com/mingrammer/diagrams/refs/heads/master/resources/k8s/network/svc.png" width="100.8px" height="100.8px" preserveAspectRatio="xMinYMin meet" x="477.6" y="-514.8"/>
<text text-anchor="middle" x="528" y="-397.15" font-family="Sans-Serif" font-size="13.00" fill="#2d3436">checkoutservice</text>
</a>
</g>
</g>
<!-- c8e8962b5709480ba4bd8c68ec240821 -->
<g id="node21" class="node">
<title>c8e8962b5709480ba4bd8c68ec240821</title>
<g id="a_node21"><a xlink:title="kind: Deployment&#10;apiVersion: apps/v1&#10;metadata:&#10; &#160;name: checkoutservice&#10;...">
<image xlink:href="https://raw.githubusercontent.com/mingrammer/diagrams/refs/heads/master/resources/k8s/compute/deploy.png" width="100.8px" height="100.8px" preserveAspectRatio="xMinYMin meet" x="477.6" y="-309.6"/>
<text text-anchor="middle" x="528" y="-191.95" font-family="Sans-Serif" font-size="13.00" fill="#2d3436">checkoutservice</text>
</a>
</g>
</g>
<!-- fe5634e1facb4caea1d229dc4006bc1d&#45;&gt;c8e8962b5709480ba4bd8c68ec240821 -->
<g id="edge4" class="edge">
<title>fe5634e1facb4caea1d229dc4006bc1d&#45;&gt;c8e8962b5709480ba4bd8c68ec240821</title>
<g id="a_edge4"><a xlink:title="spec.selector:&#10; &#160;app: checkoutservice">
<path fill="none" stroke="black" stroke-dasharray="5,2" d="M528,-396.07C528,-396.07 528,-338.58 528,-338.58"/>
<polygon fill="black" stroke="black" points="531.5,-338.58 528,-328.58 524.5,-338.58 531.5,-338.58"/>
</a>
</g>
<text text-anchor="middle" x="505.88" y="-369.08" font-family="Sans-Serif" font-size="10.00" fill="#2d3436">5050/TCP</text>
</g>
<!-- c8e8962b5709480ba4bd8c68ec240821&#45;&gt;80634b0b7f2949fb8abacd5c728c3759 -->
<g id="edge16" class="edge">
<title>c8e8962b5709480ba4bd8c68ec240821&#45;&gt;80634b0b7f2949fb8abacd5c728c3759</title>
<g id="a_edge16"><a xlink:title="spec.template.spec.serviceAccountName: checkoutservice">
<path fill="none" stroke="black" d="M528,-190.86C528,-190.86 528,-147.59 528,-147.59"/>
<polygon fill="black" stroke="black" points="531.5,-147.59 528,-137.59 524.5,-147.59 531.5,-147.59"/>
</a>
</g>
</g>
<!-- 027084affad846f8a5e24b29590b4a5d -->
<g id="node22" class="node">
<title>027084affad846f8a5e24b29590b4a5d</title>
<g id="a_node22"><a xlink:title="kind: Service&#10;apiVersion: v1&#10;metadata:&#10; &#160;name: currencyservice&#10;...">
<image xlink:href="https://raw.githubusercontent.com/mingrammer/diagrams/refs/heads/master/resources/k8s/network/svc.png" width="100.8px" height="100.8px" preserveAspectRatio="xMinYMin meet" x="638.6" y="-514.8"/>
<text text-anchor="middle" x="689" y="-397.15" font-family="Sans-Serif" font-size="13.00" fill="#2d3436">currencyservice</text>
</a>
</g>
</g>
<!-- 9bfed2dc39384e61ad70245cd6e8c56e -->
<g id="node23" class="node">
<title>9bfed2dc39384e61ad70245cd6e8c56e</title>
<g id="a_node23"><a xlink:title="kind: Deployment&#10;apiVersion: apps/v1&#10;metadata:&#10; &#160;name: currencyservice&#10;...">
<image xlink:href="https://raw.githubusercontent.com/mingrammer/diagrams/refs/heads/master/resources/k8s/compute/deploy.png" width="100.8px" height="100.8px" preserveAspectRatio="xMinYMin meet" x="638.6" y="-309.6"/>
<text text-anchor="middle" x="689" y="-191.95" font-family="Sans-Serif" font-size="13.00" fill="#2d3436">currencyservice</text>
</a>
</g>
</g>
<!-- 027084affad846f8a5e24b29590b4a5d&#45;&gt;9bfed2dc39384e61ad70245cd6e8c56e -->
<g id="edge5" class="edge">
<title>027084affad846f8a5e24b29590b4a5d&#45;&gt;9bfed2dc39384e61ad70245cd6e8c56e</title>
<g id="a_edge5"><a xlink:title="spec.selector:&#10; &#160;app: currencyservice">
<path fill="none" stroke="black" stroke-dasharray="5,2" d="M689,-396.07C689,-396.07 689,-338.58 689,-338.58"/>
<polygon fill="black" stroke="black" points="692.5,-338.58 689,-328.58 685.5,-338.58 692.5,-338.58"/>
</a>
</g>
<text text-anchor="middle" x="666.88" y="-369.08" font-family="Sans-Serif" font-size="10.00" fill="#2d3436">7000/TCP</text>
</g>
<!-- 9bfed2dc39384e61ad70245cd6e8c56e&#45;&gt;333beeeb22bd47d0824a41beaeddf665 -->
<g id="edge17" class="edge">
<title>9bfed2dc39384e61ad70245cd6e8c56e&#45;&gt;333beeeb22bd47d0824a41beaeddf665</title>
<g id="a_edge17"><a xlink:title="spec.template.spec.serviceAccountName: currencyservice">
<path fill="none" stroke="black" d="M689,-190.86C689,-190.86 689,-147.59 689,-147.59"/>
<polygon fill="black" stroke="black" points="692.5,-147.59 689,-137.59 685.5,-147.59 692.5,-147.59"/>
</a>
</g>
</g>
<!-- f7a05ae402444b8883a55399a15e3135 -->
<g id="node24" class="node">
<title>f7a05ae402444b8883a55399a15e3135</title>
<g id="a_node24"><a xlink:title="kind: Service&#10;apiVersion: v1&#10;metadata:&#10; &#160;name: emailservice&#10;...">
<image xlink:href="https://raw.githubusercontent.com/mingrammer/diagrams/refs/heads/master/resources/k8s/network/svc.png" width="100.8px" height="100.8px" preserveAspectRatio="xMinYMin meet" x="805.6" y="-514.8"/>
<text text-anchor="middle" x="856" y="-397.15" font-family="Sans-Serif" font-size="13.00" fill="#2d3436">emailservice</text>
</a>
</g>
</g>
<!-- 14105379e5dc43b7bb7a6166dc94e89b -->
<g id="node25" class="node">
<title>14105379e5dc43b7bb7a6166dc94e89b</title>
<g id="a_node25"><a xlink:title="kind: Deployment&#10;apiVersion: apps/v1&#10;metadata:&#10; &#160;name: emailservice&#10;...">
<image xlink:href="https://raw.githubusercontent.com/mingrammer/diagrams/refs/heads/master/resources/k8s/compute/deploy.png" width="100.8px" height="100.8px" preserveAspectRatio="xMinYMin meet" x="805.6" y="-309.6"/>
<text text-anchor="middle" x="856" y="-191.95" font-family="Sans-Serif" font-size="13.00" fill="#2d3436">emailservice</text>
</a>
</g>
</g>
<!-- f7a05ae402444b8883a55399a15e3135&#45;&gt;14105379e5dc43b7bb7a6166dc94e89b -->
<g id="edge6" class="edge">
<title>f7a05ae402444b8883a55399a15e3135&#45;&gt;14105379e5dc43b7bb7a6166dc94e89b</title>
<g id="a_edge6"><a xlink:title="spec.selector:&#10; &#160;app: emailservice">
<path fill="none" stroke="black" stroke-dasharray="5,2" d="M856,-396.07C856,-396.07 856,-338.58 856,-338.58"/>
<polygon fill="black" stroke="black" points="859.5,-338.58 856,-328.58 852.5,-338.58 859.5,-338.58"/>
</a>
</g>
<text text-anchor="middle" x="818.88" y="-369.08" font-family="Sans-Serif" font-size="10.00" fill="#2d3436">5000&#45;&gt;8080/TCP</text>
</g>
<!-- 14105379e5dc43b7bb7a6166dc94e89b&#45;&gt;f369cfea73aa41639060f5605187b926 -->
<g id="edge18" class="edge">
<title>14105379e5dc43b7bb7a6166dc94e89b&#45;&gt;f369cfea73aa41639060f5605187b926</title>
<g id="a_edge18"><a xlink:title="spec.template.spec.serviceAccountName: emailservice">
<path fill="none" stroke="black" d="M856,-190.86C856,-190.86 856,-147.59 856,-147.59"/>
<polygon fill="black" stroke="black" points="859.5,-147.59 856,-137.59 852.5,-147.59 859.5,-147.59"/>
</a>
</g>
</g>
<!-- 07751f03f4e94f098054a5919cff7fdf -->
<g id="node26" class="node">
<title>07751f03f4e94f098054a5919cff7fdf</title>
<g id="a_node26"><a xlink:title="kind: Service&#10;apiVersion: v1&#10;metadata:&#10; &#160;name: frontend&#10;...">
<image xlink:href="https://raw.githubusercontent.com/mingrammer/diagrams/refs/heads/master/resources/k8s/network/svc.png" width="100.8px" height="100.8px" preserveAspectRatio="xMinYMin meet" x="958.6" y="-514.8"/>
<text text-anchor="middle" x="1009" y="-397.15" font-family="Sans-Serif" font-size="13.00" fill="#2d3436">frontend</text>
</a>
</g>
</g>
<!-- 07751f03f4e94f098054a5919cff7fdf&#45;&gt;0b89e813c9644c268e6b4011fcfb7327 -->
<g id="edge7" class="edge">
<title>07751f03f4e94f098054a5919cff7fdf&#45;&gt;0b89e813c9644c268e6b4011fcfb7327</title>
<g id="a_edge7"><a xlink:title="spec.selector:&#10; &#160;app: frontend">
<path fill="none" stroke="black" stroke-dasharray="5,2" d="M994.2,-396.07C994.2,-396.07 994.2,-338.58 994.2,-338.58"/>
<polygon fill="black" stroke="black" points="997.7,-338.58 994.2,-328.58 990.7,-338.58 997.7,-338.58"/>
</a>
</g>
<text text-anchor="middle" x="962.33" y="-357.83" font-family="Sans-Serif" font-size="10.00" fill="#2d3436">80&#45;&gt;8080/TCP</text>
</g>
<!-- 0b89e813c9644c268e6b4011fcfb7327&#45;&gt;81fab11040f043b39e25be4f09f3bb38 -->
<g id="edge19" class="edge">
<title>0b89e813c9644c268e6b4011fcfb7327&#45;&gt;81fab11040f043b39e25be4f09f3bb38</title>
<g id="a_edge19"><a xlink:title="spec.template.spec.serviceAccountName: frontend">
<path fill="none" stroke="black" d="M1012,-190.86C1012,-190.86 1012,-147.59 1012,-147.59"/>
<polygon fill="black" stroke="black" points="1015.5,-147.59 1012,-137.59 1008.5,-147.59 1015.5,-147.59"/>
</a>
</g>
</g>
<!-- 279fc3f128614616bea23e6bc0d7a116 -->
<g id="node28" class="node">
<title>279fc3f128614616bea23e6bc0d7a116</title>
<g id="a_node28"><a xlink:title="kind: Service&#10;apiVersion: v1&#10;metadata:&#10; &#160;name: paymentservice&#10;...">
<image xlink:href="https://raw.githubusercontent.com/mingrammer/diagrams/refs/heads/master/resources/k8s/network/svc.png" width="100.8px" height="100.8px" preserveAspectRatio="xMinYMin meet" x="1425.6" y="-514.8"/>
<text text-anchor="middle" x="1476" y="-397.15" font-family="Sans-Serif" font-size="13.00" fill="#2d3436">paymentservice</text>
</a>
</g>
</g>
<!-- 48df539b8d1644e7b6410cba936fc34c -->
<g id="node29" class="node">
<title>48df539b8d1644e7b6410cba936fc34c</title>
<g id="a_node29"><a xlink:title="kind: Deployment&#10;apiVersion: apps/v1&#10;metadata:&#10; &#160;name: paymentservice&#10;...">
<image xlink:href="https://raw.githubusercontent.com/mingrammer/diagrams/refs/heads/master/resources/k8s/compute/deploy.png" width="100.8px" height="100.8px" preserveAspectRatio="xMinYMin meet" x="1425.6" y="-309.6"/>
<text text-anchor="middle" x="1476" y="-191.95" font-family="Sans-Serif" font-size="13.00" fill="#2d3436">paymentservice</text>
</a>
</g>
</g>
<!-- 279fc3f128614616bea23e6bc0d7a116&#45;&gt;48df539b8d1644e7b6410cba936fc34c -->
<g id="edge9" class="edge">
<title>279fc3f128614616bea23e6bc0d7a116&#45;&gt;48df539b8d1644e7b6410cba936fc34c</title>
<g id="a_edge9"><a xlink:title="spec.selector:&#10; &#160;app: paymentservice">
<path fill="none" stroke="black" stroke-dasharray="5,2" d="M1476,-396.07C1476,-396.07 1476,-338.58 1476,-338.58"/>
<polygon fill="black" stroke="black" points="1479.5,-338.58 1476,-328.58 1472.5,-338.58 1479.5,-338.58"/>
</a>
</g>
<text text-anchor="middle" x="1451.25" y="-369.08" font-family="Sans-Serif" font-size="10.00" fill="#2d3436">50051/TCP</text>
</g>
<!-- 48df539b8d1644e7b6410cba936fc34c&#45;&gt;c7edb342e09e467ab159f953a39d8144 -->
<g id="edge21" class="edge">
<title>48df539b8d1644e7b6410cba936fc34c&#45;&gt;c7edb342e09e467ab159f953a39d8144</title>
<g id="a_edge21"><a xlink:title="spec.template.spec.serviceAccountName: paymentservice">
<path fill="none" stroke="black" d="M1476,-190.86C1476,-190.86 1476,-147.59 1476,-147.59"/>
<polygon fill="black" stroke="black" points="1479.5,-147.59 1476,-137.59 1472.5,-147.59 1479.5,-147.59"/>
</a>
</g>
</g>
<!-- 9024415b9817463894132c7fe39856ee -->
<g id="node30" class="node">
<title>9024415b9817463894132c7fe39856ee</title>
<g id="a_node30"><a xlink:title="kind: Service&#10;apiVersion: v1&#10;metadata:&#10; &#160;name: productcatalogservice&#10;...">
<image xlink:href="https://raw.githubusercontent.com/mingrammer/diagrams/refs/heads/master/resources/k8s/network/svc.png" width="100.8px" height="100.8px" preserveAspectRatio="xMinYMin meet" x="1612.6" y="-514.8"/>
<text text-anchor="middle" x="1663" y="-397.15" font-family="Sans-Serif" font-size="13.00" fill="#2d3436">productcatalogservice</text>
</a>
</g>
</g>
<!-- 1db1fc91f7da478b9f748d557b1c372a -->
<g id="node31" class="node">
<title>1db1fc91f7da478b9f748d557b1c372a</title>
<g id="a_node31"><a xlink:title="kind: Deployment&#10;apiVersion: apps/v1&#10;metadata:&#10; &#160;name: productcatalogservice&#10;...">
<image xlink:href="https://raw.githubusercontent.com/mingrammer/diagrams/refs/heads/master/resources/k8s/compute/deploy.png" width="100.8px" height="100.8px" preserveAspectRatio="xMinYMin meet" x="1612.6" y="-309.6"/>
<text text-anchor="middle" x="1663" y="-191.95" font-family="Sans-Serif" font-size="13.00" fill="#2d3436">productcatalogservice</text>
</a>
</g>
</g>
<!-- 9024415b9817463894132c7fe39856ee&#45;&gt;1db1fc91f7da478b9f748d557b1c372a -->
<g id="edge10" class="edge">
<title>9024415b9817463894132c7fe39856ee&#45;&gt;1db1fc91f7da478b9f748d557b1c372a</title>
<g id="a_edge10"><a xlink:title="spec.selector:&#10; &#160;app: productcatalogservice">
<path fill="none" stroke="black" stroke-dasharray="5,2" d="M1663,-396.07C1663,-396.07 1663,-338.58 1663,-338.58"/>
<polygon fill="black" stroke="black" points="1666.5,-338.58 1663,-328.58 1659.5,-338.58 1666.5,-338.58"/>
</a>
</g>
<text text-anchor="middle" x="1640.88" y="-369.08" font-family="Sans-Serif" font-size="10.00" fill="#2d3436">3550/TCP</text>
</g>
<!-- 1db1fc91f7da478b9f748d557b1c372a&#45;&gt;8d4319086ece49299edb6cd10f80061e -->
<g id="edge22" class="edge">
<title>1db1fc91f7da478b9f748d557b1c372a&#45;&gt;8d4319086ece49299edb6cd10f80061e</title>
<g id="a_edge22"><a xlink:title="spec.template.spec.serviceAccountName: productcatalogservice">
<path fill="none" stroke="black" d="M1663,-190.86C1663,-190.86 1663,-147.59 1663,-147.59"/>
<polygon fill="black" stroke="black" points="1666.5,-147.59 1663,-137.59 1659.5,-147.59 1666.5,-147.59"/>
</a>
</g>
</g>
<!-- 99746bbb283c433db85b89dc61f2e66f -->
<g id="node32" class="node">
<title>99746bbb283c433db85b89dc61f2e66f</title>
<g id="a_node32"><a xlink:title="kind: Service&#10;apiVersion: v1&#10;metadata:&#10; &#160;name: recommendationservice&#10;...">
<image xlink:href="https://raw.githubusercontent.com/mingrammer/diagrams/refs/heads/master/resources/k8s/network/svc.png" width="100.8px" height="100.8px" preserveAspectRatio="xMinYMin meet" x="1849.6" y="-514.8"/>
<text text-anchor="middle" x="1900" y="-397.15" font-family="Sans-Serif" font-size="13.00" fill="#2d3436">recommendationservice</text>
</a>
</g>
</g>
<!-- 7b971ad206f148d0b7e8a7bf103a6551 -->
<g id="node33" class="node">
<title>7b971ad206f148d0b7e8a7bf103a6551</title>
<g id="a_node33"><a xlink:title="kind: Deployment&#10;apiVersion: apps/v1&#10;metadata:&#10; &#160;name: recommendationservice&#10;...">
<image xlink:href="https://raw.githubusercontent.com/mingrammer/diagrams/refs/heads/master/resources/k8s/compute/deploy.png" width="100.8px" height="100.8px" preserveAspectRatio="xMinYMin meet" x="1849.6" y="-309.6"/>
<text text-anchor="middle" x="1900" y="-191.95" font-family="Sans-Serif" font-size="13.00" fill="#2d3436">recommendationservice</text>
</a>
</g>
</g>
<!-- 99746bbb283c433db85b89dc61f2e66f&#45;&gt;7b971ad206f148d0b7e8a7bf103a6551 -->
<g id="edge11" class="edge">
<title>99746bbb283c433db85b89dc61f2e66f&#45;&gt;7b971ad206f148d0b7e8a7bf103a6551</title>
<g id="a_edge11"><a xlink:title="spec.selector:&#10; &#160;app: recommendationservice">
<path fill="none" stroke="black" stroke-dasharray="5,2" d="M1900,-396.07C1900,-396.07 1900,-338.58 1900,-338.58"/>
<polygon fill="black" stroke="black" points="1903.5,-338.58 1900,-328.58 1896.5,-338.58 1903.5,-338.58"/>
</a>
</g>
<text text-anchor="middle" x="1877.88" y="-369.08" font-family="Sans-Serif" font-size="10.00" fill="#2d3436">8080/TCP</text>
</g>
<!-- 7b971ad206f148d0b7e8a7bf103a6551&#45;&gt;a12058996a064370abd3e94b9eaedb38 -->
<g id="edge23" class="edge">
<title>7b971ad206f148d0b7e8a7bf103a6551&#45;&gt;a12058996a064370abd3e94b9eaedb38</title>
<g id="a_edge23"><a xlink:title="spec.template.spec.serviceAccountName: recommendationservice">
<path fill="none" stroke="black" d="M1900,-190.86C1900,-190.86 1900,-147.59 1900,-147.59"/>
<polygon fill="black" stroke="black" points="1903.5,-147.59 1900,-137.59 1896.5,-147.59 1903.5,-147.59"/>
</a>
</g>
</g>
<!-- 392146f88f93453585734333e8d92975 -->
<g id="node34" class="node">
<title>392146f88f93453585734333e8d92975</title>
<g id="a_node34"><a xlink:title="kind: Service&#10;apiVersion: v1&#10;metadata:&#10; &#160;name: shippingservice&#10;...">
<image xlink:href="https://raw.githubusercontent.com/mingrammer/diagrams/refs/heads/master/resources/k8s/network/svc.png" width="100.8px" height="100.8px" preserveAspectRatio="xMinYMin meet" x="2024.6" y="-514.8"/>
<text text-anchor="middle" x="2075" y="-397.15" font-family="Sans-Serif" font-size="13.00" fill="#2d3436">shippingservice</text>
</a>
</g>
</g>
<!-- da967fdae1484986a6364fbe76adb7ad -->
<g id="node35" class="node">
<title>da967fdae1484986a6364fbe76adb7ad</title>
<g id="a_node35"><a xlink:title="kind: Deployment&#10;apiVersion: apps/v1&#10;metadata:&#10; &#160;name: shippingservice&#10;...">
<image xlink:href="https://raw.githubusercontent.com/mingrammer/diagrams/refs/heads/master/resources/k8s/compute/deploy.png" width="100.8px" height="100.8px" preserveAspectRatio="xMinYMin meet" x="2024.6" y="-309.6"/>
<text text-anchor="middle" x="2075" y="-191.95" font-family="Sans-Serif" font-size="13.00" fill="#2d3436">shippingservice</text>
</a>
</g>
</g>
<!-- 392146f88f93453585734333e8d92975&#45;&gt;da967fdae1484986a6364fbe76adb7ad -->
<g id="edge12" class="edge">
<title>392146f88f93453585734333e8d92975&#45;&gt;da967fdae1484986a6364fbe76adb7ad</title>
<g id="a_edge12"><a xlink:title="spec.selector:&#10; &#160;app: shippingservice">
<path fill="none" stroke="black" stroke-dasharray="5,2" d="M2075,-396.07C2075,-396.07 2075,-338.58 2075,-338.58"/>
<polygon fill="black" stroke="black" points="2078.5,-338.58 2075,-328.58 2071.5,-338.58 2078.5,-338.58"/>
</a>
</g>
<text text-anchor="middle" x="2050.25" y="-369.08" font-family="Sans-Serif" font-size="10.00" fill="#2d3436">50051/TCP</text>
</g>
<!-- da967fdae1484986a6364fbe76adb7ad&#45;&gt;574db36bd9904cf989e6e7476974f172 -->
<g id="edge24" class="edge">
<title>da967fdae1484986a6364fbe76adb7ad&#45;&gt;574db36bd9904cf989e6e7476974f172</title>
<g id="a_edge24"><a xlink:title="spec.template.spec.serviceAccountName: shippingservice">
<path fill="none" stroke="black" d="M2075,-190.86C2075,-190.86 2075,-147.59 2075,-147.59"/>
<polygon fill="black" stroke="black" points="2078.5,-147.59 2075,-137.59 2071.5,-147.59 2078.5,-147.59"/>
</a>
</g>
</g>
<!-- 35567a7860bd44ff8ffce8acfa1809df -->
<g id="node36" class="node">
<title>35567a7860bd44ff8ffce8acfa1809df</title>
<g id="a_node36"><a xlink:title="kind: Deployment&#10;apiVersion: apps/v1&#10;metadata:&#10; &#160;name: loadgenerator&#10;...">
<image xlink:href="https://raw.githubusercontent.com/mingrammer/diagrams/refs/heads/master/resources/k8s/compute/deploy.png" width="100.8px" height="100.8px" preserveAspectRatio="xMinYMin meet" x="1259.6" y="-514.8"/>
<text text-anchor="middle" x="1310" y="-397.15" font-family="Sans-Serif" font-size="13.00" fill="#2d3436">loadgenerator</text>
</a>
</g>
</g>
<!-- 35567a7860bd44ff8ffce8acfa1809df&#45;&gt;c9aefad646ee4bfa898c1b6d571bd012 -->
<g id="edge20" class="edge">
<title>35567a7860bd44ff8ffce8acfa1809df&#45;&gt;c9aefad646ee4bfa898c1b6d571bd012</title>
<g id="a_edge20"><a xlink:title="spec.template.spec.serviceAccountName: loadgenerator">
<path fill="none" stroke="black" d="M1310,-396.07C1310,-396.07 1310,-338.58 1310,-338.58"/>
<polygon fill="black" stroke="black" points="1313.5,-338.58 1310,-328.58 1306.5,-338.58 1313.5,-338.58"/>
</a>
</g>
</g>
</g>
</svg>
