<?xml version="1.0" encoding="UTF-8" standalone="no"?>
<!DOCTYPE svg PUBLIC "-//W3C//DTD SVG 1.1//EN"
 "http://www.w3.org/Graphics/SVG/1.1/DTD/svg11.dtd">
<!-- Generated by graphviz version 8.1.0 (20230707.0739)
 -->
<!-- Pages: 1 -->
<svg width="2450pt" height="1048pt"
 viewBox="0.00 0.00 2450.00 1048.30" xmlns="http://www.w3.org/2000/svg" xmlns:xlink="http://www.w3.org/1999/xlink">
<g id="graph0" class="graph" transform="scale(1 1) rotate(0) translate(144 904.3)">
<polygon fill="white" stroke="none" points="-144,144 -144,-904.3 2306,-904.3 2306,144 -144,144"/>
<g id="clust1" class="cluster">
<title>cluster_Namespace: default</title>
<g id="a_clust1"><a xlink:title="Namespace: default">
<path fill="white" stroke="black" stroke-dasharray="5,2" d="M20,-8C20,-8 2142,-8 2142,-8 2148,-8 2154,-14 2154,-20 2154,-20 2154,-740.3 2154,-740.3 2154,-746.3 2148,-752.3 2142,-752.3 2142,-752.3 20,-752.3 20,-752.3 14,-752.3 8,-746.3 8,-740.3 8,-740.3 8,-20 8,-20 8,-14 14,-8 20,-8"/>
<image xlink:href="https://raw.githubusercontent.com/mingrammer/diagrams/refs/heads/master/resources/k8s/group/ns.png" width="60px" height="60px" preserveAspectRatio="xMinYMin meet" x="20" y="-744.3"/>
<text text-anchor="start" x="32" y="-666.9" font-family="Sans-Serif" font-size="12.00" fill="#2d3436">default</text>
</a>
</g>
</g>
<g id="clust2" class="cluster">
<title>cluster_Application: emailservice</title>
<g id="a_clust2"><a xlink:title="Application: emailservice">
<path fill="#ece8f6" stroke="#aeb6be" d="M2009,-242C2009,-242 2134,-242 2134,-242 2140,-242 2146,-248 2146,-254 2146,-254 2146,-623.15 2146,-623.15 2146,-629.15 2140,-635.15 2134,-635.15 2134,-635.15 2009,-635.15 2009,-635.15 2003,-635.15 1997,-629.15 1997,-623.15 1997,-623.15 1997,-254 1997,-254 1997,-248 2003,-242 2009,-242"/>
<text text-anchor="middle" x="2071.75" y="-619.75" font-family="Sans-Serif" font-size="12.00" fill="#2d3436">Application: emailservice</text>
</a>
</g>
</g>
<g id="clust3" class="cluster">
<title>cluster_Application: checkoutservice</title>
<g id="a_clust3"><a xlink:title="Application: checkoutservice">
<path fill="#ece8f6" stroke="#aeb6be" d="M1833,-242C1833,-242 1977,-242 1977,-242 1983,-242 1989,-248 1989,-254 1989,-254 1989,-623.15 1989,-623.15 1989,-629.15 1983,-635.15 1977,-635.15 1977,-635.15 1833,-635.15 1833,-635.15 1827,-635.15 1821,-629.15 1821,-623.15 1821,-623.15 1821,-254 1821,-254 1821,-248 1827,-242 1833,-242"/>
<text text-anchor="middle" x="1905.12" y="-619.75" font-family="Sans-Serif" font-size="12.00" fill="#2d3436">Application: checkoutservice</text>
</a>
</g>
</g>
<g id="clust4" class="cluster">
<title>cluster_Application: recommendationservice</title>
<g id="a_clust4"><a xlink:title="Application: recommendationservice">
<path fill="#ece8f6" stroke="#aeb6be" d="M1616,-227.6C1616,-227.6 1801,-227.6 1801,-227.6 1807,-227.6 1813,-233.6 1813,-239.6 1813,-239.6 1813,-637.55 1813,-637.55 1813,-643.55 1807,-649.55 1801,-649.55 1801,-649.55 1616,-649.55 1616,-649.55 1610,-649.55 1604,-643.55 1604,-637.55 1604,-637.55 1604,-239.6 1604,-239.6 1604,-233.6 1610,-227.6 1616,-227.6"/>
<text text-anchor="middle" x="1708.75" y="-634.15" font-family="Sans-Serif" font-size="12.00" fill="#2d3436">Application: recommendationservice</text>
</a>
</g>
</g>
<g id="clust5" class="cluster">
<title>cluster_Application: frontend</title>
<g id="a_clust5"><a xlink:title="Application: frontend">
<path fill="#ece8f6" stroke="#aeb6be" d="M1348,-242C1348,-242 1584,-242 1584,-242 1590,-242 1596,-248 1596,-254 1596,-254 1596,-637.55 1596,-637.55 1596,-643.55 1590,-649.55 1584,-649.55 1584,-649.55 1348,-649.55 1348,-649.55 1342,-649.55 1336,-643.55 1336,-637.55 1336,-637.55 1336,-254 1336,-254 1336,-248 1342,-242 1348,-242"/>
<text text-anchor="middle" x="1398.75" y="-634.15" font-family="Sans-Serif" font-size="12.00" fill="#2d3436">Application: frontend</text>
</a>
</g>
</g>
<g id="clust6" class="cluster">
<title>cluster_Application: paymentservice</title>
<g id="a_clust6"><a xlink:title="Application: paymentservice">
<path fill="#ece8f6" stroke="#aeb6be" d="M1174,-242C1174,-242 1316,-242 1316,-242 1322,-242 1328,-248 1328,-254 1328,-254 1328,-623.15 1328,-623.15 1328,-629.15 1322,-635.15 1316,-635.15 1316,-635.15 1174,-635.15 1174,-635.15 1168,-635.15 1162,-629.15 1162,-623.15 1162,-623.15 1162,-254 1162,-254 1162,-248 1168,-242 1174,-242"/>
<text text-anchor="middle" x="1245" y="-619.75" font-family="Sans-Serif" font-size="12.00" fill="#2d3436">Application: paymentservice</text>
</a>
</g>
</g>
<g id="clust7" class="cluster">
<title>cluster_Application: productcatalogservice</title>
<g id="a_clust7"><a xlink:title="Application: productcatalogservice">
<path fill="#ece8f6" stroke="#aeb6be" d="M967,-227.6C967,-227.6 1142,-227.6 1142,-227.6 1148,-227.6 1154,-233.6 1154,-239.6 1154,-239.6 1154,-637.55 1154,-637.55 1154,-643.55 1148,-649.55 1142,-649.55 1142,-649.55 967,-649.55 967,-649.55 961,-649.55 955,-643.55 955,-637.55 955,-637.55 955,-239.6 955,-239.6 955,-233.6 961,-227.6 967,-227.6"/>
<text text-anchor="middle" x="1054.5" y="-634.15" font-family="Sans-Serif" font-size="12.00" fill="#2d3436">Application: productcatalogservice</text>
</a>
</g>
</g>
<g id="clust8" class="cluster">
<title>cluster_Application: cartservice</title>
<g id="a_clust8"><a xlink:title="Application: cartservice">
<path fill="#ece8f6" stroke="#aeb6be" d="M820,-242C820,-242 935,-242 935,-242 941,-242 947,-248 947,-254 947,-254 947,-623.15 947,-623.15 947,-629.15 941,-635.15 935,-635.15 935,-635.15 820,-635.15 820,-635.15 814,-635.15 808,-629.15 808,-623.15 808,-623.15 808,-254 808,-254 808,-248 814,-242 820,-242"/>
<text text-anchor="middle" x="877.88" y="-619.75" font-family="Sans-Serif" font-size="12.00" fill="#2d3436">Application: cartservice</text>
</a>
</g>
</g>
<g id="clust9" class="cluster">
<title>cluster_Application: redis&#45;cart</title>
<g id="a_clust9"><a xlink:title="Application: redis&#45;cart">
<path fill="#ece8f6" stroke="#aeb6be" d="M681,-242C681,-242 788,-242 788,-242 794,-242 800,-248 800,-254 800,-254 800,-623.15 800,-623.15 800,-629.15 794,-635.15 788,-635.15 788,-635.15 681,-635.15 681,-635.15 675,-635.15 669,-629.15 669,-623.15 669,-623.15 669,-254 669,-254 669,-248 675,-242 681,-242"/>
<text text-anchor="middle" x="734.75" y="-619.75" font-family="Sans-Serif" font-size="12.00" fill="#2d3436">Application: redis&#45;cart</text>
</a>
</g>
</g>
<g id="clust10" class="cluster">
<title>cluster_Application: loadgenerator</title>
<g id="a_clust10"><a xlink:title="Application: loadgenerator">
<path fill="#ece8f6" stroke="#aeb6be" d="M517,-461.6C517,-461.6 649,-461.6 649,-461.6 655,-461.6 661,-467.6 661,-473.6 661,-473.6 661,-623.15 661,-623.15 661,-629.15 655,-635.15 649,-635.15 649,-635.15 517,-635.15 517,-635.15 511,-635.15 505,-629.15 505,-623.15 505,-623.15 505,-473.6 505,-473.6 505,-467.6 511,-461.6 517,-461.6"/>
<text text-anchor="middle" x="583.12" y="-619.75" font-family="Sans-Serif" font-size="12.00" fill="#2d3436">Application: loadgenerator</text>
</a>
</g>
</g>
<g id="clust11" class="cluster">
<title>cluster_Application: currencyservice</title>
<g id="a_clust11"><a xlink:title="Application: currencyservice">
<path fill="#ece8f6" stroke="#aeb6be" d="M343,-242C343,-242 485,-242 485,-242 491,-242 497,-248 497,-254 497,-254 497,-623.15 497,-623.15 497,-629.15 491,-635.15 485,-635.15 485,-635.15 343,-635.15 343,-635.15 337,-635.15 331,-629.15 331,-623.15 331,-623.15 331,-254 331,-254 331,-248 337,-242 343,-242"/>
<text text-anchor="middle" x="414" y="-619.75" font-family="Sans-Serif" font-size="12.00" fill="#2d3436">Application: currencyservice</text>
</a>
</g>
</g>
<g id="clust12" class="cluster">
<title>cluster_Application: shippingservice</title>
<g id="a_clust12"><a xlink:title="Application: shippingservice">
<path fill="#ece8f6" stroke="#aeb6be" d="M169,-242C169,-242 311,-242 311,-242 317,-242 323,-248 323,-254 323,-254 323,-623.15 323,-623.15 323,-629.15 317,-635.15 311,-635.15 311,-635.15 169,-635.15 169,-635.15 163,-635.15 157,-629.15 157,-623.15 157,-623.15 157,-254 157,-254 157,-248 163,-242 169,-242"/>
<text text-anchor="middle" x="240" y="-619.75" font-family="Sans-Serif" font-size="12.00" fill="#2d3436">Application: shippingservice</text>
</a>
</g>
</g>
<g id="clust13" class="cluster">
<title>cluster_Application: adservice</title>
<g id="a_clust13"><a xlink:title="Application: adservice">
<path fill="#ece8f6" stroke="#aeb6be" d="M28,-242C28,-242 137,-242 137,-242 143,-242 149,-248 149,-254 149,-254 149,-623.15 149,-623.15 149,-629.15 143,-635.15 137,-635.15 137,-635.15 28,-635.15 28,-635.15 22,-635.15 16,-629.15 16,-623.15 16,-623.15 16,-254 16,-254 16,-248 22,-242 28,-242"/>
<text text-anchor="middle" x="82.88" y="-619.75" font-family="Sans-Serif" font-size="12.00" fill="#2d3436">Application: adservice</text>
</a>
</g>
</g>
<!-- ff0d038f0061447aa917cebb7e82e761 -->
<g id="node1" class="node">
<title>ff0d038f0061447aa917cebb7e82e761</title>
<g id="a_node1"><a xlink:title="kind: ServiceAccount&#10;apiVersion: v1&#10;metadata:&#10; &#160;name: emailservice&#10;...">
<image xlink:href="https://raw.githubusercontent.com/mingrammer/diagrams/refs/heads/master/resources/k8s/rbac/sa.png" width="100.8px" height="100.8px" preserveAspectRatio="xMinYMin meet" x="2020.6" y="-149.2"/>
<text text-anchor="middle" x="2071" y="-31.55" font-family="Sans-Serif" font-size="13.00" fill="#2d3436">emailservice</text>
</a>
</g>
</g>
<!-- eead77b441ce43c0b56a754e2b4e2d6d -->
<g id="node2" class="node">
<title>eead77b441ce43c0b56a754e2b4e2d6d</title>
<g id="a_node2"><a xlink:title="kind: ServiceAccount&#10;apiVersion: v1&#10;metadata:&#10; &#160;name: checkoutservice&#10;...">
<image xlink:href="https://raw.githubusercontent.com/mingrammer/diagrams/refs/heads/master/resources/k8s/rbac/sa.png" width="100.8px" height="100.8px" preserveAspectRatio="xMinYMin meet" x="1844.6" y="-149.2"/>
<text text-anchor="middle" x="1895" y="-31.55" font-family="Sans-Serif" font-size="13.00" fill="#2d3436">checkoutservice</text>
</a>
</g>
</g>
<!-- 8f5bd558cb8341e3968414b4fe717644 -->
<g id="node3" class="node">
<title>8f5bd558cb8341e3968414b4fe717644</title>
<g id="a_node3"><a xlink:title="kind: ServiceAccount&#10;apiVersion: v1&#10;metadata:&#10; &#160;name: recommendationservice&#10;...">
<image xlink:href="https://raw.githubusercontent.com/mingrammer/diagrams/refs/heads/master/resources/k8s/rbac/sa.png" width="100.8px" height="100.8px" preserveAspectRatio="xMinYMin meet" x="1657.6" y="-149.2"/>
<text text-anchor="middle" x="1708" y="-30.65" font-family="Sans-Serif" font-size="13.00" fill="#2d3436">recommendationse</text>
<text text-anchor="middle" x="1708" y="-17.15" font-family="Sans-Serif" font-size="13.00" fill="#2d3436">rvice</text>
</a>
</g>
</g>
<!-- 699e60ed60e94d278f6580088764c69d -->
<g id="node4" class="node">
<title>699e60ed60e94d278f6580088764c69d</title>
<g id="a_node4"><a xlink:title="kind: ServiceAccount&#10;apiVersion: v1&#10;metadata:&#10; &#160;name: frontend&#10;...">
<image xlink:href="https://raw.githubusercontent.com/mingrammer/diagrams/refs/heads/master/resources/k8s/rbac/sa.png" width="100.8px" height="100.8px" preserveAspectRatio="xMinYMin meet" x="1415.6" y="-149.2"/>
<text text-anchor="middle" x="1466" y="-31.55" font-family="Sans-Serif" font-size="13.00" fill="#2d3436">frontend</text>
</a>
</g>
</g>
<!-- 1e41097bedf8455e9b1c8462fa482cfa -->
<g id="node5" class="node">
<title>1e41097bedf8455e9b1c8462fa482cfa</title>
<g id="a_node5"><a xlink:title="kind: ServiceAccount&#10;apiVersion: v1&#10;metadata:&#10; &#160;name: paymentservice&#10;...">
<image xlink:href="https://raw.githubusercontent.com/mingrammer/diagrams/refs/heads/master/resources/k8s/rbac/sa.png" width="100.8px" height="100.8px" preserveAspectRatio="xMinYMin meet" x="1184.6" y="-149.2"/>
<text text-anchor="middle" x="1235" y="-31.55" font-family="Sans-Serif" font-size="13.00" fill="#2d3436">paymentservice</text>
</a>
</g>
</g>
<!-- e37c38bdde7b40b2bcfa2d23b788a72b -->
<g id="node6" class="node">
<title>e37c38bdde7b40b2bcfa2d23b788a72b</title>
<g id="a_node6"><a xlink:title="kind: ServiceAccount&#10;apiVersion: v1&#10;metadata:&#10; &#160;name: productcatalogservice&#10;...">
<image xlink:href="https://raw.githubusercontent.com/mingrammer/diagrams/refs/heads/master/resources/k8s/rbac/sa.png" width="100.8px" height="100.8px" preserveAspectRatio="xMinYMin meet" x="1006.6" y="-149.2"/>
<text text-anchor="middle" x="1057" y="-30.65" font-family="Sans-Serif" font-size="13.00" fill="#2d3436">productcatalogse</text>
<text text-anchor="middle" x="1057" y="-17.15" font-family="Sans-Serif" font-size="13.00" fill="#2d3436">rvice</text>
</a>
</g>
</g>
<!-- 2cf1458943d14e17bb7ac5b90b51f3b0 -->
<g id="node7" class="node">
<title>2cf1458943d14e17bb7ac5b90b51f3b0</title>
<g id="a_node7"><a xlink:title="kind: ServiceAccount&#10;apiVersion: v1&#10;metadata:&#10; &#160;name: cartservice&#10;...">
<image xlink:href="https://raw.githubusercontent.com/mingrammer/diagrams/refs/heads/master/resources/k8s/rbac/sa.png" width="100.8px" height="100.8px" preserveAspectRatio="xMinYMin meet" x="832.6" y="-149.2"/>
<text text-anchor="middle" x="883" y="-31.55" font-family="Sans-Serif" font-size="13.00" fill="#2d3436">cartservice</text>
</a>
</g>
</g>
<!-- fa5587c50eef48d88c842d3b074a943c -->
<g id="node8" class="node">
<title>fa5587c50eef48d88c842d3b074a943c</title>
<g id="a_node8"><a xlink:title="kind: ServiceAccount&#10;apiVersion: v1&#10;metadata:&#10; &#160;name: loadgenerator&#10;...">
<image xlink:href="https://raw.githubusercontent.com/mingrammer/diagrams/refs/heads/master/resources/k8s/rbac/sa.png" width="100.8px" height="100.8px" preserveAspectRatio="xMinYMin meet" x="522.6" y="-368.8"/>
<text text-anchor="middle" x="573" y="-251.15" font-family="Sans-Serif" font-size="13.00" fill="#2d3436">loadgenerator</text>
</a>
</g>
</g>
<!-- 649830b2eda644e6bb9d3baccb02e340 -->
<g id="node9" class="node">
<title>649830b2eda644e6bb9d3baccb02e340</title>
<g id="a_node9"><a xlink:title="kind: ServiceAccount&#10;apiVersion: v1&#10;metadata:&#10; &#160;name: currencyservice&#10;...">
<image xlink:href="https://raw.githubusercontent.com/mingrammer/diagrams/refs/heads/master/resources/k8s/rbac/sa.png" width="100.8px" height="100.8px" preserveAspectRatio="xMinYMin meet" x="353.6" y="-149.2"/>
<text text-anchor="middle" x="404" y="-31.55" font-family="Sans-Serif" font-size="13.00" fill="#2d3436">currencyservice</text>
</a>
</g>
</g>
<!-- 5b12ae3091fc4828b2d7a9cae8a9cb9e -->
<g id="node10" class="node">
<title>5b12ae3091fc4828b2d7a9cae8a9cb9e</title>
<g id="a_node10"><a xlink:title="kind: ServiceAccount&#10;apiVersion: v1&#10;metadata:&#10; &#160;name: shippingservice&#10;...">
<image xlink:href="https://raw.githubusercontent.com/mingrammer/diagrams/refs/heads/master/resources/k8s/rbac/sa.png" width="100.8px" height="100.8px" preserveAspectRatio="xMinYMin meet" x="187.6" y="-149.2"/>
<text text-anchor="middle" x="238" y="-31.55" font-family="Sans-Serif" font-size="13.00" fill="#2d3436">shippingservice</text>
</a>
</g>
</g>
<!-- 0c2c661d985a45658efe6d3e142d4b76 -->
<g id="node11" class="node">
<title>0c2c661d985a45658efe6d3e142d4b76</title>
<g id="a_node11"><a xlink:title="kind: ServiceAccount&#10;apiVersion: v1&#10;metadata:&#10; &#160;name: adservice&#10;...">
<image xlink:href="https://raw.githubusercontent.com/mingrammer/diagrams/refs/heads/master/resources/k8s/rbac/sa.png" width="100.8px" height="100.8px" preserveAspectRatio="xMinYMin meet" x="30.6" y="-149.2"/>
<text text-anchor="middle" x="81" y="-31.55" font-family="Sans-Serif" font-size="13.00" fill="#2d3436">adservice</text>
</a>
</g>
</g>
<!-- 7693a9eb0b3a4cbea41b51c897d69f4a -->
<g id="node12" class="node">
<title>7693a9eb0b3a4cbea41b51c897d69f4a</title>
<g id="a_node12"><a xlink:title="kind: Deployment&#10;apiVersion: apps/v1&#10;metadata:&#10; &#160;name: emailservice&#10;...">
<image xlink:href="https://raw.githubusercontent.com/mingrammer/diagrams/refs/heads/master/resources/k8s/compute/deploy.png" width="100.8px" height="100.8px" preserveAspectRatio="xMinYMin meet" x="2020.6" y="-368.8"/>
<text text-anchor="middle" x="2071" y="-251.15" font-family="Sans-Serif" font-size="13.00" fill="#2d3436">emailservice</text>
</a>
</g>
</g>
<!-- 7693a9eb0b3a4cbea41b51c897d69f4a&#45;&gt;ff0d038f0061447aa917cebb7e82e761 -->
<g id="edge1" class="edge">
<title>7693a9eb0b3a4cbea41b51c897d69f4a&#45;&gt;ff0d038f0061447aa917cebb7e82e761</title>
<g id="a_edge1"><a xlink:title="spec.template.spec.serviceAccountName: emailservice">
<path fill="none" stroke="black" d="M2071,-250.12C2071,-250.12 2071,-178.04 2071,-178.04"/>
<polygon fill="black" stroke="black" points="2074.5,-178.04 2071,-168.04 2067.5,-178.04 2074.5,-178.04"/>
</a>
</g>
</g>
<!-- 4abe53da42424d519382b72a525c1a6c -->
<g id="node13" class="node">
<title>4abe53da42424d519382b72a525c1a6c</title>
<g id="a_node13"><a xlink:title="kind: Service&#10;apiVersion: v1&#10;metadata:&#10; &#160;name: emailservice&#10;...">
<image xlink:href="https://raw.githubusercontent.com/mingrammer/diagrams/refs/heads/master/resources/k8s/network/svc.png" width="100.8px" height="100.8px" preserveAspectRatio="xMinYMin meet" x="2020.6" y="-588.4"/>
<text text-anchor="middle" x="2071" y="-470.75" font-family="Sans-Serif" font-size="13.00" fill="#2d3436">emailservice</text>
</a>
</g>
</g>
<!-- 4abe53da42424d519382b72a525c1a6c&#45;&gt;7693a9eb0b3a4cbea41b51c897d69f4a -->
<g id="edge2" class="edge">
<title>4abe53da42424d519382b72a525c1a6c&#45;&gt;7693a9eb0b3a4cbea41b51c897d69f4a</title>
<g id="a_edge2"><a xlink:title="spec.selector:&#10; &#160;app: emailservice">
<path fill="none" stroke="black" stroke-dasharray="5,2" d="M2071,-469.72C2071,-469.72 2071,-397.64 2071,-397.64"/>
<polygon fill="black" stroke="black" points="2074.5,-397.64 2071,-387.64 2067.5,-397.64 2074.5,-397.64"/>
</a>
</g>
<text text-anchor="middle" x="2033.88" y="-435.43" font-family="Sans-Serif" font-size="10.00" fill="#2d3436">5000&#45;&gt;8080/TCP</text>
</g>
<!-- fc82a02b94474d488009124af2f80a16 -->
<g id="node14" class="node">
<title>fc82a02b94474d488009124af2f80a16</title>
<g id="a_node14"><a xlink:title="kind: Deployment&#10;apiVersion: apps/v1&#10;metadata:&#10; &#160;name: checkoutservice&#10;...">
<image xlink:href="https://raw.githubusercontent.com/mingrammer/diagrams/refs/heads/master/resources/k8s/compute/deploy.png" width="100.8px" height="100.8px" preserveAspectRatio="xMinYMin meet" x="1844.6" y="-368.8"/>
<text text-anchor="middle" x="1895" y="-251.15" font-family="Sans-Serif" font-size="13.00" fill="#2d3436">checkoutservice</text>
</a>
</g>
</g>
<!-- fc82a02b94474d488009124af2f80a16&#45;&gt;eead77b441ce43c0b56a754e2b4e2d6d -->
<g id="edge3" class="edge">
<title>fc82a02b94474d488009124af2f80a16&#45;&gt;eead77b441ce43c0b56a754e2b4e2d6d</title>
<g id="a_edge3"><a xlink:title="spec.template.spec.serviceAccountName: checkoutservice">
<path fill="none" stroke="black" d="M1895,-250.12C1895,-250.12 1895,-178.04 1895,-178.04"/>
<polygon fill="black" stroke="black" points="1898.5,-178.04 1895,-168.04 1891.5,-178.04 1898.5,-178.04"/>
</a>
</g>
</g>
<!-- b349d3561f184bc48ed715542bdce7bb -->
<g id="node15" class="node">
<title>b349d3561f184bc48ed715542bdce7bb</title>
<g id="a_node15"><a xlink:title="kind: Service&#10;apiVersion: v1&#10;metadata:&#10; &#160;name: checkoutservice&#10;...">
<image xlink:href="https://raw.githubusercontent.com/mingrammer/diagrams/refs/heads/master/resources/k8s/network/svc.png" width="100.8px" height="100.8px" preserveAspectRatio="xMinYMin meet" x="1844.6" y="-588.4"/>
<text text-anchor="middle" x="1895" y="-470.75" font-family="Sans-Serif" font-size="13.00" fill="#2d3436">checkoutservice</text>
</a>
</g>
</g>
<!-- b349d3561f184bc48ed715542bdce7bb&#45;&gt;fc82a02b94474d488009124af2f80a16 -->
<g id="edge4" class="edge">
<title>b349d3561f184bc48ed715542bdce7bb&#45;&gt;fc82a02b94474d488009124af2f80a16</title>
<g id="a_edge4"><a xlink:title="spec.selector:&#10; &#160;app: checkoutservice">
<path fill="none" stroke="black" stroke-dasharray="5,2" d="M1895,-469.72C1895,-469.72 1895,-397.64 1895,-397.64"/>
<polygon fill="black" stroke="black" points="1898.5,-397.64 1895,-387.64 1891.5,-397.64 1898.5,-397.64"/>
</a>
</g>
<text text-anchor="middle" x="1872.88" y="-435.43" font-family="Sans-Serif" font-size="10.00" fill="#2d3436">5050/TCP</text>
</g>
<!-- 96e93d5501144a5b9f4867e96ee616cd -->
<g id="node16" class="node">
<title>96e93d5501144a5b9f4867e96ee616cd</title>
<g id="a_node16"><a xlink:title="kind: Deployment&#10;apiVersion: apps/v1&#10;metadata:&#10; &#160;name: recommendationservice&#10;...">
<image xlink:href="https://raw.githubusercontent.com/mingrammer/diagrams/refs/heads/master/resources/k8s/compute/deploy.png" width="100.8px" height="100.8px" preserveAspectRatio="xMinYMin meet" x="1657.6" y="-368.8"/>
<text text-anchor="middle" x="1708" y="-250.25" font-family="Sans-Serif" font-size="13.00" fill="#2d3436">recommendationse</text>
<text text-anchor="middle" x="1708" y="-236.75" font-family="Sans-Serif" font-size="13.00" fill="#2d3436">rvice</text>
</a>
</g>
</g>
<!-- 96e93d5501144a5b9f4867e96ee616cd&#45;&gt;8f5bd558cb8341e3968414b4fe717644 -->
<g id="edge5" class="edge">
<title>96e93d5501144a5b9f4867e96ee616cd&#45;&gt;8f5bd558cb8341e3968414b4fe717644</title>
<g id="a_edge5"><a xlink:title="spec.template.spec.serviceAccountName: recommendationservice">
<path fill="none" stroke="black" d="M1708,-235.69C1708,-235.69 1708,-192.43 1708,-192.43"/>
<polygon fill="black" stroke="black" points="1711.5,-192.43 1708,-182.43 1704.5,-192.43 1711.5,-192.43"/>
</a>
</g>
</g>
<!-- c47442c06b564ae7a2f4648b6a634d3a -->
<g id="node17" class="node">
<title>c47442c06b564ae7a2f4648b6a634d3a</title>
<g id="a_node17"><a xlink:title="kind: Service&#10;apiVersion: v1&#10;metadata:&#10; &#160;name: recommendationservice&#10;...">
<image xlink:href="https://raw.githubusercontent.com/mingrammer/diagrams/refs/heads/master/resources/k8s/network/svc.png" width="100.8px" height="100.8px" preserveAspectRatio="xMinYMin meet" x="1657.6" y="-588.4"/>
<text text-anchor="middle" x="1708" y="-469.85" font-family="Sans-Serif" font-size="13.00" fill="#2d3436">recommendationse</text>
<text text-anchor="middle" x="1708" y="-456.35" font-family="Sans-Serif" font-size="13.00" fill="#2d3436">rvice</text>
</a>
</g>
</g>
<!-- c47442c06b564ae7a2f4648b6a634d3a&#45;&gt;96e93d5501144a5b9f4867e96ee616cd -->
<g id="edge6" class="edge">
<title>c47442c06b564ae7a2f4648b6a634d3a&#45;&gt;96e93d5501144a5b9f4867e96ee616cd</title>
<g id="a_edge6"><a xlink:title="spec.selector:&#10; &#160;app: recommendationservice">
<path fill="none" stroke="black" stroke-dasharray="5,2" d="M1708,-455.29C1708,-455.29 1708,-412.03 1708,-412.03"/>
<polygon fill="black" stroke="black" points="1711.5,-412.03 1708,-402.03 1704.5,-412.03 1711.5,-412.03"/>
</a>
</g>
<text text-anchor="middle" x="1685.88" y="-435.41" font-family="Sans-Serif" font-size="10.00" fill="#2d3436">8080/TCP</text>
</g>
<!-- a544d5baeb5f4a73ab66cb6d58cb6003 -->
<g id="node18" class="node">
<title>a544d5baeb5f4a73ab66cb6d58cb6003</title>
<g id="a_node18"><a xlink:title="kind: Deployment&#10;apiVersion: apps/v1&#10;metadata:&#10; &#160;name: frontend&#10;...">
<image xlink:href="https://raw.githubusercontent.com/mingrammer/diagrams/refs/heads/master/resources/k8s/compute/deploy.png" width="100.8px" height="100.8px" preserveAspectRatio="xMinYMin meet" x="1415.6" y="-368.8"/>
<text text-anchor="middle" x="1466" y="-251.15" font-family="Sans-Serif" font-size="13.00" fill="#2d3436">frontend</text>
</a>
</g>
</g>
<!-- a544d5baeb5f4a73ab66cb6d58cb6003&#45;&gt;699e60ed60e94d278f6580088764c69d -->
<g id="edge7" class="edge">
<title>a544d5baeb5f4a73ab66cb6d58cb6003&#45;&gt;699e60ed60e94d278f6580088764c69d</title>
<g id="a_edge7"><a xlink:title="spec.template.spec.serviceAccountName: frontend">
<path fill="none" stroke="black" d="M1466,-250.12C1466,-250.12 1466,-178.04 1466,-178.04"/>
<polygon fill="black" stroke="black" points="1469.5,-178.04 1466,-168.04 1462.5,-178.04 1469.5,-178.04"/>
</a>
</g>
</g>
<!-- df87ddecfbee456c8a6fffc691a78496 -->
<g id="node19" class="node">
<title>df87ddecfbee456c8a6fffc691a78496</title>
<g id="a_node19"><a xlink:title="kind: Service&#10;apiVersion: v1&#10;metadata:&#10; &#160;name: frontend&#10;...">
<image xlink:href="https://raw.githubusercontent.com/mingrammer/diagrams/refs/heads/master/resources/k8s/network/svc.png" width="100.8px" height="100.8px" preserveAspectRatio="xMinYMin meet" x="1487.6" y="-588.4"/>
<text text-anchor="middle" x="1538" y="-470.75" font-family="Sans-Serif" font-size="13.00" fill="#2d3436">frontend</text>
</a>
</g>
</g>
<!-- df87ddecfbee456c8a6fffc691a78496&#45;&gt;a544d5baeb5f4a73ab66cb6d58cb6003 -->
<g id="edge8" class="edge">
<title>df87ddecfbee456c8a6fffc691a78496&#45;&gt;a544d5baeb5f4a73ab66cb6d58cb6003</title>
<g id="a_edge8"><a xlink:title="spec.selector:&#10; &#160;app: frontend">
<path fill="none" stroke="black" stroke-dasharray="5,2" d="M1502,-469.72C1502,-469.72 1502,-397.64 1502,-397.64"/>
<polygon fill="black" stroke="black" points="1505.5,-397.64 1502,-387.64 1498.5,-397.64 1505.5,-397.64"/>
</a>
</g>
<text text-anchor="middle" x="1470.12" y="-435.43" font-family="Sans-Serif" font-size="10.00" fill="#2d3436">80&#45;&gt;8080/TCP</text>
</g>
<!-- 08baf7dee57943e48a7c268f1dd26399 -->
<g id="node20" class="node">
<title>08baf7dee57943e48a7c268f1dd26399</title>
<g id="a_node20"><a xlink:title="kind: Service&#10;apiVersion: v1&#10;metadata:&#10; &#160;name: frontend&#45;external&#10;...">
<image xlink:href="https://raw.githubusercontent.com/mingrammer/diagrams/refs/heads/master/resources/k8s/network/svc.png" width="100.8px" height="100.8px" preserveAspectRatio="xMinYMin meet" x="1343.6" y="-588.4"/>
<text text-anchor="middle" x="1394" y="-469.85" font-family="Sans-Serif" font-size="13.00" fill="#2d3436">frontend</text>
<text text-anchor="middle" x="1394" y="-456.35" font-family="Sans-Serif" font-size="13.00" fill="#2d3436">&#45;external</text>
</a>
</g>
</g>
<!-- 08baf7dee57943e48a7c268f1dd26399&#45;&gt;a544d5baeb5f4a73ab66cb6d58cb6003 -->
<g id="edge9" class="edge">
<title>08baf7dee57943e48a7c268f1dd26399&#45;&gt;a544d5baeb5f4a73ab66cb6d58cb6003</title>
<g id="a_edge9"><a xlink:title="spec.selector:&#10; &#160;app: frontend">
<path fill="none" stroke="black" stroke-dasharray="5,2" d="M1430,-455.29C1430,-455.29 1430,-397.72 1430,-397.72"/>
<polygon fill="black" stroke="black" points="1433.5,-397.72 1430,-387.72 1426.5,-397.72 1433.5,-397.72"/>
</a>
</g>
<text text-anchor="middle" x="1398.12" y="-428.25" font-family="Sans-Serif" font-size="10.00" fill="#2d3436">80&#45;&gt;8080/TCP</text>
</g>
<!-- 28685eb2f3184310af3372f33344e84d -->
<g id="node21" class="node">
<title>28685eb2f3184310af3372f33344e84d</title>
<g id="a_node21"><a xlink:title="kind: Deployment&#10;apiVersion: apps/v1&#10;metadata:&#10; &#160;name: paymentservice&#10;...">
<image xlink:href="https://raw.githubusercontent.com/mingrammer/diagrams/refs/heads/master/resources/k8s/compute/deploy.png" width="100.8px" height="100.8px" preserveAspectRatio="xMinYMin meet" x="1184.6" y="-368.8"/>
<text text-anchor="middle" x="1235" y="-251.15" font-family="Sans-Serif" font-size="13.00" fill="#2d3436">paymentservice</text>
</a>
</g>
</g>
<!-- 28685eb2f3184310af3372f33344e84d&#45;&gt;1e41097bedf8455e9b1c8462fa482cfa -->
<g id="edge10" class="edge">
<title>28685eb2f3184310af3372f33344e84d&#45;&gt;1e41097bedf8455e9b1c8462fa482cfa</title>
<g id="a_edge10"><a xlink:title="spec.template.spec.serviceAccountName: paymentservice">
<path fill="none" stroke="black" d="M1235,-250.12C1235,-250.12 1235,-178.04 1235,-178.04"/>
<polygon fill="black" stroke="black" points="1238.5,-178.04 1235,-168.04 1231.5,-178.04 1238.5,-178.04"/>
</a>
</g>
</g>
<!-- 9d0478352aa441cb897c0ec4246ba694 -->
<g id="node22" class="node">
<title>9d0478352aa441cb897c0ec4246ba694</title>
<g id="a_node22"><a xlink:title="kind: Service&#10;apiVersion: v1&#10;metadata:&#10; &#160;name: paymentservice&#10;...">
<image xlink:href="https://raw.githubusercontent.com/mingrammer/diagrams/refs/heads/master/resources/k8s/network/svc.png" width="100.8px" height="100.8px" preserveAspectRatio="xMinYMin meet" x="1184.6" y="-588.4"/>
<text text-anchor="middle" x="1235" y="-470.75" font-family="Sans-Serif" font-size="13.00" fill="#2d3436">paymentservice</text>
</a>
</g>
</g>
<!-- 9d0478352aa441cb897c0ec4246ba694&#45;&gt;28685eb2f3184310af3372f33344e84d -->
<g id="edge11" class="edge">
<title>9d0478352aa441cb897c0ec4246ba694&#45;&gt;28685eb2f3184310af3372f33344e84d</title>
<g id="a_edge11"><a xlink:title="spec.selector:&#10; &#160;app: paymentservice">
<path fill="none" stroke="black" stroke-dasharray="5,2" d="M1235,-469.72C1235,-469.72 1235,-397.64 1235,-397.64"/>
<polygon fill="black" stroke="black" points="1238.5,-397.64 1235,-387.64 1231.5,-397.64 1238.5,-397.64"/>
</a>
</g>
<text text-anchor="middle" x="1210.25" y="-435.43" font-family="Sans-Serif" font-size="10.00" fill="#2d3436">50051/TCP</text>
</g>
<!-- f42f9af049054a77a62a4edd7e71d9cb -->
<g id="node23" class="node">
<title>f42f9af049054a77a62a4edd7e71d9cb</title>
<g id="a_node23"><a xlink:title="kind: Deployment&#10;apiVersion: apps/v1&#10;metadata:&#10; &#160;name: productcatalogservice&#10;...">
<image xlink:href="https://raw.githubusercontent.com/mingrammer/diagrams/refs/heads/master/resources/k8s/compute/deploy.png" width="100.8px" height="100.8px" preserveAspectRatio="xMinYMin meet" x="1006.6" y="-368.8"/>
<text text-anchor="middle" x="1057" y="-250.25" font-family="Sans-Serif" font-size="13.00" fill="#2d3436">productcatalogse</text>
<text text-anchor="middle" x="1057" y="-236.75" font-family="Sans-Serif" font-size="13.00" fill="#2d3436">rvice</text>
</a>
</g>
</g>
<!-- f42f9af049054a77a62a4edd7e71d9cb&#45;&gt;e37c38bdde7b40b2bcfa2d23b788a72b -->
<g id="edge12" class="edge">
<title>f42f9af049054a77a62a4edd7e71d9cb&#45;&gt;e37c38bdde7b40b2bcfa2d23b788a72b</title>
<g id="a_edge12"><a xlink:title="spec.template.spec.serviceAccountName: productcatalogservice">
<path fill="none" stroke="black" d="M1057,-235.69C1057,-235.69 1057,-192.43 1057,-192.43"/>
<polygon fill="black" stroke="black" points="1060.5,-192.43 1057,-182.43 1053.5,-192.43 1060.5,-192.43"/>
</a>
</g>
</g>
<!-- 18ccc69bc3584d84a5c4fde8f96826a7 -->
<g id="node24" class="node">
<title>18ccc69bc3584d84a5c4fde8f96826a7</title>
<g id="a_node24"><a xlink:title="kind: Service&#10;apiVersion: v1&#10;metadata:&#10; &#160;name: productcatalogservice&#10;...">
<image xlink:href="https://raw.githubusercontent.com/mingrammer/diagrams/refs/heads/master/resources/k8s/network/svc.png" width="100.8px" height="100.8px" preserveAspectRatio="xMinYMin meet" x="1006.6" y="-588.4"/>
<text text-anchor="middle" x="1057" y="-469.85" font-family="Sans-Serif" font-size="13.00" fill="#2d3436">productcatalogse</text>
<text text-anchor="middle" x="1057" y="-456.35" font-family="Sans-Serif" font-size="13.00" fill="#2d3436">rvice</text>
</a>
</g>
</g>
<!-- 18ccc69bc3584d84a5c4fde8f96826a7&#45;&gt;f42f9af049054a77a62a4edd7e71d9cb -->
<g id="edge13" class="edge">
<title>18ccc69bc3584d84a5c4fde8f96826a7&#45;&gt;f42f9af049054a77a62a4edd7e71d9cb</title>
<g id="a_edge13"><a xlink:title="spec.selector:&#10; &#160;app: productcatalogservice">
<path fill="none" stroke="black" stroke-dasharray="5,2" d="M1057,-455.29C1057,-455.29 1057,-412.03 1057,-412.03"/>
<polygon fill="black" stroke="black" points="1060.5,-412.03 1057,-402.03 1053.5,-412.03 1060.5,-412.03"/>
</a>
</g>
<text text-anchor="middle" x="1034.88" y="-435.41" font-family="Sans-Serif" font-size="10.00" fill="#2d3436">3550/TCP</text>
</g>
<!-- c2f1bc11d0e8468992affbab4e69d62a -->
<g id="node25" class="node">
<title>c2f1bc11d0e8468992affbab4e69d62a</title>
<g id="a_node25"><a xlink:title="kind: Deployment&#10;apiVersion: apps/v1&#10;metadata:&#10; &#160;name: cartservice&#10;...">
<image xlink:href="https://raw.githubusercontent.com/mingrammer/diagrams/refs/heads/master/resources/k8s/compute/deploy.png" width="100.8px" height="100.8px" preserveAspectRatio="xMinYMin meet" x="832.6" y="-368.8"/>
<text text-anchor="middle" x="883" y="-251.15" font-family="Sans-Serif" font-size="13.00" fill="#2d3436">cartservice</text>
</a>
</g>
</g>
<!-- c2f1bc11d0e8468992affbab4e69d62a&#45;&gt;2cf1458943d14e17bb7ac5b90b51f3b0 -->
<g id="edge14" class="edge">
<title>c2f1bc11d0e8468992affbab4e69d62a&#45;&gt;2cf1458943d14e17bb7ac5b90b51f3b0</title>
<g id="a_edge14"><a xlink:title="spec.template.spec.serviceAccountName: cartservice">
<path fill="none" stroke="black" d="M883,-250.12C883,-250.12 883,-178.04 883,-178.04"/>
<polygon fill="black" stroke="black" points="886.5,-178.04 883,-168.04 879.5,-178.04 886.5,-178.04"/>
</a>
</g>
</g>
<!-- 3b4f5f0a34db42258ee83272a41e5e13 -->
<g id="node26" class="node">
<title>3b4f5f0a34db42258ee83272a41e5e13</title>
<g id="a_node26"><a xlink:title="kind: Service&#10;apiVersion: v1&#10;metadata:&#10; &#160;name: cartservice&#10;...">
<image xlink:href="https://raw.githubusercontent.com/mingrammer/diagrams/refs/heads/master/resources/k8s/network/svc.png" width="100.8px" height="100.8px" preserveAspectRatio="xMinYMin meet" x="832.6" y="-588.4"/>
<text text-anchor="middle" x="883" y="-470.75" font-family="Sans-Serif" font-size="13.00" fill="#2d3436">cartservice</text>
</a>
</g>
</g>
<!-- 3b4f5f0a34db42258ee83272a41e5e13&#45;&gt;c2f1bc11d0e8468992affbab4e69d62a -->
<g id="edge15" class="edge">
<title>3b4f5f0a34db42258ee83272a41e5e13&#45;&gt;c2f1bc11d0e8468992affbab4e69d62a</title>
<g id="a_edge15"><a xlink:title="spec.selector:&#10; &#160;app: cartservice">
<path fill="none" stroke="black" stroke-dasharray="5,2" d="M883,-469.72C883,-469.72 883,-397.64 883,-397.64"/>
<polygon fill="black" stroke="black" points="886.5,-397.64 883,-387.64 879.5,-397.64 886.5,-397.64"/>
</a>
</g>
<text text-anchor="middle" x="860.88" y="-435.43" font-family="Sans-Serif" font-size="10.00" fill="#2d3436">7070/TCP</text>
</g>
<!-- 8fce4e8798214b9f8c45d28723ad3dbc -->
<g id="node27" class="node">
<title>8fce4e8798214b9f8c45d28723ad3dbc</title>
<g id="a_node27"><a xlink:title="kind: Deployment&#10;apiVersion: apps/v1&#10;metadata:&#10; &#160;name: redis&#45;cart&#10;...">
<image xlink:href="https://raw.githubusercontent.com/mingrammer/diagrams/refs/heads/master/resources/k8s/compute/deploy.png" width="100.8px" height="100.8px" preserveAspectRatio="xMinYMin meet" x="683.6" y="-368.8"/>
<text text-anchor="middle" x="734" y="-251.15" font-family="Sans-Serif" font-size="13.00" fill="#2d3436">redis&#45;cart</text>
</a>
</g>
</g>
<!-- 5398746417dc442a9a4d73593407ddbc -->
<g id="node28" class="node">
<title>5398746417dc442a9a4d73593407ddbc</title>
<g id="a_node28"><a xlink:title="kind: Service&#10;apiVersion: v1&#10;metadata:&#10; &#160;name: redis&#45;cart&#10;...">
<image xlink:href="https://raw.githubusercontent.com/mingrammer/diagrams/refs/heads/master/resources/k8s/network/svc.png" width="100.8px" height="100.8px" preserveAspectRatio="xMinYMin meet" x="683.6" y="-588.4"/>
<text text-anchor="middle" x="734" y="-470.75" font-family="Sans-Serif" font-size="13.00" fill="#2d3436">redis&#45;cart</text>
</a>
</g>
</g>
<!-- 5398746417dc442a9a4d73593407ddbc&#45;&gt;8fce4e8798214b9f8c45d28723ad3dbc -->
<g id="edge16" class="edge">
<title>5398746417dc442a9a4d73593407ddbc&#45;&gt;8fce4e8798214b9f8c45d28723ad3dbc</title>
<g id="a_edge16"><a xlink:title="spec.selector:&#10; &#160;app: redis&#45;cart">
<path fill="none" stroke="black" stroke-dasharray="5,2" d="M734,-469.72C734,-469.72 734,-397.64 734,-397.64"/>
<polygon fill="black" stroke="black" points="737.5,-397.64 734,-387.64 730.5,-397.64 737.5,-397.64"/>
</a>
</g>
<text text-anchor="middle" x="711.88" y="-435.43" font-family="Sans-Serif" font-size="10.00" fill="#2d3436">6379/TCP</text>
</g>
<!-- 7a5da18743fa4b83ae1c1290558ff00b -->
<g id="node29" class="node">
<title>7a5da18743fa4b83ae1c1290558ff00b</title>
<g id="a_node29"><a xlink:title="kind: Deployment&#10;apiVersion: apps/v1&#10;metadata:&#10; &#160;name: loadgenerator&#10;...">
<image xlink:href="https://raw.githubusercontent.com/mingrammer/diagrams/refs/heads/master/resources/k8s/compute/deploy.png" width="100.8px" height="100.8px" preserveAspectRatio="xMinYMin meet" x="522.6" y="-588.4"/>
<text text-anchor="middle" x="573" y="-470.75" font-family="Sans-Serif" font-size="13.00" fill="#2d3436">loadgenerator</text>
</a>
</g>
</g>
<!-- 7a5da18743fa4b83ae1c1290558ff00b&#45;&gt;fa5587c50eef48d88c842d3b074a943c -->
<g id="edge17" class="edge">
<title>7a5da18743fa4b83ae1c1290558ff00b&#45;&gt;fa5587c50eef48d88c842d3b074a943c</title>
<g id="a_edge17"><a xlink:title="spec.template.spec.serviceAccountName: loadgenerator">
<path fill="none" stroke="black" d="M573,-469.72C573,-469.72 573,-397.64 573,-397.64"/>
<polygon fill="black" stroke="black" points="576.5,-397.64 573,-387.64 569.5,-397.64 576.5,-397.64"/>
</a>
</g>
</g>
<!-- 4c9f66687e654c34a9d324b234e5d131 -->
<g id="node30" class="node">
<title>4c9f66687e654c34a9d324b234e5d131</title>
<g id="a_node30"><a xlink:title="kind: Deployment&#10;apiVersion: apps/v1&#10;metadata:&#10; &#160;name: currencyservice&#10;...">
<image xlink:href="https://raw.githubusercontent.com/mingrammer/diagrams/refs/heads/master/resources/k8s/compute/deploy.png" width="100.8px" height="100.8px" preserveAspectRatio="xMinYMin meet" x="353.6" y="-368.8"/>
<text text-anchor="middle" x="404" y="-251.15" font-family="Sans-Serif" font-size="13.00" fill="#2d3436">currencyservice</text>
</a>
</g>
</g>
<!-- 4c9f66687e654c34a9d324b234e5d131&#45;&gt;649830b2eda644e6bb9d3baccb02e340 -->
<g id="edge18" class="edge">
<title>4c9f66687e654c34a9d324b234e5d131&#45;&gt;649830b2eda644e6bb9d3baccb02e340</title>
<g id="a_edge18"><a xlink:title="spec.template.spec.serviceAccountName: currencyservice">
<path fill="none" stroke="black" d="M404,-250.12C404,-250.12 404,-178.04 404,-178.04"/>
<polygon fill="black" stroke="black" points="407.5,-178.04 404,-168.04 400.5,-178.04 407.5,-178.04"/>
</a>
</g>
</g>
<!-- 01b09e5051764d6a8e5e6305ba353178 -->
<g id="node31" class="node">
<title>01b09e5051764d6a8e5e6305ba353178</title>
<g id="a_node31"><a xlink:title="kind: Service&#10;apiVersion: v1&#10;metadata:&#10; &#160;name: currencyservice&#10;...">
<image xlink:href="https://raw.githubusercontent.com/mingrammer/diagrams/refs/heads/master/resources/k8s/network/svc.png" width="100.8px" height="100.8px" preserveAspectRatio="xMinYMin meet" x="353.6" y="-588.4"/>
<text text-anchor="middle" x="404" y="-470.75" font-family="Sans-Serif" font-size="13.00" fill="#2d3436">currencyservice</text>
</a>
</g>
</g>
<!-- 01b09e5051764d6a8e5e6305ba353178&#45;&gt;4c9f66687e654c34a9d324b234e5d131 -->
<g id="edge19" class="edge">
<title>01b09e5051764d6a8e5e6305ba353178&#45;&gt;4c9f66687e654c34a9d324b234e5d131</title>
<g id="a_edge19"><a xlink:title="spec.selector:&#10; &#160;app: currencyservice">
<path fill="none" stroke="black" stroke-dasharray="5,2" d="M404,-469.72C404,-469.72 404,-397.64 404,-397.64"/>
<polygon fill="black" stroke="black" points="407.5,-397.64 404,-387.64 400.5,-397.64 407.5,-397.64"/>
</a>
</g>
<text text-anchor="middle" x="381.88" y="-435.43" font-family="Sans-Serif" font-size="10.00" fill="#2d3436">7000/TCP</text>
</g>
<!-- a41414cb5ae4408db1102fd7e1541eaf -->
<g id="node32" class="node">
<title>a41414cb5ae4408db1102fd7e1541eaf</title>
<g id="a_node32"><a xlink:title="kind: Deployment&#10;apiVersion: apps/v1&#10;metadata:&#10; &#160;name: shippingservice&#10;...">
<image xlink:href="https://raw.githubusercontent.com/mingrammer/diagrams/refs/heads/master/resources/k8s/compute/deploy.png" width="100.8px" height="100.8px" preserveAspectRatio="xMinYMin meet" x="187.6" y="-368.8"/>
<text text-anchor="middle" x="238" y="-251.15" font-family="Sans-Serif" font-size="13.00" fill="#2d3436">shippingservice</text>
</a>
</g>
</g>
<!-- a41414cb5ae4408db1102fd7e1541eaf&#45;&gt;5b12ae3091fc4828b2d7a9cae8a9cb9e -->
<g id="edge20" class="edge">
<title>a41414cb5ae4408db1102fd7e1541eaf&#45;&gt;5b12ae3091fc4828b2d7a9cae8a9cb9e</title>
<g id="a_edge20"><a xlink:title="spec.template.spec.serviceAccountName: shippingservice">
<path fill="none" stroke="black" d="M238,-250.12C238,-250.12 238,-178.04 238,-178.04"/>
<polygon fill="black" stroke="black" points="241.5,-178.04 238,-168.04 234.5,-178.04 241.5,-178.04"/>
</a>
</g>
</g>
<!-- c03d8aa66b2e48fba4fba5cf0affbd96 -->
<g id="node33" class="node">
<title>c03d8aa66b2e48fba4fba5cf0affbd96</title>
<g id="a_node33"><a xlink:title="kind: Service&#10;apiVersion: v1&#10;metadata:&#10; &#160;name: shippingservice&#10;...">
<image xlink:href="https://raw.githubusercontent.com/mingrammer/diagrams/refs/heads/master/resources/k8s/network/svc.png" width="100.8px" height="100.8px" preserveAspectRatio="xMinYMin meet" x="187.6" y="-588.4"/>
<text text-anchor="middle" x="238" y="-470.75" font-family="Sans-Serif" font-size="13.00" fill="#2d3436">shippingservice</text>
</a>
</g>
</g>
<!-- c03d8aa66b2e48fba4fba5cf0affbd96&#45;&gt;a41414cb5ae4408db1102fd7e1541eaf -->
<g id="edge21" class="edge">
<title>c03d8aa66b2e48fba4fba5cf0affbd96&#45;&gt;a41414cb5ae4408db1102fd7e1541eaf</title>
<g id="a_edge21"><a xlink:title="spec.selector:&#10; &#160;app: shippingservice">
<path fill="none" stroke="black" stroke-dasharray="5,2" d="M238,-469.72C238,-469.72 238,-397.64 238,-397.64"/>
<polygon fill="black" stroke="black" points="241.5,-397.64 238,-387.64 234.5,-397.64 241.5,-397.64"/>
</a>
</g>
<text text-anchor="middle" x="213.25" y="-435.43" font-family="Sans-Serif" font-size="10.00" fill="#2d3436">50051/TCP</text>
</g>
<!-- 0cbe901052e74449b3d42b0227fdc2d8 -->
<g id="node34" class="node">
<title>0cbe901052e74449b3d42b0227fdc2d8</title>
<g id="a_node34"><a xlink:title="kind: Deployment&#10;apiVersion: apps/v1&#10;metadata:&#10; &#160;name: adservice&#10;...">
<image xlink:href="https://raw.githubusercontent.com/mingrammer/diagrams/refs/heads/master/resources/k8s/compute/deploy.png" width="100.8px" height="100.8px" preserveAspectRatio="xMinYMin meet" x="30.6" y="-368.8"/>
<text text-anchor="middle" x="81" y="-251.15" font-family="Sans-Serif" font-size="13.00" fill="#2d3436">adservice</text>
</a>
</g>
</g>
<!-- 0cbe901052e74449b3d42b0227fdc2d8&#45;&gt;0c2c661d985a45658efe6d3e142d4b76 -->
<g id="edge22" class="edge">
<title>0cbe901052e74449b3d42b0227fdc2d8&#45;&gt;0c2c661d985a45658efe6d3e142d4b76</title>
<g id="a_edge22"><a xlink:title="spec.template.spec.serviceAccountName: adservice">
<path fill="none" stroke="black" d="M81,-250.12C81,-250.12 81,-178.04 81,-178.04"/>
<polygon fill="black" stroke="black" points="84.5,-178.04 81,-168.04 77.5,-178.04 84.5,-178.04"/>
</a>
</g>
</g>
<!-- 05216a5a5d0048d59031aa3d1a786dc3 -->
<g id="node35" class="node">
<title>05216a5a5d0048d59031aa3d1a786dc3</title>
<g id="a_node35"><a xlink:title="kind: Service&#10;apiVersion: v1&#10;metadata:&#10; &#160;name: adservice&#10;...">
<image xlink:href="https://raw.githubusercontent.com/mingrammer/diagrams/refs/heads/master/resources/k8s/network/svc.png" width="100.8px" height="100.8px" preserveAspectRatio="xMinYMin meet" x="30.6" y="-588.4"/>
<text text-anchor="middle" x="81" y="-470.75" font-family="Sans-Serif" font-size="13.00" fill="#2d3436">adservice</text>
</a>
</g>
</g>
<!-- 05216a5a5d0048d59031aa3d1a786dc3&#45;&gt;0cbe901052e74449b3d42b0227fdc2d8 -->
<g id="edge23" class="edge">
<title>05216a5a5d0048d59031aa3d1a786dc3&#45;&gt;0cbe901052e74449b3d42b0227fdc2d8</title>
<g id="a_edge23"><a xlink:title="spec.selector:&#10; &#160;app: adservice">
<path fill="none" stroke="black" stroke-dasharray="5,2" d="M81,-469.72C81,-469.72 81,-397.64 81,-397.64"/>
<polygon fill="black" stroke="black" points="84.5,-397.64 81,-387.64 77.5,-397.64 84.5,-397.64"/>
</a>
</g>
<text text-anchor="middle" x="58.88" y="-435.43" font-family="Sans-Serif" font-size="10.00" fill="#2d3436">9555/TCP</text>
</g>
</g>
</svg>
