<?xml version="1.0" encoding="UTF-8" standalone="no"?>
<!DOCTYPE svg PUBLIC "-//W3C//DTD SVG 1.1//EN"
 "http://www.w3.org/Graphics/SVG/1.1/DTD/svg11.dtd">
<!-- Generated by graphviz version 8.1.0 (20230707.0739)
 -->
<!-- Pages: 1 -->
<svg width="1345pt" height="2144pt"
 viewBox="0.00 0.00 1345.00 2143.50" xmlns="http://www.w3.org/2000/svg" xmlns:xlink="http://www.w3.org/1999/xlink">
<g id="graph0" class="graph" transform="scale(1 1) rotate(0) translate(144 1999.5)">
<polygon fill="white" stroke="none" points="-144,144 -144,-1999.5 1201,-1999.5 1201,144 -144,144"/>
<g id="clust1" class="cluster">
<title>cluster_Namespace: default</title>
<g id="a_clust1"><a xlink:title="Namespace: default">
<path fill="white" stroke="black" stroke-dasharray="5,2" d="M20,-8C20,-8 1037,-8 1037,-8 1043,-8 1049,-14 1049,-20 1049,-20 1049,-1835.5 1049,-1835.5 1049,-1841.5 1043,-1847.5 1037,-1847.5 1037,-1847.5 20,-1847.5 20,-1847.5 14,-1847.5 8,-1841.5 8,-1835.5 8,-1835.5 8,-20 8,-20 8,-14 14,-8 20,-8"/>
<image xlink:href="https://raw.githubusercontent.com/mingrammer/diagrams/refs/heads/master/resources/k8s/group/ns.png" width="60px" height="60px" preserveAspectRatio="xMinYMin meet" x="20" y="-1839.5"/>
<text text-anchor="start" x="32" y="-1762.1" font-family="Sans-Serif" font-size="12.00" fill="#2d3436">default</text>
</a>
</g>
</g>
<g id="clust2" class="cluster">
<title>cluster_Application: emailservice</title>
<g id="a_clust2"><a xlink:title="Application: emailservice">
<path fill="#ece8f6" stroke="#aeb6be" d="M235,-397.6C235,-397.6 360,-397.6 360,-397.6 366,-397.6 372,-403.6 372,-409.6 372,-409.6 372,-749.95 372,-749.95 372,-755.95 366,-761.95 360,-761.95 360,-761.95 235,-761.95 235,-761.95 229,-761.95 223,-755.95 223,-749.95 223,-749.95 223,-409.6 223,-409.6 223,-403.6 229,-397.6 235,-397.6"/>
<text text-anchor="middle" x="297.75" y="-746.55" font-family="Sans-Serif" font-size="12.00" fill="#2d3436">Application: emailservice</text>
</a>
</g>
</g>
<g id="clust3" class="cluster">
<title>cluster_Application: checkoutservice</title>
<g id="a_clust3"><a xlink:title="Application: checkoutservice">
<path fill="#ece8f6" stroke="#aeb6be" d="M441,-779.2C441,-779.2 585,-779.2 585,-779.2 591,-779.2 597,-785.2 597,-791.2 597,-791.2 597,-1131.55 597,-1131.55 597,-1137.55 591,-1143.55 585,-1143.55 585,-1143.55 441,-1143.55 441,-1143.55 435,-1143.55 429,-1137.55 429,-1131.55 429,-1131.55 429,-791.2 429,-791.2 429,-785.2 435,-779.2 441,-779.2"/>
<text text-anchor="middle" x="513.12" y="-1128.15" font-family="Sans-Serif" font-size="12.00" fill="#2d3436">Application: checkoutservice</text>
</a>
</g>
</g>
<g id="clust4" class="cluster">
<title>cluster_Application: recommendationservice</title>
<g id="a_clust4"><a xlink:title="Application: recommendationservice">
<path fill="#ece8f6" stroke="#aeb6be" d="M194,-779.2C194,-779.2 379,-779.2 379,-779.2 385,-779.2 391,-785.2 391,-791.2 391,-791.2 391,-1131.55 391,-1131.55 391,-1137.55 385,-1143.55 379,-1143.55 379,-1143.55 194,-1143.55 194,-1143.55 188,-1143.55 182,-1137.55 182,-1131.55 182,-1131.55 182,-791.2 182,-791.2 182,-785.2 188,-779.2 194,-779.2"/>
<text text-anchor="middle" x="286.75" y="-1128.15" font-family="Sans-Serif" font-size="12.00" fill="#2d3436">Application: recommendationservice</text>
</a>
</g>
</g>
<g id="clust5" class="cluster">
<title>cluster_Application: frontend</title>
<g id="a_clust5"><a xlink:title="Application: frontend">
<path fill="#ece8f6" stroke="#aeb6be" d="M495,-1160.8C495,-1160.8 731,-1160.8 731,-1160.8 737,-1160.8 743,-1166.8 743,-1172.8 743,-1172.8 743,-1541.95 743,-1541.95 743,-1547.95 737,-1553.95 731,-1553.95 731,-1553.95 495,-1553.95 495,-1553.95 489,-1553.95 483,-1547.95 483,-1541.95 483,-1541.95 483,-1172.8 483,-1172.8 483,-1166.8 489,-1160.8 495,-1160.8"/>
<text text-anchor="middle" x="545.75" y="-1538.55" font-family="Sans-Serif" font-size="12.00" fill="#2d3436">Application: frontend</text>
</a>
</g>
</g>
<g id="clust6" class="cluster">
<title>cluster_Application: paymentservice</title>
<g id="a_clust6"><a xlink:title="Application: paymentservice">
<path fill="#ece8f6" stroke="#aeb6be" d="M392,-397.6C392,-397.6 534,-397.6 534,-397.6 540,-397.6 546,-403.6 546,-409.6 546,-409.6 546,-749.95 546,-749.95 546,-755.95 540,-761.95 534,-761.95 534,-761.95 392,-761.95 392,-761.95 386,-761.95 380,-755.95 380,-749.95 380,-749.95 380,-409.6 380,-409.6 380,-403.6 386,-397.6 392,-397.6"/>
<text text-anchor="middle" x="463" y="-746.55" font-family="Sans-Serif" font-size="12.00" fill="#2d3436">Application: paymentservice</text>
</a>
</g>
</g>
<g id="clust7" class="cluster">
<title>cluster_Application: productcatalogservice</title>
<g id="a_clust7"><a xlink:title="Application: productcatalogservice">
<path fill="#ece8f6" stroke="#aeb6be" d="M28,-397.6C28,-397.6 203,-397.6 203,-397.6 209,-397.6 215,-403.6 215,-409.6 215,-409.6 215,-749.95 215,-749.95 215,-755.95 209,-761.95 203,-761.95 203,-761.95 28,-761.95 28,-761.95 22,-761.95 16,-755.95 16,-749.95 16,-749.95 16,-409.6 16,-409.6 16,-403.6 22,-397.6 28,-397.6"/>
<text text-anchor="middle" x="115.5" y="-746.55" font-family="Sans-Serif" font-size="12.00" fill="#2d3436">Application: productcatalogservice</text>
</a>
</g>
</g>
<g id="clust8" class="cluster">
<title>cluster_Application: cartservice</title>
<g id="a_clust8"><a xlink:title="Application: cartservice">
<path fill="#ece8f6" stroke="#aeb6be" d="M566,-397.6C566,-397.6 681,-397.6 681,-397.6 687,-397.6 693,-403.6 693,-409.6 693,-409.6 693,-749.95 693,-749.95 693,-755.95 687,-761.95 681,-761.95 681,-761.95 566,-761.95 566,-761.95 560,-761.95 554,-755.95 554,-749.95 554,-749.95 554,-409.6 554,-409.6 554,-403.6 560,-397.6 566,-397.6"/>
<text text-anchor="middle" x="623.88" y="-746.55" font-family="Sans-Serif" font-size="12.00" fill="#2d3436">Application: cartservice</text>
</a>
</g>
</g>
<g id="clust9" class="cluster">
<title>cluster_Application: redis&#45;cart</title>
<g id="a_clust9"><a xlink:title="Application: redis&#45;cart">
<path fill="#ece8f6" stroke="#aeb6be" d="M560,-16C560,-16 667,-16 667,-16 673,-16 679,-22 679,-28 679,-28 679,-368.35 679,-368.35 679,-374.35 673,-380.35 667,-380.35 667,-380.35 560,-380.35 560,-380.35 554,-380.35 548,-374.35 548,-368.35 548,-368.35 548,-28 548,-28 548,-22 554,-16 560,-16"/>
<text text-anchor="middle" x="613.75" y="-364.95" font-family="Sans-Serif" font-size="12.00" fill="#2d3436">Application: redis&#45;cart</text>
</a>
</g>
</g>
<g id="clust10" class="cluster">
<title>cluster_Application: loadgenerator</title>
<g id="a_clust10"><a xlink:title="Application: loadgenerator">
<path fill="#ece8f6" stroke="#aeb6be" d="M619,-1571.2C619,-1571.2 751,-1571.2 751,-1571.2 757,-1571.2 763,-1577.2 763,-1583.2 763,-1583.2 763,-1732.75 763,-1732.75 763,-1738.75 757,-1744.75 751,-1744.75 751,-1744.75 619,-1744.75 619,-1744.75 613,-1744.75 607,-1738.75 607,-1732.75 607,-1732.75 607,-1583.2 607,-1583.2 607,-1577.2 613,-1571.2 619,-1571.2"/>
<text text-anchor="middle" x="685.12" y="-1729.35" font-family="Sans-Serif" font-size="12.00" fill="#2d3436">Application: loadgenerator</text>
</a>
</g>
</g>
<g id="clust11" class="cluster">
<title>cluster_Application: currencyservice</title>
<g id="a_clust11"><a xlink:title="Application: currencyservice">
<path fill="#ece8f6" stroke="#aeb6be" d="M713,-397.6C713,-397.6 855,-397.6 855,-397.6 861,-397.6 867,-403.6 867,-409.6 867,-409.6 867,-749.95 867,-749.95 867,-755.95 861,-761.95 855,-761.95 855,-761.95 713,-761.95 713,-761.95 707,-761.95 701,-755.95 701,-749.95 701,-749.95 701,-409.6 701,-409.6 701,-403.6 707,-397.6 713,-397.6"/>
<text text-anchor="middle" x="784" y="-746.55" font-family="Sans-Serif" font-size="12.00" fill="#2d3436">Application: currencyservice</text>
</a>
</g>
</g>
<g id="clust12" class="cluster">
<title>cluster_Application: shippingservice</title>
<g id="a_clust12"><a xlink:title="Application: shippingservice">
<path fill="#ece8f6" stroke="#aeb6be" d="M887,-397.6C887,-397.6 1029,-397.6 1029,-397.6 1035,-397.6 1041,-403.6 1041,-409.6 1041,-409.6 1041,-749.95 1041,-749.95 1041,-755.95 1035,-761.95 1029,-761.95 1029,-761.95 887,-761.95 887,-761.95 881,-761.95 875,-755.95 875,-749.95 875,-749.95 875,-409.6 875,-409.6 875,-403.6 881,-397.6 887,-397.6"/>
<text text-anchor="middle" x="958" y="-746.55" font-family="Sans-Serif" font-size="12.00" fill="#2d3436">Application: shippingservice</text>
</a>
</g>
</g>
<g id="clust13" class="cluster">
<title>cluster_Application: adservice</title>
<g id="a_clust13"><a xlink:title="Application: adservice">
<path fill="#ece8f6" stroke="#aeb6be" d="M742,-779.2C742,-779.2 851,-779.2 851,-779.2 857,-779.2 863,-785.2 863,-791.2 863,-791.2 863,-1131.55 863,-1131.55 863,-1137.55 857,-1143.55 851,-1143.55 851,-1143.55 742,-1143.55 742,-1143.55 736,-1143.55 730,-1137.55 730,-1131.55 730,-1131.55 730,-791.2 730,-791.2 730,-785.2 736,-779.2 742,-779.2"/>
<text text-anchor="middle" x="796.88" y="-1128.15" font-family="Sans-Serif" font-size="12.00" fill="#2d3436">Application: adservice</text>
</a>
</g>
</g>
<!-- 54d66f14260f42388bdb0e2d04939da0 -->
<g id="node1" class="node">
<title>54d66f14260f42388bdb0e2d04939da0</title>
<g id="a_node1"><a xlink:title="kind: Deployment&#10;apiVersion: apps/v1&#10;metadata:&#10; &#160;name: emailservice&#10;...">
<image xlink:href="https://raw.githubusercontent.com/mingrammer/diagrams/refs/heads/master/resources/k8s/compute/deploy.png" width="100.8px" height="100.8px" preserveAspectRatio="xMinYMin meet" x="263.6" y="-524.4"/>
<text text-anchor="middle" x="314" y="-406.75" font-family="Sans-Serif" font-size="13.00" fill="#2d3436">emailservice</text>
</a>
</g>
</g>
<!-- 8c7bb9f165ee4a28ba59a2b11e7b2702 -->
<g id="node2" class="node">
<title>8c7bb9f165ee4a28ba59a2b11e7b2702</title>
<g id="a_node2"><a xlink:title="kind: Service&#10;apiVersion: v1&#10;metadata:&#10; &#160;name: emailservice&#10;...">
<image xlink:href="https://raw.githubusercontent.com/mingrammer/diagrams/refs/heads/master/resources/k8s/network/svc.png" width="100.8px" height="100.8px" preserveAspectRatio="xMinYMin meet" x="263.6" y="-715.2"/>
<text text-anchor="middle" x="314" y="-597.55" font-family="Sans-Serif" font-size="13.00" fill="#2d3436">emailservice</text>
</a>
</g>
</g>
<!-- 8c7bb9f165ee4a28ba59a2b11e7b2702&#45;&gt;54d66f14260f42388bdb0e2d04939da0 -->
<g id="edge1" class="edge">
<title>8c7bb9f165ee4a28ba59a2b11e7b2702&#45;&gt;54d66f14260f42388bdb0e2d04939da0</title>
<g id="a_edge1"><a xlink:title="spec.selector:&#10; &#160;app: emailservice">
<path fill="none" stroke="black" stroke-dasharray="5,2" d="M314,-596.46C314,-596.46 314,-553.19 314,-553.19"/>
<polygon fill="black" stroke="black" points="317.5,-553.19 314,-543.19 310.5,-553.19 317.5,-553.19"/>
</a>
</g>
<text text-anchor="middle" x="276.88" y="-576.57" font-family="Sans-Serif" font-size="10.00" fill="#2d3436">5000&#45;&gt;8080/TCP</text>
</g>
<!-- e9657408d93648258a0c645a1e6e555f -->
<g id="node3" class="node">
<title>e9657408d93648258a0c645a1e6e555f</title>
<g id="a_node3"><a xlink:title="kind: Deployment&#10;apiVersion: apps/v1&#10;metadata:&#10; &#160;name: checkoutservice&#10;...">
<image xlink:href="https://raw.githubusercontent.com/mingrammer/diagrams/refs/heads/master/resources/k8s/compute/deploy.png" width="100.8px" height="100.8px" preserveAspectRatio="xMinYMin meet" x="468.6" y="-906"/>
<text text-anchor="middle" x="519" y="-788.35" font-family="Sans-Serif" font-size="13.00" fill="#2d3436">checkoutservice</text>
</a>
</g>
</g>
<!-- e9657408d93648258a0c645a1e6e555f&#45;&gt;8c7bb9f165ee4a28ba59a2b11e7b2702 -->
<g id="edge16" class="edge">
<title>e9657408d93648258a0c645a1e6e555f&#45;&gt;8c7bb9f165ee4a28ba59a2b11e7b2702</title>
<g id="a_edge16"><a xlink:title="from: checkoutservice/default/Deployment/apps/v1&#10;to: emailservice/default/Service/v1">
<path fill="none" stroke="brown" d="M469.04,-855C421.41,-855 356.9,-855 356.9,-855 356.9,-855 356.9,-744.2 356.9,-744.2"/>
<polygon fill="brown" stroke="brown" points="360.4,-744.2 356.9,-734.2 353.4,-744.2 360.4,-744.2"/>
</a>
</g>
</g>
<!-- b18f10bbaf3f4359836402ea00e11c61 -->
<g id="node11" class="node">
<title>b18f10bbaf3f4359836402ea00e11c61</title>
<g id="a_node11"><a xlink:title="kind: Service&#10;apiVersion: v1&#10;metadata:&#10; &#160;name: paymentservice&#10;...">
<image xlink:href="https://raw.githubusercontent.com/mingrammer/diagrams/refs/heads/master/resources/k8s/network/svc.png" width="100.8px" height="100.8px" preserveAspectRatio="xMinYMin meet" x="418.6" y="-715.2"/>
<text text-anchor="middle" x="469" y="-597.55" font-family="Sans-Serif" font-size="13.00" fill="#2d3436">paymentservice</text>
</a>
</g>
</g>
<!-- e9657408d93648258a0c645a1e6e555f&#45;&gt;b18f10bbaf3f4359836402ea00e11c61 -->
<g id="edge15" class="edge">
<title>e9657408d93648258a0c645a1e6e555f&#45;&gt;b18f10bbaf3f4359836402ea00e11c61</title>
<g id="a_edge15"><a xlink:title="from: checkoutservice/default/Deployment/apps/v1&#10;to: paymentservice/default/Service/v1">
<path fill="none" stroke="brown" d="M502.47,-787.26C502.47,-787.26 502.47,-743.99 502.47,-743.99"/>
<polygon fill="brown" stroke="brown" points="505.97,-743.99 502.47,-733.99 498.97,-743.99 505.97,-743.99"/>
</a>
</g>
</g>
<!-- 68d8fe7dc2a6499281d8fe419548675b -->
<g id="node13" class="node">
<title>68d8fe7dc2a6499281d8fe419548675b</title>
<g id="a_node13"><a xlink:title="kind: Service&#10;apiVersion: v1&#10;metadata:&#10; &#160;name: productcatalogservice&#10;...">
<image xlink:href="https://raw.githubusercontent.com/mingrammer/diagrams/refs/heads/master/resources/k8s/network/svc.png" width="100.8px" height="100.8px" preserveAspectRatio="xMinYMin meet" x="106.6" y="-715.2"/>
<text text-anchor="middle" x="157" y="-597.55" font-family="Sans-Serif" font-size="13.00" fill="#2d3436">productcatalogservice</text>
</a>
</g>
</g>
<!-- e9657408d93648258a0c645a1e6e555f&#45;&gt;68d8fe7dc2a6499281d8fe419548675b -->
<g id="edge13" class="edge">
<title>e9657408d93648258a0c645a1e6e555f&#45;&gt;68d8fe7dc2a6499281d8fe419548675b</title>
<g id="a_edge13"><a xlink:title="from: checkoutservice/default/Deployment/apps/v1&#10;to: productcatalogservice/default/Service/v1">
<path fill="none" stroke="brown" d="M485.53,-787.29C485.53,-767.44 485.53,-751 485.53,-751 485.53,-751 173.8,-751 173.8,-751 173.8,-751 173.8,-744.14 173.8,-744.14"/>
<polygon fill="brown" stroke="brown" points="177.3,-744.14 173.8,-734.14 170.3,-744.14 177.3,-744.14"/>
</a>
</g>
</g>
<!-- fbb1a7e214404901b674738a1c4d92cf -->
<g id="node15" class="node">
<title>fbb1a7e214404901b674738a1c4d92cf</title>
<g id="a_node15"><a xlink:title="kind: Service&#10;apiVersion: v1&#10;metadata:&#10; &#160;name: cartservice&#10;...">
<image xlink:href="https://raw.githubusercontent.com/mingrammer/diagrams/refs/heads/master/resources/k8s/network/svc.png" width="100.8px" height="100.8px" preserveAspectRatio="xMinYMin meet" x="562.6" y="-715.2"/>
<text text-anchor="middle" x="613" y="-597.55" font-family="Sans-Serif" font-size="13.00" fill="#2d3436">cartservice</text>
</a>
</g>
</g>
<!-- e9657408d93648258a0c645a1e6e555f&#45;&gt;fbb1a7e214404901b674738a1c4d92cf -->
<g id="edge18" class="edge">
<title>e9657408d93648258a0c645a1e6e555f&#45;&gt;fbb1a7e214404901b674738a1c4d92cf</title>
<g id="a_edge18"><a xlink:title="from: checkoutservice/default/Deployment/apps/v1&#10;to: cartservice/default/Service/v1">
<path fill="none" stroke="brown" d="M548.2,-787.24C548.2,-732.21 548.2,-664 548.2,-664 548.2,-664 551.9,-664 551.9,-664"/>
<polygon fill="brown" stroke="brown" points="551.9,-667.5 561.9,-664 551.9,-660.5 551.9,-667.5"/>
</a>
</g>
</g>
<!-- b0aaeae2bc9d49e6b5ba9710857b51ad -->
<g id="node20" class="node">
<title>b0aaeae2bc9d49e6b5ba9710857b51ad</title>
<g id="a_node20"><a xlink:title="kind: Service&#10;apiVersion: v1&#10;metadata:&#10; &#160;name: currencyservice&#10;...">
<image xlink:href="https://raw.githubusercontent.com/mingrammer/diagrams/refs/heads/master/resources/k8s/network/svc.png" width="100.8px" height="100.8px" preserveAspectRatio="xMinYMin meet" x="708.6" y="-715.2"/>
<text text-anchor="middle" x="759" y="-597.55" font-family="Sans-Serif" font-size="13.00" fill="#2d3436">currencyservice</text>
</a>
</g>
</g>
<!-- e9657408d93648258a0c645a1e6e555f&#45;&gt;b0aaeae2bc9d49e6b5ba9710857b51ad -->
<g id="edge17" class="edge">
<title>e9657408d93648258a0c645a1e6e555f&#45;&gt;b0aaeae2bc9d49e6b5ba9710857b51ad</title>
<g id="a_edge17"><a xlink:title="from: checkoutservice/default/Deployment/apps/v1&#10;to: currencyservice/default/Service/v1">
<path fill="none" stroke="brown" d="M569.35,-855C628.17,-855 717.53,-855 717.53,-855 717.53,-855 717.53,-744.2 717.53,-744.2"/>
<polygon fill="brown" stroke="brown" points="721.03,-744.2 717.53,-734.2 714.03,-744.2 721.03,-744.2"/>
</a>
</g>
</g>
<!-- 201001be06e74a2697bdad19eb9b76b8 -->
<g id="node22" class="node">
<title>201001be06e74a2697bdad19eb9b76b8</title>
<g id="a_node22"><a xlink:title="kind: Service&#10;apiVersion: v1&#10;metadata:&#10; &#160;name: shippingservice&#10;...">
<image xlink:href="https://raw.githubusercontent.com/mingrammer/diagrams/refs/heads/master/resources/k8s/network/svc.png" width="100.8px" height="100.8px" preserveAspectRatio="xMinYMin meet" x="882.6" y="-715.2"/>
<text text-anchor="middle" x="933" y="-597.55" font-family="Sans-Serif" font-size="13.00" fill="#2d3436">shippingservice</text>
</a>
</g>
</g>
<!-- e9657408d93648258a0c645a1e6e555f&#45;&gt;201001be06e74a2697bdad19eb9b76b8 -->
<g id="edge14" class="edge">
<title>e9657408d93648258a0c645a1e6e555f&#45;&gt;201001be06e74a2697bdad19eb9b76b8</title>
<g id="a_edge14"><a xlink:title="from: checkoutservice/default/Deployment/apps/v1&#10;to: shippingservice/default/Service/v1">
<path fill="none" stroke="brown" d="M533.8,-787.37C533.8,-776.63 533.8,-769 533.8,-769 533.8,-769 916.2,-769 916.2,-769 916.2,-769 916.2,-744.14 916.2,-744.14"/>
<polygon fill="brown" stroke="brown" points="919.7,-744.14 916.2,-734.14 912.7,-744.14 919.7,-744.14"/>
</a>
</g>
</g>
<!-- 640bf1bce2ec4e89be9425bbb8a5630e -->
<g id="node4" class="node">
<title>640bf1bce2ec4e89be9425bbb8a5630e</title>
<g id="a_node4"><a xlink:title="kind: Service&#10;apiVersion: v1&#10;metadata:&#10; &#160;name: checkoutservice&#10;...">
<image xlink:href="https://raw.githubusercontent.com/mingrammer/diagrams/refs/heads/master/resources/k8s/network/svc.png" width="100.8px" height="100.8px" preserveAspectRatio="xMinYMin meet" x="468.6" y="-1096.8"/>
<text text-anchor="middle" x="519" y="-979.15" font-family="Sans-Serif" font-size="13.00" fill="#2d3436">checkoutservice</text>
</a>
</g>
</g>
<!-- 640bf1bce2ec4e89be9425bbb8a5630e&#45;&gt;e9657408d93648258a0c645a1e6e555f -->
<g id="edge2" class="edge">
<title>640bf1bce2ec4e89be9425bbb8a5630e&#45;&gt;e9657408d93648258a0c645a1e6e555f</title>
<g id="a_edge2"><a xlink:title="spec.selector:&#10; &#160;app: checkoutservice">
<path fill="none" stroke="black" stroke-dasharray="5,2" d="M519,-978.06C519,-978.06 519,-934.79 519,-934.79"/>
<polygon fill="black" stroke="black" points="522.5,-934.79 519,-924.79 515.5,-934.79 522.5,-934.79"/>
</a>
</g>
<text text-anchor="middle" x="496.88" y="-958.17" font-family="Sans-Serif" font-size="10.00" fill="#2d3436">5050/TCP</text>
</g>
<!-- 1b4f6f085cd04738bb7648a00008a3cf -->
<g id="node5" class="node">
<title>1b4f6f085cd04738bb7648a00008a3cf</title>
<g id="a_node5"><a xlink:title="kind: Deployment&#10;apiVersion: apps/v1&#10;metadata:&#10; &#160;name: recommendationservice&#10;...">
<image xlink:href="https://raw.githubusercontent.com/mingrammer/diagrams/refs/heads/master/resources/k8s/compute/deploy.png" width="100.8px" height="100.8px" preserveAspectRatio="xMinYMin meet" x="229.6" y="-906"/>
<text text-anchor="middle" x="280" y="-788.35" font-family="Sans-Serif" font-size="13.00" fill="#2d3436">recommendationservice</text>
</a>
</g>
</g>
<!-- 1b4f6f085cd04738bb7648a00008a3cf&#45;&gt;68d8fe7dc2a6499281d8fe419548675b -->
<g id="edge19" class="edge">
<title>1b4f6f085cd04738bb7648a00008a3cf&#45;&gt;68d8fe7dc2a6499281d8fe419548675b</title>
<g id="a_edge19"><a xlink:title="from: recommendationservice/default/Deployment/apps/v1&#10;to: productcatalogservice/default/Service/v1">
<path fill="none" stroke="brown" d="M246.6,-787.24C246.6,-732.21 246.6,-664 246.6,-664 246.6,-664 218.3,-664 218.3,-664"/>
<polygon fill="brown" stroke="brown" points="218.3,-660.5 208.3,-664 218.3,-667.5 218.3,-660.5"/>
</a>
</g>
</g>
<!-- 44f1ebda9b11412d9ee450fdea4c709f -->
<g id="node6" class="node">
<title>44f1ebda9b11412d9ee450fdea4c709f</title>
<g id="a_node6"><a xlink:title="kind: Service&#10;apiVersion: v1&#10;metadata:&#10; &#160;name: recommendationservice&#10;...">
<image xlink:href="https://raw.githubusercontent.com/mingrammer/diagrams/refs/heads/master/resources/k8s/network/svc.png" width="100.8px" height="100.8px" preserveAspectRatio="xMinYMin meet" x="248.6" y="-1096.8"/>
<text text-anchor="middle" x="299" y="-979.15" font-family="Sans-Serif" font-size="13.00" fill="#2d3436">recommendationservice</text>
</a>
</g>
</g>
<!-- 44f1ebda9b11412d9ee450fdea4c709f&#45;&gt;1b4f6f085cd04738bb7648a00008a3cf -->
<g id="edge3" class="edge">
<title>44f1ebda9b11412d9ee450fdea4c709f&#45;&gt;1b4f6f085cd04738bb7648a00008a3cf</title>
<g id="a_edge3"><a xlink:title="spec.selector:&#10; &#160;app: recommendationservice">
<path fill="none" stroke="black" stroke-dasharray="5,2" d="M289.5,-978.06C289.5,-978.06 289.5,-934.79 289.5,-934.79"/>
<polygon fill="black" stroke="black" points="293,-934.79 289.5,-924.79 286,-934.79 293,-934.79"/>
</a>
</g>
<text text-anchor="middle" x="267.38" y="-958.17" font-family="Sans-Serif" font-size="10.00" fill="#2d3436">8080/TCP</text>
</g>
<!-- 7241ff7fa0e2401c8fa2a2d6c4956eda -->
<g id="node7" class="node">
<title>7241ff7fa0e2401c8fa2a2d6c4956eda</title>
<g id="a_node7"><a xlink:title="kind: Deployment&#10;apiVersion: apps/v1&#10;metadata:&#10; &#160;name: frontend&#10;...">
<image xlink:href="https://raw.githubusercontent.com/mingrammer/diagrams/refs/heads/master/resources/k8s/compute/deploy.png" width="100.8px" height="100.8px" preserveAspectRatio="xMinYMin meet" x="562.6" y="-1287.6"/>
<text text-anchor="middle" x="613" y="-1169.95" font-family="Sans-Serif" font-size="13.00" fill="#2d3436">frontend</text>
</a>
</g>
</g>
<!-- 7241ff7fa0e2401c8fa2a2d6c4956eda&#45;&gt;640bf1bce2ec4e89be9425bbb8a5630e -->
<g id="edge25" class="edge">
<title>7241ff7fa0e2401c8fa2a2d6c4956eda&#45;&gt;640bf1bce2ec4e89be9425bbb8a5630e</title>
<g id="a_edge25"><a xlink:title="from: frontend/default/Deployment/apps/v1&#10;to: checkoutservice/default/Service/v1">
<path fill="none" stroke="brown" d="M562.74,-1202C543.73,-1202 526.6,-1202 526.6,-1202 526.6,-1202 526.6,-1125.65 526.6,-1125.65"/>
<polygon fill="brown" stroke="brown" points="530.1,-1125.65 526.6,-1115.65 523.1,-1125.65 530.1,-1125.65"/>
</a>
</g>
</g>
<!-- 7241ff7fa0e2401c8fa2a2d6c4956eda&#45;&gt;44f1ebda9b11412d9ee450fdea4c709f -->
<g id="edge23" class="edge">
<title>7241ff7fa0e2401c8fa2a2d6c4956eda&#45;&gt;44f1ebda9b11412d9ee450fdea4c709f</title>
<g id="a_edge23"><a xlink:title="from: frontend/default/Deployment/apps/v1&#10;to: recommendationservice/default/Service/v1">
<path fill="none" stroke="brown" d="M562.9,-1237C474.25,-1237 299,-1237 299,-1237 299,-1237 299,-1125.67 299,-1125.67"/>
<polygon fill="brown" stroke="brown" points="302.5,-1125.67 299,-1115.67 295.5,-1125.67 302.5,-1125.67"/>
</a>
</g>
</g>
<!-- 7241ff7fa0e2401c8fa2a2d6c4956eda&#45;&gt;68d8fe7dc2a6499281d8fe419548675b -->
<g id="edge20" class="edge">
<title>7241ff7fa0e2401c8fa2a2d6c4956eda&#45;&gt;68d8fe7dc2a6499281d8fe419548675b</title>
<g id="a_edge20"><a xlink:title="from: frontend/default/Deployment/apps/v1&#10;to: productcatalogservice/default/Service/v1">
<path fill="none" stroke="brown" d="M562.85,-1271C441.17,-1271 140.2,-1271 140.2,-1271 140.2,-1271 140.2,-744.16 140.2,-744.16"/>
<polygon fill="brown" stroke="brown" points="143.7,-744.16 140.2,-734.16 136.7,-744.16 143.7,-744.16"/>
</a>
</g>
</g>
<!-- 7241ff7fa0e2401c8fa2a2d6c4956eda&#45;&gt;fbb1a7e214404901b674738a1c4d92cf -->
<g id="edge22" class="edge">
<title>7241ff7fa0e2401c8fa2a2d6c4956eda&#45;&gt;fbb1a7e214404901b674738a1c4d92cf</title>
<g id="a_edge22"><a xlink:title="from: frontend/default/Deployment/apps/v1&#10;to: cartservice/default/Service/v1">
<path fill="none" stroke="brown" d="M600.73,-1169.01C600.73,-1169.01 600.73,-743.99 600.73,-743.99"/>
<polygon fill="brown" stroke="brown" points="604.23,-743.99 600.73,-733.99 597.23,-743.99 604.23,-743.99"/>
</a>
</g>
</g>
<!-- 7241ff7fa0e2401c8fa2a2d6c4956eda&#45;&gt;b0aaeae2bc9d49e6b5ba9710857b51ad -->
<g id="edge21" class="edge">
<title>7241ff7fa0e2401c8fa2a2d6c4956eda&#45;&gt;b0aaeae2bc9d49e6b5ba9710857b51ad</title>
<g id="a_edge21"><a xlink:title="from: frontend/default/Deployment/apps/v1&#10;to: currencyservice/default/Service/v1">
<path fill="none" stroke="brown" d="M663.1,-1214C693.49,-1214 726.47,-1214 726.47,-1214 726.47,-1214 726.47,-743.97 726.47,-743.97"/>
<polygon fill="brown" stroke="brown" points="729.97,-743.97 726.47,-733.97 722.97,-743.97 729.97,-743.97"/>
</a>
</g>
</g>
<!-- 7241ff7fa0e2401c8fa2a2d6c4956eda&#45;&gt;201001be06e74a2697bdad19eb9b76b8 -->
<g id="edge24" class="edge">
<title>7241ff7fa0e2401c8fa2a2d6c4956eda&#45;&gt;201001be06e74a2697bdad19eb9b76b8</title>
<g id="a_edge24"><a xlink:title="from: frontend/default/Deployment/apps/v1&#10;to: shippingservice/default/Service/v1">
<path fill="none" stroke="brown" d="M663.06,-1259C756.88,-1259 949.8,-1259 949.8,-1259 949.8,-1259 949.8,-743.96 949.8,-743.96"/>
<polygon fill="brown" stroke="brown" points="953.3,-743.96 949.8,-733.96 946.3,-743.96 953.3,-743.96"/>
</a>
</g>
</g>
<!-- 602bdddb8ac14c40baa194e028b6fa03 -->
<g id="node24" class="node">
<title>602bdddb8ac14c40baa194e028b6fa03</title>
<g id="a_node24"><a xlink:title="kind: Service&#10;apiVersion: v1&#10;metadata:&#10; &#160;name: adservice&#10;...">
<image xlink:href="https://raw.githubusercontent.com/mingrammer/diagrams/refs/heads/master/resources/k8s/network/svc.png" width="100.8px" height="100.8px" preserveAspectRatio="xMinYMin meet" x="746.6" y="-1096.8"/>
<text text-anchor="middle" x="797" y="-979.15" font-family="Sans-Serif" font-size="13.00" fill="#2d3436">adservice</text>
</a>
</g>
</g>
<!-- 7241ff7fa0e2401c8fa2a2d6c4956eda&#45;&gt;602bdddb8ac14c40baa194e028b6fa03 -->
<g id="edge26" class="edge">
<title>7241ff7fa0e2401c8fa2a2d6c4956eda&#45;&gt;602bdddb8ac14c40baa194e028b6fa03</title>
<g id="a_edge26"><a xlink:title="from: frontend/default/Deployment/apps/v1&#10;to: adservice/default/Service/v1">
<path fill="none" stroke="brown" d="M632.07,-1168.98C632.07,-1114.07 632.07,-1046 632.07,-1046 632.07,-1046 735.62,-1046 735.62,-1046"/>
<polygon fill="brown" stroke="brown" points="735.62,-1049.5 745.62,-1046 735.62,-1042.5 735.62,-1049.5"/>
</a>
</g>
</g>
<!-- 7696aa2af73f45a48cc90d9982cbeae1 -->
<g id="node8" class="node">
<title>7696aa2af73f45a48cc90d9982cbeae1</title>
<g id="a_node8"><a xlink:title="kind: Service&#10;apiVersion: v1&#10;metadata:&#10; &#160;name: frontend&#10;...">
<image xlink:href="https://raw.githubusercontent.com/mingrammer/diagrams/refs/heads/master/resources/k8s/network/svc.png" width="100.8px" height="100.8px" preserveAspectRatio="xMinYMin meet" x="634.6" y="-1492.8"/>
<text text-anchor="middle" x="685" y="-1375.15" font-family="Sans-Serif" font-size="13.00" fill="#2d3436">frontend</text>
</a>
</g>
</g>
<!-- 7696aa2af73f45a48cc90d9982cbeae1&#45;&gt;7241ff7fa0e2401c8fa2a2d6c4956eda -->
<g id="edge4" class="edge">
<title>7696aa2af73f45a48cc90d9982cbeae1&#45;&gt;7241ff7fa0e2401c8fa2a2d6c4956eda</title>
<g id="a_edge4"><a xlink:title="spec.selector:&#10; &#160;app: frontend">
<path fill="none" stroke="black" stroke-dasharray="5,2" d="M649,-1374.07C649,-1374.07 649,-1316.58 649,-1316.58"/>
<polygon fill="black" stroke="black" points="652.5,-1316.58 649,-1306.58 645.5,-1316.58 652.5,-1316.58"/>
</a>
</g>
<text text-anchor="middle" x="617.12" y="-1347.08" font-family="Sans-Serif" font-size="10.00" fill="#2d3436">80&#45;&gt;8080/TCP</text>
</g>
<!-- ad9bd64b0b8e4b849fa1760410ba1fcc -->
<g id="node9" class="node">
<title>ad9bd64b0b8e4b849fa1760410ba1fcc</title>
<g id="a_node9"><a xlink:title="kind: Service&#10;apiVersion: v1&#10;metadata:&#10; &#160;name: frontend&#45;external&#10;...">
<image xlink:href="https://raw.githubusercontent.com/mingrammer/diagrams/refs/heads/master/resources/k8s/network/svc.png" width="100.8px" height="100.8px" preserveAspectRatio="xMinYMin meet" x="490.6" y="-1492.8"/>
<text text-anchor="middle" x="541" y="-1374.25" font-family="Sans-Serif" font-size="13.00" fill="#2d3436">frontend</text>
<text text-anchor="middle" x="541" y="-1360.75" font-family="Sans-Serif" font-size="13.00" fill="#2d3436">&#45;external</text>
</a>
</g>
</g>
<!-- ad9bd64b0b8e4b849fa1760410ba1fcc&#45;&gt;7241ff7fa0e2401c8fa2a2d6c4956eda -->
<g id="edge5" class="edge">
<title>ad9bd64b0b8e4b849fa1760410ba1fcc&#45;&gt;7241ff7fa0e2401c8fa2a2d6c4956eda</title>
<g id="a_edge5"><a xlink:title="spec.selector:&#10; &#160;app: frontend">
<path fill="none" stroke="black" stroke-dasharray="5,2" d="M577,-1359.82C577,-1359.82 577,-1316.47 577,-1316.47"/>
<polygon fill="black" stroke="black" points="580.5,-1316.47 577,-1306.47 573.5,-1316.47 580.5,-1316.47"/>
</a>
</g>
<text text-anchor="middle" x="545.12" y="-1339.9" font-family="Sans-Serif" font-size="10.00" fill="#2d3436">80&#45;&gt;8080/TCP</text>
</g>
<!-- 05b002ce654f4e61a26e514eb22467cd -->
<g id="node10" class="node">
<title>05b002ce654f4e61a26e514eb22467cd</title>
<g id="a_node10"><a xlink:title="kind: Deployment&#10;apiVersion: apps/v1&#10;metadata:&#10; &#160;name: paymentservice&#10;...">
<image xlink:href="https://raw.githubusercontent.com/mingrammer/diagrams/refs/heads/master/resources/k8s/compute/deploy.png" width="100.8px" height="100.8px" preserveAspectRatio="xMinYMin meet" x="418.6" y="-524.4"/>
<text text-anchor="middle" x="469" y="-406.75" font-family="Sans-Serif" font-size="13.00" fill="#2d3436">paymentservice</text>
</a>
</g>
</g>
<!-- b18f10bbaf3f4359836402ea00e11c61&#45;&gt;05b002ce654f4e61a26e514eb22467cd -->
<g id="edge6" class="edge">
<title>b18f10bbaf3f4359836402ea00e11c61&#45;&gt;05b002ce654f4e61a26e514eb22467cd</title>
<g id="a_edge6"><a xlink:title="spec.selector:&#10; &#160;app: paymentservice">
<path fill="none" stroke="black" stroke-dasharray="5,2" d="M469,-596.46C469,-596.46 469,-553.19 469,-553.19"/>
<polygon fill="black" stroke="black" points="472.5,-553.19 469,-543.19 465.5,-553.19 472.5,-553.19"/>
</a>
</g>
<text text-anchor="middle" x="444.25" y="-576.57" font-family="Sans-Serif" font-size="10.00" fill="#2d3436">50051/TCP</text>
</g>
<!-- 87f6b6c796414e2fa1eea7e2e1acc77b -->
<g id="node12" class="node">
<title>87f6b6c796414e2fa1eea7e2e1acc77b</title>
<g id="a_node12"><a xlink:title="kind: Deployment&#10;apiVersion: apps/v1&#10;metadata:&#10; &#160;name: productcatalogservice&#10;...">
<image xlink:href="https://raw.githubusercontent.com/mingrammer/diagrams/refs/heads/master/resources/k8s/compute/deploy.png" width="100.8px" height="100.8px" preserveAspectRatio="xMinYMin meet" x="106.6" y="-524.4"/>
<text text-anchor="middle" x="157" y="-406.75" font-family="Sans-Serif" font-size="13.00" fill="#2d3436">productcatalogservice</text>
</a>
</g>
</g>
<!-- 68d8fe7dc2a6499281d8fe419548675b&#45;&gt;87f6b6c796414e2fa1eea7e2e1acc77b -->
<g id="edge7" class="edge">
<title>68d8fe7dc2a6499281d8fe419548675b&#45;&gt;87f6b6c796414e2fa1eea7e2e1acc77b</title>
<g id="a_edge7"><a xlink:title="spec.selector:&#10; &#160;app: productcatalogservice">
<path fill="none" stroke="black" stroke-dasharray="5,2" d="M157,-596.46C157,-596.46 157,-553.19 157,-553.19"/>
<polygon fill="black" stroke="black" points="160.5,-553.19 157,-543.19 153.5,-553.19 160.5,-553.19"/>
</a>
</g>
<text text-anchor="middle" x="134.88" y="-576.57" font-family="Sans-Serif" font-size="10.00" fill="#2d3436">3550/TCP</text>
</g>
<!-- 2020828e348a4e11bd4bfef1fc87605e -->
<g id="node14" class="node">
<title>2020828e348a4e11bd4bfef1fc87605e</title>
<g id="a_node14"><a xlink:title="kind: Deployment&#10;apiVersion: apps/v1&#10;metadata:&#10; &#160;name: cartservice&#10;...">
<image xlink:href="https://raw.githubusercontent.com/mingrammer/diagrams/refs/heads/master/resources/k8s/compute/deploy.png" width="100.8px" height="100.8px" preserveAspectRatio="xMinYMin meet" x="562.6" y="-524.4"/>
<text text-anchor="middle" x="613" y="-406.75" font-family="Sans-Serif" font-size="13.00" fill="#2d3436">cartservice</text>
</a>
</g>
</g>
<!-- 9502af866d144961a97e94d4b64418f4 -->
<g id="node17" class="node">
<title>9502af866d144961a97e94d4b64418f4</title>
<g id="a_node17"><a xlink:title="kind: Service&#10;apiVersion: v1&#10;metadata:&#10; &#160;name: redis&#45;cart&#10;...">
<image xlink:href="https://raw.githubusercontent.com/mingrammer/diagrams/refs/heads/master/resources/k8s/network/svc.png" width="100.8px" height="100.8px" preserveAspectRatio="xMinYMin meet" x="562.6" y="-333.6"/>
<text text-anchor="middle" x="613" y="-215.95" font-family="Sans-Serif" font-size="13.00" fill="#2d3436">redis&#45;cart</text>
</a>
</g>
</g>
<!-- 2020828e348a4e11bd4bfef1fc87605e&#45;&gt;9502af866d144961a97e94d4b64418f4 -->
<g id="edge28" class="edge">
<title>2020828e348a4e11bd4bfef1fc87605e&#45;&gt;9502af866d144961a97e94d4b64418f4</title>
<g id="a_edge28"><a xlink:title="from: cartservice/default/Deployment/apps/v1&#10;to: redis&#45;cart/default/Service/v1">
<path fill="none" stroke="brown" d="M613,-405.66C613,-405.66 613,-362.39 613,-362.39"/>
<polygon fill="brown" stroke="brown" points="616.5,-362.39 613,-352.39 609.5,-362.39 616.5,-362.39"/>
</a>
</g>
</g>
<!-- fbb1a7e214404901b674738a1c4d92cf&#45;&gt;2020828e348a4e11bd4bfef1fc87605e -->
<g id="edge8" class="edge">
<title>fbb1a7e214404901b674738a1c4d92cf&#45;&gt;2020828e348a4e11bd4bfef1fc87605e</title>
<g id="a_edge8"><a xlink:title="spec.selector:&#10; &#160;app: cartservice">
<path fill="none" stroke="black" stroke-dasharray="5,2" d="M613,-596.46C613,-596.46 613,-553.19 613,-553.19"/>
<polygon fill="black" stroke="black" points="616.5,-553.19 613,-543.19 609.5,-553.19 616.5,-553.19"/>
</a>
</g>
<text text-anchor="middle" x="590.88" y="-576.57" font-family="Sans-Serif" font-size="10.00" fill="#2d3436">7070/TCP</text>
</g>
<!-- 6bb4b46dce27444c9bc4fba0a8b2d753 -->
<g id="node16" class="node">
<title>6bb4b46dce27444c9bc4fba0a8b2d753</title>
<g id="a_node16"><a xlink:title="kind: Deployment&#10;apiVersion: apps/v1&#10;metadata:&#10; &#160;name: redis&#45;cart&#10;...">
<image xlink:href="https://raw.githubusercontent.com/mingrammer/diagrams/refs/heads/master/resources/k8s/compute/deploy.png" width="100.8px" height="100.8px" preserveAspectRatio="xMinYMin meet" x="562.6" y="-142.8"/>
<text text-anchor="middle" x="613" y="-25.15" font-family="Sans-Serif" font-size="13.00" fill="#2d3436">redis&#45;cart</text>
</a>
</g>
</g>
<!-- 9502af866d144961a97e94d4b64418f4&#45;&gt;6bb4b46dce27444c9bc4fba0a8b2d753 -->
<g id="edge9" class="edge">
<title>9502af866d144961a97e94d4b64418f4&#45;&gt;6bb4b46dce27444c9bc4fba0a8b2d753</title>
<g id="a_edge9"><a xlink:title="spec.selector:&#10; &#160;app: redis&#45;cart">
<path fill="none" stroke="black" stroke-dasharray="5,2" d="M613,-214.86C613,-214.86 613,-171.59 613,-171.59"/>
<polygon fill="black" stroke="black" points="616.5,-171.59 613,-161.59 609.5,-171.59 616.5,-171.59"/>
</a>
</g>
<text text-anchor="middle" x="590.88" y="-194.97" font-family="Sans-Serif" font-size="10.00" fill="#2d3436">6379/TCP</text>
</g>
<!-- 6cdd13bcc7994f5aa684c18efc977e9b -->
<g id="node18" class="node">
<title>6cdd13bcc7994f5aa684c18efc977e9b</title>
<g id="a_node18"><a xlink:title="kind: Deployment&#10;apiVersion: apps/v1&#10;metadata:&#10; &#160;name: loadgenerator&#10;...">
<image xlink:href="https://raw.githubusercontent.com/mingrammer/diagrams/refs/heads/master/resources/k8s/compute/deploy.png" width="100.8px" height="100.8px" preserveAspectRatio="xMinYMin meet" x="634.6" y="-1698"/>
<text text-anchor="middle" x="685" y="-1580.35" font-family="Sans-Serif" font-size="13.00" fill="#2d3436">loadgenerator</text>
</a>
</g>
</g>
<!-- 6cdd13bcc7994f5aa684c18efc977e9b&#45;&gt;7696aa2af73f45a48cc90d9982cbeae1 -->
<g id="edge27" class="edge">
<title>6cdd13bcc7994f5aa684c18efc977e9b&#45;&gt;7696aa2af73f45a48cc90d9982cbeae1</title>
<g id="a_edge27"><a xlink:title="from: loadgenerator/default/Deployment/apps/v1&#10;to: frontend/default/Service/v1">
<path fill="none" stroke="brown" d="M685,-1579.27C685,-1579.27 685,-1521.78 685,-1521.78"/>
<polygon fill="brown" stroke="brown" points="688.5,-1521.78 685,-1511.78 681.5,-1521.78 688.5,-1521.78"/>
</a>
</g>
</g>
<!-- e90aeefba3464ee1bfdb6bdfee82e195 -->
<g id="node19" class="node">
<title>e90aeefba3464ee1bfdb6bdfee82e195</title>
<g id="a_node19"><a xlink:title="kind: Deployment&#10;apiVersion: apps/v1&#10;metadata:&#10; &#160;name: currencyservice&#10;...">
<image xlink:href="https://raw.githubusercontent.com/mingrammer/diagrams/refs/heads/master/resources/k8s/compute/deploy.png" width="100.8px" height="100.8px" preserveAspectRatio="xMinYMin meet" x="708.6" y="-524.4"/>
<text text-anchor="middle" x="759" y="-406.75" font-family="Sans-Serif" font-size="13.00" fill="#2d3436">currencyservice</text>
</a>
</g>
</g>
<!-- b0aaeae2bc9d49e6b5ba9710857b51ad&#45;&gt;e90aeefba3464ee1bfdb6bdfee82e195 -->
<g id="edge10" class="edge">
<title>b0aaeae2bc9d49e6b5ba9710857b51ad&#45;&gt;e90aeefba3464ee1bfdb6bdfee82e195</title>
<g id="a_edge10"><a xlink:title="spec.selector:&#10; &#160;app: currencyservice">
<path fill="none" stroke="black" stroke-dasharray="5,2" d="M759,-596.46C759,-596.46 759,-553.19 759,-553.19"/>
<polygon fill="black" stroke="black" points="762.5,-553.19 759,-543.19 755.5,-553.19 762.5,-553.19"/>
</a>
</g>
<text text-anchor="middle" x="736.88" y="-576.57" font-family="Sans-Serif" font-size="10.00" fill="#2d3436">7000/TCP</text>
</g>
<!-- 9f4b9e1af45f43d4a53e61f2e38ba828 -->
<g id="node21" class="node">
<title>9f4b9e1af45f43d4a53e61f2e38ba828</title>
<g id="a_node21"><a xlink:title="kind: Deployment&#10;apiVersion: apps/v1&#10;metadata:&#10; &#160;name: shippingservice&#10;...">
<image xlink:href="https://raw.githubusercontent.com/mingrammer/diagrams/refs/heads/master/resources/k8s/compute/deploy.png" width="100.8px" height="100.8px" preserveAspectRatio="xMinYMin meet" x="882.6" y="-524.4"/>
<text text-anchor="middle" x="933" y="-406.75" font-family="Sans-Serif" font-size="13.00" fill="#2d3436">shippingservice</text>
</a>
</g>
</g>
<!-- 201001be06e74a2697bdad19eb9b76b8&#45;&gt;9f4b9e1af45f43d4a53e61f2e38ba828 -->
<g id="edge11" class="edge">
<title>201001be06e74a2697bdad19eb9b76b8&#45;&gt;9f4b9e1af45f43d4a53e61f2e38ba828</title>
<g id="a_edge11"><a xlink:title="spec.selector:&#10; &#160;app: shippingservice">
<path fill="none" stroke="black" stroke-dasharray="5,2" d="M933,-596.46C933,-596.46 933,-553.19 933,-553.19"/>
<polygon fill="black" stroke="black" points="936.5,-553.19 933,-543.19 929.5,-553.19 936.5,-553.19"/>
</a>
</g>
<text text-anchor="middle" x="908.25" y="-576.57" font-family="Sans-Serif" font-size="10.00" fill="#2d3436">50051/TCP</text>
</g>
<!-- 6393ffc56bde4067944d658341ce442e -->
<g id="node23" class="node">
<title>6393ffc56bde4067944d658341ce442e</title>
<g id="a_node23"><a xlink:title="kind: Deployment&#10;apiVersion: apps/v1&#10;metadata:&#10; &#160;name: adservice&#10;...">
<image xlink:href="https://raw.githubusercontent.com/mingrammer/diagrams/refs/heads/master/resources/k8s/compute/deploy.png" width="100.8px" height="100.8px" preserveAspectRatio="xMinYMin meet" x="746.6" y="-906"/>
<text text-anchor="middle" x="797" y="-788.35" font-family="Sans-Serif" font-size="13.00" fill="#2d3436">adservice</text>
</a>
</g>
</g>
<!-- 602bdddb8ac14c40baa194e028b6fa03&#45;&gt;6393ffc56bde4067944d658341ce442e -->
<g id="edge12" class="edge">
<title>602bdddb8ac14c40baa194e028b6fa03&#45;&gt;6393ffc56bde4067944d658341ce442e</title>
<g id="a_edge12"><a xlink:title="spec.selector:&#10; &#160;app: adservice">
<path fill="none" stroke="black" stroke-dasharray="5,2" d="M797,-978.06C797,-978.06 797,-934.79 797,-934.79"/>
<polygon fill="black" stroke="black" points="800.5,-934.79 797,-924.79 793.5,-934.79 800.5,-934.79"/>
</a>
</g>
<text text-anchor="middle" x="774.88" y="-958.17" font-family="Sans-Serif" font-size="10.00" fill="#2d3436">9555/TCP</text>
</g>
</g>
</svg>
