<?xml version="1.0" encoding="UTF-8" standalone="no"?>
<!DOCTYPE svg PUBLIC "-//W3C//DTD SVG 1.1//EN"
 "http://www.w3.org/Graphics/SVG/1.1/DTD/svg11.dtd">
<!-- Generated by graphviz version 8.1.0 (20230707.0739)
 -->
<!-- Pages: 1 -->
<svg width="1329pt" height="2017pt"
 viewBox="0.00 0.00 1329.00 2016.75" xmlns="http://www.w3.org/2000/svg" xmlns:xlink="http://www.w3.org/1999/xlink">
<g id="graph0" class="graph" transform="scale(1 1) rotate(0) translate(144 1872.75)">
<polygon fill="white" stroke="none" points="-144,144 -144,-1872.75 1185,-1872.75 1185,144 -144,144"/>
<g id="clust1" class="cluster">
<title>cluster_Application: adservice</title>
<g id="a_clust1"><a xlink:title="Application: adservice">
<path fill="#ece8f6" stroke="#aeb6be" d="M204,-755.2C204,-755.2 313,-755.2 313,-755.2 319,-755.2 325,-761.2 325,-767.2 325,-767.2 325,-1107.55 325,-1107.55 325,-1113.55 319,-1119.55 313,-1119.55 313,-1119.55 204,-1119.55 204,-1119.55 198,-1119.55 192,-1113.55 192,-1107.55 192,-1107.55 192,-767.2 192,-767.2 192,-761.2 198,-755.2 204,-755.2"/>
<text text-anchor="middle" x="258.88" y="-1104.15" font-family="Sans-Serif" font-size="12.00" fill="#2d3436">Application: adservice</text>
</a>
</g>
</g>
<g id="clust2" class="cluster">
<title>cluster_Application: cartservice</title>
<g id="a_clust2"><a xlink:title="Application: cartservice">
<path fill="#ece8f6" stroke="#aeb6be" d="M20,-373.6C20,-373.6 135,-373.6 135,-373.6 141,-373.6 147,-379.6 147,-385.6 147,-385.6 147,-725.95 147,-725.95 147,-731.95 141,-737.95 135,-737.95 135,-737.95 20,-737.95 20,-737.95 14,-737.95 8,-731.95 8,-725.95 8,-725.95 8,-385.6 8,-385.6 8,-379.6 14,-373.6 20,-373.6"/>
<text text-anchor="middle" x="77.88" y="-722.55" font-family="Sans-Serif" font-size="12.00" fill="#2d3436">Application: cartservice</text>
</a>
</g>
</g>
<g id="clust3" class="cluster">
<title>cluster_Application: checkoutservice</title>
<g id="a_clust3"><a xlink:title="Application: checkoutservice">
<path fill="#ece8f6" stroke="#aeb6be" d="M416,-755.2C416,-755.2 560,-755.2 560,-755.2 566,-755.2 572,-761.2 572,-767.2 572,-767.2 572,-1107.55 572,-1107.55 572,-1113.55 566,-1119.55 560,-1119.55 560,-1119.55 416,-1119.55 416,-1119.55 410,-1119.55 404,-1113.55 404,-1107.55 404,-1107.55 404,-767.2 404,-767.2 404,-761.2 410,-755.2 416,-755.2"/>
<text text-anchor="middle" x="488.12" y="-1104.15" font-family="Sans-Serif" font-size="12.00" fill="#2d3436">Application: checkoutservice</text>
</a>
</g>
</g>
<g id="clust4" class="cluster">
<title>cluster_Application: currencyservice</title>
<g id="a_clust4"><a xlink:title="Application: currencyservice">
<path fill="#ece8f6" stroke="#aeb6be" d="M498,-373.6C498,-373.6 640,-373.6 640,-373.6 646,-373.6 652,-379.6 652,-385.6 652,-385.6 652,-725.95 652,-725.95 652,-731.95 646,-737.95 640,-737.95 640,-737.95 498,-737.95 498,-737.95 492,-737.95 486,-731.95 486,-725.95 486,-725.95 486,-385.6 486,-385.6 486,-379.6 492,-373.6 498,-373.6"/>
<text text-anchor="middle" x="569" y="-722.55" font-family="Sans-Serif" font-size="12.00" fill="#2d3436">Application: currencyservice</text>
</a>
</g>
</g>
<g id="clust5" class="cluster">
<title>cluster_Application: emailservice</title>
<g id="a_clust5"><a xlink:title="Application: emailservice">
<path fill="#ece8f6" stroke="#aeb6be" d="M167,-373.6C167,-373.6 292,-373.6 292,-373.6 298,-373.6 304,-379.6 304,-385.6 304,-385.6 304,-725.95 304,-725.95 304,-731.95 298,-737.95 292,-737.95 292,-737.95 167,-737.95 167,-737.95 161,-737.95 155,-731.95 155,-725.95 155,-725.95 155,-385.6 155,-385.6 155,-379.6 161,-373.6 167,-373.6"/>
<text text-anchor="middle" x="229.75" y="-722.55" font-family="Sans-Serif" font-size="12.00" fill="#2d3436">Application: emailservice</text>
</a>
</g>
</g>
<g id="clust6" class="cluster">
<title>cluster_Application: frontend</title>
<g id="a_clust6"><a xlink:title="Application: frontend">
<path fill="#ece8f6" stroke="#aeb6be" d="M552,-1136.8C552,-1136.8 653,-1136.8 653,-1136.8 659,-1136.8 665,-1142.8 665,-1148.8 665,-1148.8 665,-1503.55 665,-1503.55 665,-1509.55 659,-1515.55 653,-1515.55 653,-1515.55 552,-1515.55 552,-1515.55 546,-1515.55 540,-1509.55 540,-1503.55 540,-1503.55 540,-1148.8 540,-1148.8 540,-1142.8 546,-1136.8 552,-1136.8"/>
<text text-anchor="middle" x="602.75" y="-1500.15" font-family="Sans-Serif" font-size="12.00" fill="#2d3436">Application: frontend</text>
</a>
</g>
</g>
<g id="clust7" class="cluster">
<title>cluster_Application: paymentservice</title>
<g id="a_clust7"><a xlink:title="Application: paymentservice">
<path fill="#ece8f6" stroke="#aeb6be" d="M324,-373.6C324,-373.6 466,-373.6 466,-373.6 472,-373.6 478,-379.6 478,-385.6 478,-385.6 478,-725.95 478,-725.95 478,-731.95 472,-737.95 466,-737.95 466,-737.95 324,-737.95 324,-737.95 318,-737.95 312,-731.95 312,-725.95 312,-725.95 312,-385.6 312,-385.6 312,-379.6 318,-373.6 324,-373.6"/>
<text text-anchor="middle" x="395" y="-722.55" font-family="Sans-Serif" font-size="12.00" fill="#2d3436">Application: paymentservice</text>
</a>
</g>
</g>
<g id="clust8" class="cluster">
<title>cluster_Application: productcatalogservice</title>
<g id="a_clust8"><a xlink:title="Application: productcatalogservice">
<path fill="#ece8f6" stroke="#aeb6be" d="M846,-373.6C846,-373.6 1021,-373.6 1021,-373.6 1027,-373.6 1033,-379.6 1033,-385.6 1033,-385.6 1033,-725.95 1033,-725.95 1033,-731.95 1027,-737.95 1021,-737.95 1021,-737.95 846,-737.95 846,-737.95 840,-737.95 834,-731.95 834,-725.95 834,-725.95 834,-385.6 834,-385.6 834,-379.6 840,-373.6 846,-373.6"/>
<text text-anchor="middle" x="933.5" y="-722.55" font-family="Sans-Serif" font-size="12.00" fill="#2d3436">Application: productcatalogservice</text>
</a>
</g>
</g>
<g id="clust9" class="cluster">
<title>cluster_Application: recommendationservice</title>
<g id="a_clust9"><a xlink:title="Application: recommendationservice">
<path fill="#ece8f6" stroke="#aeb6be" d="M827,-755.2C827,-755.2 1012,-755.2 1012,-755.2 1018,-755.2 1024,-761.2 1024,-767.2 1024,-767.2 1024,-1107.55 1024,-1107.55 1024,-1113.55 1018,-1119.55 1012,-1119.55 1012,-1119.55 827,-1119.55 827,-1119.55 821,-1119.55 815,-1113.55 815,-1107.55 815,-1107.55 815,-767.2 815,-767.2 815,-761.2 821,-755.2 827,-755.2"/>
<text text-anchor="middle" x="919.75" y="-1104.15" font-family="Sans-Serif" font-size="12.00" fill="#2d3436">Application: recommendationservice</text>
</a>
</g>
</g>
<g id="clust10" class="cluster">
<title>cluster_Application: shippingservice</title>
<g id="a_clust10"><a xlink:title="Application: shippingservice">
<path fill="#ece8f6" stroke="#aeb6be" d="M672,-373.6C672,-373.6 814,-373.6 814,-373.6 820,-373.6 826,-379.6 826,-385.6 826,-385.6 826,-725.95 826,-725.95 826,-731.95 820,-737.95 814,-737.95 814,-737.95 672,-737.95 672,-737.95 666,-737.95 660,-731.95 660,-725.95 660,-725.95 660,-385.6 660,-385.6 660,-379.6 666,-373.6 672,-373.6"/>
<text text-anchor="middle" x="743" y="-722.55" font-family="Sans-Serif" font-size="12.00" fill="#2d3436">Application: shippingservice</text>
</a>
</g>
</g>
<g id="clust11" class="cluster">
<title>cluster_Application: loadgenerator</title>
<g id="a_clust11"><a xlink:title="Application: loadgenerator">
<path fill="#ece8f6" stroke="#aeb6be" d="M534,-1547.2C534,-1547.2 666,-1547.2 666,-1547.2 672,-1547.2 678,-1553.2 678,-1559.2 678,-1559.2 678,-1708.75 678,-1708.75 678,-1714.75 672,-1720.75 666,-1720.75 666,-1720.75 534,-1720.75 534,-1720.75 528,-1720.75 522,-1714.75 522,-1708.75 522,-1708.75 522,-1559.2 522,-1559.2 522,-1553.2 528,-1547.2 534,-1547.2"/>
<text text-anchor="middle" x="600.12" y="-1705.35" font-family="Sans-Serif" font-size="12.00" fill="#2d3436">Application: loadgenerator</text>
</a>
</g>
</g>
<!-- 830ba77ded2744aba67c1ef93d3309cb -->
<g id="node1" class="node">
<title>830ba77ded2744aba67c1ef93d3309cb</title>
<g id="a_node1"><a xlink:title="kind: Service&#10;apiVersion: v1&#10;metadata:&#10; &#160;name: redis&#45;cart&#10;...">
<image xlink:href="https://raw.githubusercontent.com/mingrammer/diagrams/refs/heads/master/resources/k8s/network/svc.png" width="100.8px" height="100.8px" preserveAspectRatio="xMinYMin meet" x="38.6" y="-309.6"/>
<text text-anchor="middle" x="89" y="-191.95" font-family="Sans-Serif" font-size="13.00" fill="#2d3436">redis&#45;cart</text>
</a>
</g>
</g>
<!-- 7b4c0fbeacc146a7839354791ad2150e -->
<g id="node3" class="node">
<title>7b4c0fbeacc146a7839354791ad2150e</title>
<g id="a_node3"><a xlink:title="kind: Deployment&#10;apiVersion: apps/v1&#10;metadata:&#10; &#160;name: redis&#45;cart&#10;...">
<image xlink:href="https://raw.githubusercontent.com/mingrammer/diagrams/refs/heads/master/resources/k8s/compute/deploy.png" width="100.8px" height="100.8px" preserveAspectRatio="xMinYMin meet" x="38.6" y="-118.8"/>
<text text-anchor="middle" x="89" y="-1.15" font-family="Sans-Serif" font-size="13.00" fill="#2d3436">redis&#45;cart</text>
</a>
</g>
</g>
<!-- 830ba77ded2744aba67c1ef93d3309cb&#45;&gt;7b4c0fbeacc146a7839354791ad2150e -->
<g id="edge3" class="edge">
<title>830ba77ded2744aba67c1ef93d3309cb&#45;&gt;7b4c0fbeacc146a7839354791ad2150e</title>
<g id="a_edge3"><a xlink:title="spec.selector:&#10; &#160;app: redis&#45;cart">
<path fill="none" stroke="black" stroke-dasharray="5,2" d="M89,-190.86C89,-190.86 89,-147.59 89,-147.59"/>
<polygon fill="black" stroke="black" points="92.5,-147.59 89,-137.59 85.5,-147.59 92.5,-147.59"/>
</a>
</g>
<text text-anchor="middle" x="66.88" y="-170.97" font-family="Sans-Serif" font-size="10.00" fill="#2d3436">6379/TCP</text>
</g>
<!-- ea0a57d14f5d4b7b88e4ed6b8919bcca -->
<g id="node2" class="node">
<title>ea0a57d14f5d4b7b88e4ed6b8919bcca</title>
<g id="a_node2"><a xlink:title="kind: Service&#10;apiVersion: v1&#10;metadata:&#10; &#160;name: frontend&#45;external&#10;...">
<image xlink:href="https://raw.githubusercontent.com/mingrammer/diagrams/refs/heads/master/resources/k8s/network/svc.png" width="100.8px" height="100.8px" preserveAspectRatio="xMinYMin meet" x="693.6" y="-1468.8"/>
<text text-anchor="middle" x="744" y="-1350.25" font-family="Sans-Serif" font-size="13.00" fill="#2d3436">frontend</text>
<text text-anchor="middle" x="744" y="-1336.75" font-family="Sans-Serif" font-size="13.00" fill="#2d3436">&#45;external</text>
</a>
</g>
</g>
<!-- 742342e852f0434c907f1e01ccce7fd7 -->
<g id="node15" class="node">
<title>742342e852f0434c907f1e01ccce7fd7</title>
<g id="a_node15"><a xlink:title="kind: Deployment&#10;apiVersion: apps/v1&#10;metadata:&#10; &#160;name: frontend&#10;...">
<image xlink:href="https://raw.githubusercontent.com/mingrammer/diagrams/refs/heads/master/resources/k8s/compute/deploy.png" width="100.8px" height="100.8px" preserveAspectRatio="xMinYMin meet" x="552.6" y="-1263.6"/>
<text text-anchor="middle" x="603" y="-1145.95" font-family="Sans-Serif" font-size="13.00" fill="#2d3436">frontend</text>
</a>
</g>
</g>
<!-- ea0a57d14f5d4b7b88e4ed6b8919bcca&#45;&gt;742342e852f0434c907f1e01ccce7fd7 -->
<g id="edge8" class="edge">
<title>ea0a57d14f5d4b7b88e4ed6b8919bcca&#45;&gt;742342e852f0434c907f1e01ccce7fd7</title>
<g id="a_edge8"><a xlink:title="spec.selector:&#10; &#160;app: frontend">
<path fill="none" stroke="black" stroke-dasharray="5,2" d="M693.76,-1342C658.57,-1342 617.8,-1342 617.8,-1342 617.8,-1342 617.8,-1292.37 617.8,-1292.37"/>
<polygon fill="black" stroke="black" points="621.3,-1292.37 617.8,-1282.37 614.3,-1292.37 621.3,-1292.37"/>
</a>
</g>
<text text-anchor="middle" x="599.09" y="-1332.5" font-family="Sans-Serif" font-size="10.00" fill="#2d3436">80&#45;&gt;8080/TCP</text>
</g>
<!-- af9f4b2d4a3f428d808ea1c8c5ec5101 -->
<g id="node4" class="node">
<title>af9f4b2d4a3f428d808ea1c8c5ec5101</title>
<g id="a_node4"><a xlink:title="kind: Service&#10;apiVersion: v1&#10;metadata:&#10; &#160;name: adservice&#10;...">
<image xlink:href="https://raw.githubusercontent.com/mingrammer/diagrams/refs/heads/master/resources/k8s/network/svc.png" width="100.8px" height="100.8px" preserveAspectRatio="xMinYMin meet" x="207.6" y="-1072.8"/>
<text text-anchor="middle" x="258" y="-955.15" font-family="Sans-Serif" font-size="13.00" fill="#2d3436">adservice</text>
</a>
</g>
</g>
<!-- bbcef3d0e21d41e9bad29b6408b00074 -->
<g id="node5" class="node">
<title>bbcef3d0e21d41e9bad29b6408b00074</title>
<g id="a_node5"><a xlink:title="kind: Deployment&#10;apiVersion: apps/v1&#10;metadata:&#10; &#160;name: adservice&#10;...">
<image xlink:href="https://raw.githubusercontent.com/mingrammer/diagrams/refs/heads/master/resources/k8s/compute/deploy.png" width="100.8px" height="100.8px" preserveAspectRatio="xMinYMin meet" x="207.6" y="-882"/>
<text text-anchor="middle" x="258" y="-764.35" font-family="Sans-Serif" font-size="13.00" fill="#2d3436">adservice</text>
</a>
</g>
</g>
<!-- af9f4b2d4a3f428d808ea1c8c5ec5101&#45;&gt;bbcef3d0e21d41e9bad29b6408b00074 -->
<g id="edge1" class="edge">
<title>af9f4b2d4a3f428d808ea1c8c5ec5101&#45;&gt;bbcef3d0e21d41e9bad29b6408b00074</title>
<g id="a_edge1"><a xlink:title="spec.selector:&#10; &#160;app: adservice">
<path fill="none" stroke="black" stroke-dasharray="5,2" d="M258,-954.06C258,-954.06 258,-910.79 258,-910.79"/>
<polygon fill="black" stroke="black" points="261.5,-910.79 258,-900.79 254.5,-910.79 261.5,-910.79"/>
</a>
</g>
<text text-anchor="middle" x="235.88" y="-934.17" font-family="Sans-Serif" font-size="10.00" fill="#2d3436">9555/TCP</text>
</g>
<!-- cc98cf5861504283b29af001078fc505 -->
<g id="node6" class="node">
<title>cc98cf5861504283b29af001078fc505</title>
<g id="a_node6"><a xlink:title="kind: Service&#10;apiVersion: v1&#10;metadata:&#10; &#160;name: cartservice&#10;...">
<image xlink:href="https://raw.githubusercontent.com/mingrammer/diagrams/refs/heads/master/resources/k8s/network/svc.png" width="100.8px" height="100.8px" preserveAspectRatio="xMinYMin meet" x="38.6" y="-691.2"/>
<text text-anchor="middle" x="89" y="-573.55" font-family="Sans-Serif" font-size="13.00" fill="#2d3436">cartservice</text>
</a>
</g>
</g>
<!-- 43a180d3b4f542299e6210640d042aa1 -->
<g id="node7" class="node">
<title>43a180d3b4f542299e6210640d042aa1</title>
<g id="a_node7"><a xlink:title="kind: Deployment&#10;apiVersion: apps/v1&#10;metadata:&#10; &#160;name: cartservice&#10;...">
<image xlink:href="https://raw.githubusercontent.com/mingrammer/diagrams/refs/heads/master/resources/k8s/compute/deploy.png" width="100.8px" height="100.8px" preserveAspectRatio="xMinYMin meet" x="38.6" y="-500.4"/>
<text text-anchor="middle" x="89" y="-382.75" font-family="Sans-Serif" font-size="13.00" fill="#2d3436">cartservice</text>
</a>
</g>
</g>
<!-- cc98cf5861504283b29af001078fc505&#45;&gt;43a180d3b4f542299e6210640d042aa1 -->
<g id="edge2" class="edge">
<title>cc98cf5861504283b29af001078fc505&#45;&gt;43a180d3b4f542299e6210640d042aa1</title>
<g id="a_edge2"><a xlink:title="spec.selector:&#10; &#160;app: cartservice">
<path fill="none" stroke="black" stroke-dasharray="5,2" d="M89,-572.46C89,-572.46 89,-529.19 89,-529.19"/>
<polygon fill="black" stroke="black" points="92.5,-529.19 89,-519.19 85.5,-529.19 92.5,-529.19"/>
</a>
</g>
<text text-anchor="middle" x="66.88" y="-552.57" font-family="Sans-Serif" font-size="10.00" fill="#2d3436">7070/TCP</text>
</g>
<!-- 43a180d3b4f542299e6210640d042aa1&#45;&gt;830ba77ded2744aba67c1ef93d3309cb -->
<g id="edge28" class="edge">
<title>43a180d3b4f542299e6210640d042aa1&#45;&gt;830ba77ded2744aba67c1ef93d3309cb</title>
<g id="a_edge28"><a xlink:title="from: cartservice/default/Deployment/apps/v1&#10;to: redis&#45;cart/default/Service/v1">
<path fill="none" stroke="brown" d="M89,-381.66C89,-381.66 89,-338.39 89,-338.39"/>
<polygon fill="brown" stroke="brown" points="92.5,-338.39 89,-328.39 85.5,-338.39 92.5,-338.39"/>
</a>
</g>
</g>
<!-- 591d4715bdb04385bb51c2bf4b5dffb9 -->
<g id="node8" class="node">
<title>591d4715bdb04385bb51c2bf4b5dffb9</title>
<g id="a_node8"><a xlink:title="kind: Service&#10;apiVersion: v1&#10;metadata:&#10; &#160;name: checkoutservice&#10;...">
<image xlink:href="https://raw.githubusercontent.com/mingrammer/diagrams/refs/heads/master/resources/k8s/network/svc.png" width="100.8px" height="100.8px" preserveAspectRatio="xMinYMin meet" x="437.6" y="-1072.8"/>
<text text-anchor="middle" x="488" y="-955.15" font-family="Sans-Serif" font-size="13.00" fill="#2d3436">checkoutservice</text>
</a>
</g>
</g>
<!-- 260d4e0933de44b3b907d92b87afb96a -->
<g id="node9" class="node">
<title>260d4e0933de44b3b907d92b87afb96a</title>
<g id="a_node9"><a xlink:title="kind: Deployment&#10;apiVersion: apps/v1&#10;metadata:&#10; &#160;name: checkoutservice&#10;...">
<image xlink:href="https://raw.githubusercontent.com/mingrammer/diagrams/refs/heads/master/resources/k8s/compute/deploy.png" width="100.8px" height="100.8px" preserveAspectRatio="xMinYMin meet" x="437.6" y="-882"/>
<text text-anchor="middle" x="488" y="-764.35" font-family="Sans-Serif" font-size="13.00" fill="#2d3436">checkoutservice</text>
</a>
</g>
</g>
<!-- 591d4715bdb04385bb51c2bf4b5dffb9&#45;&gt;260d4e0933de44b3b907d92b87afb96a -->
<g id="edge4" class="edge">
<title>591d4715bdb04385bb51c2bf4b5dffb9&#45;&gt;260d4e0933de44b3b907d92b87afb96a</title>
<g id="a_edge4"><a xlink:title="spec.selector:&#10; &#160;app: checkoutservice">
<path fill="none" stroke="black" stroke-dasharray="5,2" d="M488,-954.06C488,-954.06 488,-910.79 488,-910.79"/>
<polygon fill="black" stroke="black" points="491.5,-910.79 488,-900.79 484.5,-910.79 491.5,-910.79"/>
</a>
</g>
<text text-anchor="middle" x="465.88" y="-934.17" font-family="Sans-Serif" font-size="10.00" fill="#2d3436">5050/TCP</text>
</g>
<!-- 260d4e0933de44b3b907d92b87afb96a&#45;&gt;cc98cf5861504283b29af001078fc505 -->
<g id="edge18" class="edge">
<title>260d4e0933de44b3b907d92b87afb96a&#45;&gt;cc98cf5861504283b29af001078fc505</title>
<g id="a_edge18"><a xlink:title="from: checkoutservice/default/Deployment/apps/v1&#10;to: cartservice/default/Service/v1">
<path fill="none" stroke="brown" d="M445.8,-763.27C445.8,-744.89 445.8,-730 445.8,-730 445.8,-730 105.8,-730 105.8,-730 105.8,-730 105.8,-719.86 105.8,-719.86"/>
<polygon fill="brown" stroke="brown" points="109.3,-719.86 105.8,-709.86 102.3,-719.86 109.3,-719.86"/>
</a>
</g>
</g>
<!-- 405e0426222942e9be4ee474b9bbb40f -->
<g id="node10" class="node">
<title>405e0426222942e9be4ee474b9bbb40f</title>
<g id="a_node10"><a xlink:title="kind: Service&#10;apiVersion: v1&#10;metadata:&#10; &#160;name: currencyservice&#10;...">
<image xlink:href="https://raw.githubusercontent.com/mingrammer/diagrams/refs/heads/master/resources/k8s/network/svc.png" width="100.8px" height="100.8px" preserveAspectRatio="xMinYMin meet" x="518.6" y="-691.2"/>
<text text-anchor="middle" x="569" y="-573.55" font-family="Sans-Serif" font-size="13.00" fill="#2d3436">currencyservice</text>
</a>
</g>
</g>
<!-- 260d4e0933de44b3b907d92b87afb96a&#45;&gt;405e0426222942e9be4ee474b9bbb40f -->
<g id="edge17" class="edge">
<title>260d4e0933de44b3b907d92b87afb96a&#45;&gt;405e0426222942e9be4ee474b9bbb40f</title>
<g id="a_edge17"><a xlink:title="from: checkoutservice/default/Deployment/apps/v1&#10;to: currencyservice/default/Service/v1">
<path fill="none" stroke="brown" d="M525.2,-763.26C525.2,-763.26 525.2,-719.99 525.2,-719.99"/>
<polygon fill="brown" stroke="brown" points="528.7,-719.99 525.2,-709.99 521.7,-719.99 528.7,-719.99"/>
</a>
</g>
</g>
<!-- 793738be1b124e68a3bce92ee54b2407 -->
<g id="node12" class="node">
<title>793738be1b124e68a3bce92ee54b2407</title>
<g id="a_node12"><a xlink:title="kind: Service&#10;apiVersion: v1&#10;metadata:&#10; &#160;name: emailservice&#10;...">
<image xlink:href="https://raw.githubusercontent.com/mingrammer/diagrams/refs/heads/master/resources/k8s/network/svc.png" width="100.8px" height="100.8px" preserveAspectRatio="xMinYMin meet" x="195.6" y="-691.2"/>
<text text-anchor="middle" x="246" y="-573.55" font-family="Sans-Serif" font-size="13.00" fill="#2d3436">emailservice</text>
</a>
</g>
</g>
<!-- 260d4e0933de44b3b907d92b87afb96a&#45;&gt;793738be1b124e68a3bce92ee54b2407 -->
<g id="edge16" class="edge">
<title>260d4e0933de44b3b907d92b87afb96a&#45;&gt;793738be1b124e68a3bce92ee54b2407</title>
<g id="a_edge16"><a xlink:title="from: checkoutservice/default/Deployment/apps/v1&#10;to: emailservice/default/Service/v1">
<path fill="none" stroke="brown" d="M454,-763.5C454,-739.79 454,-719 454,-719 454,-719 252,-719 252,-719 252,-719 252,-718.01 252,-718.01"/>
<polygon fill="brown" stroke="brown" points="255.5,-720.1 252,-710.1 248.5,-720.1 255.5,-720.1"/>
</a>
</g>
</g>
<!-- ceb89ec5ecce410095db2be652ebeac5 -->
<g id="node16" class="node">
<title>ceb89ec5ecce410095db2be652ebeac5</title>
<g id="a_node16"><a xlink:title="kind: Service&#10;apiVersion: v1&#10;metadata:&#10; &#160;name: paymentservice&#10;...">
<image xlink:href="https://raw.githubusercontent.com/mingrammer/diagrams/refs/heads/master/resources/k8s/network/svc.png" width="100.8px" height="100.8px" preserveAspectRatio="xMinYMin meet" x="369.6" y="-691.2"/>
<text text-anchor="middle" x="420" y="-573.55" font-family="Sans-Serif" font-size="13.00" fill="#2d3436">paymentservice</text>
</a>
</g>
</g>
<!-- 260d4e0933de44b3b907d92b87afb96a&#45;&gt;ceb89ec5ecce410095db2be652ebeac5 -->
<g id="edge15" class="edge">
<title>260d4e0933de44b3b907d92b87afb96a&#45;&gt;ceb89ec5ecce410095db2be652ebeac5</title>
<g id="a_edge15"><a xlink:title="from: checkoutservice/default/Deployment/apps/v1&#10;to: paymentservice/default/Service/v1">
<path fill="none" stroke="brown" d="M462.2,-763.26C462.2,-763.26 462.2,-719.99 462.2,-719.99"/>
<polygon fill="brown" stroke="brown" points="465.7,-719.99 462.2,-709.99 458.7,-719.99 465.7,-719.99"/>
</a>
</g>
</g>
<!-- 3fd798def0b949f58e9db1aa7083ccc2 -->
<g id="node18" class="node">
<title>3fd798def0b949f58e9db1aa7083ccc2</title>
<g id="a_node18"><a xlink:title="kind: Service&#10;apiVersion: v1&#10;metadata:&#10; &#160;name: productcatalogservice&#10;...">
<image xlink:href="https://raw.githubusercontent.com/mingrammer/diagrams/refs/heads/master/resources/k8s/network/svc.png" width="100.8px" height="100.8px" preserveAspectRatio="xMinYMin meet" x="841.6" y="-691.2"/>
<text text-anchor="middle" x="892" y="-573.55" font-family="Sans-Serif" font-size="13.00" fill="#2d3436">productcatalogservice</text>
</a>
</g>
</g>
<!-- 260d4e0933de44b3b907d92b87afb96a&#45;&gt;3fd798def0b949f58e9db1aa7083ccc2 -->
<g id="edge13" class="edge">
<title>260d4e0933de44b3b907d92b87afb96a&#45;&gt;3fd798def0b949f58e9db1aa7083ccc2</title>
<g id="a_edge13"><a xlink:title="from: checkoutservice/default/Deployment/apps/v1&#10;to: productcatalogservice/default/Service/v1">
<path fill="none" stroke="brown" d="M531.8,-763.4C531.8,-750.52 531.8,-741 531.8,-741 531.8,-741 866.8,-741 866.8,-741 866.8,-741 866.8,-720.02 866.8,-720.02"/>
<polygon fill="brown" stroke="brown" points="870.3,-720.02 866.8,-710.02 863.3,-720.02 870.3,-720.02"/>
</a>
</g>
</g>
<!-- 45d207888ded46c49b0658c541b7f603 -->
<g id="node22" class="node">
<title>45d207888ded46c49b0658c541b7f603</title>
<g id="a_node22"><a xlink:title="kind: Service&#10;apiVersion: v1&#10;metadata:&#10; &#160;name: shippingservice&#10;...">
<image xlink:href="https://raw.githubusercontent.com/mingrammer/diagrams/refs/heads/master/resources/k8s/network/svc.png" width="100.8px" height="100.8px" preserveAspectRatio="xMinYMin meet" x="667.6" y="-691.2"/>
<text text-anchor="middle" x="718" y="-573.55" font-family="Sans-Serif" font-size="13.00" fill="#2d3436">shippingservice</text>
</a>
</g>
</g>
<!-- 260d4e0933de44b3b907d92b87afb96a&#45;&gt;45d207888ded46c49b0658c541b7f603 -->
<g id="edge14" class="edge">
<title>260d4e0933de44b3b907d92b87afb96a&#45;&gt;45d207888ded46c49b0658c541b7f603</title>
<g id="a_edge14"><a xlink:title="from: checkoutservice/default/Deployment/apps/v1&#10;to: shippingservice/default/Service/v1">
<path fill="none" stroke="brown" d="M537.96,-831C593.73,-831 676.27,-831 676.27,-831 676.27,-831 676.27,-720.2 676.27,-720.2"/>
<polygon fill="brown" stroke="brown" points="679.77,-720.2 676.27,-710.2 672.77,-720.2 679.77,-720.2"/>
</a>
</g>
</g>
<!-- 5dcff1c5c488440c8fddb4c8bd758f02 -->
<g id="node11" class="node">
<title>5dcff1c5c488440c8fddb4c8bd758f02</title>
<g id="a_node11"><a xlink:title="kind: Deployment&#10;apiVersion: apps/v1&#10;metadata:&#10; &#160;name: currencyservice&#10;...">
<image xlink:href="https://raw.githubusercontent.com/mingrammer/diagrams/refs/heads/master/resources/k8s/compute/deploy.png" width="100.8px" height="100.8px" preserveAspectRatio="xMinYMin meet" x="518.6" y="-500.4"/>
<text text-anchor="middle" x="569" y="-382.75" font-family="Sans-Serif" font-size="13.00" fill="#2d3436">currencyservice</text>
</a>
</g>
</g>
<!-- 405e0426222942e9be4ee474b9bbb40f&#45;&gt;5dcff1c5c488440c8fddb4c8bd758f02 -->
<g id="edge5" class="edge">
<title>405e0426222942e9be4ee474b9bbb40f&#45;&gt;5dcff1c5c488440c8fddb4c8bd758f02</title>
<g id="a_edge5"><a xlink:title="spec.selector:&#10; &#160;app: currencyservice">
<path fill="none" stroke="black" stroke-dasharray="5,2" d="M569,-572.46C569,-572.46 569,-529.19 569,-529.19"/>
<polygon fill="black" stroke="black" points="572.5,-529.19 569,-519.19 565.5,-529.19 572.5,-529.19"/>
</a>
</g>
<text text-anchor="middle" x="546.88" y="-552.57" font-family="Sans-Serif" font-size="10.00" fill="#2d3436">7000/TCP</text>
</g>
<!-- e98409827e4b4bf6a0d9223fbe118ffc -->
<g id="node13" class="node">
<title>e98409827e4b4bf6a0d9223fbe118ffc</title>
<g id="a_node13"><a xlink:title="kind: Deployment&#10;apiVersion: apps/v1&#10;metadata:&#10; &#160;name: emailservice&#10;...">
<image xlink:href="https://raw.githubusercontent.com/mingrammer/diagrams/refs/heads/master/resources/k8s/compute/deploy.png" width="100.8px" height="100.8px" preserveAspectRatio="xMinYMin meet" x="195.6" y="-500.4"/>
<text text-anchor="middle" x="246" y="-382.75" font-family="Sans-Serif" font-size="13.00" fill="#2d3436">emailservice</text>
</a>
</g>
</g>
<!-- 793738be1b124e68a3bce92ee54b2407&#45;&gt;e98409827e4b4bf6a0d9223fbe118ffc -->
<g id="edge6" class="edge">
<title>793738be1b124e68a3bce92ee54b2407&#45;&gt;e98409827e4b4bf6a0d9223fbe118ffc</title>
<g id="a_edge6"><a xlink:title="spec.selector:&#10; &#160;app: emailservice">
<path fill="none" stroke="black" stroke-dasharray="5,2" d="M246,-572.46C246,-572.46 246,-529.19 246,-529.19"/>
<polygon fill="black" stroke="black" points="249.5,-529.19 246,-519.19 242.5,-529.19 249.5,-529.19"/>
</a>
</g>
<text text-anchor="middle" x="208.88" y="-552.57" font-family="Sans-Serif" font-size="10.00" fill="#2d3436">5000&#45;&gt;8080/TCP</text>
</g>
<!-- 1f658e8424204419bf55e5c6919a401f -->
<g id="node14" class="node">
<title>1f658e8424204419bf55e5c6919a401f</title>
<g id="a_node14"><a xlink:title="kind: Service&#10;apiVersion: v1&#10;metadata:&#10; &#160;name: frontend&#10;...">
<image xlink:href="https://raw.githubusercontent.com/mingrammer/diagrams/refs/heads/master/resources/k8s/network/svc.png" width="100.8px" height="100.8px" preserveAspectRatio="xMinYMin meet" x="549.6" y="-1468.8"/>
<text text-anchor="middle" x="600" y="-1351.15" font-family="Sans-Serif" font-size="13.00" fill="#2d3436">frontend</text>
</a>
</g>
</g>
<!-- 1f658e8424204419bf55e5c6919a401f&#45;&gt;742342e852f0434c907f1e01ccce7fd7 -->
<g id="edge7" class="edge">
<title>1f658e8424204419bf55e5c6919a401f&#45;&gt;742342e852f0434c907f1e01ccce7fd7</title>
<g id="a_edge7"><a xlink:title="spec.selector:&#10; &#160;app: frontend">
<path fill="none" stroke="black" stroke-dasharray="5,2" d="M585.2,-1350.07C585.2,-1350.07 585.2,-1292.58 585.2,-1292.58"/>
<polygon fill="black" stroke="black" points="588.7,-1292.58 585.2,-1282.58 581.7,-1292.58 588.7,-1292.58"/>
</a>
</g>
<text text-anchor="middle" x="553.33" y="-1311.83" font-family="Sans-Serif" font-size="10.00" fill="#2d3436">80&#45;&gt;8080/TCP</text>
</g>
<!-- 742342e852f0434c907f1e01ccce7fd7&#45;&gt;af9f4b2d4a3f428d808ea1c8c5ec5101 -->
<g id="edge26" class="edge">
<title>742342e852f0434c907f1e01ccce7fd7&#45;&gt;af9f4b2d4a3f428d808ea1c8c5ec5101</title>
<g id="a_edge26"><a xlink:title="from: frontend/default/Deployment/apps/v1&#10;to: adservice/default/Service/v1">
<path fill="none" stroke="brown" d="M552.83,-1190C457.15,-1190 258,-1190 258,-1190 258,-1190 258,-1101.57 258,-1101.57"/>
<polygon fill="brown" stroke="brown" points="261.5,-1101.57 258,-1091.57 254.5,-1101.57 261.5,-1101.57"/>
</a>
</g>
</g>
<!-- 742342e852f0434c907f1e01ccce7fd7&#45;&gt;cc98cf5861504283b29af001078fc505 -->
<g id="edge22" class="edge">
<title>742342e852f0434c907f1e01ccce7fd7&#45;&gt;cc98cf5861504283b29af001078fc505</title>
<g id="a_edge22"><a xlink:title="from: frontend/default/Deployment/apps/v1&#10;to: cartservice/default/Service/v1">
<path fill="none" stroke="brown" d="M553.06,-1235C420.93,-1235 72.2,-1235 72.2,-1235 72.2,-1235 72.2,-719.96 72.2,-719.96"/>
<polygon fill="brown" stroke="brown" points="75.7,-719.96 72.2,-709.96 68.7,-719.96 75.7,-719.96"/>
</a>
</g>
</g>
<!-- 742342e852f0434c907f1e01ccce7fd7&#45;&gt;591d4715bdb04385bb51c2bf4b5dffb9 -->
<g id="edge25" class="edge">
<title>742342e852f0434c907f1e01ccce7fd7&#45;&gt;591d4715bdb04385bb51c2bf4b5dffb9</title>
<g id="a_edge25"><a xlink:title="from: frontend/default/Deployment/apps/v1&#10;to: checkoutservice/default/Service/v1">
<path fill="none" stroke="brown" d="M574.87,-1144.84C574.87,-1082.15 574.87,-999 574.87,-999 574.87,-999 549.28,-999 549.28,-999"/>
<polygon fill="brown" stroke="brown" points="549.28,-995.5 539.28,-999 549.28,-1002.5 549.28,-995.5"/>
</a>
</g>
</g>
<!-- 742342e852f0434c907f1e01ccce7fd7&#45;&gt;405e0426222942e9be4ee474b9bbb40f -->
<g id="edge21" class="edge">
<title>742342e852f0434c907f1e01ccce7fd7&#45;&gt;405e0426222942e9be4ee474b9bbb40f</title>
<g id="a_edge21"><a xlink:title="from: frontend/default/Deployment/apps/v1&#10;to: currencyservice/default/Service/v1">
<path fill="none" stroke="brown" d="M597.13,-1145.01C597.13,-1145.01 597.13,-719.99 597.13,-719.99"/>
<polygon fill="brown" stroke="brown" points="600.63,-719.99 597.13,-709.99 593.63,-719.99 600.63,-719.99"/>
</a>
</g>
</g>
<!-- 742342e852f0434c907f1e01ccce7fd7&#45;&gt;3fd798def0b949f58e9db1aa7083ccc2 -->
<g id="edge20" class="edge">
<title>742342e852f0434c907f1e01ccce7fd7&#45;&gt;3fd798def0b949f58e9db1aa7083ccc2</title>
<g id="a_edge20"><a xlink:title="from: frontend/default/Deployment/apps/v1&#10;to: productcatalogservice/default/Service/v1">
<path fill="none" stroke="brown" d="M630.73,-1145.15C630.73,-1016.86 630.73,-752 630.73,-752 630.73,-752 892,-752 892,-752 892,-752 892,-720.01 892,-720.01"/>
<polygon fill="brown" stroke="brown" points="895.5,-720.01 892,-710.01 888.5,-720.01 895.5,-720.01"/>
</a>
</g>
</g>
<!-- efadc28c935943ae802263bca0f023a2 -->
<g id="node20" class="node">
<title>efadc28c935943ae802263bca0f023a2</title>
<g id="a_node20"><a xlink:title="kind: Service&#10;apiVersion: v1&#10;metadata:&#10; &#160;name: recommendationservice&#10;...">
<image xlink:href="https://raw.githubusercontent.com/mingrammer/diagrams/refs/heads/master/resources/k8s/network/svc.png" width="100.8px" height="100.8px" preserveAspectRatio="xMinYMin meet" x="841.6" y="-1072.8"/>
<text text-anchor="middle" x="892" y="-955.15" font-family="Sans-Serif" font-size="13.00" fill="#2d3436">recommendationservice</text>
</a>
</g>
</g>
<!-- 742342e852f0434c907f1e01ccce7fd7&#45;&gt;efadc28c935943ae802263bca0f023a2 -->
<g id="edge23" class="edge">
<title>742342e852f0434c907f1e01ccce7fd7&#45;&gt;efadc28c935943ae802263bca0f023a2</title>
<g id="a_edge23"><a xlink:title="from: frontend/default/Deployment/apps/v1&#10;to: recommendationservice/default/Service/v1">
<path fill="none" stroke="brown" d="M642.07,-1145.27C642.07,-1098.59 642.07,-1045 642.07,-1045 642.07,-1045 830.72,-1045 830.72,-1045"/>
<polygon fill="brown" stroke="brown" points="830.72,-1048.5 840.72,-1045 830.72,-1041.5 830.72,-1048.5"/>
</a>
</g>
</g>
<!-- 742342e852f0434c907f1e01ccce7fd7&#45;&gt;45d207888ded46c49b0658c541b7f603 -->
<g id="edge24" class="edge">
<title>742342e852f0434c907f1e01ccce7fd7&#45;&gt;45d207888ded46c49b0658c541b7f603</title>
<g id="a_edge24"><a xlink:title="from: frontend/default/Deployment/apps/v1&#10;to: shippingservice/default/Service/v1">
<path fill="none" stroke="brown" d="M653.02,-1213C670.08,-1213 684.93,-1213 684.93,-1213 684.93,-1213 684.93,-719.97 684.93,-719.97"/>
<polygon fill="brown" stroke="brown" points="688.43,-719.97 684.93,-709.97 681.43,-719.97 688.43,-719.97"/>
</a>
</g>
</g>
<!-- 0c916ae9623c4ae0af5fbcbcca6a342c -->
<g id="node17" class="node">
<title>0c916ae9623c4ae0af5fbcbcca6a342c</title>
<g id="a_node17"><a xlink:title="kind: Deployment&#10;apiVersion: apps/v1&#10;metadata:&#10; &#160;name: paymentservice&#10;...">
<image xlink:href="https://raw.githubusercontent.com/mingrammer/diagrams/refs/heads/master/resources/k8s/compute/deploy.png" width="100.8px" height="100.8px" preserveAspectRatio="xMinYMin meet" x="369.6" y="-500.4"/>
<text text-anchor="middle" x="420" y="-382.75" font-family="Sans-Serif" font-size="13.00" fill="#2d3436">paymentservice</text>
</a>
</g>
</g>
<!-- ceb89ec5ecce410095db2be652ebeac5&#45;&gt;0c916ae9623c4ae0af5fbcbcca6a342c -->
<g id="edge9" class="edge">
<title>ceb89ec5ecce410095db2be652ebeac5&#45;&gt;0c916ae9623c4ae0af5fbcbcca6a342c</title>
<g id="a_edge9"><a xlink:title="spec.selector:&#10; &#160;app: paymentservice">
<path fill="none" stroke="black" stroke-dasharray="5,2" d="M420,-572.46C420,-572.46 420,-529.19 420,-529.19"/>
<polygon fill="black" stroke="black" points="423.5,-529.19 420,-519.19 416.5,-529.19 423.5,-529.19"/>
</a>
</g>
<text text-anchor="middle" x="395.25" y="-552.57" font-family="Sans-Serif" font-size="10.00" fill="#2d3436">50051/TCP</text>
</g>
<!-- c74c7a1e6825429bba481c2c90f49e82 -->
<g id="node19" class="node">
<title>c74c7a1e6825429bba481c2c90f49e82</title>
<g id="a_node19"><a xlink:title="kind: Deployment&#10;apiVersion: apps/v1&#10;metadata:&#10; &#160;name: productcatalogservice&#10;...">
<image xlink:href="https://raw.githubusercontent.com/mingrammer/diagrams/refs/heads/master/resources/k8s/compute/deploy.png" width="100.8px" height="100.8px" preserveAspectRatio="xMinYMin meet" x="841.6" y="-500.4"/>
<text text-anchor="middle" x="892" y="-382.75" font-family="Sans-Serif" font-size="13.00" fill="#2d3436">productcatalogservice</text>
</a>
</g>
</g>
<!-- 3fd798def0b949f58e9db1aa7083ccc2&#45;&gt;c74c7a1e6825429bba481c2c90f49e82 -->
<g id="edge10" class="edge">
<title>3fd798def0b949f58e9db1aa7083ccc2&#45;&gt;c74c7a1e6825429bba481c2c90f49e82</title>
<g id="a_edge10"><a xlink:title="spec.selector:&#10; &#160;app: productcatalogservice">
<path fill="none" stroke="black" stroke-dasharray="5,2" d="M892,-572.46C892,-572.46 892,-529.19 892,-529.19"/>
<polygon fill="black" stroke="black" points="895.5,-529.19 892,-519.19 888.5,-529.19 895.5,-529.19"/>
</a>
</g>
<text text-anchor="middle" x="869.88" y="-552.57" font-family="Sans-Serif" font-size="10.00" fill="#2d3436">3550/TCP</text>
</g>
<!-- 8b84bc1062614dadbb8f4dc21e97a0bc -->
<g id="node21" class="node">
<title>8b84bc1062614dadbb8f4dc21e97a0bc</title>
<g id="a_node21"><a xlink:title="kind: Deployment&#10;apiVersion: apps/v1&#10;metadata:&#10; &#160;name: recommendationservice&#10;...">
<image xlink:href="https://raw.githubusercontent.com/mingrammer/diagrams/refs/heads/master/resources/k8s/compute/deploy.png" width="100.8px" height="100.8px" preserveAspectRatio="xMinYMin meet" x="841.6" y="-882"/>
<text text-anchor="middle" x="892" y="-764.35" font-family="Sans-Serif" font-size="13.00" fill="#2d3436">recommendationservice</text>
</a>
</g>
</g>
<!-- efadc28c935943ae802263bca0f023a2&#45;&gt;8b84bc1062614dadbb8f4dc21e97a0bc -->
<g id="edge11" class="edge">
<title>efadc28c935943ae802263bca0f023a2&#45;&gt;8b84bc1062614dadbb8f4dc21e97a0bc</title>
<g id="a_edge11"><a xlink:title="spec.selector:&#10; &#160;app: recommendationservice">
<path fill="none" stroke="black" stroke-dasharray="5,2" d="M892,-954.06C892,-954.06 892,-910.79 892,-910.79"/>
<polygon fill="black" stroke="black" points="895.5,-910.79 892,-900.79 888.5,-910.79 895.5,-910.79"/>
</a>
</g>
<text text-anchor="middle" x="869.88" y="-934.17" font-family="Sans-Serif" font-size="10.00" fill="#2d3436">8080/TCP</text>
</g>
<!-- 8b84bc1062614dadbb8f4dc21e97a0bc&#45;&gt;3fd798def0b949f58e9db1aa7083ccc2 -->
<g id="edge19" class="edge">
<title>8b84bc1062614dadbb8f4dc21e97a0bc&#45;&gt;3fd798def0b949f58e9db1aa7083ccc2</title>
<g id="a_edge19"><a xlink:title="from: recommendationservice/default/Deployment/apps/v1&#10;to: productcatalogservice/default/Service/v1">
<path fill="none" stroke="brown" d="M917.2,-763.26C917.2,-763.26 917.2,-719.99 917.2,-719.99"/>
<polygon fill="brown" stroke="brown" points="920.7,-719.99 917.2,-709.99 913.7,-719.99 920.7,-719.99"/>
</a>
</g>
</g>
<!-- 60df25b6736648d4b58ef95d47b60ebf -->
<g id="node23" class="node">
<title>60df25b6736648d4b58ef95d47b60ebf</title>
<g id="a_node23"><a xlink:title="kind: Deployment&#10;apiVersion: apps/v1&#10;metadata:&#10; &#160;name: shippingservice&#10;...">
<image xlink:href="https://raw.githubusercontent.com/mingrammer/diagrams/refs/heads/master/resources/k8s/compute/deploy.png" width="100.8px" height="100.8px" preserveAspectRatio="xMinYMin meet" x="667.6" y="-500.4"/>
<text text-anchor="middle" x="718" y="-382.75" font-family="Sans-Serif" font-size="13.00" fill="#2d3436">shippingservice</text>
</a>
</g>
</g>
<!-- 45d207888ded46c49b0658c541b7f603&#45;&gt;60df25b6736648d4b58ef95d47b60ebf -->
<g id="edge12" class="edge">
<title>45d207888ded46c49b0658c541b7f603&#45;&gt;60df25b6736648d4b58ef95d47b60ebf</title>
<g id="a_edge12"><a xlink:title="spec.selector:&#10; &#160;app: shippingservice">
<path fill="none" stroke="black" stroke-dasharray="5,2" d="M718,-572.46C718,-572.46 718,-529.19 718,-529.19"/>
<polygon fill="black" stroke="black" points="721.5,-529.19 718,-519.19 714.5,-529.19 721.5,-529.19"/>
</a>
</g>
<text text-anchor="middle" x="693.25" y="-552.57" font-family="Sans-Serif" font-size="10.00" fill="#2d3436">50051/TCP</text>
</g>
<!-- 0c8344d80db543419a8937084a78d25a -->
<g id="node24" class="node">
<title>0c8344d80db543419a8937084a78d25a</title>
<g id="a_node24"><a xlink:title="kind: Deployment&#10;apiVersion: apps/v1&#10;metadata:&#10; &#160;name: loadgenerator&#10;...">
<image xlink:href="https://raw.githubusercontent.com/mingrammer/diagrams/refs/heads/master/resources/k8s/compute/deploy.png" width="100.8px" height="100.8px" preserveAspectRatio="xMinYMin meet" x="549.6" y="-1674"/>
<text text-anchor="middle" x="600" y="-1556.35" font-family="Sans-Serif" font-size="13.00" fill="#2d3436">loadgenerator</text>
</a>
</g>
</g>
<!-- 0c8344d80db543419a8937084a78d25a&#45;&gt;1f658e8424204419bf55e5c6919a401f -->
<g id="edge27" class="edge">
<title>0c8344d80db543419a8937084a78d25a&#45;&gt;1f658e8424204419bf55e5c6919a401f</title>
<g id="a_edge27"><a xlink:title="from: loadgenerator/default/Deployment/apps/v1&#10;to: frontend/default/Service/v1">
<path fill="none" stroke="brown" d="M600,-1555.27C600,-1555.27 600,-1497.78 600,-1497.78"/>
<polygon fill="brown" stroke="brown" points="603.5,-1497.78 600,-1487.78 596.5,-1497.78 603.5,-1497.78"/>
</a>
</g>
</g>
</g>
</svg>
