<?xml version="1.0" encoding="UTF-8" standalone="no"?>
<!DOCTYPE svg PUBLIC "-//W3C//DTD SVG 1.1//EN"
 "http://www.w3.org/Graphics/SVG/1.1/DTD/svg11.dtd">
<!-- Generated by graphviz version 8.1.0 (20230707.0739)
 -->
<!-- Pages: 1 -->
<svg width="2459pt" height="930pt"
 viewBox="0.00 0.00 2459.00 929.55" xmlns="http://www.w3.org/2000/svg" xmlns:xlink="http://www.w3.org/1999/xlink">
<g id="graph0" class="graph" transform="scale(1 1) rotate(0) translate(144 785.55)">
<polygon fill="white" stroke="none" points="-144,144 -144,-785.55 2315,-785.55 2315,144 -144,144"/>
<g id="clust1" class="cluster">
<title>cluster_Application: adservice</title>
<g id="a_clust1"><a xlink:title="Application: adservice">
<path fill="#ece8f6" stroke="#aeb6be" d="M20,-226C20,-226 129,-226 129,-226 135,-226 141,-232 141,-238 141,-238 141,-607.15 141,-607.15 141,-613.15 135,-619.15 129,-619.15 129,-619.15 20,-619.15 20,-619.15 14,-619.15 8,-613.15 8,-607.15 8,-607.15 8,-238 8,-238 8,-232 14,-226 20,-226"/>
<text text-anchor="middle" x="74.88" y="-603.75" font-family="Sans-Serif" font-size="12.00" fill="#2d3436">Application: adservice</text>
</a>
</g>
</g>
<g id="clust2" class="cluster">
<title>cluster_Application: cartservice</title>
<g id="a_clust2"><a xlink:title="Application: cartservice">
<path fill="#ece8f6" stroke="#aeb6be" d="M162,-226C162,-226 277,-226 277,-226 283,-226 289,-232 289,-238 289,-238 289,-607.15 289,-607.15 289,-613.15 283,-619.15 277,-619.15 277,-619.15 162,-619.15 162,-619.15 156,-619.15 150,-613.15 150,-607.15 150,-607.15 150,-238 150,-238 150,-232 156,-226 162,-226"/>
<text text-anchor="middle" x="219.88" y="-603.75" font-family="Sans-Serif" font-size="12.00" fill="#2d3436">Application: cartservice</text>
</a>
</g>
</g>
<g id="clust3" class="cluster">
<title>cluster_Application: checkoutservice</title>
<g id="a_clust3"><a xlink:title="Application: checkoutservice">
<path fill="#ece8f6" stroke="#aeb6be" d="M452,-226C452,-226 596,-226 596,-226 602,-226 608,-232 608,-238 608,-238 608,-607.15 608,-607.15 608,-613.15 602,-619.15 596,-619.15 596,-619.15 452,-619.15 452,-619.15 446,-619.15 440,-613.15 440,-607.15 440,-607.15 440,-238 440,-238 440,-232 446,-226 452,-226"/>
<text text-anchor="middle" x="524.12" y="-603.75" font-family="Sans-Serif" font-size="12.00" fill="#2d3436">Application: checkoutservice</text>
</a>
</g>
</g>
<g id="clust4" class="cluster">
<title>cluster_Application: currencyservice</title>
<g id="a_clust4"><a xlink:title="Application: currencyservice">
<path fill="#ece8f6" stroke="#aeb6be" d="M628,-226C628,-226 770,-226 770,-226 776,-226 782,-232 782,-238 782,-238 782,-607.15 782,-607.15 782,-613.15 776,-619.15 770,-619.15 770,-619.15 628,-619.15 628,-619.15 622,-619.15 616,-613.15 616,-607.15 616,-607.15 616,-238 616,-238 616,-232 622,-226 628,-226"/>
<text text-anchor="middle" x="699" y="-603.75" font-family="Sans-Serif" font-size="12.00" fill="#2d3436">Application: currencyservice</text>
</a>
</g>
</g>
<g id="clust5" class="cluster">
<title>cluster_Application: emailservice</title>
<g id="a_clust5"><a xlink:title="Application: emailservice">
<path fill="#ece8f6" stroke="#aeb6be" d="M802,-226C802,-226 927,-226 927,-226 933,-226 939,-232 939,-238 939,-238 939,-607.15 939,-607.15 939,-613.15 933,-619.15 927,-619.15 927,-619.15 802,-619.15 802,-619.15 796,-619.15 790,-613.15 790,-607.15 790,-607.15 790,-238 790,-238 790,-232 796,-226 802,-226"/>
<text text-anchor="middle" x="864.75" y="-603.75" font-family="Sans-Serif" font-size="12.00" fill="#2d3436">Application: emailservice</text>
</a>
</g>
</g>
<g id="clust6" class="cluster">
<title>cluster_Application: frontend</title>
<g id="a_clust6"><a xlink:title="Application: frontend">
<path fill="#ece8f6" stroke="#aeb6be" d="M959,-226C959,-226 1060,-226 1060,-226 1066,-226 1072,-232 1072,-238 1072,-238 1072,-607.15 1072,-607.15 1072,-613.15 1066,-619.15 1060,-619.15 1060,-619.15 959,-619.15 959,-619.15 953,-619.15 947,-613.15 947,-607.15 947,-607.15 947,-238 947,-238 947,-232 953,-226 959,-226"/>
<text text-anchor="middle" x="1009.75" y="-603.75" font-family="Sans-Serif" font-size="12.00" fill="#2d3436">Application: frontend</text>
</a>
</g>
</g>
<g id="clust7" class="cluster">
<title>cluster_Application: paymentservice</title>
<g id="a_clust7"><a xlink:title="Application: paymentservice">
<path fill="#ece8f6" stroke="#aeb6be" d="M1401,-226C1401,-226 1543,-226 1543,-226 1549,-226 1555,-232 1555,-238 1555,-238 1555,-607.15 1555,-607.15 1555,-613.15 1549,-619.15 1543,-619.15 1543,-619.15 1401,-619.15 1401,-619.15 1395,-619.15 1389,-613.15 1389,-607.15 1389,-607.15 1389,-238 1389,-238 1389,-232 1395,-226 1401,-226"/>
<text text-anchor="middle" x="1472" y="-603.75" font-family="Sans-Serif" font-size="12.00" fill="#2d3436">Application: paymentservice</text>
</a>
</g>
</g>
<g id="clust8" class="cluster">
<title>cluster_Application: productcatalogservice</title>
<g id="a_clust8"><a xlink:title="Application: productcatalogservice">
<path fill="#ece8f6" stroke="#aeb6be" d="M1575,-211.6C1575,-211.6 1750,-211.6 1750,-211.6 1756,-211.6 1762,-217.6 1762,-223.6 1762,-223.6 1762,-621.55 1762,-621.55 1762,-627.55 1756,-633.55 1750,-633.55 1750,-633.55 1575,-633.55 1575,-633.55 1569,-633.55 1563,-627.55 1563,-621.55 1563,-621.55 1563,-223.6 1563,-223.6 1563,-217.6 1569,-211.6 1575,-211.6"/>
<text text-anchor="middle" x="1662.5" y="-618.15" font-family="Sans-Serif" font-size="12.00" fill="#2d3436">Application: productcatalogservice</text>
</a>
</g>
</g>
<g id="clust9" class="cluster">
<title>cluster_Application: recommendationservice</title>
<g id="a_clust9"><a xlink:title="Application: recommendationservice">
<path fill="#ece8f6" stroke="#aeb6be" d="M1782,-211.6C1782,-211.6 1967,-211.6 1967,-211.6 1973,-211.6 1979,-217.6 1979,-223.6 1979,-223.6 1979,-621.55 1979,-621.55 1979,-627.55 1973,-633.55 1967,-633.55 1967,-633.55 1782,-633.55 1782,-633.55 1776,-633.55 1770,-627.55 1770,-621.55 1770,-621.55 1770,-223.6 1770,-223.6 1770,-217.6 1776,-211.6 1782,-211.6"/>
<text text-anchor="middle" x="1874.75" y="-618.15" font-family="Sans-Serif" font-size="12.00" fill="#2d3436">Application: recommendationservice</text>
</a>
</g>
</g>
<g id="clust10" class="cluster">
<title>cluster_Application: shippingservice</title>
<g id="a_clust10"><a xlink:title="Application: shippingservice">
<path fill="#ece8f6" stroke="#aeb6be" d="M2009,-226C2009,-226 2151,-226 2151,-226 2157,-226 2163,-232 2163,-238 2163,-238 2163,-607.15 2163,-607.15 2163,-613.15 2157,-619.15 2151,-619.15 2151,-619.15 2009,-619.15 2009,-619.15 2003,-619.15 1997,-613.15 1997,-607.15 1997,-607.15 1997,-238 1997,-238 1997,-232 2003,-226 2009,-226"/>
<text text-anchor="middle" x="2080" y="-603.75" font-family="Sans-Serif" font-size="12.00" fill="#2d3436">Application: shippingservice</text>
</a>
</g>
</g>
<g id="clust11" class="cluster">
<title>cluster_Application: loadgenerator</title>
<g id="a_clust11"><a xlink:title="Application: loadgenerator">
<path fill="#ece8f6" stroke="#aeb6be" d="M1237,-445.6C1237,-445.6 1369,-445.6 1369,-445.6 1375,-445.6 1381,-451.6 1381,-457.6 1381,-457.6 1381,-607.15 1381,-607.15 1381,-613.15 1375,-619.15 1369,-619.15 1369,-619.15 1237,-619.15 1237,-619.15 1231,-619.15 1225,-613.15 1225,-607.15 1225,-607.15 1225,-457.6 1225,-457.6 1225,-451.6 1231,-445.6 1237,-445.6"/>
<text text-anchor="middle" x="1303.12" y="-603.75" font-family="Sans-Serif" font-size="12.00" fill="#2d3436">Application: loadgenerator</text>
</a>
</g>
</g>
<!-- 954bb49661644a5ba6088e3a7df21b26 -->
<g id="node1" class="node">
<title>954bb49661644a5ba6088e3a7df21b26</title>
<g id="a_node1"><a xlink:title="kind: ServiceAccount&#10;apiVersion: v1&#10;metadata:&#10; &#160;name: adservice&#10;...">
<image xlink:href="https://raw.githubusercontent.com/mingrammer/diagrams/refs/heads/master/resources/k8s/rbac/sa.png" width="100.8px" height="100.8px" preserveAspectRatio="xMinYMin meet" x="23.6" y="-133.2"/>
<text text-anchor="middle" x="74" y="-15.55" font-family="Sans-Serif" font-size="13.00" fill="#2d3436">adservice</text>
</a>
</g>
</g>
<!-- 3cb93796886f454eab586d010f7d2155 -->
<g id="node2" class="node">
<title>3cb93796886f454eab586d010f7d2155</title>
<g id="a_node2"><a xlink:title="kind: ServiceAccount&#10;apiVersion: v1&#10;metadata:&#10; &#160;name: cartservice&#10;...">
<image xlink:href="https://raw.githubusercontent.com/mingrammer/diagrams/refs/heads/master/resources/k8s/rbac/sa.png" width="100.8px" height="100.8px" preserveAspectRatio="xMinYMin meet" x="173.6" y="-133.2"/>
<text text-anchor="middle" x="224" y="-15.55" font-family="Sans-Serif" font-size="13.00" fill="#2d3436">cartservice</text>
</a>
</g>
</g>
<!-- 090df80fd525443488ef51f0c311bb03 -->
<g id="node3" class="node">
<title>090df80fd525443488ef51f0c311bb03</title>
<g id="a_node3"><a xlink:title="kind: ServiceAccount&#10;apiVersion: v1&#10;metadata:&#10; &#160;name: redis&#45;cart&#10;...">
<image xlink:href="https://raw.githubusercontent.com/mingrammer/diagrams/refs/heads/master/resources/k8s/rbac/sa.png" width="100.8px" height="100.8px" preserveAspectRatio="xMinYMin meet" x="317.6" y="-133.2"/>
<text text-anchor="middle" x="368" y="-15.55" font-family="Sans-Serif" font-size="13.00" fill="#2d3436">redis&#45;cart</text>
</a>
</g>
</g>
<!-- 602a368be55445808c81198415a2129b -->
<g id="node4" class="node">
<title>602a368be55445808c81198415a2129b</title>
<g id="a_node4"><a xlink:title="kind: ServiceAccount&#10;apiVersion: v1&#10;metadata:&#10; &#160;name: checkoutservice&#10;...">
<image xlink:href="https://raw.githubusercontent.com/mingrammer/diagrams/refs/heads/master/resources/k8s/rbac/sa.png" width="100.8px" height="100.8px" preserveAspectRatio="xMinYMin meet" x="477.6" y="-133.2"/>
<text text-anchor="middle" x="528" y="-15.55" font-family="Sans-Serif" font-size="13.00" fill="#2d3436">checkoutservice</text>
</a>
</g>
</g>
<!-- 535b4eb9079f4b1989fbd19791d61636 -->
<g id="node5" class="node">
<title>535b4eb9079f4b1989fbd19791d61636</title>
<g id="a_node5"><a xlink:title="kind: ServiceAccount&#10;apiVersion: v1&#10;metadata:&#10; &#160;name: currencyservice&#10;...">
<image xlink:href="https://raw.githubusercontent.com/mingrammer/diagrams/refs/heads/master/resources/k8s/rbac/sa.png" width="100.8px" height="100.8px" preserveAspectRatio="xMinYMin meet" x="638.6" y="-133.2"/>
<text text-anchor="middle" x="689" y="-15.55" font-family="Sans-Serif" font-size="13.00" fill="#2d3436">currencyservice</text>
</a>
</g>
</g>
<!-- ca5b6744b7954d90b84474c1016e82c4 -->
<g id="node6" class="node">
<title>ca5b6744b7954d90b84474c1016e82c4</title>
<g id="a_node6"><a xlink:title="kind: ServiceAccount&#10;apiVersion: v1&#10;metadata:&#10; &#160;name: emailservice&#10;...">
<image xlink:href="https://raw.githubusercontent.com/mingrammer/diagrams/refs/heads/master/resources/k8s/rbac/sa.png" width="100.8px" height="100.8px" preserveAspectRatio="xMinYMin meet" x="805.6" y="-133.2"/>
<text text-anchor="middle" x="856" y="-15.55" font-family="Sans-Serif" font-size="13.00" fill="#2d3436">emailservice</text>
</a>
</g>
</g>
<!-- 44f279d231d5466887bb0939b86771af -->
<g id="node7" class="node">
<title>44f279d231d5466887bb0939b86771af</title>
<g id="a_node7"><a xlink:title="kind: ServiceAccount&#10;apiVersion: v1&#10;metadata:&#10; &#160;name: frontend&#10;...">
<image xlink:href="https://raw.githubusercontent.com/mingrammer/diagrams/refs/heads/master/resources/k8s/rbac/sa.png" width="100.8px" height="100.8px" preserveAspectRatio="xMinYMin meet" x="961.6" y="-133.2"/>
<text text-anchor="middle" x="1012" y="-15.55" font-family="Sans-Serif" font-size="13.00" fill="#2d3436">frontend</text>
</a>
</g>
</g>
<!-- 21b7c89c678d432baffc775da7facab7 -->
<g id="node8" class="node">
<title>21b7c89c678d432baffc775da7facab7</title>
<g id="a_node8"><a xlink:title="kind: ServiceAccount&#10;apiVersion: v1&#10;metadata:&#10; &#160;name: loadgenerator&#10;...">
<image xlink:href="https://raw.githubusercontent.com/mingrammer/diagrams/refs/heads/master/resources/k8s/rbac/sa.png" width="100.8px" height="100.8px" preserveAspectRatio="xMinYMin meet" x="1259.6" y="-352.8"/>
<text text-anchor="middle" x="1310" y="-235.15" font-family="Sans-Serif" font-size="13.00" fill="#2d3436">loadgenerator</text>
</a>
</g>
</g>
<!-- f4922abd346346798c79b6e97406fc50 -->
<g id="node9" class="node">
<title>f4922abd346346798c79b6e97406fc50</title>
<g id="a_node9"><a xlink:title="kind: ServiceAccount&#10;apiVersion: v1&#10;metadata:&#10; &#160;name: paymentservice&#10;...">
<image xlink:href="https://raw.githubusercontent.com/mingrammer/diagrams/refs/heads/master/resources/k8s/rbac/sa.png" width="100.8px" height="100.8px" preserveAspectRatio="xMinYMin meet" x="1425.6" y="-133.2"/>
<text text-anchor="middle" x="1476" y="-15.55" font-family="Sans-Serif" font-size="13.00" fill="#2d3436">paymentservice</text>
</a>
</g>
</g>
<!-- 4a22ad0e7700418195b64096142e8dd8 -->
<g id="node10" class="node">
<title>4a22ad0e7700418195b64096142e8dd8</title>
<g id="a_node10"><a xlink:title="kind: ServiceAccount&#10;apiVersion: v1&#10;metadata:&#10; &#160;name: productcatalogservice&#10;...">
<image xlink:href="https://raw.githubusercontent.com/mingrammer/diagrams/refs/heads/master/resources/k8s/rbac/sa.png" width="100.8px" height="100.8px" preserveAspectRatio="xMinYMin meet" x="1612.6" y="-133.2"/>
<text text-anchor="middle" x="1663" y="-14.65" font-family="Sans-Serif" font-size="13.00" fill="#2d3436">productcatalogse</text>
<text text-anchor="middle" x="1663" y="-1.15" font-family="Sans-Serif" font-size="13.00" fill="#2d3436">rvice</text>
</a>
</g>
</g>
<!-- 086c3fc3ca134be79ec677dc99a1bb74 -->
<g id="node11" class="node">
<title>086c3fc3ca134be79ec677dc99a1bb74</title>
<g id="a_node11"><a xlink:title="kind: ServiceAccount&#10;apiVersion: v1&#10;metadata:&#10; &#160;name: recommendationservice&#10;...">
<image xlink:href="https://raw.githubusercontent.com/mingrammer/diagrams/refs/heads/master/resources/k8s/rbac/sa.png" width="100.8px" height="100.8px" preserveAspectRatio="xMinYMin meet" x="1849.6" y="-133.2"/>
<text text-anchor="middle" x="1900" y="-14.65" font-family="Sans-Serif" font-size="13.00" fill="#2d3436">recommendationse</text>
<text text-anchor="middle" x="1900" y="-1.15" font-family="Sans-Serif" font-size="13.00" fill="#2d3436">rvice</text>
</a>
</g>
</g>
<!-- 3b046206f2bd49fd907e68062938b125 -->
<g id="node12" class="node">
<title>3b046206f2bd49fd907e68062938b125</title>
<g id="a_node12"><a xlink:title="kind: ServiceAccount&#10;apiVersion: v1&#10;metadata:&#10; &#160;name: shippingservice&#10;...">
<image xlink:href="https://raw.githubusercontent.com/mingrammer/diagrams/refs/heads/master/resources/k8s/rbac/sa.png" width="100.8px" height="100.8px" preserveAspectRatio="xMinYMin meet" x="2024.6" y="-133.2"/>
<text text-anchor="middle" x="2075" y="-15.55" font-family="Sans-Serif" font-size="13.00" fill="#2d3436">shippingservice</text>
</a>
</g>
</g>
<!-- caf65eb632374e2d83df6050f0d7c670 -->
<g id="node13" class="node">
<title>caf65eb632374e2d83df6050f0d7c670</title>
<g id="a_node13"><a xlink:title="kind: Service&#10;apiVersion: v1&#10;metadata:&#10; &#160;name: redis&#45;cart&#10;...">
<image xlink:href="https://raw.githubusercontent.com/mingrammer/diagrams/refs/heads/master/resources/k8s/network/svc.png" width="100.8px" height="100.8px" preserveAspectRatio="xMinYMin meet" x="317.6" y="-572.4"/>
<text text-anchor="middle" x="368" y="-454.75" font-family="Sans-Serif" font-size="13.00" fill="#2d3436">redis&#45;cart</text>
</a>
</g>
</g>
<!-- 99727a7fae054c7088928871b28e6e04 -->
<g id="node15" class="node">
<title>99727a7fae054c7088928871b28e6e04</title>
<g id="a_node15"><a xlink:title="kind: Deployment&#10;apiVersion: apps/v1&#10;metadata:&#10; &#160;name: redis&#45;cart&#10;...">
<image xlink:href="https://raw.githubusercontent.com/mingrammer/diagrams/refs/heads/master/resources/k8s/compute/deploy.png" width="100.8px" height="100.8px" preserveAspectRatio="xMinYMin meet" x="317.6" y="-352.8"/>
<text text-anchor="middle" x="368" y="-235.15" font-family="Sans-Serif" font-size="13.00" fill="#2d3436">redis&#45;cart</text>
</a>
</g>
</g>
<!-- caf65eb632374e2d83df6050f0d7c670&#45;&gt;99727a7fae054c7088928871b28e6e04 -->
<g id="edge3" class="edge">
<title>caf65eb632374e2d83df6050f0d7c670&#45;&gt;99727a7fae054c7088928871b28e6e04</title>
<g id="a_edge3"><a xlink:title="spec.selector:&#10; &#160;app: redis&#45;cart">
<path fill="none" stroke="black" stroke-dasharray="5,2" d="M368,-453.72C368,-453.72 368,-381.64 368,-381.64"/>
<polygon fill="black" stroke="black" points="371.5,-381.64 368,-371.64 364.5,-381.64 371.5,-381.64"/>
</a>
</g>
<text text-anchor="middle" x="345.88" y="-419.43" font-family="Sans-Serif" font-size="10.00" fill="#2d3436">6379/TCP</text>
</g>
<!-- be90b6ec4e1b48ceaa8515bfa4396c0d -->
<g id="node14" class="node">
<title>be90b6ec4e1b48ceaa8515bfa4396c0d</title>
<g id="a_node14"><a xlink:title="kind: Service&#10;apiVersion: v1&#10;metadata:&#10; &#160;name: frontend&#45;external&#10;...">
<image xlink:href="https://raw.githubusercontent.com/mingrammer/diagrams/refs/heads/master/resources/k8s/network/svc.png" width="100.8px" height="100.8px" preserveAspectRatio="xMinYMin meet" x="1102.6" y="-572.4"/>
<text text-anchor="middle" x="1153" y="-453.85" font-family="Sans-Serif" font-size="13.00" fill="#2d3436">frontend</text>
<text text-anchor="middle" x="1153" y="-440.35" font-family="Sans-Serif" font-size="13.00" fill="#2d3436">&#45;external</text>
</a>
</g>
</g>
<!-- 5d73920d66a242bb870a776bb1d86326 -->
<g id="node27" class="node">
<title>5d73920d66a242bb870a776bb1d86326</title>
<g id="a_node27"><a xlink:title="kind: Deployment&#10;apiVersion: apps/v1&#10;metadata:&#10; &#160;name: frontend&#10;...">
<image xlink:href="https://raw.githubusercontent.com/mingrammer/diagrams/refs/heads/master/resources/k8s/compute/deploy.png" width="100.8px" height="100.8px" preserveAspectRatio="xMinYMin meet" x="961.6" y="-352.8"/>
<text text-anchor="middle" x="1012" y="-235.15" font-family="Sans-Serif" font-size="13.00" fill="#2d3436">frontend</text>
</a>
</g>
</g>
<!-- be90b6ec4e1b48ceaa8515bfa4396c0d&#45;&gt;5d73920d66a242bb870a776bb1d86326 -->
<g id="edge8" class="edge">
<title>be90b6ec4e1b48ceaa8515bfa4396c0d&#45;&gt;5d73920d66a242bb870a776bb1d86326</title>
<g id="a_edge8"><a xlink:title="spec.selector:&#10; &#160;app: frontend">
<path fill="none" stroke="black" stroke-dasharray="5,2" d="M1102.76,-446C1067.57,-446 1026.8,-446 1026.8,-446 1026.8,-446 1026.8,-381.42 1026.8,-381.42"/>
<polygon fill="black" stroke="black" points="1030.3,-381.42 1026.8,-371.42 1023.3,-381.42 1030.3,-381.42"/>
</a>
</g>
<text text-anchor="middle" x="1000.61" y="-436.5" font-family="Sans-Serif" font-size="10.00" fill="#2d3436">80&#45;&gt;8080/TCP</text>
</g>
<!-- 99727a7fae054c7088928871b28e6e04&#45;&gt;090df80fd525443488ef51f0c311bb03 -->
<g id="edge15" class="edge">
<title>99727a7fae054c7088928871b28e6e04&#45;&gt;090df80fd525443488ef51f0c311bb03</title>
<g id="a_edge15"><a xlink:title="spec.template.spec.serviceAccountName: redis&#45;cart">
<path fill="none" stroke="black" d="M368,-234.12C368,-234.12 368,-162.04 368,-162.04"/>
<polygon fill="black" stroke="black" points="371.5,-162.04 368,-152.04 364.5,-162.04 371.5,-162.04"/>
</a>
</g>
</g>
<!-- 0a82459f19714383aff18792290df67a -->
<g id="node16" class="node">
<title>0a82459f19714383aff18792290df67a</title>
<g id="a_node16"><a xlink:title="kind: Service&#10;apiVersion: v1&#10;metadata:&#10; &#160;name: adservice&#10;...">
<image xlink:href="https://raw.githubusercontent.com/mingrammer/diagrams/refs/heads/master/resources/k8s/network/svc.png" width="100.8px" height="100.8px" preserveAspectRatio="xMinYMin meet" x="23.6" y="-572.4"/>
<text text-anchor="middle" x="74" y="-454.75" font-family="Sans-Serif" font-size="13.00" fill="#2d3436">adservice</text>
</a>
</g>
</g>
<!-- 90c6e8ccd6bb4ba29605bece473f501b -->
<g id="node17" class="node">
<title>90c6e8ccd6bb4ba29605bece473f501b</title>
<g id="a_node17"><a xlink:title="kind: Deployment&#10;apiVersion: apps/v1&#10;metadata:&#10; &#160;name: adservice&#10;...">
<image xlink:href="https://raw.githubusercontent.com/mingrammer/diagrams/refs/heads/master/resources/k8s/compute/deploy.png" width="100.8px" height="100.8px" preserveAspectRatio="xMinYMin meet" x="23.6" y="-352.8"/>
<text text-anchor="middle" x="74" y="-235.15" font-family="Sans-Serif" font-size="13.00" fill="#2d3436">adservice</text>
</a>
</g>
</g>
<!-- 0a82459f19714383aff18792290df67a&#45;&gt;90c6e8ccd6bb4ba29605bece473f501b -->
<g id="edge1" class="edge">
<title>0a82459f19714383aff18792290df67a&#45;&gt;90c6e8ccd6bb4ba29605bece473f501b</title>
<g id="a_edge1"><a xlink:title="spec.selector:&#10; &#160;app: adservice">
<path fill="none" stroke="black" stroke-dasharray="5,2" d="M74,-453.72C74,-453.72 74,-381.64 74,-381.64"/>
<polygon fill="black" stroke="black" points="77.5,-381.64 74,-371.64 70.5,-381.64 77.5,-381.64"/>
</a>
</g>
<text text-anchor="middle" x="51.88" y="-419.43" font-family="Sans-Serif" font-size="10.00" fill="#2d3436">9555/TCP</text>
</g>
<!-- 90c6e8ccd6bb4ba29605bece473f501b&#45;&gt;954bb49661644a5ba6088e3a7df21b26 -->
<g id="edge13" class="edge">
<title>90c6e8ccd6bb4ba29605bece473f501b&#45;&gt;954bb49661644a5ba6088e3a7df21b26</title>
<g id="a_edge13"><a xlink:title="spec.template.spec.serviceAccountName: adservice">
<path fill="none" stroke="black" d="M74,-234.12C74,-234.12 74,-162.04 74,-162.04"/>
<polygon fill="black" stroke="black" points="77.5,-162.04 74,-152.04 70.5,-162.04 77.5,-162.04"/>
</a>
</g>
</g>
<!-- 751675b51df14f6f9eaee2682725b1f3 -->
<g id="node18" class="node">
<title>751675b51df14f6f9eaee2682725b1f3</title>
<g id="a_node18"><a xlink:title="kind: Service&#10;apiVersion: v1&#10;metadata:&#10; &#160;name: cartservice&#10;...">
<image xlink:href="https://raw.githubusercontent.com/mingrammer/diagrams/refs/heads/master/resources/k8s/network/svc.png" width="100.8px" height="100.8px" preserveAspectRatio="xMinYMin meet" x="173.6" y="-572.4"/>
<text text-anchor="middle" x="224" y="-454.75" font-family="Sans-Serif" font-size="13.00" fill="#2d3436">cartservice</text>
</a>
</g>
</g>
<!-- 942bcd6d03f5408d9ed16b54644f1e5d -->
<g id="node19" class="node">
<title>942bcd6d03f5408d9ed16b54644f1e5d</title>
<g id="a_node19"><a xlink:title="kind: Deployment&#10;apiVersion: apps/v1&#10;metadata:&#10; &#160;name: cartservice&#10;...">
<image xlink:href="https://raw.githubusercontent.com/mingrammer/diagrams/refs/heads/master/resources/k8s/compute/deploy.png" width="100.8px" height="100.8px" preserveAspectRatio="xMinYMin meet" x="173.6" y="-352.8"/>
<text text-anchor="middle" x="224" y="-235.15" font-family="Sans-Serif" font-size="13.00" fill="#2d3436">cartservice</text>
</a>
</g>
</g>
<!-- 751675b51df14f6f9eaee2682725b1f3&#45;&gt;942bcd6d03f5408d9ed16b54644f1e5d -->
<g id="edge2" class="edge">
<title>751675b51df14f6f9eaee2682725b1f3&#45;&gt;942bcd6d03f5408d9ed16b54644f1e5d</title>
<g id="a_edge2"><a xlink:title="spec.selector:&#10; &#160;app: cartservice">
<path fill="none" stroke="black" stroke-dasharray="5,2" d="M224,-453.72C224,-453.72 224,-381.64 224,-381.64"/>
<polygon fill="black" stroke="black" points="227.5,-381.64 224,-371.64 220.5,-381.64 227.5,-381.64"/>
</a>
</g>
<text text-anchor="middle" x="201.88" y="-419.43" font-family="Sans-Serif" font-size="10.00" fill="#2d3436">7070/TCP</text>
</g>
<!-- 942bcd6d03f5408d9ed16b54644f1e5d&#45;&gt;3cb93796886f454eab586d010f7d2155 -->
<g id="edge14" class="edge">
<title>942bcd6d03f5408d9ed16b54644f1e5d&#45;&gt;3cb93796886f454eab586d010f7d2155</title>
<g id="a_edge14"><a xlink:title="spec.template.spec.serviceAccountName: cartservice">
<path fill="none" stroke="black" d="M224,-234.12C224,-234.12 224,-162.04 224,-162.04"/>
<polygon fill="black" stroke="black" points="227.5,-162.04 224,-152.04 220.5,-162.04 227.5,-162.04"/>
</a>
</g>
</g>
<!-- f4f2ebfc91a14663af76710877429af1 -->
<g id="node20" class="node">
<title>f4f2ebfc91a14663af76710877429af1</title>
<g id="a_node20"><a xlink:title="kind: Service&#10;apiVersion: v1&#10;metadata:&#10; &#160;name: checkoutservice&#10;...">
<image xlink:href="https://raw.githubusercontent.com/mingrammer/diagrams/refs/heads/master/resources/k8s/network/svc.png" width="100.8px" height="100.8px" preserveAspectRatio="xMinYMin meet" x="477.6" y="-572.4"/>
<text text-anchor="middle" x="528" y="-454.75" font-family="Sans-Serif" font-size="13.00" fill="#2d3436">checkoutservice</text>
</a>
</g>
</g>
<!-- 9f61f3a3db9a4232b6c6626be27506fb -->
<g id="node21" class="node">
<title>9f61f3a3db9a4232b6c6626be27506fb</title>
<g id="a_node21"><a xlink:title="kind: Deployment&#10;apiVersion: apps/v1&#10;metadata:&#10; &#160;name: checkoutservice&#10;...">
<image xlink:href="https://raw.githubusercontent.com/mingrammer/diagrams/refs/heads/master/resources/k8s/compute/deploy.png" width="100.8px" height="100.8px" preserveAspectRatio="xMinYMin meet" x="477.6" y="-352.8"/>
<text text-anchor="middle" x="528" y="-235.15" font-family="Sans-Serif" font-size="13.00" fill="#2d3436">checkoutservice</text>
</a>
</g>
</g>
<!-- f4f2ebfc91a14663af76710877429af1&#45;&gt;9f61f3a3db9a4232b6c6626be27506fb -->
<g id="edge4" class="edge">
<title>f4f2ebfc91a14663af76710877429af1&#45;&gt;9f61f3a3db9a4232b6c6626be27506fb</title>
<g id="a_edge4"><a xlink:title="spec.selector:&#10; &#160;app: checkoutservice">
<path fill="none" stroke="black" stroke-dasharray="5,2" d="M528,-453.72C528,-453.72 528,-381.64 528,-381.64"/>
<polygon fill="black" stroke="black" points="531.5,-381.64 528,-371.64 524.5,-381.64 531.5,-381.64"/>
</a>
</g>
<text text-anchor="middle" x="505.88" y="-419.43" font-family="Sans-Serif" font-size="10.00" fill="#2d3436">5050/TCP</text>
</g>
<!-- 9f61f3a3db9a4232b6c6626be27506fb&#45;&gt;602a368be55445808c81198415a2129b -->
<g id="edge16" class="edge">
<title>9f61f3a3db9a4232b6c6626be27506fb&#45;&gt;602a368be55445808c81198415a2129b</title>
<g id="a_edge16"><a xlink:title="spec.template.spec.serviceAccountName: checkoutservice">
<path fill="none" stroke="black" d="M528,-234.12C528,-234.12 528,-162.04 528,-162.04"/>
<polygon fill="black" stroke="black" points="531.5,-162.04 528,-152.04 524.5,-162.04 531.5,-162.04"/>
</a>
</g>
</g>
<!-- cc445882e4af438a9501d527fa40f136 -->
<g id="node22" class="node">
<title>cc445882e4af438a9501d527fa40f136</title>
<g id="a_node22"><a xlink:title="kind: Service&#10;apiVersion: v1&#10;metadata:&#10; &#160;name: currencyservice&#10;...">
<image xlink:href="https://raw.githubusercontent.com/mingrammer/diagrams/refs/heads/master/resources/k8s/network/svc.png" width="100.8px" height="100.8px" preserveAspectRatio="xMinYMin meet" x="638.6" y="-572.4"/>
<text text-anchor="middle" x="689" y="-454.75" font-family="Sans-Serif" font-size="13.00" fill="#2d3436">currencyservice</text>
</a>
</g>
</g>
<!-- 41717857b7424c9296b86d96d3d2ae5a -->
<g id="node23" class="node">
<title>41717857b7424c9296b86d96d3d2ae5a</title>
<g id="a_node23"><a xlink:title="kind: Deployment&#10;apiVersion: apps/v1&#10;metadata:&#10; &#160;name: currencyservice&#10;...">
<image xlink:href="https://raw.githubusercontent.com/mingrammer/diagrams/refs/heads/master/resources/k8s/compute/deploy.png" width="100.8px" height="100.8px" preserveAspectRatio="xMinYMin meet" x="638.6" y="-352.8"/>
<text text-anchor="middle" x="689" y="-235.15" font-family="Sans-Serif" font-size="13.00" fill="#2d3436">currencyservice</text>
</a>
</g>
</g>
<!-- cc445882e4af438a9501d527fa40f136&#45;&gt;41717857b7424c9296b86d96d3d2ae5a -->
<g id="edge5" class="edge">
<title>cc445882e4af438a9501d527fa40f136&#45;&gt;41717857b7424c9296b86d96d3d2ae5a</title>
<g id="a_edge5"><a xlink:title="spec.selector:&#10; &#160;app: currencyservice">
<path fill="none" stroke="black" stroke-dasharray="5,2" d="M689,-453.72C689,-453.72 689,-381.64 689,-381.64"/>
<polygon fill="black" stroke="black" points="692.5,-381.64 689,-371.64 685.5,-381.64 692.5,-381.64"/>
</a>
</g>
<text text-anchor="middle" x="666.88" y="-419.43" font-family="Sans-Serif" font-size="10.00" fill="#2d3436">7000/TCP</text>
</g>
<!-- 41717857b7424c9296b86d96d3d2ae5a&#45;&gt;535b4eb9079f4b1989fbd19791d61636 -->
<g id="edge17" class="edge">
<title>41717857b7424c9296b86d96d3d2ae5a&#45;&gt;535b4eb9079f4b1989fbd19791d61636</title>
<g id="a_edge17"><a xlink:title="spec.template.spec.serviceAccountName: currencyservice">
<path fill="none" stroke="black" d="M689,-234.12C689,-234.12 689,-162.04 689,-162.04"/>
<polygon fill="black" stroke="black" points="692.5,-162.04 689,-152.04 685.5,-162.04 692.5,-162.04"/>
</a>
</g>
</g>
<!-- 5529a308486b4dc5a48c1b5a7288303a -->
<g id="node24" class="node">
<title>5529a308486b4dc5a48c1b5a7288303a</title>
<g id="a_node24"><a xlink:title="kind: Service&#10;apiVersion: v1&#10;metadata:&#10; &#160;name: emailservice&#10;...">
<image xlink:href="https://raw.githubusercontent.com/mingrammer/diagrams/refs/heads/master/resources/k8s/network/svc.png" width="100.8px" height="100.8px" preserveAspectRatio="xMinYMin meet" x="805.6" y="-572.4"/>
<text text-anchor="middle" x="856" y="-454.75" font-family="Sans-Serif" font-size="13.00" fill="#2d3436">emailservice</text>
</a>
</g>
</g>
<!-- 62a0aafc38fc42c2ab695b31a214020c -->
<g id="node25" class="node">
<title>62a0aafc38fc42c2ab695b31a214020c</title>
<g id="a_node25"><a xlink:title="kind: Deployment&#10;apiVersion: apps/v1&#10;metadata:&#10; &#160;name: emailservice&#10;...">
<image xlink:href="https://raw.githubusercontent.com/mingrammer/diagrams/refs/heads/master/resources/k8s/compute/deploy.png" width="100.8px" height="100.8px" preserveAspectRatio="xMinYMin meet" x="805.6" y="-352.8"/>
<text text-anchor="middle" x="856" y="-235.15" font-family="Sans-Serif" font-size="13.00" fill="#2d3436">emailservice</text>
</a>
</g>
</g>
<!-- 5529a308486b4dc5a48c1b5a7288303a&#45;&gt;62a0aafc38fc42c2ab695b31a214020c -->
<g id="edge6" class="edge">
<title>5529a308486b4dc5a48c1b5a7288303a&#45;&gt;62a0aafc38fc42c2ab695b31a214020c</title>
<g id="a_edge6"><a xlink:title="spec.selector:&#10; &#160;app: emailservice">
<path fill="none" stroke="black" stroke-dasharray="5,2" d="M856,-453.72C856,-453.72 856,-381.64 856,-381.64"/>
<polygon fill="black" stroke="black" points="859.5,-381.64 856,-371.64 852.5,-381.64 859.5,-381.64"/>
</a>
</g>
<text text-anchor="middle" x="818.88" y="-419.43" font-family="Sans-Serif" font-size="10.00" fill="#2d3436">5000&#45;&gt;8080/TCP</text>
</g>
<!-- 62a0aafc38fc42c2ab695b31a214020c&#45;&gt;ca5b6744b7954d90b84474c1016e82c4 -->
<g id="edge18" class="edge">
<title>62a0aafc38fc42c2ab695b31a214020c&#45;&gt;ca5b6744b7954d90b84474c1016e82c4</title>
<g id="a_edge18"><a xlink:title="spec.template.spec.serviceAccountName: emailservice">
<path fill="none" stroke="black" d="M856,-234.12C856,-234.12 856,-162.04 856,-162.04"/>
<polygon fill="black" stroke="black" points="859.5,-162.04 856,-152.04 852.5,-162.04 859.5,-162.04"/>
</a>
</g>
</g>
<!-- 7a6adf7f5fc54967a8538c70dc55b620 -->
<g id="node26" class="node">
<title>7a6adf7f5fc54967a8538c70dc55b620</title>
<g id="a_node26"><a xlink:title="kind: Service&#10;apiVersion: v1&#10;metadata:&#10; &#160;name: frontend&#10;...">
<image xlink:href="https://raw.githubusercontent.com/mingrammer/diagrams/refs/heads/master/resources/k8s/network/svc.png" width="100.8px" height="100.8px" preserveAspectRatio="xMinYMin meet" x="958.6" y="-572.4"/>
<text text-anchor="middle" x="1009" y="-454.75" font-family="Sans-Serif" font-size="13.00" fill="#2d3436">frontend</text>
</a>
</g>
</g>
<!-- 7a6adf7f5fc54967a8538c70dc55b620&#45;&gt;5d73920d66a242bb870a776bb1d86326 -->
<g id="edge7" class="edge">
<title>7a6adf7f5fc54967a8538c70dc55b620&#45;&gt;5d73920d66a242bb870a776bb1d86326</title>
<g id="a_edge7"><a xlink:title="spec.selector:&#10; &#160;app: frontend">
<path fill="none" stroke="black" stroke-dasharray="5,2" d="M994.2,-453.72C994.2,-453.72 994.2,-381.64 994.2,-381.64"/>
<polygon fill="black" stroke="black" points="997.7,-381.64 994.2,-371.64 990.7,-381.64 997.7,-381.64"/>
</a>
</g>
<text text-anchor="middle" x="962.33" y="-419.43" font-family="Sans-Serif" font-size="10.00" fill="#2d3436">80&#45;&gt;8080/TCP</text>
</g>
<!-- 5d73920d66a242bb870a776bb1d86326&#45;&gt;44f279d231d5466887bb0939b86771af -->
<g id="edge19" class="edge">
<title>5d73920d66a242bb870a776bb1d86326&#45;&gt;44f279d231d5466887bb0939b86771af</title>
<g id="a_edge19"><a xlink:title="spec.template.spec.serviceAccountName: frontend">
<path fill="none" stroke="black" d="M1012,-234.12C1012,-234.12 1012,-162.04 1012,-162.04"/>
<polygon fill="black" stroke="black" points="1015.5,-162.04 1012,-152.04 1008.5,-162.04 1015.5,-162.04"/>
</a>
</g>
</g>
<!-- a32876e25057465290b12788e40b26b3 -->
<g id="node28" class="node">
<title>a32876e25057465290b12788e40b26b3</title>
<g id="a_node28"><a xlink:title="kind: Service&#10;apiVersion: v1&#10;metadata:&#10; &#160;name: paymentservice&#10;...">
<image xlink:href="https://raw.githubusercontent.com/mingrammer/diagrams/refs/heads/master/resources/k8s/network/svc.png" width="100.8px" height="100.8px" preserveAspectRatio="xMinYMin meet" x="1425.6" y="-572.4"/>
<text text-anchor="middle" x="1476" y="-454.75" font-family="Sans-Serif" font-size="13.00" fill="#2d3436">paymentservice</text>
</a>
</g>
</g>
<!-- 6ed6b586629f4542ba2f1dde4a160cd6 -->
<g id="node29" class="node">
<title>6ed6b586629f4542ba2f1dde4a160cd6</title>
<g id="a_node29"><a xlink:title="kind: Deployment&#10;apiVersion: apps/v1&#10;metadata:&#10; &#160;name: paymentservice&#10;...">
<image xlink:href="https://raw.githubusercontent.com/mingrammer/diagrams/refs/heads/master/resources/k8s/compute/deploy.png" width="100.8px" height="100.8px" preserveAspectRatio="xMinYMin meet" x="1425.6" y="-352.8"/>
<text text-anchor="middle" x="1476" y="-235.15" font-family="Sans-Serif" font-size="13.00" fill="#2d3436">paymentservice</text>
</a>
</g>
</g>
<!-- a32876e25057465290b12788e40b26b3&#45;&gt;6ed6b586629f4542ba2f1dde4a160cd6 -->
<g id="edge9" class="edge">
<title>a32876e25057465290b12788e40b26b3&#45;&gt;6ed6b586629f4542ba2f1dde4a160cd6</title>
<g id="a_edge9"><a xlink:title="spec.selector:&#10; &#160;app: paymentservice">
<path fill="none" stroke="black" stroke-dasharray="5,2" d="M1476,-453.72C1476,-453.72 1476,-381.64 1476,-381.64"/>
<polygon fill="black" stroke="black" points="1479.5,-381.64 1476,-371.64 1472.5,-381.64 1479.5,-381.64"/>
</a>
</g>
<text text-anchor="middle" x="1451.25" y="-419.43" font-family="Sans-Serif" font-size="10.00" fill="#2d3436">50051/TCP</text>
</g>
<!-- 6ed6b586629f4542ba2f1dde4a160cd6&#45;&gt;f4922abd346346798c79b6e97406fc50 -->
<g id="edge21" class="edge">
<title>6ed6b586629f4542ba2f1dde4a160cd6&#45;&gt;f4922abd346346798c79b6e97406fc50</title>
<g id="a_edge21"><a xlink:title="spec.template.spec.serviceAccountName: paymentservice">
<path fill="none" stroke="black" d="M1476,-234.12C1476,-234.12 1476,-162.04 1476,-162.04"/>
<polygon fill="black" stroke="black" points="1479.5,-162.04 1476,-152.04 1472.5,-162.04 1479.5,-162.04"/>
</a>
</g>
</g>
<!-- d452e3194ce8418f873153a208e37537 -->
<g id="node30" class="node">
<title>d452e3194ce8418f873153a208e37537</title>
<g id="a_node30"><a xlink:title="kind: Service&#10;apiVersion: v1&#10;metadata:&#10; &#160;name: productcatalogservice&#10;...">
<image xlink:href="https://raw.githubusercontent.com/mingrammer/diagrams/refs/heads/master/resources/k8s/network/svc.png" width="100.8px" height="100.8px" preserveAspectRatio="xMinYMin meet" x="1612.6" y="-572.4"/>
<text text-anchor="middle" x="1663" y="-453.85" font-family="Sans-Serif" font-size="13.00" fill="#2d3436">productcatalogse</text>
<text text-anchor="middle" x="1663" y="-440.35" font-family="Sans-Serif" font-size="13.00" fill="#2d3436">rvice</text>
</a>
</g>
</g>
<!-- e3dbfc512fa243d8bee70c2efac7079a -->
<g id="node31" class="node">
<title>e3dbfc512fa243d8bee70c2efac7079a</title>
<g id="a_node31"><a xlink:title="kind: Deployment&#10;apiVersion: apps/v1&#10;metadata:&#10; &#160;name: productcatalogservice&#10;...">
<image xlink:href="https://raw.githubusercontent.com/mingrammer/diagrams/refs/heads/master/resources/k8s/compute/deploy.png" width="100.8px" height="100.8px" preserveAspectRatio="xMinYMin meet" x="1612.6" y="-352.8"/>
<text text-anchor="middle" x="1663" y="-234.25" font-family="Sans-Serif" font-size="13.00" fill="#2d3436">productcatalogse</text>
<text text-anchor="middle" x="1663" y="-220.75" font-family="Sans-Serif" font-size="13.00" fill="#2d3436">rvice</text>
</a>
</g>
</g>
<!-- d452e3194ce8418f873153a208e37537&#45;&gt;e3dbfc512fa243d8bee70c2efac7079a -->
<g id="edge10" class="edge">
<title>d452e3194ce8418f873153a208e37537&#45;&gt;e3dbfc512fa243d8bee70c2efac7079a</title>
<g id="a_edge10"><a xlink:title="spec.selector:&#10; &#160;app: productcatalogservice">
<path fill="none" stroke="black" stroke-dasharray="5,2" d="M1663,-439.29C1663,-439.29 1663,-396.03 1663,-396.03"/>
<polygon fill="black" stroke="black" points="1666.5,-396.03 1663,-386.03 1659.5,-396.03 1666.5,-396.03"/>
</a>
</g>
<text text-anchor="middle" x="1640.88" y="-419.41" font-family="Sans-Serif" font-size="10.00" fill="#2d3436">3550/TCP</text>
</g>
<!-- e3dbfc512fa243d8bee70c2efac7079a&#45;&gt;4a22ad0e7700418195b64096142e8dd8 -->
<g id="edge22" class="edge">
<title>e3dbfc512fa243d8bee70c2efac7079a&#45;&gt;4a22ad0e7700418195b64096142e8dd8</title>
<g id="a_edge22"><a xlink:title="spec.template.spec.serviceAccountName: productcatalogservice">
<path fill="none" stroke="black" d="M1663,-219.69C1663,-219.69 1663,-176.43 1663,-176.43"/>
<polygon fill="black" stroke="black" points="1666.5,-176.43 1663,-166.43 1659.5,-176.43 1666.5,-176.43"/>
</a>
</g>
</g>
<!-- 2f776e1240cd4438a89d90eb85b676f0 -->
<g id="node32" class="node">
<title>2f776e1240cd4438a89d90eb85b676f0</title>
<g id="a_node32"><a xlink:title="kind: Service&#10;apiVersion: v1&#10;metadata:&#10; &#160;name: recommendationservice&#10;...">
<image xlink:href="https://raw.githubusercontent.com/mingrammer/diagrams/refs/heads/master/resources/k8s/network/svc.png" width="100.8px" height="100.8px" preserveAspectRatio="xMinYMin meet" x="1849.6" y="-572.4"/>
<text text-anchor="middle" x="1900" y="-453.85" font-family="Sans-Serif" font-size="13.00" fill="#2d3436">recommendationse</text>
<text text-anchor="middle" x="1900" y="-440.35" font-family="Sans-Serif" font-size="13.00" fill="#2d3436">rvice</text>
</a>
</g>
</g>
<!-- 91aa9826e7294e5b964855468457be67 -->
<g id="node33" class="node">
<title>91aa9826e7294e5b964855468457be67</title>
<g id="a_node33"><a xlink:title="kind: Deployment&#10;apiVersion: apps/v1&#10;metadata:&#10; &#160;name: recommendationservice&#10;...">
<image xlink:href="https://raw.githubusercontent.com/mingrammer/diagrams/refs/heads/master/resources/k8s/compute/deploy.png" width="100.8px" height="100.8px" preserveAspectRatio="xMinYMin meet" x="1849.6" y="-352.8"/>
<text text-anchor="middle" x="1900" y="-234.25" font-family="Sans-Serif" font-size="13.00" fill="#2d3436">recommendationse</text>
<text text-anchor="middle" x="1900" y="-220.75" font-family="Sans-Serif" font-size="13.00" fill="#2d3436">rvice</text>
</a>
</g>
</g>
<!-- 2f776e1240cd4438a89d90eb85b676f0&#45;&gt;91aa9826e7294e5b964855468457be67 -->
<g id="edge11" class="edge">
<title>2f776e1240cd4438a89d90eb85b676f0&#45;&gt;91aa9826e7294e5b964855468457be67</title>
<g id="a_edge11"><a xlink:title="spec.selector:&#10; &#160;app: recommendationservice">
<path fill="none" stroke="black" stroke-dasharray="5,2" d="M1900,-439.29C1900,-439.29 1900,-396.03 1900,-396.03"/>
<polygon fill="black" stroke="black" points="1903.5,-396.03 1900,-386.03 1896.5,-396.03 1903.5,-396.03"/>
</a>
</g>
<text text-anchor="middle" x="1877.88" y="-419.41" font-family="Sans-Serif" font-size="10.00" fill="#2d3436">8080/TCP</text>
</g>
<!-- 91aa9826e7294e5b964855468457be67&#45;&gt;086c3fc3ca134be79ec677dc99a1bb74 -->
<g id="edge23" class="edge">
<title>91aa9826e7294e5b964855468457be67&#45;&gt;086c3fc3ca134be79ec677dc99a1bb74</title>
<g id="a_edge23"><a xlink:title="spec.template.spec.serviceAccountName: recommendationservice">
<path fill="none" stroke="black" d="M1900,-219.69C1900,-219.69 1900,-176.43 1900,-176.43"/>
<polygon fill="black" stroke="black" points="1903.5,-176.43 1900,-166.43 1896.5,-176.43 1903.5,-176.43"/>
</a>
</g>
</g>
<!-- 6893fffec8d149978140980c12d29eed -->
<g id="node34" class="node">
<title>6893fffec8d149978140980c12d29eed</title>
<g id="a_node34"><a xlink:title="kind: Service&#10;apiVersion: v1&#10;metadata:&#10; &#160;name: shippingservice&#10;...">
<image xlink:href="https://raw.githubusercontent.com/mingrammer/diagrams/refs/heads/master/resources/k8s/network/svc.png" width="100.8px" height="100.8px" preserveAspectRatio="xMinYMin meet" x="2024.6" y="-572.4"/>
<text text-anchor="middle" x="2075" y="-454.75" font-family="Sans-Serif" font-size="13.00" fill="#2d3436">shippingservice</text>
</a>
</g>
</g>
<!-- c29b7e49fdb4438da1b5ec1b538b7c50 -->
<g id="node35" class="node">
<title>c29b7e49fdb4438da1b5ec1b538b7c50</title>
<g id="a_node35"><a xlink:title="kind: Deployment&#10;apiVersion: apps/v1&#10;metadata:&#10; &#160;name: shippingservice&#10;...">
<image xlink:href="https://raw.githubusercontent.com/mingrammer/diagrams/refs/heads/master/resources/k8s/compute/deploy.png" width="100.8px" height="100.8px" preserveAspectRatio="xMinYMin meet" x="2024.6" y="-352.8"/>
<text text-anchor="middle" x="2075" y="-235.15" font-family="Sans-Serif" font-size="13.00" fill="#2d3436">shippingservice</text>
</a>
</g>
</g>
<!-- 6893fffec8d149978140980c12d29eed&#45;&gt;c29b7e49fdb4438da1b5ec1b538b7c50 -->
<g id="edge12" class="edge">
<title>6893fffec8d149978140980c12d29eed&#45;&gt;c29b7e49fdb4438da1b5ec1b538b7c50</title>
<g id="a_edge12"><a xlink:title="spec.selector:&#10; &#160;app: shippingservice">
<path fill="none" stroke="black" stroke-dasharray="5,2" d="M2075,-453.72C2075,-453.72 2075,-381.64 2075,-381.64"/>
<polygon fill="black" stroke="black" points="2078.5,-381.64 2075,-371.64 2071.5,-381.64 2078.5,-381.64"/>
</a>
</g>
<text text-anchor="middle" x="2050.25" y="-419.43" font-family="Sans-Serif" font-size="10.00" fill="#2d3436">50051/TCP</text>
</g>
<!-- c29b7e49fdb4438da1b5ec1b538b7c50&#45;&gt;3b046206f2bd49fd907e68062938b125 -->
<g id="edge24" class="edge">
<title>c29b7e49fdb4438da1b5ec1b538b7c50&#45;&gt;3b046206f2bd49fd907e68062938b125</title>
<g id="a_edge24"><a xlink:title="spec.template.spec.serviceAccountName: shippingservice">
<path fill="none" stroke="black" d="M2075,-234.12C2075,-234.12 2075,-162.04 2075,-162.04"/>
<polygon fill="black" stroke="black" points="2078.5,-162.04 2075,-152.04 2071.5,-162.04 2078.5,-162.04"/>
</a>
</g>
</g>
<!-- 78538737d6304ca9a6afcecf62954734 -->
<g id="node36" class="node">
<title>78538737d6304ca9a6afcecf62954734</title>
<g id="a_node36"><a xlink:title="kind: Deployment&#10;apiVersion: apps/v1&#10;metadata:&#10; &#160;name: loadgenerator&#10;...">
<image xlink:href="https://raw.githubusercontent.com/mingrammer/diagrams/refs/heads/master/resources/k8s/compute/deploy.png" width="100.8px" height="100.8px" preserveAspectRatio="xMinYMin meet" x="1259.6" y="-572.4"/>
<text text-anchor="middle" x="1310" y="-454.75" font-family="Sans-Serif" font-size="13.00" fill="#2d3436">loadgenerator</text>
</a>
</g>
</g>
<!-- 78538737d6304ca9a6afcecf62954734&#45;&gt;21b7c89c678d432baffc775da7facab7 -->
<g id="edge20" class="edge">
<title>78538737d6304ca9a6afcecf62954734&#45;&gt;21b7c89c678d432baffc775da7facab7</title>
<g id="a_edge20"><a xlink:title="spec.template.spec.serviceAccountName: loadgenerator">
<path fill="none" stroke="black" d="M1310,-453.72C1310,-453.72 1310,-381.64 1310,-381.64"/>
<polygon fill="black" stroke="black" points="1313.5,-381.64 1310,-371.64 1306.5,-381.64 1313.5,-381.64"/>
</a>
</g>
</g>
</g>
</svg>
