<?xml version="1.0" encoding="UTF-8" standalone="no"?>
<!DOCTYPE svg PUBLIC "-//W3C//DTD SVG 1.1//EN"
 "http://www.w3.org/Graphics/SVG/1.1/DTD/svg11.dtd">
<!-- Generated by graphviz version 8.1.0 (20230707.0739)
 -->
<!-- Pages: 1 -->
<svg width="1345pt" height="2259pt"
 viewBox="0.00 0.00 1345.00 2258.70" xmlns="http://www.w3.org/2000/svg" xmlns:xlink="http://www.w3.org/1999/xlink">
<g id="graph0" class="graph" transform="scale(1 1) rotate(0) translate(144 2114.7)">
<polygon fill="white" stroke="none" points="-144,144 -144,-2114.7 1201,-2114.7 1201,144 -144,144"/>
<g id="clust1" class="cluster">
<title>cluster_Namespace: default</title>
<g id="a_clust1"><a xlink:title="Namespace: default">
<path fill="white" stroke="black" stroke-dasharray="5,2" d="M20,-8C20,-8 1037,-8 1037,-8 1043,-8 1049,-14 1049,-20 1049,-20 1049,-1950.7 1049,-1950.7 1049,-1956.7 1043,-1962.7 1037,-1962.7 1037,-1962.7 20,-1962.7 20,-1962.7 14,-1962.7 8,-1956.7 8,-1950.7 8,-1950.7 8,-20 8,-20 8,-14 14,-8 20,-8"/>
<image xlink:href="https://raw.githubusercontent.com/mingrammer/diagrams/refs/heads/master/resources/k8s/group/ns.png" width="60px" height="60px" preserveAspectRatio="xMinYMin meet" x="20" y="-1954.7"/>
<text text-anchor="start" x="32" y="-1877.3" font-family="Sans-Serif" font-size="12.00" fill="#2d3436">default</text>
</a>
</g>
</g>
<g id="clust2" class="cluster">
<title>cluster_Application: emailservice</title>
<g id="a_clust2"><a xlink:title="Application: emailservice">
<path fill="#ece8f6" stroke="#aeb6be" d="M235,-412C235,-412 360,-412 360,-412 366,-412 372,-418 372,-424 372,-424 372,-793.15 372,-793.15 372,-799.15 366,-805.15 360,-805.15 360,-805.15 235,-805.15 235,-805.15 229,-805.15 223,-799.15 223,-793.15 223,-793.15 223,-424 223,-424 223,-418 229,-412 235,-412"/>
<text text-anchor="middle" x="297.75" y="-789.75" font-family="Sans-Serif" font-size="12.00" fill="#2d3436">Application: emailservice</text>
</a>
</g>
</g>
<g id="clust3" class="cluster">
<title>cluster_Application: checkoutservice</title>
<g id="a_clust3"><a xlink:title="Application: checkoutservice">
<path fill="#ece8f6" stroke="#aeb6be" d="M441,-851.2C441,-851.2 585,-851.2 585,-851.2 591,-851.2 597,-857.2 597,-863.2 597,-863.2 597,-1232.35 597,-1232.35 597,-1238.35 591,-1244.35 585,-1244.35 585,-1244.35 441,-1244.35 441,-1244.35 435,-1244.35 429,-1238.35 429,-1232.35 429,-1232.35 429,-863.2 429,-863.2 429,-857.2 435,-851.2 441,-851.2"/>
<text text-anchor="middle" x="513.12" y="-1228.95" font-family="Sans-Serif" font-size="12.00" fill="#2d3436">Application: checkoutservice</text>
</a>
</g>
</g>
<g id="clust4" class="cluster">
<title>cluster_Application: recommendationservice</title>
<g id="a_clust4"><a xlink:title="Application: recommendationservice">
<path fill="#ece8f6" stroke="#aeb6be" d="M194,-836.8C194,-836.8 379,-836.8 379,-836.8 385,-836.8 391,-842.8 391,-848.8 391,-848.8 391,-1246.75 391,-1246.75 391,-1252.75 385,-1258.75 379,-1258.75 379,-1258.75 194,-1258.75 194,-1258.75 188,-1258.75 182,-1252.75 182,-1246.75 182,-1246.75 182,-848.8 182,-848.8 182,-842.8 188,-836.8 194,-836.8"/>
<text text-anchor="middle" x="286.75" y="-1243.35" font-family="Sans-Serif" font-size="12.00" fill="#2d3436">Application: recommendationservice</text>
</a>
</g>
</g>
<g id="clust5" class="cluster">
<title>cluster_Application: frontend</title>
<g id="a_clust5"><a xlink:title="Application: frontend">
<path fill="#ece8f6" stroke="#aeb6be" d="M495,-1276C495,-1276 731,-1276 731,-1276 737,-1276 743,-1282 743,-1288 743,-1288 743,-1657.15 743,-1657.15 743,-1663.15 737,-1669.15 731,-1669.15 731,-1669.15 495,-1669.15 495,-1669.15 489,-1669.15 483,-1663.15 483,-1657.15 483,-1657.15 483,-1288 483,-1288 483,-1282 489,-1276 495,-1276"/>
<text text-anchor="middle" x="545.75" y="-1653.75" font-family="Sans-Serif" font-size="12.00" fill="#2d3436">Application: frontend</text>
</a>
</g>
</g>
<g id="clust6" class="cluster">
<title>cluster_Application: paymentservice</title>
<g id="a_clust6"><a xlink:title="Application: paymentservice">
<path fill="#ece8f6" stroke="#aeb6be" d="M392,-412C392,-412 534,-412 534,-412 540,-412 546,-418 546,-424 546,-424 546,-793.15 546,-793.15 546,-799.15 540,-805.15 534,-805.15 534,-805.15 392,-805.15 392,-805.15 386,-805.15 380,-799.15 380,-793.15 380,-793.15 380,-424 380,-424 380,-418 386,-412 392,-412"/>
<text text-anchor="middle" x="463" y="-789.75" font-family="Sans-Serif" font-size="12.00" fill="#2d3436">Application: paymentservice</text>
</a>
</g>
</g>
<g id="clust7" class="cluster">
<title>cluster_Application: productcatalogservice</title>
<g id="a_clust7"><a xlink:title="Application: productcatalogservice">
<path fill="#ece8f6" stroke="#aeb6be" d="M28,-397.6C28,-397.6 203,-397.6 203,-397.6 209,-397.6 215,-403.6 215,-409.6 215,-409.6 215,-807.55 215,-807.55 215,-813.55 209,-819.55 203,-819.55 203,-819.55 28,-819.55 28,-819.55 22,-819.55 16,-813.55 16,-807.55 16,-807.55 16,-409.6 16,-409.6 16,-403.6 22,-397.6 28,-397.6"/>
<text text-anchor="middle" x="115.5" y="-804.15" font-family="Sans-Serif" font-size="12.00" fill="#2d3436">Application: productcatalogservice</text>
</a>
</g>
</g>
<g id="clust8" class="cluster">
<title>cluster_Application: cartservice</title>
<g id="a_clust8"><a xlink:title="Application: cartservice">
<path fill="#ece8f6" stroke="#aeb6be" d="M566,-412C566,-412 681,-412 681,-412 687,-412 693,-418 693,-424 693,-424 693,-793.15 693,-793.15 693,-799.15 687,-805.15 681,-805.15 681,-805.15 566,-805.15 566,-805.15 560,-805.15 554,-799.15 554,-793.15 554,-793.15 554,-424 554,-424 554,-418 560,-412 566,-412"/>
<text text-anchor="middle" x="623.88" y="-789.75" font-family="Sans-Serif" font-size="12.00" fill="#2d3436">Application: cartservice</text>
</a>
</g>
</g>
<g id="clust9" class="cluster">
<title>cluster_Application: redis&#45;cart</title>
<g id="a_clust9"><a xlink:title="Application: redis&#45;cart">
<path fill="#ece8f6" stroke="#aeb6be" d="M560,-16C560,-16 667,-16 667,-16 673,-16 679,-22 679,-28 679,-28 679,-368.35 679,-368.35 679,-374.35 673,-380.35 667,-380.35 667,-380.35 560,-380.35 560,-380.35 554,-380.35 548,-374.35 548,-368.35 548,-368.35 548,-28 548,-28 548,-22 554,-16 560,-16"/>
<text text-anchor="middle" x="613.75" y="-364.95" font-family="Sans-Serif" font-size="12.00" fill="#2d3436">Application: redis&#45;cart</text>
</a>
</g>
</g>
<g id="clust10" class="cluster">
<title>cluster_Application: loadgenerator</title>
<g id="a_clust10"><a xlink:title="Application: loadgenerator">
<path fill="#ece8f6" stroke="#aeb6be" d="M619,-1686.4C619,-1686.4 751,-1686.4 751,-1686.4 757,-1686.4 763,-1692.4 763,-1698.4 763,-1698.4 763,-1847.95 763,-1847.95 763,-1853.95 757,-1859.95 751,-1859.95 751,-1859.95 619,-1859.95 619,-1859.95 613,-1859.95 607,-1853.95 607,-1847.95 607,-1847.95 607,-1698.4 607,-1698.4 607,-1692.4 613,-1686.4 619,-1686.4"/>
<text text-anchor="middle" x="685.12" y="-1844.55" font-family="Sans-Serif" font-size="12.00" fill="#2d3436">Application: loadgenerator</text>
</a>
</g>
</g>
<g id="clust11" class="cluster">
<title>cluster_Application: currencyservice</title>
<g id="a_clust11"><a xlink:title="Application: currencyservice">
<path fill="#ece8f6" stroke="#aeb6be" d="M713,-412C713,-412 855,-412 855,-412 861,-412 867,-418 867,-424 867,-424 867,-793.15 867,-793.15 867,-799.15 861,-805.15 855,-805.15 855,-805.15 713,-805.15 713,-805.15 707,-805.15 701,-799.15 701,-793.15 701,-793.15 701,-424 701,-424 701,-418 707,-412 713,-412"/>
<text text-anchor="middle" x="784" y="-789.75" font-family="Sans-Serif" font-size="12.00" fill="#2d3436">Application: currencyservice</text>
</a>
</g>
</g>
<g id="clust12" class="cluster">
<title>cluster_Application: shippingservice</title>
<g id="a_clust12"><a xlink:title="Application: shippingservice">
<path fill="#ece8f6" stroke="#aeb6be" d="M887,-412C887,-412 1029,-412 1029,-412 1035,-412 1041,-418 1041,-424 1041,-424 1041,-793.15 1041,-793.15 1041,-799.15 1035,-805.15 1029,-805.15 1029,-805.15 887,-805.15 887,-805.15 881,-805.15 875,-799.15 875,-793.15 875,-793.15 875,-424 875,-424 875,-418 881,-412 887,-412"/>
<text text-anchor="middle" x="958" y="-789.75" font-family="Sans-Serif" font-size="12.00" fill="#2d3436">Application: shippingservice</text>
</a>
</g>
</g>
<g id="clust13" class="cluster">
<title>cluster_Application: adservice</title>
<g id="a_clust13"><a xlink:title="Application: adservice">
<path fill="#ece8f6" stroke="#aeb6be" d="M742,-851.2C742,-851.2 851,-851.2 851,-851.2 857,-851.2 863,-857.2 863,-863.2 863,-863.2 863,-1232.35 863,-1232.35 863,-1238.35 857,-1244.35 851,-1244.35 851,-1244.35 742,-1244.35 742,-1244.35 736,-1244.35 730,-1238.35 730,-1232.35 730,-1232.35 730,-863.2 730,-863.2 730,-857.2 736,-851.2 742,-851.2"/>
<text text-anchor="middle" x="796.88" y="-1228.95" font-family="Sans-Serif" font-size="12.00" fill="#2d3436">Application: adservice</text>
</a>
</g>
</g>
<!-- b9710cc7b3bc452585b35b1ee8c8d9dc -->
<g id="node1" class="node">
<title>b9710cc7b3bc452585b35b1ee8c8d9dc</title>
<g id="a_node1"><a xlink:title="kind: Deployment&#10;apiVersion: apps/v1&#10;metadata:&#10; &#160;name: emailservice&#10;...">
<image xlink:href="https://raw.githubusercontent.com/mingrammer/diagrams/refs/heads/master/resources/k8s/compute/deploy.png" width="100.8px" height="100.8px" preserveAspectRatio="xMinYMin meet" x="263.6" y="-538.8"/>
<text text-anchor="middle" x="314" y="-421.15" font-family="Sans-Serif" font-size="13.00" fill="#2d3436">emailservice</text>
</a>
</g>
</g>
<!-- 25b0f2ac1576476c88aa6e44d7624c70 -->
<g id="node2" class="node">
<title>25b0f2ac1576476c88aa6e44d7624c70</title>
<g id="a_node2"><a xlink:title="kind: Service&#10;apiVersion: v1&#10;metadata:&#10; &#160;name: emailservice&#10;...">
<image xlink:href="https://raw.githubusercontent.com/mingrammer/diagrams/refs/heads/master/resources/k8s/network/svc.png" width="100.8px" height="100.8px" preserveAspectRatio="xMinYMin meet" x="263.6" y="-758.4"/>
<text text-anchor="middle" x="314" y="-640.75" font-family="Sans-Serif" font-size="13.00" fill="#2d3436">emailservice</text>
</a>
</g>
</g>
<!-- 25b0f2ac1576476c88aa6e44d7624c70&#45;&gt;b9710cc7b3bc452585b35b1ee8c8d9dc -->
<g id="edge1" class="edge">
<title>25b0f2ac1576476c88aa6e44d7624c70&#45;&gt;b9710cc7b3bc452585b35b1ee8c8d9dc</title>
<g id="a_edge1"><a xlink:title="spec.selector:&#10; &#160;app: emailservice">
<path fill="none" stroke="black" stroke-dasharray="5,2" d="M314,-639.72C314,-639.72 314,-567.64 314,-567.64"/>
<polygon fill="black" stroke="black" points="317.5,-567.64 314,-557.64 310.5,-567.64 317.5,-567.64"/>
</a>
</g>
<text text-anchor="middle" x="276.88" y="-605.43" font-family="Sans-Serif" font-size="10.00" fill="#2d3436">5000&#45;&gt;8080/TCP</text>
</g>
<!-- c60ca1bfe26448638d621ad9c8d48c27 -->
<g id="node3" class="node">
<title>c60ca1bfe26448638d621ad9c8d48c27</title>
<g id="a_node3"><a xlink:title="kind: Deployment&#10;apiVersion: apps/v1&#10;metadata:&#10; &#160;name: checkoutservice&#10;...">
<image xlink:href="https://raw.githubusercontent.com/mingrammer/diagrams/refs/heads/master/resources/k8s/compute/deploy.png" width="100.8px" height="100.8px" preserveAspectRatio="xMinYMin meet" x="468.6" y="-978"/>
<text text-anchor="middle" x="519" y="-860.35" font-family="Sans-Serif" font-size="13.00" fill="#2d3436">checkoutservice</text>
</a>
</g>
</g>
<!-- c60ca1bfe26448638d621ad9c8d48c27&#45;&gt;25b0f2ac1576476c88aa6e44d7624c70 -->
<g id="edge16" class="edge">
<title>c60ca1bfe26448638d621ad9c8d48c27&#45;&gt;25b0f2ac1576476c88aa6e44d7624c70</title>
<g id="a_edge16"><a xlink:title="from: checkoutservice/default/Deployment/apps/v1&#10;to: emailservice/default/Service/v1">
<path fill="none" stroke="brown" d="M469.04,-927C421.41,-927 356.9,-927 356.9,-927 356.9,-927 356.9,-787.39 356.9,-787.39"/>
<polygon fill="brown" stroke="brown" points="360.4,-787.39 356.9,-777.39 353.4,-787.39 360.4,-787.39"/>
</a>
</g>
</g>
<!-- ecae9545ef4b4a28ad638452513fb18e -->
<g id="node11" class="node">
<title>ecae9545ef4b4a28ad638452513fb18e</title>
<g id="a_node11"><a xlink:title="kind: Service&#10;apiVersion: v1&#10;metadata:&#10; &#160;name: paymentservice&#10;...">
<image xlink:href="https://raw.githubusercontent.com/mingrammer/diagrams/refs/heads/master/resources/k8s/network/svc.png" width="100.8px" height="100.8px" preserveAspectRatio="xMinYMin meet" x="418.6" y="-758.4"/>
<text text-anchor="middle" x="469" y="-640.75" font-family="Sans-Serif" font-size="13.00" fill="#2d3436">paymentservice</text>
</a>
</g>
</g>
<!-- c60ca1bfe26448638d621ad9c8d48c27&#45;&gt;ecae9545ef4b4a28ad638452513fb18e -->
<g id="edge15" class="edge">
<title>c60ca1bfe26448638d621ad9c8d48c27&#45;&gt;ecae9545ef4b4a28ad638452513fb18e</title>
<g id="a_edge15"><a xlink:title="from: checkoutservice/default/Deployment/apps/v1&#10;to: paymentservice/default/Service/v1">
<path fill="none" stroke="brown" d="M502.47,-859.32C502.47,-859.32 502.47,-787.24 502.47,-787.24"/>
<polygon fill="brown" stroke="brown" points="505.97,-787.24 502.47,-777.24 498.97,-787.24 505.97,-787.24"/>
</a>
</g>
</g>
<!-- dffcbe00271b4dc3b7e2e6daf46fbc0d -->
<g id="node13" class="node">
<title>dffcbe00271b4dc3b7e2e6daf46fbc0d</title>
<g id="a_node13"><a xlink:title="kind: Service&#10;apiVersion: v1&#10;metadata:&#10; &#160;name: productcatalogservice&#10;...">
<image xlink:href="https://raw.githubusercontent.com/mingrammer/diagrams/refs/heads/master/resources/k8s/network/svc.png" width="100.8px" height="100.8px" preserveAspectRatio="xMinYMin meet" x="106.6" y="-758.4"/>
<text text-anchor="middle" x="157" y="-639.85" font-family="Sans-Serif" font-size="13.00" fill="#2d3436">productcatalogse</text>
<text text-anchor="middle" x="157" y="-626.35" font-family="Sans-Serif" font-size="13.00" fill="#2d3436">rvice</text>
</a>
</g>
</g>
<!-- c60ca1bfe26448638d621ad9c8d48c27&#45;&gt;dffcbe00271b4dc3b7e2e6daf46fbc0d -->
<g id="edge13" class="edge">
<title>c60ca1bfe26448638d621ad9c8d48c27&#45;&gt;dffcbe00271b4dc3b7e2e6daf46fbc0d</title>
<g id="a_edge13"><a xlink:title="from: checkoutservice/default/Deployment/apps/v1&#10;to: productcatalogservice/default/Service/v1">
<path fill="none" stroke="brown" d="M485.53,-859.53C485.53,-822.03 485.53,-783 485.53,-783 485.53,-783 218.25,-783 218.25,-783"/>
<polygon fill="brown" stroke="brown" points="218.25,-779.5 208.25,-783 218.25,-786.5 218.25,-779.5"/>
</a>
</g>
</g>
<!-- 61278af3206148508d6c10f8720f533b -->
<g id="node15" class="node">
<title>61278af3206148508d6c10f8720f533b</title>
<g id="a_node15"><a xlink:title="kind: Service&#10;apiVersion: v1&#10;metadata:&#10; &#160;name: cartservice&#10;...">
<image xlink:href="https://raw.githubusercontent.com/mingrammer/diagrams/refs/heads/master/resources/k8s/network/svc.png" width="100.8px" height="100.8px" preserveAspectRatio="xMinYMin meet" x="562.6" y="-758.4"/>
<text text-anchor="middle" x="613" y="-640.75" font-family="Sans-Serif" font-size="13.00" fill="#2d3436">cartservice</text>
</a>
</g>
</g>
<!-- c60ca1bfe26448638d621ad9c8d48c27&#45;&gt;61278af3206148508d6c10f8720f533b -->
<g id="edge18" class="edge">
<title>c60ca1bfe26448638d621ad9c8d48c27&#45;&gt;61278af3206148508d6c10f8720f533b</title>
<g id="a_edge18"><a xlink:title="from: checkoutservice/default/Deployment/apps/v1&#10;to: cartservice/default/Service/v1">
<path fill="none" stroke="brown" d="M548.2,-859.32C548.2,-794.86 548.2,-708 548.2,-708 548.2,-708 551.9,-708 551.9,-708"/>
<polygon fill="brown" stroke="brown" points="551.9,-711.5 561.9,-708 551.9,-704.5 551.9,-711.5"/>
</a>
</g>
</g>
<!-- cbf344ce6e884f39a0d6aeec39cba127 -->
<g id="node20" class="node">
<title>cbf344ce6e884f39a0d6aeec39cba127</title>
<g id="a_node20"><a xlink:title="kind: Service&#10;apiVersion: v1&#10;metadata:&#10; &#160;name: currencyservice&#10;...">
<image xlink:href="https://raw.githubusercontent.com/mingrammer/diagrams/refs/heads/master/resources/k8s/network/svc.png" width="100.8px" height="100.8px" preserveAspectRatio="xMinYMin meet" x="708.6" y="-758.4"/>
<text text-anchor="middle" x="759" y="-640.75" font-family="Sans-Serif" font-size="13.00" fill="#2d3436">currencyservice</text>
</a>
</g>
</g>
<!-- c60ca1bfe26448638d621ad9c8d48c27&#45;&gt;cbf344ce6e884f39a0d6aeec39cba127 -->
<g id="edge17" class="edge">
<title>c60ca1bfe26448638d621ad9c8d48c27&#45;&gt;cbf344ce6e884f39a0d6aeec39cba127</title>
<g id="a_edge17"><a xlink:title="from: checkoutservice/default/Deployment/apps/v1&#10;to: currencyservice/default/Service/v1">
<path fill="none" stroke="brown" d="M569.35,-927C628.17,-927 717.53,-927 717.53,-927 717.53,-927 717.53,-787.39 717.53,-787.39"/>
<polygon fill="brown" stroke="brown" points="721.03,-787.39 717.53,-777.39 714.03,-787.39 721.03,-787.39"/>
</a>
</g>
</g>
<!-- fd7a5ac5b72b42409ef0f69e7216f1e5 -->
<g id="node22" class="node">
<title>fd7a5ac5b72b42409ef0f69e7216f1e5</title>
<g id="a_node22"><a xlink:title="kind: Service&#10;apiVersion: v1&#10;metadata:&#10; &#160;name: shippingservice&#10;...">
<image xlink:href="https://raw.githubusercontent.com/mingrammer/diagrams/refs/heads/master/resources/k8s/network/svc.png" width="100.8px" height="100.8px" preserveAspectRatio="xMinYMin meet" x="882.6" y="-758.4"/>
<text text-anchor="middle" x="933" y="-640.75" font-family="Sans-Serif" font-size="13.00" fill="#2d3436">shippingservice</text>
</a>
</g>
</g>
<!-- c60ca1bfe26448638d621ad9c8d48c27&#45;&gt;fd7a5ac5b72b42409ef0f69e7216f1e5 -->
<g id="edge14" class="edge">
<title>c60ca1bfe26448638d621ad9c8d48c27&#45;&gt;fd7a5ac5b72b42409ef0f69e7216f1e5</title>
<g id="a_edge14"><a xlink:title="from: checkoutservice/default/Deployment/apps/v1&#10;to: shippingservice/default/Service/v1">
<path fill="none" stroke="brown" d="M533.8,-859.25C533.8,-854.77 533.8,-852 533.8,-852 533.8,-852 916.2,-852 916.2,-852 916.2,-852 916.2,-787.2 916.2,-787.2"/>
<polygon fill="brown" stroke="brown" points="919.7,-787.2 916.2,-777.2 912.7,-787.2 919.7,-787.2"/>
</a>
</g>
</g>
<!-- 5eea5f7f47b443089cf43e0b121b5303 -->
<g id="node4" class="node">
<title>5eea5f7f47b443089cf43e0b121b5303</title>
<g id="a_node4"><a xlink:title="kind: Service&#10;apiVersion: v1&#10;metadata:&#10; &#160;name: checkoutservice&#10;...">
<image xlink:href="https://raw.githubusercontent.com/mingrammer/diagrams/refs/heads/master/resources/k8s/network/svc.png" width="100.8px" height="100.8px" preserveAspectRatio="xMinYMin meet" x="468.6" y="-1197.6"/>
<text text-anchor="middle" x="519" y="-1079.95" font-family="Sans-Serif" font-size="13.00" fill="#2d3436">checkoutservice</text>
</a>
</g>
</g>
<!-- 5eea5f7f47b443089cf43e0b121b5303&#45;&gt;c60ca1bfe26448638d621ad9c8d48c27 -->
<g id="edge2" class="edge">
<title>5eea5f7f47b443089cf43e0b121b5303&#45;&gt;c60ca1bfe26448638d621ad9c8d48c27</title>
<g id="a_edge2"><a xlink:title="spec.selector:&#10; &#160;app: checkoutservice">
<path fill="none" stroke="black" stroke-dasharray="5,2" d="M519,-1078.92C519,-1078.92 519,-1006.84 519,-1006.84"/>
<polygon fill="black" stroke="black" points="522.5,-1006.84 519,-996.84 515.5,-1006.84 522.5,-1006.84"/>
</a>
</g>
<text text-anchor="middle" x="496.88" y="-1044.63" font-family="Sans-Serif" font-size="10.00" fill="#2d3436">5050/TCP</text>
</g>
<!-- 378294d6a0f147de934f580e462a1f18 -->
<g id="node5" class="node">
<title>378294d6a0f147de934f580e462a1f18</title>
<g id="a_node5"><a xlink:title="kind: Deployment&#10;apiVersion: apps/v1&#10;metadata:&#10; &#160;name: recommendationservice&#10;...">
<image xlink:href="https://raw.githubusercontent.com/mingrammer/diagrams/refs/heads/master/resources/k8s/compute/deploy.png" width="100.8px" height="100.8px" preserveAspectRatio="xMinYMin meet" x="229.6" y="-978"/>
<text text-anchor="middle" x="280" y="-859.45" font-family="Sans-Serif" font-size="13.00" fill="#2d3436">recommendationse</text>
<text text-anchor="middle" x="280" y="-845.95" font-family="Sans-Serif" font-size="13.00" fill="#2d3436">rvice</text>
</a>
</g>
</g>
<!-- 378294d6a0f147de934f580e462a1f18&#45;&gt;dffcbe00271b4dc3b7e2e6daf46fbc0d -->
<g id="edge19" class="edge">
<title>378294d6a0f147de934f580e462a1f18&#45;&gt;dffcbe00271b4dc3b7e2e6daf46fbc0d</title>
<g id="a_edge19"><a xlink:title="from: recommendationservice/default/Deployment/apps/v1&#10;to: productcatalogservice/default/Service/v1">
<path fill="none" stroke="brown" d="M246.6,-845C246.6,-814.39 246.6,-787 246.6,-787 246.6,-787 218.3,-787 218.3,-787"/>
<polygon fill="brown" stroke="brown" points="218.3,-783.5 208.3,-787 218.3,-790.5 218.3,-783.5"/>
</a>
</g>
</g>
<!-- ceec3891d17646698be163840dbdee40 -->
<g id="node6" class="node">
<title>ceec3891d17646698be163840dbdee40</title>
<g id="a_node6"><a xlink:title="kind: Service&#10;apiVersion: v1&#10;metadata:&#10; &#160;name: recommendationservice&#10;...">
<image xlink:href="https://raw.githubusercontent.com/mingrammer/diagrams/refs/heads/master/resources/k8s/network/svc.png" width="100.8px" height="100.8px" preserveAspectRatio="xMinYMin meet" x="248.6" y="-1197.6"/>
<text text-anchor="middle" x="299" y="-1079.05" font-family="Sans-Serif" font-size="13.00" fill="#2d3436">recommendationse</text>
<text text-anchor="middle" x="299" y="-1065.55" font-family="Sans-Serif" font-size="13.00" fill="#2d3436">rvice</text>
</a>
</g>
</g>
<!-- ceec3891d17646698be163840dbdee40&#45;&gt;378294d6a0f147de934f580e462a1f18 -->
<g id="edge3" class="edge">
<title>ceec3891d17646698be163840dbdee40&#45;&gt;378294d6a0f147de934f580e462a1f18</title>
<g id="a_edge3"><a xlink:title="spec.selector:&#10; &#160;app: recommendationservice">
<path fill="none" stroke="black" stroke-dasharray="5,2" d="M289.5,-1064.49C289.5,-1064.49 289.5,-1021.23 289.5,-1021.23"/>
<polygon fill="black" stroke="black" points="293,-1021.23 289.5,-1011.23 286,-1021.23 293,-1021.23"/>
</a>
</g>
<text text-anchor="middle" x="267.38" y="-1044.61" font-family="Sans-Serif" font-size="10.00" fill="#2d3436">8080/TCP</text>
</g>
<!-- 4e61dc31cf9f406dab4f45c3b44036db -->
<g id="node7" class="node">
<title>4e61dc31cf9f406dab4f45c3b44036db</title>
<g id="a_node7"><a xlink:title="kind: Deployment&#10;apiVersion: apps/v1&#10;metadata:&#10; &#160;name: frontend&#10;...">
<image xlink:href="https://raw.githubusercontent.com/mingrammer/diagrams/refs/heads/master/resources/k8s/compute/deploy.png" width="100.8px" height="100.8px" preserveAspectRatio="xMinYMin meet" x="562.6" y="-1402.8"/>
<text text-anchor="middle" x="613" y="-1285.15" font-family="Sans-Serif" font-size="13.00" fill="#2d3436">frontend</text>
</a>
</g>
</g>
<!-- 4e61dc31cf9f406dab4f45c3b44036db&#45;&gt;5eea5f7f47b443089cf43e0b121b5303 -->
<g id="edge25" class="edge">
<title>4e61dc31cf9f406dab4f45c3b44036db&#45;&gt;5eea5f7f47b443089cf43e0b121b5303</title>
<g id="a_edge25"><a xlink:title="from: frontend/default/Deployment/apps/v1&#10;to: checkoutservice/default/Service/v1">
<path fill="none" stroke="brown" d="M562.74,-1352C543.73,-1352 526.6,-1352 526.6,-1352 526.6,-1352 526.6,-1226.4 526.6,-1226.4"/>
<polygon fill="brown" stroke="brown" points="530.1,-1226.4 526.6,-1216.4 523.1,-1226.4 530.1,-1226.4"/>
</a>
</g>
</g>
<!-- 4e61dc31cf9f406dab4f45c3b44036db&#45;&gt;ceec3891d17646698be163840dbdee40 -->
<g id="edge23" class="edge">
<title>4e61dc31cf9f406dab4f45c3b44036db&#45;&gt;ceec3891d17646698be163840dbdee40</title>
<g id="a_edge23"><a xlink:title="from: frontend/default/Deployment/apps/v1&#10;to: recommendationservice/default/Service/v1">
<path fill="none" stroke="brown" d="M588.2,-1284.14C588.2,-1252.59 588.2,-1222 588.2,-1222 588.2,-1222 360.37,-1222 360.37,-1222"/>
<polygon fill="brown" stroke="brown" points="360.37,-1218.5 350.37,-1222 360.37,-1225.5 360.37,-1218.5"/>
</a>
</g>
</g>
<!-- 4e61dc31cf9f406dab4f45c3b44036db&#45;&gt;dffcbe00271b4dc3b7e2e6daf46fbc0d -->
<g id="edge20" class="edge">
<title>4e61dc31cf9f406dab4f45c3b44036db&#45;&gt;dffcbe00271b4dc3b7e2e6daf46fbc0d</title>
<g id="a_edge20"><a xlink:title="from: frontend/default/Deployment/apps/v1&#10;to: productcatalogservice/default/Service/v1">
<path fill="none" stroke="brown" d="M607,-1284.21C607,-1132.43 607,-780 607,-780 607,-780 218.31,-780 218.31,-780"/>
<polygon fill="brown" stroke="brown" points="218.31,-776.5 208.31,-780 218.31,-783.5 218.31,-776.5"/>
</a>
</g>
</g>
<!-- 4e61dc31cf9f406dab4f45c3b44036db&#45;&gt;61278af3206148508d6c10f8720f533b -->
<g id="edge22" class="edge">
<title>4e61dc31cf9f406dab4f45c3b44036db&#45;&gt;61278af3206148508d6c10f8720f533b</title>
<g id="a_edge22"><a xlink:title="from: frontend/default/Deployment/apps/v1&#10;to: cartservice/default/Service/v1">
<path fill="none" stroke="brown" d="M625.8,-1284.05C625.8,-1284.05 625.8,-787.14 625.8,-787.14"/>
<polygon fill="brown" stroke="brown" points="629.3,-787.14 625.8,-777.14 622.3,-787.14 629.3,-787.14"/>
</a>
</g>
</g>
<!-- 4e61dc31cf9f406dab4f45c3b44036db&#45;&gt;cbf344ce6e884f39a0d6aeec39cba127 -->
<g id="edge21" class="edge">
<title>4e61dc31cf9f406dab4f45c3b44036db&#45;&gt;cbf344ce6e884f39a0d6aeec39cba127</title>
<g id="a_edge21"><a xlink:title="from: frontend/default/Deployment/apps/v1&#10;to: currencyservice/default/Service/v1">
<path fill="none" stroke="brown" d="M663.1,-1329C693.49,-1329 726.47,-1329 726.47,-1329 726.47,-1329 726.47,-787.23 726.47,-787.23"/>
<polygon fill="brown" stroke="brown" points="729.97,-787.23 726.47,-777.23 722.97,-787.23 729.97,-787.23"/>
</a>
</g>
</g>
<!-- 4e61dc31cf9f406dab4f45c3b44036db&#45;&gt;fd7a5ac5b72b42409ef0f69e7216f1e5 -->
<g id="edge24" class="edge">
<title>4e61dc31cf9f406dab4f45c3b44036db&#45;&gt;fd7a5ac5b72b42409ef0f69e7216f1e5</title>
<g id="a_edge24"><a xlink:title="from: frontend/default/Deployment/apps/v1&#10;to: shippingservice/default/Service/v1">
<path fill="none" stroke="brown" d="M663.06,-1375C756.88,-1375 949.8,-1375 949.8,-1375 949.8,-1375 949.8,-787.25 949.8,-787.25"/>
<polygon fill="brown" stroke="brown" points="953.3,-787.25 949.8,-777.25 946.3,-787.25 953.3,-787.25"/>
</a>
</g>
</g>
<!-- 99515ddab180447b957849377cb2c0c5 -->
<g id="node24" class="node">
<title>99515ddab180447b957849377cb2c0c5</title>
<g id="a_node24"><a xlink:title="kind: Service&#10;apiVersion: v1&#10;metadata:&#10; &#160;name: adservice&#10;...">
<image xlink:href="https://raw.githubusercontent.com/mingrammer/diagrams/refs/heads/master/resources/k8s/network/svc.png" width="100.8px" height="100.8px" preserveAspectRatio="xMinYMin meet" x="746.6" y="-1197.6"/>
<text text-anchor="middle" x="797" y="-1079.95" font-family="Sans-Serif" font-size="13.00" fill="#2d3436">adservice</text>
</a>
</g>
</g>
<!-- 4e61dc31cf9f406dab4f45c3b44036db&#45;&gt;99515ddab180447b957849377cb2c0c5 -->
<g id="edge26" class="edge">
<title>4e61dc31cf9f406dab4f45c3b44036db&#45;&gt;99515ddab180447b957849377cb2c0c5</title>
<g id="a_edge26"><a xlink:title="from: frontend/default/Deployment/apps/v1&#10;to: adservice/default/Service/v1">
<path fill="none" stroke="brown" d="M644.6,-1284C644.6,-1224.25 644.6,-1147 644.6,-1147 644.6,-1147 735.68,-1147 735.68,-1147"/>
<polygon fill="brown" stroke="brown" points="735.68,-1150.5 745.68,-1147 735.68,-1143.5 735.68,-1150.5"/>
</a>
</g>
</g>
<!-- 59f7796ef28b4096a1f2519d0123f0bc -->
<g id="node8" class="node">
<title>59f7796ef28b4096a1f2519d0123f0bc</title>
<g id="a_node8"><a xlink:title="kind: Service&#10;apiVersion: v1&#10;metadata:&#10; &#160;name: frontend&#10;...">
<image xlink:href="https://raw.githubusercontent.com/mingrammer/diagrams/refs/heads/master/resources/k8s/network/svc.png" width="100.8px" height="100.8px" preserveAspectRatio="xMinYMin meet" x="634.6" y="-1608"/>
<text text-anchor="middle" x="685" y="-1490.35" font-family="Sans-Serif" font-size="13.00" fill="#2d3436">frontend</text>
</a>
</g>
</g>
<!-- 59f7796ef28b4096a1f2519d0123f0bc&#45;&gt;4e61dc31cf9f406dab4f45c3b44036db -->
<g id="edge4" class="edge">
<title>59f7796ef28b4096a1f2519d0123f0bc&#45;&gt;4e61dc31cf9f406dab4f45c3b44036db</title>
<g id="a_edge4"><a xlink:title="spec.selector:&#10; &#160;app: frontend">
<path fill="none" stroke="black" stroke-dasharray="5,2" d="M649,-1489.27C649,-1489.27 649,-1431.78 649,-1431.78"/>
<polygon fill="black" stroke="black" points="652.5,-1431.78 649,-1421.78 645.5,-1431.78 652.5,-1431.78"/>
</a>
</g>
<text text-anchor="middle" x="617.12" y="-1462.28" font-family="Sans-Serif" font-size="10.00" fill="#2d3436">80&#45;&gt;8080/TCP</text>
</g>
<!-- e7e20686f27841c4abdd1e003ed0fddd -->
<g id="node9" class="node">
<title>e7e20686f27841c4abdd1e003ed0fddd</title>
<g id="a_node9"><a xlink:title="kind: Service&#10;apiVersion: v1&#10;metadata:&#10; &#160;name: frontend&#45;external&#10;...">
<image xlink:href="https://raw.githubusercontent.com/mingrammer/diagrams/refs/heads/master/resources/k8s/network/svc.png" width="100.8px" height="100.8px" preserveAspectRatio="xMinYMin meet" x="490.6" y="-1608"/>
<text text-anchor="middle" x="541" y="-1489.45" font-family="Sans-Serif" font-size="13.00" fill="#2d3436">frontend</text>
<text text-anchor="middle" x="541" y="-1475.95" font-family="Sans-Serif" font-size="13.00" fill="#2d3436">&#45;external</text>
</a>
</g>
</g>
<!-- e7e20686f27841c4abdd1e003ed0fddd&#45;&gt;4e61dc31cf9f406dab4f45c3b44036db -->
<g id="edge5" class="edge">
<title>e7e20686f27841c4abdd1e003ed0fddd&#45;&gt;4e61dc31cf9f406dab4f45c3b44036db</title>
<g id="a_edge5"><a xlink:title="spec.selector:&#10; &#160;app: frontend">
<path fill="none" stroke="black" stroke-dasharray="5,2" d="M577,-1475.02C577,-1475.02 577,-1431.67 577,-1431.67"/>
<polygon fill="black" stroke="black" points="580.5,-1431.67 577,-1421.67 573.5,-1431.67 580.5,-1431.67"/>
</a>
</g>
<text text-anchor="middle" x="545.12" y="-1455.1" font-family="Sans-Serif" font-size="10.00" fill="#2d3436">80&#45;&gt;8080/TCP</text>
</g>
<!-- a34180fa4e2e48d7a5d8fd9f184e05c3 -->
<g id="node10" class="node">
<title>a34180fa4e2e48d7a5d8fd9f184e05c3</title>
<g id="a_node10"><a xlink:title="kind: Deployment&#10;apiVersion: apps/v1&#10;metadata:&#10; &#160;name: paymentservice&#10;...">
<image xlink:href="https://raw.githubusercontent.com/mingrammer/diagrams/refs/heads/master/resources/k8s/compute/deploy.png" width="100.8px" height="100.8px" preserveAspectRatio="xMinYMin meet" x="418.6" y="-538.8"/>
<text text-anchor="middle" x="469" y="-421.15" font-family="Sans-Serif" font-size="13.00" fill="#2d3436">paymentservice</text>
</a>
</g>
</g>
<!-- ecae9545ef4b4a28ad638452513fb18e&#45;&gt;a34180fa4e2e48d7a5d8fd9f184e05c3 -->
<g id="edge6" class="edge">
<title>ecae9545ef4b4a28ad638452513fb18e&#45;&gt;a34180fa4e2e48d7a5d8fd9f184e05c3</title>
<g id="a_edge6"><a xlink:title="spec.selector:&#10; &#160;app: paymentservice">
<path fill="none" stroke="black" stroke-dasharray="5,2" d="M469,-639.72C469,-639.72 469,-567.64 469,-567.64"/>
<polygon fill="black" stroke="black" points="472.5,-567.64 469,-557.64 465.5,-567.64 472.5,-567.64"/>
</a>
</g>
<text text-anchor="middle" x="444.25" y="-605.43" font-family="Sans-Serif" font-size="10.00" fill="#2d3436">50051/TCP</text>
</g>
<!-- 42ba22b68cd7421ea5937779fb720854 -->
<g id="node12" class="node">
<title>42ba22b68cd7421ea5937779fb720854</title>
<g id="a_node12"><a xlink:title="kind: Deployment&#10;apiVersion: apps/v1&#10;metadata:&#10; &#160;name: productcatalogservice&#10;...">
<image xlink:href="https://raw.githubusercontent.com/mingrammer/diagrams/refs/heads/master/resources/k8s/compute/deploy.png" width="100.8px" height="100.8px" preserveAspectRatio="xMinYMin meet" x="106.6" y="-538.8"/>
<text text-anchor="middle" x="157" y="-420.25" font-family="Sans-Serif" font-size="13.00" fill="#2d3436">productcatalogse</text>
<text text-anchor="middle" x="157" y="-406.75" font-family="Sans-Serif" font-size="13.00" fill="#2d3436">rvice</text>
</a>
</g>
</g>
<!-- dffcbe00271b4dc3b7e2e6daf46fbc0d&#45;&gt;42ba22b68cd7421ea5937779fb720854 -->
<g id="edge7" class="edge">
<title>dffcbe00271b4dc3b7e2e6daf46fbc0d&#45;&gt;42ba22b68cd7421ea5937779fb720854</title>
<g id="a_edge7"><a xlink:title="spec.selector:&#10; &#160;app: productcatalogservice">
<path fill="none" stroke="black" stroke-dasharray="5,2" d="M157,-625.29C157,-625.29 157,-582.03 157,-582.03"/>
<polygon fill="black" stroke="black" points="160.5,-582.03 157,-572.03 153.5,-582.03 160.5,-582.03"/>
</a>
</g>
<text text-anchor="middle" x="134.88" y="-605.41" font-family="Sans-Serif" font-size="10.00" fill="#2d3436">3550/TCP</text>
</g>
<!-- cd5ce08adcaf4f73950b051b350bd5d2 -->
<g id="node14" class="node">
<title>cd5ce08adcaf4f73950b051b350bd5d2</title>
<g id="a_node14"><a xlink:title="kind: Deployment&#10;apiVersion: apps/v1&#10;metadata:&#10; &#160;name: cartservice&#10;...">
<image xlink:href="https://raw.githubusercontent.com/mingrammer/diagrams/refs/heads/master/resources/k8s/compute/deploy.png" width="100.8px" height="100.8px" preserveAspectRatio="xMinYMin meet" x="562.6" y="-538.8"/>
<text text-anchor="middle" x="613" y="-421.15" font-family="Sans-Serif" font-size="13.00" fill="#2d3436">cartservice</text>
</a>
</g>
</g>
<!-- a5a4f616798d4367bb51c26a748e2add -->
<g id="node17" class="node">
<title>a5a4f616798d4367bb51c26a748e2add</title>
<g id="a_node17"><a xlink:title="kind: Service&#10;apiVersion: v1&#10;metadata:&#10; &#160;name: redis&#45;cart&#10;...">
<image xlink:href="https://raw.githubusercontent.com/mingrammer/diagrams/refs/heads/master/resources/k8s/network/svc.png" width="100.8px" height="100.8px" preserveAspectRatio="xMinYMin meet" x="562.6" y="-333.6"/>
<text text-anchor="middle" x="613" y="-215.95" font-family="Sans-Serif" font-size="13.00" fill="#2d3436">redis&#45;cart</text>
</a>
</g>
</g>
<!-- cd5ce08adcaf4f73950b051b350bd5d2&#45;&gt;a5a4f616798d4367bb51c26a748e2add -->
<g id="edge28" class="edge">
<title>cd5ce08adcaf4f73950b051b350bd5d2&#45;&gt;a5a4f616798d4367bb51c26a748e2add</title>
<g id="a_edge28"><a xlink:title="from: cartservice/default/Deployment/apps/v1&#10;to: redis&#45;cart/default/Service/v1">
<path fill="none" stroke="brown" d="M613,-420.07C613,-420.07 613,-362.58 613,-362.58"/>
<polygon fill="brown" stroke="brown" points="616.5,-362.58 613,-352.58 609.5,-362.58 616.5,-362.58"/>
</a>
</g>
</g>
<!-- 61278af3206148508d6c10f8720f533b&#45;&gt;cd5ce08adcaf4f73950b051b350bd5d2 -->
<g id="edge8" class="edge">
<title>61278af3206148508d6c10f8720f533b&#45;&gt;cd5ce08adcaf4f73950b051b350bd5d2</title>
<g id="a_edge8"><a xlink:title="spec.selector:&#10; &#160;app: cartservice">
<path fill="none" stroke="black" stroke-dasharray="5,2" d="M613,-639.72C613,-639.72 613,-567.64 613,-567.64"/>
<polygon fill="black" stroke="black" points="616.5,-567.64 613,-557.64 609.5,-567.64 616.5,-567.64"/>
</a>
</g>
<text text-anchor="middle" x="590.88" y="-605.43" font-family="Sans-Serif" font-size="10.00" fill="#2d3436">7070/TCP</text>
</g>
<!-- 15c367bb15ed4d3f98b0531489782a2d -->
<g id="node16" class="node">
<title>15c367bb15ed4d3f98b0531489782a2d</title>
<g id="a_node16"><a xlink:title="kind: Deployment&#10;apiVersion: apps/v1&#10;metadata:&#10; &#160;name: redis&#45;cart&#10;...">
<image xlink:href="https://raw.githubusercontent.com/mingrammer/diagrams/refs/heads/master/resources/k8s/compute/deploy.png" width="100.8px" height="100.8px" preserveAspectRatio="xMinYMin meet" x="562.6" y="-142.8"/>
<text text-anchor="middle" x="613" y="-25.15" font-family="Sans-Serif" font-size="13.00" fill="#2d3436">redis&#45;cart</text>
</a>
</g>
</g>
<!-- a5a4f616798d4367bb51c26a748e2add&#45;&gt;15c367bb15ed4d3f98b0531489782a2d -->
<g id="edge9" class="edge">
<title>a5a4f616798d4367bb51c26a748e2add&#45;&gt;15c367bb15ed4d3f98b0531489782a2d</title>
<g id="a_edge9"><a xlink:title="spec.selector:&#10; &#160;app: redis&#45;cart">
<path fill="none" stroke="black" stroke-dasharray="5,2" d="M613,-214.86C613,-214.86 613,-171.59 613,-171.59"/>
<polygon fill="black" stroke="black" points="616.5,-171.59 613,-161.59 609.5,-171.59 616.5,-171.59"/>
</a>
</g>
<text text-anchor="middle" x="590.88" y="-194.97" font-family="Sans-Serif" font-size="10.00" fill="#2d3436">6379/TCP</text>
</g>
<!-- 5bda394aec2e4272b3c23e0da506aae3 -->
<g id="node18" class="node">
<title>5bda394aec2e4272b3c23e0da506aae3</title>
<g id="a_node18"><a xlink:title="kind: Deployment&#10;apiVersion: apps/v1&#10;metadata:&#10; &#160;name: loadgenerator&#10;...">
<image xlink:href="https://raw.githubusercontent.com/mingrammer/diagrams/refs/heads/master/resources/k8s/compute/deploy.png" width="100.8px" height="100.8px" preserveAspectRatio="xMinYMin meet" x="634.6" y="-1813.2"/>
<text text-anchor="middle" x="685" y="-1695.55" font-family="Sans-Serif" font-size="13.00" fill="#2d3436">loadgenerator</text>
</a>
</g>
</g>
<!-- 5bda394aec2e4272b3c23e0da506aae3&#45;&gt;59f7796ef28b4096a1f2519d0123f0bc -->
<g id="edge27" class="edge">
<title>5bda394aec2e4272b3c23e0da506aae3&#45;&gt;59f7796ef28b4096a1f2519d0123f0bc</title>
<g id="a_edge27"><a xlink:title="from: loadgenerator/default/Deployment/apps/v1&#10;to: frontend/default/Service/v1">
<path fill="none" stroke="brown" d="M685,-1694.47C685,-1694.47 685,-1636.98 685,-1636.98"/>
<polygon fill="brown" stroke="brown" points="688.5,-1636.98 685,-1626.98 681.5,-1636.98 688.5,-1636.98"/>
</a>
</g>
</g>
<!-- c8786bae402e4d809b41880c1b248815 -->
<g id="node19" class="node">
<title>c8786bae402e4d809b41880c1b248815</title>
<g id="a_node19"><a xlink:title="kind: Deployment&#10;apiVersion: apps/v1&#10;metadata:&#10; &#160;name: currencyservice&#10;...">
<image xlink:href="https://raw.githubusercontent.com/mingrammer/diagrams/refs/heads/master/resources/k8s/compute/deploy.png" width="100.8px" height="100.8px" preserveAspectRatio="xMinYMin meet" x="708.6" y="-538.8"/>
<text text-anchor="middle" x="759" y="-421.15" font-family="Sans-Serif" font-size="13.00" fill="#2d3436">currencyservice</text>
</a>
</g>
</g>
<!-- cbf344ce6e884f39a0d6aeec39cba127&#45;&gt;c8786bae402e4d809b41880c1b248815 -->
<g id="edge10" class="edge">
<title>cbf344ce6e884f39a0d6aeec39cba127&#45;&gt;c8786bae402e4d809b41880c1b248815</title>
<g id="a_edge10"><a xlink:title="spec.selector:&#10; &#160;app: currencyservice">
<path fill="none" stroke="black" stroke-dasharray="5,2" d="M759,-639.72C759,-639.72 759,-567.64 759,-567.64"/>
<polygon fill="black" stroke="black" points="762.5,-567.64 759,-557.64 755.5,-567.64 762.5,-567.64"/>
</a>
</g>
<text text-anchor="middle" x="736.88" y="-605.43" font-family="Sans-Serif" font-size="10.00" fill="#2d3436">7000/TCP</text>
</g>
<!-- 375ae1082ac843008555b3a45186c220 -->
<g id="node21" class="node">
<title>375ae1082ac843008555b3a45186c220</title>
<g id="a_node21"><a xlink:title="kind: Deployment&#10;apiVersion: apps/v1&#10;metadata:&#10; &#160;name: shippingservice&#10;...">
<image xlink:href="https://raw.githubusercontent.com/mingrammer/diagrams/refs/heads/master/resources/k8s/compute/deploy.png" width="100.8px" height="100.8px" preserveAspectRatio="xMinYMin meet" x="882.6" y="-538.8"/>
<text text-anchor="middle" x="933" y="-421.15" font-family="Sans-Serif" font-size="13.00" fill="#2d3436">shippingservice</text>
</a>
</g>
</g>
<!-- fd7a5ac5b72b42409ef0f69e7216f1e5&#45;&gt;375ae1082ac843008555b3a45186c220 -->
<g id="edge11" class="edge">
<title>fd7a5ac5b72b42409ef0f69e7216f1e5&#45;&gt;375ae1082ac843008555b3a45186c220</title>
<g id="a_edge11"><a xlink:title="spec.selector:&#10; &#160;app: shippingservice">
<path fill="none" stroke="black" stroke-dasharray="5,2" d="M933,-639.72C933,-639.72 933,-567.64 933,-567.64"/>
<polygon fill="black" stroke="black" points="936.5,-567.64 933,-557.64 929.5,-567.64 936.5,-567.64"/>
</a>
</g>
<text text-anchor="middle" x="908.25" y="-605.43" font-family="Sans-Serif" font-size="10.00" fill="#2d3436">50051/TCP</text>
</g>
<!-- c9893224475d462dbca478ef22b00933 -->
<g id="node23" class="node">
<title>c9893224475d462dbca478ef22b00933</title>
<g id="a_node23"><a xlink:title="kind: Deployment&#10;apiVersion: apps/v1&#10;metadata:&#10; &#160;name: adservice&#10;...">
<image xlink:href="https://raw.githubusercontent.com/mingrammer/diagrams/refs/heads/master/resources/k8s/compute/deploy.png" width="100.8px" height="100.8px" preserveAspectRatio="xMinYMin meet" x="746.6" y="-978"/>
<text text-anchor="middle" x="797" y="-860.35" font-family="Sans-Serif" font-size="13.00" fill="#2d3436">adservice</text>
</a>
</g>
</g>
<!-- 99515ddab180447b957849377cb2c0c5&#45;&gt;c9893224475d462dbca478ef22b00933 -->
<g id="edge12" class="edge">
<title>99515ddab180447b957849377cb2c0c5&#45;&gt;c9893224475d462dbca478ef22b00933</title>
<g id="a_edge12"><a xlink:title="spec.selector:&#10; &#160;app: adservice">
<path fill="none" stroke="black" stroke-dasharray="5,2" d="M797,-1078.92C797,-1078.92 797,-1006.84 797,-1006.84"/>
<polygon fill="black" stroke="black" points="800.5,-1006.84 797,-996.84 793.5,-1006.84 800.5,-1006.84"/>
</a>
</g>
<text text-anchor="middle" x="774.88" y="-1044.63" font-family="Sans-Serif" font-size="10.00" fill="#2d3436">9555/TCP</text>
</g>
</g>
</svg>
