<?xml version="1.0" encoding="UTF-8" standalone="no"?>
<!DOCTYPE svg PUBLIC "-//W3C//DTD SVG 1.1//EN"
 "http://www.w3.org/Graphics/SVG/1.1/DTD/svg11.dtd">
<!-- Generated by graphviz version 8.1.0 (20230707.0739)
 -->
<!-- Pages: 1 -->
<svg width="790pt" height="1791pt"
 viewBox="0.00 0.00 790.00 1790.70" xmlns="http://www.w3.org/2000/svg" xmlns:xlink="http://www.w3.org/1999/xlink">
<g id="graph0" class="graph" transform="scale(1 1) rotate(0) translate(144 1646.7)">
<polygon fill="white" stroke="none" points="-144,144 -144,-1646.7 646,-1646.7 646,144 -144,144"/>
<g id="clust1" class="cluster">
<title>cluster_Namespace: default</title>
<g id="a_clust1"><a xlink:title="Namespace: default">
<path fill="white" stroke="black" stroke-dasharray="5,2" d="M20,-8C20,-8 482,-8 482,-8 488,-8 494,-14 494,-20 494,-20 494,-1482.7 494,-1482.7 494,-1488.7 488,-1494.7 482,-1494.7 482,-1494.7 20,-1494.7 20,-1494.7 14,-1494.7 8,-1488.7 8,-1482.7 8,-1482.7 8,-20 8,-20 8,-14 14,-8 20,-8"/>
<image xlink:href="https://raw.githubusercontent.com/mingrammer/diagrams/refs/heads/master/resources/k8s/group/ns.png" width="60px" height="60px" preserveAspectRatio="xMinYMin meet" x="20" y="-1486.7"/>
<text text-anchor="start" x="32" y="-1409.3" font-family="Sans-Serif" font-size="12.00" fill="#2d3436">default</text>
</a>
</g>
</g>
<g id="clust2" class="cluster">
<title>cluster_Application: wordpress</title>
<g id="a_clust2"><a xlink:title="Application: wordpress">
<path fill="#ece8f6" stroke="#aeb6be" d="M28,-16C28,-16 474,-16 474,-16 480,-16 486,-22 486,-28 486,-28 486,-1379.95 486,-1379.95 486,-1385.95 480,-1391.95 474,-1391.95 474,-1391.95 28,-1391.95 28,-1391.95 22,-1391.95 16,-1385.95 16,-1379.95 16,-1379.95 16,-28 16,-28 16,-22 22,-16 28,-16"/>
<text text-anchor="middle" x="84.75" y="-1376.55" font-family="Sans-Serif" font-size="12.00" fill="#2d3436">Application: wordpress</text>
</a>
</g>
</g>
<g id="clust3" class="cluster">
<title>cluster_Tier: mysql</title>
<g id="a_clust3"><a xlink:title="Tier: mysql">
<path fill="#ece8f6" stroke="#aeb6be" d="M321,-198.8C321,-198.8 466,-198.8 466,-198.8 472,-198.8 478,-204.8 478,-210.8 478,-210.8 478,-807.55 478,-807.55 478,-813.55 472,-819.55 466,-819.55 466,-819.55 321,-819.55 321,-819.55 315,-819.55 309,-813.55 309,-807.55 309,-807.55 309,-210.8 309,-210.8 309,-204.8 315,-198.8 321,-198.8"/>
<text text-anchor="middle" x="345.5" y="-804.15" font-family="Sans-Serif" font-size="12.00" fill="#2d3436">Tier: mysql</text>
</a>
</g>
</g>
<g id="clust4" class="cluster">
<title>cluster_containers</title>
<g id="a_clust4"><a xlink:title="containers">
<path fill="beige" stroke="blue" stroke-dasharray="1,5" d="M329,-455.2C329,-455.2 421,-455.2 421,-455.2 427,-455.2 433,-461.2 433,-467.2 433,-467.2 433,-616.75 433,-616.75 433,-622.75 427,-628.75 421,-628.75 421,-628.75 329,-628.75 329,-628.75 323,-628.75 317,-622.75 317,-616.75 317,-616.75 317,-467.2 317,-467.2 317,-461.2 323,-455.2 329,-455.2"/>
<text text-anchor="middle" x="352.75" y="-613.35" font-family="Sans-Serif" font-size="12.00" fill="#2d3436">containers</text>
</a>
</g>
</g>
<g id="clust5" class="cluster">
<title>cluster_volumes</title>
<g id="a_clust5"><a xlink:title="volumes">
<path fill="beige" stroke="red" stroke-dasharray="1,5" d="M357,-206.8C357,-206.8 449,-206.8 449,-206.8 455,-206.8 461,-212.8 461,-218.8 461,-218.8 461,-425.95 461,-425.95 461,-431.95 455,-437.95 449,-437.95 449,-437.95 357,-437.95 357,-437.95 351,-437.95 345,-431.95 345,-425.95 345,-425.95 345,-218.8 345,-218.8 345,-212.8 351,-206.8 357,-206.8"/>
<text text-anchor="middle" x="375.5" y="-422.55" font-family="Sans-Serif" font-size="12.00" fill="#2d3436">volumes</text>
</a>
</g>
</g>
<g id="clust6" class="cluster">
<title>cluster_Tier: frontend</title>
<g id="a_clust6"><a xlink:title="Tier: frontend">
<path fill="#ece8f6" stroke="#aeb6be" d="M36,-198.8C36,-198.8 181,-198.8 181,-198.8 187,-198.8 193,-204.8 193,-210.8 193,-210.8 193,-807.55 193,-807.55 193,-813.55 187,-819.55 181,-819.55 181,-819.55 36,-819.55 36,-819.55 30,-819.55 24,-813.55 24,-807.55 24,-807.55 24,-210.8 24,-210.8 24,-204.8 30,-198.8 36,-198.8"/>
<text text-anchor="middle" x="66.5" y="-804.15" font-family="Sans-Serif" font-size="12.00" fill="#2d3436">Tier: frontend</text>
</a>
</g>
</g>
<g id="clust7" class="cluster">
<title>cluster_containers</title>
<g id="a_clust7"><a xlink:title="containers">
<path fill="beige" stroke="blue" stroke-dasharray="1,5" d="M81,-455.2C81,-455.2 173,-455.2 173,-455.2 179,-455.2 185,-461.2 185,-467.2 185,-467.2 185,-616.75 185,-616.75 185,-622.75 179,-628.75 173,-628.75 173,-628.75 81,-628.75 81,-628.75 75,-628.75 69,-622.75 69,-616.75 69,-616.75 69,-467.2 69,-467.2 69,-461.2 75,-455.2 81,-455.2"/>
<text text-anchor="middle" x="104.75" y="-613.35" font-family="Sans-Serif" font-size="12.00" fill="#2d3436">containers</text>
</a>
</g>
</g>
<g id="clust8" class="cluster">
<title>cluster_volumes</title>
<g id="a_clust8"><a xlink:title="volumes">
<path fill="beige" stroke="red" stroke-dasharray="1,5" d="M52,-206.8C52,-206.8 144,-206.8 144,-206.8 150,-206.8 156,-212.8 156,-218.8 156,-218.8 156,-425.95 156,-425.95 156,-431.95 150,-437.95 144,-437.95 144,-437.95 52,-437.95 52,-437.95 46,-437.95 40,-431.95 40,-425.95 40,-425.95 40,-218.8 40,-218.8 40,-212.8 46,-206.8 52,-206.8"/>
<text text-anchor="middle" x="70.5" y="-422.55" font-family="Sans-Serif" font-size="12.00" fill="#2d3436">volumes</text>
</a>
</g>
</g>
<!-- 87444725fb0049689e2f820dc12f9ace -->
<g id="node1" class="node">
<title>87444725fb0049689e2f820dc12f9ace</title>
<g id="a_node1"><a xlink:title="kind: Service&#10;apiVersion: v1&#10;metadata:&#10; &#160;name: wordpress&#45;mysql&#10;...">
<image xlink:href="https://raw.githubusercontent.com/mingrammer/diagrams/refs/heads/master/resources/k8s/network/svc.png" width="100.8px" height="100.8px" preserveAspectRatio="xMinYMin meet" x="346.6" y="-1345.2"/>
<text text-anchor="middle" x="397" y="-1227.55" font-family="Sans-Serif" font-size="13.00" fill="#2d3436">wordpress&#45;mysql</text>
</a>
</g>
</g>
<!-- 4a866f2ee9734eefa14a6618c376c75b -->
<g id="node3" class="node">
<title>4a866f2ee9734eefa14a6618c376c75b</title>
<g id="a_node3"><a xlink:title="kind: Deployment&#10;apiVersion: apps/v1&#10;metadata:&#10; &#160;name: wordpress&#45;mysql&#10;...">
<image xlink:href="https://raw.githubusercontent.com/mingrammer/diagrams/refs/heads/master/resources/k8s/compute/deploy.png" width="100.8px" height="100.8px" preserveAspectRatio="xMinYMin meet" x="346.6" y="-1154.4"/>
<text text-anchor="middle" x="397" y="-1036.75" font-family="Sans-Serif" font-size="13.00" fill="#2d3436">wordpress&#45;mysql</text>
</a>
</g>
</g>
<!-- 87444725fb0049689e2f820dc12f9ace&#45;&gt;4a866f2ee9734eefa14a6618c376c75b -->
<g id="edge1" class="edge">
<title>87444725fb0049689e2f820dc12f9ace&#45;&gt;4a866f2ee9734eefa14a6618c376c75b</title>
<g id="a_edge1"><a xlink:title="spec.selector:&#10; &#160;app: wordpress&#10; &#160;tier: mysql">
<path fill="none" stroke="black" stroke-dasharray="5,2" d="M397,-1226.46C397,-1226.46 397,-1183.19 397,-1183.19"/>
<polygon fill="black" stroke="black" points="400.5,-1183.19 397,-1173.19 393.5,-1183.19 400.5,-1183.19"/>
</a>
</g>
<text text-anchor="middle" x="374.88" y="-1206.57" font-family="Sans-Serif" font-size="10.00" fill="#2d3436">3306/TCP</text>
</g>
<!-- 42b8020558074888b43b2c7b27b04ff5 -->
<g id="node2" class="node">
<title>42b8020558074888b43b2c7b27b04ff5</title>
<g id="a_node2"><a xlink:title="kind: PersistentVolumeClaim&#10;apiVersion: v1&#10;metadata:&#10; &#160;name: mysql&#45;pv&#45;claim&#10;...">
<image xlink:href="https://raw.githubusercontent.com/mingrammer/diagrams/refs/heads/master/resources/k8s/storage/pvc.png" width="100.8px" height="100.8px" preserveAspectRatio="xMinYMin meet" x="352.6" y="-142.8"/>
<text text-anchor="middle" x="403" y="-25.15" font-family="Sans-Serif" font-size="13.00" fill="#2d3436">mysql&#45;pv&#45;claim</text>
</a>
</g>
</g>
<!-- cf58db12bbc446a6ad5df0b16710984b -->
<g id="node8" class="node">
<title>cf58db12bbc446a6ad5df0b16710984b</title>
<g id="a_node8"><a xlink:title="kind: ReplicaSet&#10;apiVersion: apps/v1&#10;metadata:&#10; &#160;name: wordpress&#45;mysql&#10;...">
<image xlink:href="https://raw.githubusercontent.com/mingrammer/diagrams/refs/heads/master/resources/k8s/compute/rs.png" width="100.8px" height="100.8px" preserveAspectRatio="xMinYMin meet" x="346.6" y="-963.6"/>
<text text-anchor="middle" x="397" y="-845.95" font-family="Sans-Serif" font-size="13.00" fill="#2d3436">wordpress&#45;mysql</text>
</a>
</g>
</g>
<!-- 4a866f2ee9734eefa14a6618c376c75b&#45;&gt;cf58db12bbc446a6ad5df0b16710984b -->
<g id="edge2" class="edge">
<title>4a866f2ee9734eefa14a6618c376c75b&#45;&gt;cf58db12bbc446a6ad5df0b16710984b</title>
<g id="a_edge2"><a xlink:title="owns">
<path fill="none" stroke="gray" stroke-dasharray="1,5" d="M397,-1035.66C397,-1035.66 397,-992.39 397,-992.39"/>
<polygon fill="gray" stroke="gray" points="400.5,-992.39 397,-982.39 393.5,-992.39 400.5,-992.39"/>
</a>
</g>
<text text-anchor="middle" x="351.62" y="-1015.17" font-family="Sans-Serif" font-size="13.00" fill="#2d3436">has ReplicaSet</text>
</g>
<!-- e2c61e2cb80746c8b3b4b6e23634b1d1 -->
<g id="node4" class="node">
<title>e2c61e2cb80746c8b3b4b6e23634b1d1</title>
<g id="a_node4"><a xlink:title="kind: Secret&#10;apiVersion: v1&#10;metadata:&#10; &#160;name: mysql&#45;pass&#10;...">
<image xlink:href="https://raw.githubusercontent.com/mingrammer/diagrams/refs/heads/master/resources/k8s/podconfig/secret.png" width="100.8px" height="100.8px" preserveAspectRatio="xMinYMin meet" x="200.6" y="-362.4"/>
<text text-anchor="middle" x="251" y="-244.75" font-family="Sans-Serif" font-size="13.00" fill="#2d3436">mysql&#45;pass</text>
</a>
</g>
</g>
<!-- 11d10f9ee70f455186b5fa12a798b323 -->
<g id="node5" class="node">
<title>11d10f9ee70f455186b5fa12a798b323</title>
<g id="a_node5"><a xlink:title="kind: Service&#10;apiVersion: v1&#10;metadata:&#10; &#160;name: wordpress&#10;...">
<image xlink:href="https://raw.githubusercontent.com/mingrammer/diagrams/refs/heads/master/resources/k8s/network/svc.png" width="100.8px" height="100.8px" preserveAspectRatio="xMinYMin meet" x="53.6" y="-1345.2"/>
<text text-anchor="middle" x="104" y="-1227.55" font-family="Sans-Serif" font-size="13.00" fill="#2d3436">wordpress</text>
</a>
</g>
</g>
<!-- 65437f6b705c4fb381f96b2434c966e4 -->
<g id="node7" class="node">
<title>65437f6b705c4fb381f96b2434c966e4</title>
<g id="a_node7"><a xlink:title="kind: Deployment&#10;apiVersion: apps/v1&#10;metadata:&#10; &#160;name: wordpress&#10;...">
<image xlink:href="https://raw.githubusercontent.com/mingrammer/diagrams/refs/heads/master/resources/k8s/compute/deploy.png" width="100.8px" height="100.8px" preserveAspectRatio="xMinYMin meet" x="53.6" y="-1154.4"/>
<text text-anchor="middle" x="104" y="-1036.75" font-family="Sans-Serif" font-size="13.00" fill="#2d3436">wordpress</text>
</a>
</g>
</g>
<!-- 11d10f9ee70f455186b5fa12a798b323&#45;&gt;65437f6b705c4fb381f96b2434c966e4 -->
<g id="edge3" class="edge">
<title>11d10f9ee70f455186b5fa12a798b323&#45;&gt;65437f6b705c4fb381f96b2434c966e4</title>
<g id="a_edge3"><a xlink:title="spec.selector:&#10; &#160;app: wordpress&#10; &#160;tier: frontend">
<path fill="none" stroke="black" stroke-dasharray="5,2" d="M104,-1226.46C104,-1226.46 104,-1183.19 104,-1183.19"/>
<polygon fill="black" stroke="black" points="107.5,-1183.19 104,-1173.19 100.5,-1183.19 107.5,-1183.19"/>
</a>
</g>
<text text-anchor="middle" x="87.12" y="-1206.57" font-family="Sans-Serif" font-size="10.00" fill="#2d3436">80/TCP</text>
</g>
<!-- c89decfb142644b9951b46178b4b4929 -->
<g id="node6" class="node">
<title>c89decfb142644b9951b46178b4b4929</title>
<g id="a_node6"><a xlink:title="kind: PersistentVolumeClaim&#10;apiVersion: v1&#10;metadata:&#10; &#160;name: wp&#45;pv&#45;claim&#10;...">
<image xlink:href="https://raw.githubusercontent.com/mingrammer/diagrams/refs/heads/master/resources/k8s/storage/pvc.png" width="100.8px" height="100.8px" preserveAspectRatio="xMinYMin meet" x="47.6" y="-142.8"/>
<text text-anchor="middle" x="98" y="-25.15" font-family="Sans-Serif" font-size="13.00" fill="#2d3436">wp&#45;pv&#45;claim</text>
</a>
</g>
</g>
<!-- 8409072f575d4424992e25cd0f03a2ff -->
<g id="node9" class="node">
<title>8409072f575d4424992e25cd0f03a2ff</title>
<g id="a_node9"><a xlink:title="kind: ReplicaSet&#10;apiVersion: apps/v1&#10;metadata:&#10; &#160;name: wordpress&#10;...">
<image xlink:href="https://raw.githubusercontent.com/mingrammer/diagrams/refs/heads/master/resources/k8s/compute/rs.png" width="100.8px" height="100.8px" preserveAspectRatio="xMinYMin meet" x="53.6" y="-963.6"/>
<text text-anchor="middle" x="104" y="-845.95" font-family="Sans-Serif" font-size="13.00" fill="#2d3436">wordpress</text>
</a>
</g>
</g>
<!-- 65437f6b705c4fb381f96b2434c966e4&#45;&gt;8409072f575d4424992e25cd0f03a2ff -->
<g id="edge4" class="edge">
<title>65437f6b705c4fb381f96b2434c966e4&#45;&gt;8409072f575d4424992e25cd0f03a2ff</title>
<g id="a_edge4"><a xlink:title="owns">
<path fill="none" stroke="gray" stroke-dasharray="1,5" d="M104,-1035.66C104,-1035.66 104,-992.39 104,-992.39"/>
<polygon fill="gray" stroke="gray" points="107.5,-992.39 104,-982.39 100.5,-992.39 107.5,-992.39"/>
</a>
</g>
<text text-anchor="middle" x="58.63" y="-1015.17" font-family="Sans-Serif" font-size="13.00" fill="#2d3436">has ReplicaSet</text>
</g>
<!-- 103789d543ef43b29d1bb19e70fbcc3d -->
<g id="node10" class="node">
<title>103789d543ef43b29d1bb19e70fbcc3d</title>
<g id="a_node10"><a xlink:title="kind: Pod&#10;apiVersion: v1&#10;metadata:&#10; &#160;name: wordpress&#45;mysql&#10;...">
<image xlink:href="https://raw.githubusercontent.com/mingrammer/diagrams/refs/heads/master/resources/k8s/compute/pod.png" width="100.8px" height="100.8px" preserveAspectRatio="xMinYMin meet" x="346.6" y="-772.8"/>
<text text-anchor="middle" x="397" y="-655.15" font-family="Sans-Serif" font-size="13.00" fill="#2d3436">wordpress&#45;mysql</text>
</a>
</g>
</g>
<!-- cf58db12bbc446a6ad5df0b16710984b&#45;&gt;103789d543ef43b29d1bb19e70fbcc3d -->
<g id="edge5" class="edge">
<title>cf58db12bbc446a6ad5df0b16710984b&#45;&gt;103789d543ef43b29d1bb19e70fbcc3d</title>
<g id="a_edge5"><a xlink:title="owns">
<path fill="none" stroke="gray" stroke-dasharray="1,5" d="M397,-844.86C397,-844.86 397,-801.59 397,-801.59"/>
<polygon fill="gray" stroke="gray" points="400.5,-801.59 397,-791.59 393.5,-801.59 400.5,-801.59"/>
</a>
</g>
<text text-anchor="middle" x="359.5" y="-824.37" font-family="Sans-Serif" font-size="13.00" fill="#2d3436">controls Pod</text>
</g>
<!-- 0d5a52b855154e049d59eb8f36ec09e3 -->
<g id="node13" class="node">
<title>0d5a52b855154e049d59eb8f36ec09e3</title>
<g id="a_node13"><a xlink:title="kind: Pod&#10;apiVersion: v1&#10;metadata:&#10; &#160;name: wordpress&#10;...">
<image xlink:href="https://raw.githubusercontent.com/mingrammer/diagrams/refs/heads/master/resources/k8s/compute/pod.png" width="100.8px" height="100.8px" preserveAspectRatio="xMinYMin meet" x="53.6" y="-772.8"/>
<text text-anchor="middle" x="104" y="-655.15" font-family="Sans-Serif" font-size="13.00" fill="#2d3436">wordpress</text>
</a>
</g>
</g>
<!-- 8409072f575d4424992e25cd0f03a2ff&#45;&gt;0d5a52b855154e049d59eb8f36ec09e3 -->
<g id="edge12" class="edge">
<title>8409072f575d4424992e25cd0f03a2ff&#45;&gt;0d5a52b855154e049d59eb8f36ec09e3</title>
<g id="a_edge12"><a xlink:title="owns">
<path fill="none" stroke="gray" stroke-dasharray="1,5" d="M104,-844.86C104,-844.86 104,-801.59 104,-801.59"/>
<polygon fill="gray" stroke="gray" points="107.5,-801.59 104,-791.59 100.5,-801.59 107.5,-801.59"/>
</a>
</g>
<text text-anchor="middle" x="66.5" y="-824.37" font-family="Sans-Serif" font-size="13.00" fill="#2d3436">controls Pod</text>
</g>
<!-- 3b7a5a94955a4c53a4ae813d05a6e392 -->
<g id="node11" class="node">
<title>3b7a5a94955a4c53a4ae813d05a6e392</title>
<g id="a_node11"><a xlink:title="kind: Container&#10;apiVersion: v1&#10;metadata:&#10; &#160;name: mysql&#10;...">
<image xlink:href="https://raw.githubusercontent.com/philippemerle/KubeDiagrams/refs/heads/main/bin/icons/container.png" width="100.8px" height="98.4375px" preserveAspectRatio="xMinYMin meet" x="324.6" y="-580.819"/>
<text text-anchor="middle" x="375" y="-464.35" font-family="Sans-Serif" font-size="13.00" fill="#2d3436">mysql</text>
</a>
</g>
</g>
<!-- 103789d543ef43b29d1bb19e70fbcc3d&#45;&gt;3b7a5a94955a4c53a4ae813d05a6e392 -->
<g id="edge6" class="edge">
<title>103789d543ef43b29d1bb19e70fbcc3d&#45;&gt;3b7a5a94955a4c53a4ae813d05a6e392</title>
<g id="a_edge6"><a xlink:title="spec.containers[0]">
<path fill="none" stroke="blue" stroke-dasharray="1,5" d="M386,-654.06C386,-654.06 386,-610.79 386,-610.79"/>
<polygon fill="blue" stroke="blue" points="389.5,-610.79 386,-600.79 382.5,-610.79 389.5,-610.79"/>
</a>
</g>
</g>
<!-- 69704960a7704f2499000c45db6a913f -->
<g id="node12" class="node">
<title>69704960a7704f2499000c45db6a913f</title>
<g id="a_node12"><a xlink:title="kind: PodVolume&#10;apiVersion: v1&#10;metadata:&#10; &#160;name: mysql&#45;persistent&#45;storage&#10;...">
<image xlink:href="https://raw.githubusercontent.com/mingrammer/diagrams/refs/heads/master/resources/k8s/storage/vol.png" width="100.8px" height="100.8px" preserveAspectRatio="xMinYMin meet" x="352.6" y="-362.4"/>
<text text-anchor="middle" x="403" y="-242.95" font-family="Sans-Serif" font-size="13.00" fill="#2d3436">mysql</text>
<text text-anchor="middle" x="403" y="-229.45" font-family="Sans-Serif" font-size="13.00" fill="#2d3436">&#45;persistent</text>
<text text-anchor="middle" x="403" y="-215.95" font-family="Sans-Serif" font-size="13.00" fill="#2d3436">&#45;storage</text>
</a>
</g>
</g>
<!-- 103789d543ef43b29d1bb19e70fbcc3d&#45;&gt;69704960a7704f2499000c45db6a913f -->
<g id="edge7" class="edge">
<title>103789d543ef43b29d1bb19e70fbcc3d&#45;&gt;69704960a7704f2499000c45db6a913f</title>
<g id="a_edge7"><a xlink:title="spec.volumes[0]">
<path fill="none" stroke="red" stroke-dasharray="1,5" d="M436.4,-654.17C436.4,-654.17 436.4,-419.83 436.4,-419.83"/>
<polygon fill="red" stroke="red" points="439.9,-419.83 436.4,-409.83 432.9,-419.83 439.9,-419.83"/>
</a>
</g>
</g>
<!-- 3b7a5a94955a4c53a4ae813d05a6e392&#45;&gt;e2c61e2cb80746c8b3b4b6e23634b1d1 -->
<g id="edge8" class="edge">
<title>3b7a5a94955a4c53a4ae813d05a6e392&#45;&gt;e2c61e2cb80746c8b3b4b6e23634b1d1</title>
<g id="a_edge8"><a xlink:title="spec.env[0]:&#10; &#160;name: MYSQL_ROOT_PASSWORD&#10; &#160;valueFrom:&#10; &#160;&#160;&#160;secretKeyRef:&#10; &#160;&#160;&#160;&#160;&#160;key: password&#10; &#160;&#160;&#160;&#160;&#160;name: mysql&#45;pass">
<path fill="none" stroke="black" d="M333.93,-463.32C333.93,-406.21 333.93,-334 333.93,-334 333.93,-334 312.16,-334 312.16,-334"/>
<polygon fill="black" stroke="black" points="312.16,-330.5 302.16,-334 312.16,-337.5 312.16,-330.5"/>
</a>
</g>
</g>
<!-- 3b7a5a94955a4c53a4ae813d05a6e392&#45;&gt;e2c61e2cb80746c8b3b4b6e23634b1d1 -->
<g id="edge9" class="edge">
<title>3b7a5a94955a4c53a4ae813d05a6e392&#45;&gt;e2c61e2cb80746c8b3b4b6e23634b1d1</title>
<g id="a_edge9"><a xlink:title="spec.env[3]:&#10; &#160;name: MYSQL_PASSWORD&#10; &#160;valueFrom:&#10; &#160;&#160;&#160;secretKeyRef:&#10; &#160;&#160;&#160;&#160;&#160;key: password&#10; &#160;&#160;&#160;&#160;&#160;name: mysql&#45;pass">
<path fill="none" stroke="black" d="M343.27,-463.38C343.27,-391.62 343.27,-289 343.27,-289 343.27,-289 312.18,-289 312.18,-289"/>
<polygon fill="black" stroke="black" points="312.18,-285.5 302.18,-289 312.18,-292.5 312.18,-285.5"/>
</a>
</g>
</g>
<!-- 3b7a5a94955a4c53a4ae813d05a6e392&#45;&gt;69704960a7704f2499000c45db6a913f -->
<g id="edge10" class="edge">
<title>3b7a5a94955a4c53a4ae813d05a6e392&#45;&gt;69704960a7704f2499000c45db6a913f</title>
<g id="a_edge10"><a xlink:title="spec.volumeMounts[0]:&#10; &#160;mountPath: /var/lib/mysql&#10; &#160;name: mysql&#45;persistent&#45;storage">
<path fill="none" stroke="red" d="M389,-463.32C389,-463.32 389,-419.86 389,-419.86"/>
<polygon fill="red" stroke="red" points="392.5,-419.86 389,-409.86 385.5,-419.86 392.5,-419.86"/>
</a>
</g>
</g>
<!-- 69704960a7704f2499000c45db6a913f&#45;&gt;42b8020558074888b43b2c7b27b04ff5 -->
<g id="edge11" class="edge">
<title>69704960a7704f2499000c45db6a913f&#45;&gt;42b8020558074888b43b2c7b27b04ff5</title>
<g id="a_edge11"><a xlink:title="spec.persistentVolumeClaim.claimName: mysql&#45;pv&#45;claim">
<path fill="none" stroke="black" d="M403,-215.04C403,-215.04 403,-171.53 403,-171.53"/>
<polygon fill="black" stroke="black" points="406.5,-171.53 403,-161.53 399.5,-171.53 406.5,-171.53"/>
</a>
</g>
</g>
<!-- d71f10128f674d3eaa65825688d64999 -->
<g id="node14" class="node">
<title>d71f10128f674d3eaa65825688d64999</title>
<g id="a_node14"><a xlink:title="kind: Container&#10;apiVersion: v1&#10;metadata:&#10; &#160;name: wordpress&#10;...">
<image xlink:href="https://raw.githubusercontent.com/philippemerle/KubeDiagrams/refs/heads/main/bin/icons/container.png" width="100.8px" height="98.4375px" preserveAspectRatio="xMinYMin meet" x="76.6" y="-580.819"/>
<text text-anchor="middle" x="127" y="-464.35" font-family="Sans-Serif" font-size="13.00" fill="#2d3436">wordpress</text>
</a>
</g>
</g>
<!-- 0d5a52b855154e049d59eb8f36ec09e3&#45;&gt;d71f10128f674d3eaa65825688d64999 -->
<g id="edge13" class="edge">
<title>0d5a52b855154e049d59eb8f36ec09e3&#45;&gt;d71f10128f674d3eaa65825688d64999</title>
<g id="a_edge13"><a xlink:title="spec.containers[0]">
<path fill="none" stroke="blue" stroke-dasharray="1,5" d="M115.5,-654.06C115.5,-654.06 115.5,-610.79 115.5,-610.79"/>
<polygon fill="blue" stroke="blue" points="119,-610.79 115.5,-600.79 112,-610.79 119,-610.79"/>
</a>
</g>
</g>
<!-- 21890bf51b1f4d66b5aa8664748d6755 -->
<g id="node15" class="node">
<title>21890bf51b1f4d66b5aa8664748d6755</title>
<g id="a_node15"><a xlink:title="kind: PodVolume&#10;apiVersion: v1&#10;metadata:&#10; &#160;name: wordpress&#45;persistent&#45;storage&#10;...">
<image xlink:href="https://raw.githubusercontent.com/mingrammer/diagrams/refs/heads/master/resources/k8s/storage/vol.png" width="100.8px" height="100.8px" preserveAspectRatio="xMinYMin meet" x="47.6" y="-362.4"/>
<text text-anchor="middle" x="98" y="-242.95" font-family="Sans-Serif" font-size="13.00" fill="#2d3436">wordpress</text>
<text text-anchor="middle" x="98" y="-229.45" font-family="Sans-Serif" font-size="13.00" fill="#2d3436">&#45;persistent</text>
<text text-anchor="middle" x="98" y="-215.95" font-family="Sans-Serif" font-size="13.00" fill="#2d3436">&#45;storage</text>
</a>
</g>
</g>
<!-- 0d5a52b855154e049d59eb8f36ec09e3&#45;&gt;21890bf51b1f4d66b5aa8664748d6755 -->
<g id="edge14" class="edge">
<title>0d5a52b855154e049d59eb8f36ec09e3&#45;&gt;21890bf51b1f4d66b5aa8664748d6755</title>
<g id="a_edge14"><a xlink:title="spec.volumes[0]">
<path fill="none" stroke="red" stroke-dasharray="1,5" d="M65.1,-654.17C65.1,-654.17 65.1,-419.83 65.1,-419.83"/>
<polygon fill="red" stroke="red" points="68.6,-419.83 65.1,-409.83 61.6,-419.83 68.6,-419.83"/>
</a>
</g>
</g>
<!-- d71f10128f674d3eaa65825688d64999&#45;&gt;e2c61e2cb80746c8b3b4b6e23634b1d1 -->
<g id="edge15" class="edge">
<title>d71f10128f674d3eaa65825688d64999&#45;&gt;e2c61e2cb80746c8b3b4b6e23634b1d1</title>
<g id="a_edge15"><a xlink:title="spec.env[1]:&#10; &#160;name: WORDPRESS_DB_PASSWORD&#10; &#160;valueFrom:&#10; &#160;&#160;&#160;secretKeyRef:&#10; &#160;&#160;&#160;&#160;&#160;key: password&#10; &#160;&#160;&#160;&#160;&#160;name: mysql&#45;pass">
<path fill="none" stroke="black" d="M162.9,-463.32C162.9,-398.86 162.9,-312 162.9,-312 162.9,-312 189.77,-312 189.77,-312"/>
<polygon fill="black" stroke="black" points="189.77,-315.5 199.77,-312 189.77,-308.5 189.77,-315.5"/>
</a>
</g>
</g>
<!-- d71f10128f674d3eaa65825688d64999&#45;&gt;21890bf51b1f4d66b5aa8664748d6755 -->
<g id="edge16" class="edge">
<title>d71f10128f674d3eaa65825688d64999&#45;&gt;21890bf51b1f4d66b5aa8664748d6755</title>
<g id="a_edge16"><a xlink:title="spec.volumeMounts[0]:&#10; &#160;mountPath: /var/www/html&#10; &#160;name: wordpress&#45;persistent&#45;storage">
<path fill="none" stroke="red" d="M112.5,-463.32C112.5,-463.32 112.5,-419.86 112.5,-419.86"/>
<polygon fill="red" stroke="red" points="116,-419.86 112.5,-409.86 109,-419.86 116,-419.86"/>
</a>
</g>
</g>
<!-- 21890bf51b1f4d66b5aa8664748d6755&#45;&gt;c89decfb142644b9951b46178b4b4929 -->
<g id="edge17" class="edge">
<title>21890bf51b1f4d66b5aa8664748d6755&#45;&gt;c89decfb142644b9951b46178b4b4929</title>
<g id="a_edge17"><a xlink:title="spec.persistentVolumeClaim.claimName: wp&#45;pv&#45;claim">
<path fill="none" stroke="black" d="M98,-215.04C98,-215.04 98,-171.53 98,-171.53"/>
<polygon fill="black" stroke="black" points="101.5,-171.53 98,-161.53 94.5,-171.53 101.5,-171.53"/>
</a>
</g>
</g>
</g>
</svg>
