<?xml version="1.0" encoding="UTF-8" standalone="no"?>
<!DOCTYPE svg PUBLIC "-//W3C//DTD SVG 1.1//EN"
 "http://www.w3.org/Graphics/SVG/1.1/DTD/svg11.dtd">
<!-- Generated by graphviz version 8.1.0 (20230707.0739)
 -->
<!-- Pages: 1 -->
<svg width="489pt" height="1738pt"
 viewBox="0.00 0.00 489.00 1737.90" xmlns="http://www.w3.org/2000/svg" xmlns:xlink="http://www.w3.org/1999/xlink">
<g id="graph0" class="graph" transform="scale(1 1) rotate(0) translate(144 1593.9)">
<polygon fill="white" stroke="none" points="-144,144 -144,-1593.9 345,-1593.9 345,144 -144,144"/>
<g id="clust1" class="cluster">
<title>cluster_Namespace: default</title>
<g id="a_clust1"><a xlink:title="Namespace: default">
<path fill="white" stroke="black" stroke-dasharray="5,2" d="M20,-174.8C20,-174.8 181,-174.8 181,-174.8 187,-174.8 193,-180.8 193,-186.8 193,-186.8 193,-1429.9 193,-1429.9 193,-1435.9 187,-1441.9 181,-1441.9 181,-1441.9 20,-1441.9 20,-1441.9 14,-1441.9 8,-1435.9 8,-1429.9 8,-1429.9 8,-186.8 8,-186.8 8,-180.8 14,-174.8 20,-174.8"/>
<image xlink:href="https://raw.githubusercontent.com/mingrammer/diagrams/refs/heads/master/resources/k8s/group/ns.png" width="60px" height="60px" preserveAspectRatio="xMinYMin meet" x="20" y="-1433.9"/>
<text text-anchor="start" x="32" y="-1356.5" font-family="Sans-Serif" font-size="12.00" fill="#2d3436">default</text>
</a>
</g>
</g>
<g id="clust2" class="cluster">
<title>cluster_Application: cassandra</title>
<g id="a_clust2"><a xlink:title="Application: cassandra">
<path fill="#ece8f6" stroke="#aeb6be" d="M28,-182.8C28,-182.8 173,-182.8 173,-182.8 179,-182.8 185,-188.8 185,-194.8 185,-194.8 185,-1327.15 185,-1327.15 185,-1333.15 179,-1339.15 173,-1339.15 173,-1339.15 28,-1339.15 28,-1339.15 22,-1339.15 16,-1333.15 16,-1327.15 16,-1327.15 16,-194.8 16,-194.8 16,-188.8 22,-182.8 28,-182.8"/>
<text text-anchor="middle" x="84.75" y="-1323.75" font-family="Sans-Serif" font-size="12.00" fill="#2d3436">Application: cassandra</text>
</a>
</g>
</g>
<g id="clust3" class="cluster">
<title>cluster_containers</title>
<g id="a_clust3"><a xlink:title="containers">
<path fill="beige" stroke="blue" stroke-dasharray="1,5" d="M36,-593.2C36,-593.2 128,-593.2 128,-593.2 134,-593.2 140,-599.2 140,-605.2 140,-605.2 140,-754.75 140,-754.75 140,-760.75 134,-766.75 128,-766.75 128,-766.75 36,-766.75 36,-766.75 30,-766.75 24,-760.75 24,-754.75 24,-754.75 24,-605.2 24,-605.2 24,-599.2 30,-593.2 36,-593.2"/>
<text text-anchor="middle" x="59.75" y="-751.35" font-family="Sans-Serif" font-size="12.00" fill="#2d3436">containers</text>
</a>
</g>
</g>
<g id="clust4" class="cluster">
<title>cluster_volumes</title>
<g id="a_clust4"><a xlink:title="volumes">
<path fill="beige" stroke="red" stroke-dasharray="1,5" d="M54,-402.4C54,-402.4 146,-402.4 146,-402.4 152,-402.4 158,-408.4 158,-414.4 158,-414.4 158,-563.95 158,-563.95 158,-569.95 152,-575.95 146,-575.95 146,-575.95 54,-575.95 54,-575.95 48,-575.95 42,-569.95 42,-563.95 42,-563.95 42,-414.4 42,-414.4 42,-408.4 48,-402.4 54,-402.4"/>
<text text-anchor="middle" x="72.5" y="-560.55" font-family="Sans-Serif" font-size="12.00" fill="#2d3436">volumes</text>
</a>
</g>
</g>
<!-- fe200e304c074da0bcd57092cb93cae3 -->
<g id="node1" class="node">
<title>fe200e304c074da0bcd57092cb93cae3</title>
<g id="a_node1"><a xlink:title="kind: StorageClass&#10;apiVersion: storage.k8s.io/v1&#10;metadata:&#10; &#160;name: fast&#10;...">
<image xlink:href="https://raw.githubusercontent.com/mingrammer/diagrams/refs/heads/master/resources/k8s/storage/sc.png" width="100.8px" height="100.8px" preserveAspectRatio="xMinYMin meet" x="49.6" y="-118.8"/>
<text text-anchor="middle" x="100" y="-1.15" font-family="Sans-Serif" font-size="13.00" fill="#2d3436">fast</text>
</a>
</g>
</g>
<!-- 9cf4154f3d53459997963ed412b323c4 -->
<g id="node2" class="node">
<title>9cf4154f3d53459997963ed412b323c4</title>
<g id="a_node2"><a xlink:title="kind: Service&#10;apiVersion: v1&#10;metadata:&#10; &#160;name: cassandra&#10;...">
<image xlink:href="https://raw.githubusercontent.com/mingrammer/diagrams/refs/heads/master/resources/k8s/network/svc.png" width="100.8px" height="100.8px" preserveAspectRatio="xMinYMin meet" x="53.6" y="-1292.4"/>
<text text-anchor="middle" x="104" y="-1174.75" font-family="Sans-Serif" font-size="13.00" fill="#2d3436">cassandra</text>
</a>
</g>
</g>
<!-- daef7890c8854d899ec11c777c0a72cc -->
<g id="node3" class="node">
<title>daef7890c8854d899ec11c777c0a72cc</title>
<g id="a_node3"><a xlink:title="kind: StatefulSet&#10;apiVersion: apps/v1&#10;metadata:&#10; &#160;name: cassandra&#10;...">
<image xlink:href="https://raw.githubusercontent.com/mingrammer/diagrams/refs/heads/master/resources/k8s/compute/sts.png" width="100.8px" height="100.8px" preserveAspectRatio="xMinYMin meet" x="53.6" y="-1101.6"/>
<text text-anchor="middle" x="104" y="-983.95" font-family="Sans-Serif" font-size="13.00" fill="#2d3436">cassandra</text>
</a>
</g>
</g>
<!-- 9cf4154f3d53459997963ed412b323c4&#45;&gt;daef7890c8854d899ec11c777c0a72cc -->
<g id="edge1" class="edge">
<title>9cf4154f3d53459997963ed412b323c4&#45;&gt;daef7890c8854d899ec11c777c0a72cc</title>
<g id="a_edge1"><a xlink:title="spec.selector:&#10; &#160;app: cassandra">
<path fill="none" stroke="black" stroke-dasharray="5,2" d="M120.8,-1173.66C120.8,-1173.66 120.8,-1130.39 120.8,-1130.39"/>
<polygon fill="black" stroke="black" points="124.3,-1130.39 120.8,-1120.39 117.3,-1130.39 124.3,-1130.39"/>
</a>
</g>
<text text-anchor="middle" x="98.68" y="-1153.77" font-family="Sans-Serif" font-size="10.00" fill="#2d3436">9042/TCP</text>
</g>
<!-- daef7890c8854d899ec11c777c0a72cc&#45;&gt;9cf4154f3d53459997963ed412b323c4 -->
<g id="edge2" class="edge">
<title>daef7890c8854d899ec11c777c0a72cc&#45;&gt;9cf4154f3d53459997963ed412b323c4</title>
<g id="a_edge2"><a xlink:title="spec.serviceName: cassandra">
<path fill="none" stroke="black" d="M87.2,-1119.54C87.2,-1119.54 87.2,-1162.81 87.2,-1162.81"/>
<polygon fill="black" stroke="black" points="83.7,-1162.81 87.2,-1172.81 90.7,-1162.81 83.7,-1162.81"/>
</a>
</g>
</g>
<!-- 67a5a06b98b943bb8a85cfdf0837463b -->
<g id="node4" class="node">
<title>67a5a06b98b943bb8a85cfdf0837463b</title>
<g id="a_node4"><a xlink:title="kind: Pod&#10;apiVersion: v1&#10;metadata:&#10; &#160;name: cassandra&#10;...">
<image xlink:href="https://raw.githubusercontent.com/mingrammer/diagrams/refs/heads/master/resources/k8s/compute/pod.png" width="100.8px" height="100.8px" preserveAspectRatio="xMinYMin meet" x="53.6" y="-910.8"/>
<text text-anchor="middle" x="104" y="-793.15" font-family="Sans-Serif" font-size="13.00" fill="#2d3436">cassandra</text>
</a>
</g>
</g>
<!-- daef7890c8854d899ec11c777c0a72cc&#45;&gt;67a5a06b98b943bb8a85cfdf0837463b -->
<g id="edge3" class="edge">
<title>daef7890c8854d899ec11c777c0a72cc&#45;&gt;67a5a06b98b943bb8a85cfdf0837463b</title>
<g id="a_edge3"><a xlink:title="owns">
<path fill="none" stroke="gray" stroke-dasharray="1,5" d="M104,-982.86C104,-982.86 104,-939.59 104,-939.59"/>
<polygon fill="gray" stroke="gray" points="107.5,-939.59 104,-929.59 100.5,-939.59 107.5,-939.59"/>
</a>
</g>
<text text-anchor="middle" x="66.5" y="-962.37" font-family="Sans-Serif" font-size="13.00" fill="#2d3436">controls Pod</text>
</g>
<!-- 4e467a18307345209d89fd867a735d33 -->
<g id="node6" class="node">
<title>4e467a18307345209d89fd867a735d33</title>
<g id="a_node6"><a xlink:title="kind: Container&#10;apiVersion: v1&#10;metadata:&#10; &#160;name: cassandra&#10;...">
<image xlink:href="https://raw.githubusercontent.com/philippemerle/KubeDiagrams/refs/heads/main/bin/icons/container.png" width="100.8px" height="98.4375px" preserveAspectRatio="xMinYMin meet" x="31.6" y="-718.819"/>
<text text-anchor="middle" x="82" y="-602.35" font-family="Sans-Serif" font-size="13.00" fill="#2d3436">cassandra</text>
</a>
</g>
</g>
<!-- 67a5a06b98b943bb8a85cfdf0837463b&#45;&gt;4e467a18307345209d89fd867a735d33 -->
<g id="edge4" class="edge">
<title>67a5a06b98b943bb8a85cfdf0837463b&#45;&gt;4e467a18307345209d89fd867a735d33</title>
<g id="a_edge4"><a xlink:title="spec.containers[0]">
<path fill="none" stroke="blue" stroke-dasharray="1,5" d="M93,-792.06C93,-792.06 93,-748.79 93,-748.79"/>
<polygon fill="blue" stroke="blue" points="96.5,-748.79 93,-738.79 89.5,-748.79 96.5,-748.79"/>
</a>
</g>
</g>
<!-- 65dcc5b14e5b44c0b2b4ef246651135d -->
<g id="node7" class="node">
<title>65dcc5b14e5b44c0b2b4ef246651135d</title>
<g id="a_node7"><a xlink:title="kind: PodVolume&#10;apiVersion: v1&#10;metadata:&#10; &#160;name: cassandra&#45;data&#10;...">
<image xlink:href="https://raw.githubusercontent.com/mingrammer/diagrams/refs/heads/master/resources/k8s/storage/vol.png" width="100.8px" height="100.8px" preserveAspectRatio="xMinYMin meet" x="49.6" y="-529.2"/>
<text text-anchor="middle" x="100" y="-411.55" font-family="Sans-Serif" font-size="13.00" fill="#2d3436">cassandra&#45;data</text>
</a>
</g>
</g>
<!-- 67a5a06b98b943bb8a85cfdf0837463b&#45;&gt;65dcc5b14e5b44c0b2b4ef246651135d -->
<g id="edge5" class="edge">
<title>67a5a06b98b943bb8a85cfdf0837463b&#45;&gt;65dcc5b14e5b44c0b2b4ef246651135d</title>
<g id="a_edge5"><a xlink:title="spec.volumes[0]">
<path fill="none" stroke="red" stroke-dasharray="1,5" d="M141.4,-792.18C141.4,-792.18 141.4,-558.07 141.4,-558.07"/>
<polygon fill="red" stroke="red" points="144.9,-558.07 141.4,-548.07 137.9,-558.07 144.9,-558.07"/>
</a>
</g>
</g>
<!-- b6c5be752bbb4d09a4b839e7523dab2c -->
<g id="node5" class="node">
<title>b6c5be752bbb4d09a4b839e7523dab2c</title>
<g id="a_node5"><a xlink:title="kind: PersistentVolumeClaim&#10;apiVersion: v1&#10;metadata:&#10; &#160;name: cassandra&#45;data&#45;cassandra&#10;...">
<image xlink:href="https://raw.githubusercontent.com/mingrammer/diagrams/refs/heads/master/resources/k8s/storage/pvc.png" width="100.8px" height="100.8px" preserveAspectRatio="xMinYMin meet" x="49.6" y="-324"/>
<text text-anchor="middle" x="100" y="-205.45" font-family="Sans-Serif" font-size="13.00" fill="#2d3436">cassandra&#45;data</text>
<text text-anchor="middle" x="100" y="-191.95" font-family="Sans-Serif" font-size="13.00" fill="#2d3436">&#45;cassandra</text>
</a>
</g>
</g>
<!-- b6c5be752bbb4d09a4b839e7523dab2c&#45;&gt;fe200e304c074da0bcd57092cb93cae3 -->
<g id="edge8" class="edge">
<title>b6c5be752bbb4d09a4b839e7523dab2c&#45;&gt;fe200e304c074da0bcd57092cb93cae3</title>
<g id="a_edge8"><a xlink:title="spec.storageClassName: fast">
<path fill="none" stroke="black" d="M100,-191.02C100,-191.02 100,-147.67 100,-147.67"/>
<polygon fill="black" stroke="black" points="103.5,-147.67 100,-137.67 96.5,-147.67 103.5,-147.67"/>
</a>
</g>
</g>
<!-- 4e467a18307345209d89fd867a735d33&#45;&gt;65dcc5b14e5b44c0b2b4ef246651135d -->
<g id="edge6" class="edge">
<title>4e467a18307345209d89fd867a735d33&#45;&gt;65dcc5b14e5b44c0b2b4ef246651135d</title>
<g id="a_edge6"><a xlink:title="spec.volumeMounts[0]:&#10; &#160;mountPath: /cassandra_data&#10; &#160;name: cassandra&#45;data">
<path fill="none" stroke="red" d="M91,-601.26C91,-601.26 91,-557.99 91,-557.99"/>
<polygon fill="red" stroke="red" points="94.5,-557.99 91,-547.99 87.5,-557.99 94.5,-557.99"/>
</a>
</g>
</g>
<!-- 65dcc5b14e5b44c0b2b4ef246651135d&#45;&gt;b6c5be752bbb4d09a4b839e7523dab2c -->
<g id="edge7" class="edge">
<title>65dcc5b14e5b44c0b2b4ef246651135d&#45;&gt;b6c5be752bbb4d09a4b839e7523dab2c</title>
<g id="a_edge7"><a xlink:title="spec.persistentVolumeClaim.claimName: cassandra&#45;data&#45;cassandra">
<path fill="none" stroke="black" d="M100,-410.47C100,-410.47 100,-367.25 100,-367.25"/>
<polygon fill="black" stroke="black" points="103.5,-367.25 100,-357.25 96.5,-367.25 103.5,-367.25"/>
</a>
</g>
</g>
</g>
</svg>
