<?xml version="1.0" encoding="UTF-8" standalone="no"?>
<!DOCTYPE svg PUBLIC "-//W3C//DTD SVG 1.1//EN"
 "http://www.w3.org/Graphics/SVG/1.1/DTD/svg11.dtd">
<!-- Generated by graphviz version 8.1.0 (20230707.0739)
 -->
<!-- Pages: 1 -->
<svg width="790pt" height="1791pt"
 viewBox="0.00 0.00 790.00 1790.70" xmlns="http://www.w3.org/2000/svg" xmlns:xlink="http://www.w3.org/1999/xlink">
<g id="graph0" class="graph" transform="scale(1 1) rotate(0) translate(144 1646.7)">
<polygon fill="white" stroke="none" points="-144,144 -144,-1646.7 646,-1646.7 646,144 -144,144"/>
<g id="clust1" class="cluster">
<title>cluster_Namespace: default</title>
<g id="a_clust1"><a xlink:title="Namespace: default">
<path fill="white" stroke="black" stroke-dasharray="5,2" d="M20,-8C20,-8 482,-8 482,-8 488,-8 494,-14 494,-20 494,-20 494,-1482.7 494,-1482.7 494,-1488.7 488,-1494.7 482,-1494.7 482,-1494.7 20,-1494.7 20,-1494.7 14,-1494.7 8,-1488.7 8,-1482.7 8,-1482.7 8,-20 8,-20 8,-14 14,-8 20,-8"/>
<image xlink:href="https://raw.githubusercontent.com/mingrammer/diagrams/refs/heads/master/resources/k8s/group/ns.png" width="60px" height="60px" preserveAspectRatio="xMinYMin meet" x="20" y="-1486.7"/>
<text text-anchor="start" x="32" y="-1409.3" font-family="Sans-Serif" font-size="12.00" fill="#2d3436">default</text>
</a>
</g>
</g>
<g id="clust2" class="cluster">
<title>cluster_Application: wordpress</title>
<g id="a_clust2"><a xlink:title="Application: wordpress">
<path fill="#ece8f6" stroke="#aeb6be" d="M28,-16C28,-16 474,-16 474,-16 480,-16 486,-22 486,-28 486,-28 486,-1379.95 486,-1379.95 486,-1385.95 480,-1391.95 474,-1391.95 474,-1391.95 28,-1391.95 28,-1391.95 22,-1391.95 16,-1385.95 16,-1379.95 16,-1379.95 16,-28 16,-28 16,-22 22,-16 28,-16"/>
<text text-anchor="middle" x="84.75" y="-1376.55" font-family="Sans-Serif" font-size="12.00" fill="#2d3436">Application: wordpress</text>
</a>
</g>
</g>
<g id="clust3" class="cluster">
<title>cluster_Tier: mysql</title>
<g id="a_clust3"><a xlink:title="Tier: mysql">
<path fill="#ece8f6" stroke="#aeb6be" d="M321,-213.2C321,-213.2 466,-213.2 466,-213.2 472,-213.2 478,-219.2 478,-225.2 478,-225.2 478,-807.55 478,-807.55 478,-813.55 472,-819.55 466,-819.55 466,-819.55 321,-819.55 321,-819.55 315,-819.55 309,-813.55 309,-807.55 309,-807.55 309,-225.2 309,-225.2 309,-219.2 315,-213.2 321,-213.2"/>
<text text-anchor="middle" x="345.5" y="-804.15" font-family="Sans-Serif" font-size="12.00" fill="#2d3436">Tier: mysql</text>
</a>
</g>
</g>
<g id="clust4" class="cluster">
<title>cluster_containers</title>
<g id="a_clust4"><a xlink:title="containers">
<path fill="beige" stroke="blue" stroke-dasharray="1,5" d="M329,-455.2C329,-455.2 421,-455.2 421,-455.2 427,-455.2 433,-461.2 433,-467.2 433,-467.2 433,-616.75 433,-616.75 433,-622.75 427,-628.75 421,-628.75 421,-628.75 329,-628.75 329,-628.75 323,-628.75 317,-622.75 317,-616.75 317,-616.75 317,-467.2 317,-467.2 317,-461.2 323,-455.2 329,-455.2"/>
<text text-anchor="middle" x="352.75" y="-613.35" font-family="Sans-Serif" font-size="12.00" fill="#2d3436">containers</text>
</a>
</g>
</g>
<g id="clust5" class="cluster">
<title>cluster_volumes</title>
<g id="a_clust5"><a xlink:title="volumes">
<path fill="beige" stroke="red" stroke-dasharray="1,5" d="M357,-221.2C357,-221.2 449,-221.2 449,-221.2 455,-221.2 461,-227.2 461,-233.2 461,-233.2 461,-411.55 461,-411.55 461,-417.55 455,-423.55 449,-423.55 449,-423.55 357,-423.55 357,-423.55 351,-423.55 345,-417.55 345,-411.55 345,-411.55 345,-233.2 345,-233.2 345,-227.2 351,-221.2 357,-221.2"/>
<text text-anchor="middle" x="375.5" y="-408.15" font-family="Sans-Serif" font-size="12.00" fill="#2d3436">volumes</text>
</a>
</g>
</g>
<g id="clust6" class="cluster">
<title>cluster_Tier: frontend</title>
<g id="a_clust6"><a xlink:title="Tier: frontend">
<path fill="#ece8f6" stroke="#aeb6be" d="M36,-198.8C36,-198.8 181,-198.8 181,-198.8 187,-198.8 193,-204.8 193,-210.8 193,-210.8 193,-807.55 193,-807.55 193,-813.55 187,-819.55 181,-819.55 181,-819.55 36,-819.55 36,-819.55 30,-819.55 24,-813.55 24,-807.55 24,-807.55 24,-210.8 24,-210.8 24,-204.8 30,-198.8 36,-198.8"/>
<text text-anchor="middle" x="66.5" y="-804.15" font-family="Sans-Serif" font-size="12.00" fill="#2d3436">Tier: frontend</text>
</a>
</g>
</g>
<g id="clust7" class="cluster">
<title>cluster_containers</title>
<g id="a_clust7"><a xlink:title="containers">
<path fill="beige" stroke="blue" stroke-dasharray="1,5" d="M81,-455.2C81,-455.2 173,-455.2 173,-455.2 179,-455.2 185,-461.2 185,-467.2 185,-467.2 185,-616.75 185,-616.75 185,-622.75 179,-628.75 173,-628.75 173,-628.75 81,-628.75 81,-628.75 75,-628.75 69,-622.75 69,-616.75 69,-616.75 69,-467.2 69,-467.2 69,-461.2 75,-455.2 81,-455.2"/>
<text text-anchor="middle" x="104.75" y="-613.35" font-family="Sans-Serif" font-size="12.00" fill="#2d3436">containers</text>
</a>
</g>
</g>
<g id="clust8" class="cluster">
<title>cluster_volumes</title>
<g id="a_clust8"><a xlink:title="volumes">
<path fill="beige" stroke="red" stroke-dasharray="1,5" d="M52,-206.8C52,-206.8 144,-206.8 144,-206.8 150,-206.8 156,-212.8 156,-218.8 156,-218.8 156,-425.95 156,-425.95 156,-431.95 150,-437.95 144,-437.95 144,-437.95 52,-437.95 52,-437.95 46,-437.95 40,-431.95 40,-425.95 40,-425.95 40,-218.8 40,-218.8 40,-212.8 46,-206.8 52,-206.8"/>
<text text-anchor="middle" x="70.5" y="-422.55" font-family="Sans-Serif" font-size="12.00" fill="#2d3436">volumes</text>
</a>
</g>
</g>
<!-- 75c7e5555b54463b9f27d026fabf43f8 -->
<g id="node1" class="node">
<title>75c7e5555b54463b9f27d026fabf43f8</title>
<g id="a_node1"><a xlink:title="kind: Service&#10;apiVersion: v1&#10;metadata:&#10; &#160;name: wordpress&#45;mysql&#10;...">
<image xlink:href="https://raw.githubusercontent.com/mingrammer/diagrams/refs/heads/master/resources/k8s/network/svc.png" width="100.8px" height="100.8px" preserveAspectRatio="xMinYMin meet" x="346.6" y="-1345.2"/>
<text text-anchor="middle" x="397" y="-1227.55" font-family="Sans-Serif" font-size="13.00" fill="#2d3436">wordpress&#45;mysql</text>
</a>
</g>
</g>
<!-- 4ad110b0c5cb4bb583151ca818de8d79 -->
<g id="node3" class="node">
<title>4ad110b0c5cb4bb583151ca818de8d79</title>
<g id="a_node3"><a xlink:title="kind: Deployment&#10;apiVersion: apps/v1&#10;metadata:&#10; &#160;name: wordpress&#45;mysql&#10;...">
<image xlink:href="https://raw.githubusercontent.com/mingrammer/diagrams/refs/heads/master/resources/k8s/compute/deploy.png" width="100.8px" height="100.8px" preserveAspectRatio="xMinYMin meet" x="346.6" y="-1154.4"/>
<text text-anchor="middle" x="397" y="-1036.75" font-family="Sans-Serif" font-size="13.00" fill="#2d3436">wordpress&#45;mysql</text>
</a>
</g>
</g>
<!-- 75c7e5555b54463b9f27d026fabf43f8&#45;&gt;4ad110b0c5cb4bb583151ca818de8d79 -->
<g id="edge1" class="edge">
<title>75c7e5555b54463b9f27d026fabf43f8&#45;&gt;4ad110b0c5cb4bb583151ca818de8d79</title>
<g id="a_edge1"><a xlink:title="spec.selector:&#10; &#160;app: wordpress&#10; &#160;tier: mysql">
<path fill="none" stroke="black" stroke-dasharray="5,2" d="M397,-1226.46C397,-1226.46 397,-1183.19 397,-1183.19"/>
<polygon fill="black" stroke="black" points="400.5,-1183.19 397,-1173.19 393.5,-1183.19 400.5,-1183.19"/>
</a>
</g>
<text text-anchor="middle" x="374.88" y="-1206.57" font-family="Sans-Serif" font-size="10.00" fill="#2d3436">3306/TCP</text>
</g>
<!-- d293dfb4af09453ab9ec881e5acac0fc -->
<g id="node2" class="node">
<title>d293dfb4af09453ab9ec881e5acac0fc</title>
<g id="a_node2"><a xlink:title="kind: PersistentVolumeClaim&#10;apiVersion: v1&#10;metadata:&#10; &#160;name: mysql&#45;pv&#45;claim&#10;...">
<image xlink:href="https://raw.githubusercontent.com/mingrammer/diagrams/refs/heads/master/resources/k8s/storage/pvc.png" width="100.8px" height="100.8px" preserveAspectRatio="xMinYMin meet" x="352.6" y="-142.8"/>
<text text-anchor="middle" x="403" y="-25.15" font-family="Sans-Serif" font-size="13.00" fill="#2d3436">mysql&#45;pv&#45;claim</text>
</a>
</g>
</g>
<!-- ae6110aff68b487297a098d177733083 -->
<g id="node8" class="node">
<title>ae6110aff68b487297a098d177733083</title>
<g id="a_node8"><a xlink:title="kind: ReplicaSet&#10;apiVersion: apps/v1&#10;metadata:&#10; &#160;name: wordpress&#45;mysql&#10;...">
<image xlink:href="https://raw.githubusercontent.com/mingrammer/diagrams/refs/heads/master/resources/k8s/compute/rs.png" width="100.8px" height="100.8px" preserveAspectRatio="xMinYMin meet" x="346.6" y="-963.6"/>
<text text-anchor="middle" x="397" y="-845.95" font-family="Sans-Serif" font-size="13.00" fill="#2d3436">wordpress&#45;mysql</text>
</a>
</g>
</g>
<!-- 4ad110b0c5cb4bb583151ca818de8d79&#45;&gt;ae6110aff68b487297a098d177733083 -->
<g id="edge2" class="edge">
<title>4ad110b0c5cb4bb583151ca818de8d79&#45;&gt;ae6110aff68b487297a098d177733083</title>
<g id="a_edge2"><a xlink:title="owns">
<path fill="none" stroke="gray" stroke-dasharray="1,5" d="M397,-1035.66C397,-1035.66 397,-992.39 397,-992.39"/>
<polygon fill="gray" stroke="gray" points="400.5,-992.39 397,-982.39 393.5,-992.39 400.5,-992.39"/>
</a>
</g>
<text text-anchor="middle" x="351.62" y="-1015.17" font-family="Sans-Serif" font-size="13.00" fill="#2d3436">has ReplicaSet</text>
</g>
<!-- a824077eb1af458c966a1f30bd67200c -->
<g id="node4" class="node">
<title>a824077eb1af458c966a1f30bd67200c</title>
<g id="a_node4"><a xlink:title="kind: Secret&#10;apiVersion: v1&#10;metadata:&#10; &#160;name: mysql&#45;pass&#10;...">
<image xlink:href="https://raw.githubusercontent.com/mingrammer/diagrams/refs/heads/master/resources/k8s/podconfig/secret.png" width="100.8px" height="100.8px" preserveAspectRatio="xMinYMin meet" x="200.6" y="-362.4"/>
<text text-anchor="middle" x="251" y="-244.75" font-family="Sans-Serif" font-size="13.00" fill="#2d3436">mysql&#45;pass</text>
</a>
</g>
</g>
<!-- 3d4df8477cbd43aaa55a95a666b74bfe -->
<g id="node5" class="node">
<title>3d4df8477cbd43aaa55a95a666b74bfe</title>
<g id="a_node5"><a xlink:title="kind: Service&#10;apiVersion: v1&#10;metadata:&#10; &#160;name: wordpress&#10;...">
<image xlink:href="https://raw.githubusercontent.com/mingrammer/diagrams/refs/heads/master/resources/k8s/network/svc.png" width="100.8px" height="100.8px" preserveAspectRatio="xMinYMin meet" x="53.6" y="-1345.2"/>
<text text-anchor="middle" x="104" y="-1227.55" font-family="Sans-Serif" font-size="13.00" fill="#2d3436">wordpress</text>
</a>
</g>
</g>
<!-- 9ddfe68e6abf463680108cd4100f8aa9 -->
<g id="node7" class="node">
<title>9ddfe68e6abf463680108cd4100f8aa9</title>
<g id="a_node7"><a xlink:title="kind: Deployment&#10;apiVersion: apps/v1&#10;metadata:&#10; &#160;name: wordpress&#10;...">
<image xlink:href="https://raw.githubusercontent.com/mingrammer/diagrams/refs/heads/master/resources/k8s/compute/deploy.png" width="100.8px" height="100.8px" preserveAspectRatio="xMinYMin meet" x="53.6" y="-1154.4"/>
<text text-anchor="middle" x="104" y="-1036.75" font-family="Sans-Serif" font-size="13.00" fill="#2d3436">wordpress</text>
</a>
</g>
</g>
<!-- 3d4df8477cbd43aaa55a95a666b74bfe&#45;&gt;9ddfe68e6abf463680108cd4100f8aa9 -->
<g id="edge3" class="edge">
<title>3d4df8477cbd43aaa55a95a666b74bfe&#45;&gt;9ddfe68e6abf463680108cd4100f8aa9</title>
<g id="a_edge3"><a xlink:title="spec.selector:&#10; &#160;app: wordpress&#10; &#160;tier: frontend">
<path fill="none" stroke="black" stroke-dasharray="5,2" d="M104,-1226.46C104,-1226.46 104,-1183.19 104,-1183.19"/>
<polygon fill="black" stroke="black" points="107.5,-1183.19 104,-1173.19 100.5,-1183.19 107.5,-1183.19"/>
</a>
</g>
<text text-anchor="middle" x="87.12" y="-1206.57" font-family="Sans-Serif" font-size="10.00" fill="#2d3436">80/TCP</text>
</g>
<!-- 84339f263e834ef185a5d7616ecfe2bb -->
<g id="node6" class="node">
<title>84339f263e834ef185a5d7616ecfe2bb</title>
<g id="a_node6"><a xlink:title="kind: PersistentVolumeClaim&#10;apiVersion: v1&#10;metadata:&#10; &#160;name: wp&#45;pv&#45;claim&#10;...">
<image xlink:href="https://raw.githubusercontent.com/mingrammer/diagrams/refs/heads/master/resources/k8s/storage/pvc.png" width="100.8px" height="100.8px" preserveAspectRatio="xMinYMin meet" x="47.6" y="-142.8"/>
<text text-anchor="middle" x="98" y="-25.15" font-family="Sans-Serif" font-size="13.00" fill="#2d3436">wp&#45;pv&#45;claim</text>
</a>
</g>
</g>
<!-- 2c0b09f137b94c5498dd9dca028efcdf -->
<g id="node9" class="node">
<title>2c0b09f137b94c5498dd9dca028efcdf</title>
<g id="a_node9"><a xlink:title="kind: ReplicaSet&#10;apiVersion: apps/v1&#10;metadata:&#10; &#160;name: wordpress&#10;...">
<image xlink:href="https://raw.githubusercontent.com/mingrammer/diagrams/refs/heads/master/resources/k8s/compute/rs.png" width="100.8px" height="100.8px" preserveAspectRatio="xMinYMin meet" x="53.6" y="-963.6"/>
<text text-anchor="middle" x="104" y="-845.95" font-family="Sans-Serif" font-size="13.00" fill="#2d3436">wordpress</text>
</a>
</g>
</g>
<!-- 9ddfe68e6abf463680108cd4100f8aa9&#45;&gt;2c0b09f137b94c5498dd9dca028efcdf -->
<g id="edge4" class="edge">
<title>9ddfe68e6abf463680108cd4100f8aa9&#45;&gt;2c0b09f137b94c5498dd9dca028efcdf</title>
<g id="a_edge4"><a xlink:title="owns">
<path fill="none" stroke="gray" stroke-dasharray="1,5" d="M104,-1035.66C104,-1035.66 104,-992.39 104,-992.39"/>
<polygon fill="gray" stroke="gray" points="107.5,-992.39 104,-982.39 100.5,-992.39 107.5,-992.39"/>
</a>
</g>
<text text-anchor="middle" x="58.63" y="-1015.17" font-family="Sans-Serif" font-size="13.00" fill="#2d3436">has ReplicaSet</text>
</g>
<!-- eb5c02e5345f46f89c3ca5833271902c -->
<g id="node10" class="node">
<title>eb5c02e5345f46f89c3ca5833271902c</title>
<g id="a_node10"><a xlink:title="kind: Pod&#10;apiVersion: v1&#10;metadata:&#10; &#160;name: wordpress&#45;mysql&#10;...">
<image xlink:href="https://raw.githubusercontent.com/mingrammer/diagrams/refs/heads/master/resources/k8s/compute/pod.png" width="100.8px" height="100.8px" preserveAspectRatio="xMinYMin meet" x="346.6" y="-772.8"/>
<text text-anchor="middle" x="397" y="-655.15" font-family="Sans-Serif" font-size="13.00" fill="#2d3436">wordpress&#45;mysql</text>
</a>
</g>
</g>
<!-- ae6110aff68b487297a098d177733083&#45;&gt;eb5c02e5345f46f89c3ca5833271902c -->
<g id="edge5" class="edge">
<title>ae6110aff68b487297a098d177733083&#45;&gt;eb5c02e5345f46f89c3ca5833271902c</title>
<g id="a_edge5"><a xlink:title="owns">
<path fill="none" stroke="gray" stroke-dasharray="1,5" d="M397,-844.86C397,-844.86 397,-801.59 397,-801.59"/>
<polygon fill="gray" stroke="gray" points="400.5,-801.59 397,-791.59 393.5,-801.59 400.5,-801.59"/>
</a>
</g>
<text text-anchor="middle" x="359.5" y="-824.37" font-family="Sans-Serif" font-size="13.00" fill="#2d3436">controls Pod</text>
</g>
<!-- 342c841fc8e8402eb032a57bd77ac52f -->
<g id="node13" class="node">
<title>342c841fc8e8402eb032a57bd77ac52f</title>
<g id="a_node13"><a xlink:title="kind: Pod&#10;apiVersion: v1&#10;metadata:&#10; &#160;name: wordpress&#10;...">
<image xlink:href="https://raw.githubusercontent.com/mingrammer/diagrams/refs/heads/master/resources/k8s/compute/pod.png" width="100.8px" height="100.8px" preserveAspectRatio="xMinYMin meet" x="53.6" y="-772.8"/>
<text text-anchor="middle" x="104" y="-655.15" font-family="Sans-Serif" font-size="13.00" fill="#2d3436">wordpress</text>
</a>
</g>
</g>
<!-- 2c0b09f137b94c5498dd9dca028efcdf&#45;&gt;342c841fc8e8402eb032a57bd77ac52f -->
<g id="edge12" class="edge">
<title>2c0b09f137b94c5498dd9dca028efcdf&#45;&gt;342c841fc8e8402eb032a57bd77ac52f</title>
<g id="a_edge12"><a xlink:title="owns">
<path fill="none" stroke="gray" stroke-dasharray="1,5" d="M104,-844.86C104,-844.86 104,-801.59 104,-801.59"/>
<polygon fill="gray" stroke="gray" points="107.5,-801.59 104,-791.59 100.5,-801.59 107.5,-801.59"/>
</a>
</g>
<text text-anchor="middle" x="66.5" y="-824.37" font-family="Sans-Serif" font-size="13.00" fill="#2d3436">controls Pod</text>
</g>
<!-- 44615dd4c6ad4fb8b2e41667a62b94d8 -->
<g id="node11" class="node">
<title>44615dd4c6ad4fb8b2e41667a62b94d8</title>
<g id="a_node11"><a xlink:title="kind: Container&#10;apiVersion: v1&#10;metadata:&#10; &#160;name: mysql&#10;...">
<image xlink:href="https://raw.githubusercontent.com/philippemerle/KubeDiagrams/refs/heads/main/bin/icons/container.png" width="100.8px" height="98.4375px" preserveAspectRatio="xMinYMin meet" x="324.6" y="-580.819"/>
<text text-anchor="middle" x="375" y="-464.35" font-family="Sans-Serif" font-size="13.00" fill="#2d3436">mysql</text>
</a>
</g>
</g>
<!-- eb5c02e5345f46f89c3ca5833271902c&#45;&gt;44615dd4c6ad4fb8b2e41667a62b94d8 -->
<g id="edge6" class="edge">
<title>eb5c02e5345f46f89c3ca5833271902c&#45;&gt;44615dd4c6ad4fb8b2e41667a62b94d8</title>
<g id="a_edge6"><a xlink:title="spec.containers[0]">
<path fill="none" stroke="blue" stroke-dasharray="1,5" d="M386,-654.06C386,-654.06 386,-610.79 386,-610.79"/>
<polygon fill="blue" stroke="blue" points="389.5,-610.79 386,-600.79 382.5,-610.79 389.5,-610.79"/>
</a>
</g>
</g>
<!-- cdc3ee16eed8433eb1f8ef7d87e5b634 -->
<g id="node12" class="node">
<title>cdc3ee16eed8433eb1f8ef7d87e5b634</title>
<g id="a_node12"><a xlink:title="kind: PodVolume&#10;apiVersion: v1&#10;metadata:&#10; &#160;name: mysql&#45;persistent&#45;storage&#10;...">
<image xlink:href="https://raw.githubusercontent.com/mingrammer/diagrams/refs/heads/master/resources/k8s/storage/vol.png" width="100.8px" height="100.8px" preserveAspectRatio="xMinYMin meet" x="352.6" y="-362.4"/>
<text text-anchor="middle" x="403" y="-243.85" font-family="Sans-Serif" font-size="13.00" fill="#2d3436">mysql&#45;persistent</text>
<text text-anchor="middle" x="403" y="-230.35" font-family="Sans-Serif" font-size="13.00" fill="#2d3436">&#45;storage</text>
</a>
</g>
</g>
<!-- eb5c02e5345f46f89c3ca5833271902c&#45;&gt;cdc3ee16eed8433eb1f8ef7d87e5b634 -->
<g id="edge7" class="edge">
<title>eb5c02e5345f46f89c3ca5833271902c&#45;&gt;cdc3ee16eed8433eb1f8ef7d87e5b634</title>
<g id="a_edge7"><a xlink:title="spec.volumes[0]">
<path fill="none" stroke="red" stroke-dasharray="1,5" d="M436.4,-654.17C436.4,-654.17 436.4,-405.56 436.4,-405.56"/>
<polygon fill="red" stroke="red" points="439.9,-405.56 436.4,-395.56 432.9,-405.56 439.9,-405.56"/>
</a>
</g>
</g>
<!-- 44615dd4c6ad4fb8b2e41667a62b94d8&#45;&gt;a824077eb1af458c966a1f30bd67200c -->
<g id="edge8" class="edge">
<title>44615dd4c6ad4fb8b2e41667a62b94d8&#45;&gt;a824077eb1af458c966a1f30bd67200c</title>
<g id="a_edge8"><a xlink:title="spec.env[0]:&#10; &#160;name: MYSQL_ROOT_PASSWORD&#10; &#160;valueFrom:&#10; &#160;&#160;&#160;secretKeyRef:&#10; &#160;&#160;&#160;&#160;&#160;key: password&#10; &#160;&#160;&#160;&#160;&#160;name: mysql&#45;pass">
<path fill="none" stroke="black" d="M333.93,-463.32C333.93,-406.21 333.93,-334 333.93,-334 333.93,-334 312.16,-334 312.16,-334"/>
<polygon fill="black" stroke="black" points="312.16,-330.5 302.16,-334 312.16,-337.5 312.16,-330.5"/>
</a>
</g>
</g>
<!-- 44615dd4c6ad4fb8b2e41667a62b94d8&#45;&gt;a824077eb1af458c966a1f30bd67200c -->
<g id="edge9" class="edge">
<title>44615dd4c6ad4fb8b2e41667a62b94d8&#45;&gt;a824077eb1af458c966a1f30bd67200c</title>
<g id="a_edge9"><a xlink:title="spec.env[3]:&#10; &#160;name: MYSQL_PASSWORD&#10; &#160;valueFrom:&#10; &#160;&#160;&#160;secretKeyRef:&#10; &#160;&#160;&#160;&#160;&#160;key: password&#10; &#160;&#160;&#160;&#160;&#160;name: mysql&#45;pass">
<path fill="none" stroke="black" d="M343.27,-463.38C343.27,-391.62 343.27,-289 343.27,-289 343.27,-289 312.18,-289 312.18,-289"/>
<polygon fill="black" stroke="black" points="312.18,-285.5 302.18,-289 312.18,-292.5 312.18,-285.5"/>
</a>
</g>
</g>
<!-- 44615dd4c6ad4fb8b2e41667a62b94d8&#45;&gt;cdc3ee16eed8433eb1f8ef7d87e5b634 -->
<g id="edge10" class="edge">
<title>44615dd4c6ad4fb8b2e41667a62b94d8&#45;&gt;cdc3ee16eed8433eb1f8ef7d87e5b634</title>
<g id="a_edge10"><a xlink:title="spec.volumeMounts[0]:&#10; &#160;mountPath: /var/lib/mysql&#10; &#160;name: mysql&#45;persistent&#45;storage">
<path fill="none" stroke="red" d="M389,-463.32C389,-463.32 389,-405.52 389,-405.52"/>
<polygon fill="red" stroke="red" points="392.5,-405.52 389,-395.52 385.5,-405.52 392.5,-405.52"/>
</a>
</g>
</g>
<!-- cdc3ee16eed8433eb1f8ef7d87e5b634&#45;&gt;d293dfb4af09453ab9ec881e5acac0fc -->
<g id="edge11" class="edge">
<title>cdc3ee16eed8433eb1f8ef7d87e5b634&#45;&gt;d293dfb4af09453ab9ec881e5acac0fc</title>
<g id="a_edge11"><a xlink:title="spec.persistentVolumeClaim.claimName: mysql&#45;pv&#45;claim">
<path fill="none" stroke="black" d="M403,-229.29C403,-229.29 403,-171.72 403,-171.72"/>
<polygon fill="black" stroke="black" points="406.5,-171.72 403,-161.72 399.5,-171.72 406.5,-171.72"/>
</a>
</g>
</g>
<!-- b037c9f725d6482790d262f405b54538 -->
<g id="node14" class="node">
<title>b037c9f725d6482790d262f405b54538</title>
<g id="a_node14"><a xlink:title="kind: Container&#10;apiVersion: v1&#10;metadata:&#10; &#160;name: wordpress&#10;...">
<image xlink:href="https://raw.githubusercontent.com/philippemerle/KubeDiagrams/refs/heads/main/bin/icons/container.png" width="100.8px" height="98.4375px" preserveAspectRatio="xMinYMin meet" x="76.6" y="-580.819"/>
<text text-anchor="middle" x="127" y="-464.35" font-family="Sans-Serif" font-size="13.00" fill="#2d3436">wordpress</text>
</a>
</g>
</g>
<!-- 342c841fc8e8402eb032a57bd77ac52f&#45;&gt;b037c9f725d6482790d262f405b54538 -->
<g id="edge13" class="edge">
<title>342c841fc8e8402eb032a57bd77ac52f&#45;&gt;b037c9f725d6482790d262f405b54538</title>
<g id="a_edge13"><a xlink:title="spec.containers[0]">
<path fill="none" stroke="blue" stroke-dasharray="1,5" d="M115.5,-654.06C115.5,-654.06 115.5,-610.79 115.5,-610.79"/>
<polygon fill="blue" stroke="blue" points="119,-610.79 115.5,-600.79 112,-610.79 119,-610.79"/>
</a>
</g>
</g>
<!-- 462f9208cb404687bba97e1fe0ed8014 -->
<g id="node15" class="node">
<title>462f9208cb404687bba97e1fe0ed8014</title>
<g id="a_node15"><a xlink:title="kind: PodVolume&#10;apiVersion: v1&#10;metadata:&#10; &#160;name: wordpress&#45;persistent&#45;storage&#10;...">
<image xlink:href="https://raw.githubusercontent.com/mingrammer/diagrams/refs/heads/master/resources/k8s/storage/vol.png" width="100.8px" height="100.8px" preserveAspectRatio="xMinYMin meet" x="47.6" y="-362.4"/>
<text text-anchor="middle" x="98" y="-242.95" font-family="Sans-Serif" font-size="13.00" fill="#2d3436">wordpress</text>
<text text-anchor="middle" x="98" y="-229.45" font-family="Sans-Serif" font-size="13.00" fill="#2d3436">&#45;persistent</text>
<text text-anchor="middle" x="98" y="-215.95" font-family="Sans-Serif" font-size="13.00" fill="#2d3436">&#45;storage</text>
</a>
</g>
</g>
<!-- 342c841fc8e8402eb032a57bd77ac52f&#45;&gt;462f9208cb404687bba97e1fe0ed8014 -->
<g id="edge14" class="edge">
<title>342c841fc8e8402eb032a57bd77ac52f&#45;&gt;462f9208cb404687bba97e1fe0ed8014</title>
<g id="a_edge14"><a xlink:title="spec.volumes[0]">
<path fill="none" stroke="red" stroke-dasharray="1,5" d="M65.1,-654.17C65.1,-654.17 65.1,-419.83 65.1,-419.83"/>
<polygon fill="red" stroke="red" points="68.6,-419.83 65.1,-409.83 61.6,-419.83 68.6,-419.83"/>
</a>
</g>
</g>
<!-- b037c9f725d6482790d262f405b54538&#45;&gt;a824077eb1af458c966a1f30bd67200c -->
<g id="edge15" class="edge">
<title>b037c9f725d6482790d262f405b54538&#45;&gt;a824077eb1af458c966a1f30bd67200c</title>
<g id="a_edge15"><a xlink:title="spec.env[1]:&#10; &#160;name: WORDPRESS_DB_PASSWORD&#10; &#160;valueFrom:&#10; &#160;&#160;&#160;secretKeyRef:&#10; &#160;&#160;&#160;&#160;&#160;key: password&#10; &#160;&#160;&#160;&#160;&#160;name: mysql&#45;pass">
<path fill="none" stroke="black" d="M162.9,-463.32C162.9,-398.86 162.9,-312 162.9,-312 162.9,-312 189.77,-312 189.77,-312"/>
<polygon fill="black" stroke="black" points="189.77,-315.5 199.77,-312 189.77,-308.5 189.77,-315.5"/>
</a>
</g>
</g>
<!-- b037c9f725d6482790d262f405b54538&#45;&gt;462f9208cb404687bba97e1fe0ed8014 -->
<g id="edge16" class="edge">
<title>b037c9f725d6482790d262f405b54538&#45;&gt;462f9208cb404687bba97e1fe0ed8014</title>
<g id="a_edge16"><a xlink:title="spec.volumeMounts[0]:&#10; &#160;mountPath: /var/www/html&#10; &#160;name: wordpress&#45;persistent&#45;storage">
<path fill="none" stroke="red" d="M112.5,-463.32C112.5,-463.32 112.5,-419.86 112.5,-419.86"/>
<polygon fill="red" stroke="red" points="116,-419.86 112.5,-409.86 109,-419.86 116,-419.86"/>
</a>
</g>
</g>
<!-- 462f9208cb404687bba97e1fe0ed8014&#45;&gt;84339f263e834ef185a5d7616ecfe2bb -->
<g id="edge17" class="edge">
<title>462f9208cb404687bba97e1fe0ed8014&#45;&gt;84339f263e834ef185a5d7616ecfe2bb</title>
<g id="a_edge17"><a xlink:title="spec.persistentVolumeClaim.claimName: wp&#45;pv&#45;claim">
<path fill="none" stroke="black" d="M98,-215.04C98,-215.04 98,-171.53 98,-171.53"/>
<polygon fill="black" stroke="black" points="101.5,-171.53 98,-161.53 94.5,-171.53 101.5,-171.53"/>
</a>
</g>
</g>
</g>
</svg>
